<svg width="431" height="431" viewBox="0 0 431 431" fill="none" xmlns="http://www.w3.org/2000/svg">
<path d="M199.518 51.9959C200.31 51.8299 201.042 51.4517 201.635 50.9017C202.228 50.3518 202.66 49.6508 202.885 48.8739C203.11 48.097 203.119 47.2736 202.912 46.4918C202.704 45.7101 202.288 44.9994 201.708 44.4361C202.068 44.2454 202.388 43.9855 202.648 43.6713C202.908 43.3571 203.104 42.9948 203.224 42.605C203.344 42.2151 203.386 41.8055 203.348 41.3994C203.31 40.9933 203.192 40.5987 203.001 40.2382C202.81 39.8777 202.55 39.5582 202.236 39.2981C201.922 39.038 201.56 38.8423 201.17 38.7223C200.78 38.6022 200.37 38.5601 199.964 38.5984C199.558 38.6366 199.164 38.7545 198.803 38.9452C198.885 38.2591 198.769 37.5638 198.469 36.9415C198.168 36.3192 197.696 35.7958 197.108 35.4333C196.519 35.0707 195.84 34.8841 195.149 34.8954C194.458 34.9067 193.785 35.1155 193.209 35.4972C192.63 35.0106 191.934 34.6847 191.19 34.552C190.446 34.4194 189.68 34.4847 188.97 34.7414C188.259 34.9981 187.628 35.4373 187.14 36.0147C186.653 36.5922 186.326 37.2877 186.192 38.0315C185.827 37.3561 185.256 36.8155 184.561 36.4891C183.867 36.1628 183.086 36.0678 182.333 36.2184C181.58 36.3689 180.896 36.7569 180.38 37.3253C179.865 37.8937 179.545 38.6126 179.468 39.3762C178.029 38.9538 176.322 38.5918 175.158 39.54C173.995 40.4882 174.012 42.0312 174.046 43.4362C174.025 45.1011 174.187 46.7633 174.529 48.3927C175.156 50.9075 176.621 53.1334 178.684 54.7026C179.68 55.744 180.986 56.4358 182.407 56.675C183.829 56.9142 185.289 56.688 186.571 56.03" fill="#263238"/>
<path d="M201.32 57.754C201.785 57.4451 202.18 57.0416 202.478 56.5697C202.776 56.0978 202.972 55.5683 203.051 55.0157C203.131 54.4632 203.093 53.9 202.94 53.3632C202.786 52.8263 202.522 52.3279 202.163 51.9004C201.803 51.4729 201.358 51.1261 200.856 50.8826C200.354 50.6391 199.805 50.5045 199.247 50.4874C198.689 50.4704 198.134 50.5714 197.618 50.7838C197.102 50.9962 196.636 51.3152 196.251 51.72C195.82 52.1423 195.389 52.694 194.803 52.7285C194.217 52.763 193.769 52.3234 193.286 52.0044C192.665 51.5931 191.939 51.3679 191.195 51.3556C190.45 51.3433 189.717 51.5442 189.083 51.9348C188.448 52.3254 187.939 52.8892 187.615 53.5599C187.29 54.2305 187.164 54.9799 187.252 55.7196C185.261 54.8576 182.503 55.1162 181.494 57.0299C180.632 58.7539 181.632 60.9692 183.287 61.9519C185.027 62.8139 187.008 63.063 188.907 62.6587C193.482 61.9857 197.736 59.9141 201.087 56.7282" fill="#6E7DAB"/>
<path d="M188.933 57.8402C188.89 57.9523 188.235 57.6937 187.752 57.0213C187.269 56.349 187.252 55.6421 187.373 55.6249C187.493 55.6077 187.7 56.1766 188.123 56.7541C188.545 57.3317 189.002 57.754 188.933 57.8402Z" fill="white"/>
<path d="M196.001 57.3403C195.872 57.3403 196.001 56.3576 195.648 55.2284C195.295 54.0992 194.786 53.3062 194.915 53.22C195.539 53.6749 195.959 54.3555 196.088 55.1164C196.354 55.8399 196.323 56.6396 196.001 57.3403Z" fill="white"/>
<path d="M199.803 56.4093C199.673 56.4093 199.923 55.418 199.699 54.2629C199.475 53.1078 198.924 52.3062 199.027 52.22C199.607 52.7304 199.999 53.4208 200.139 54.1805C200.28 54.9401 200.161 55.725 199.803 56.4093Z" fill="white"/>
<path d="M186.106 60.2711C186.106 60.3228 185.795 60.3228 185.356 60.1418C184.787 59.8869 184.301 59.4783 183.952 58.962C183.604 58.4457 183.406 57.8422 183.382 57.2196C183.382 56.7455 183.485 56.4611 183.537 56.4697C183.675 57.2543 183.94 58.0112 184.321 58.7109C185.054 59.8056 186.192 60.1504 186.106 60.2711Z" fill="white"/>
<path d="M226.706 102.466C228.169 101.989 229.405 100.99 230.178 99.6585C230.951 98.3275 231.206 96.7584 230.895 95.2511C231.739 94.6645 232.454 93.9111 232.996 93.0375C233.537 92.1639 233.894 91.1886 234.045 90.1717C234.195 89.1548 234.135 88.118 233.869 87.125C233.603 86.1321 233.137 85.2042 232.499 84.3985C233.304 83.7069 233.884 82.7893 234.162 81.7645C234.44 80.7397 234.404 79.6549 234.058 78.6509C233.713 77.6468 233.074 76.7696 232.224 76.133C231.374 75.4964 230.353 75.1296 229.292 75.0803C229.742 73.9008 229.873 72.6234 229.672 71.377C229.471 70.1306 228.945 68.9593 228.147 67.9811C227.349 67.0029 226.307 66.2524 225.126 65.8053C223.945 65.3582 222.668 65.2303 221.422 65.4345C221.619 64.1696 221.443 62.8746 220.915 61.7085C220.386 60.5425 219.528 59.5563 218.447 58.8713C217.365 58.1863 216.107 57.8323 214.827 57.8528C213.547 57.8733 212.301 58.2675 211.242 58.9868C208.018 54.6337 200.622 54.3664 197.105 58.4868C193.01 55.987 186.916 57.8576 184.925 62.2193C182.253 59.7281 177.589 60.616 175.158 63.3485C172.727 66.081 172.15 70.0118 172.443 73.6925C171.474 74.1407 170.641 74.8379 170.03 75.713C169.418 76.5881 169.05 77.6097 168.963 78.6736C168.875 79.7376 169.071 80.8057 169.531 81.7691C169.991 82.7324 170.698 83.5565 171.581 84.1572C168.202 88.3551 169.116 95.3115 173.469 98.4836C173.171 100.818 173.57 103.188 174.614 105.296C175.658 107.405 177.302 109.158 179.339 110.336" fill="#263238"/>
<path d="M183.546 81.3815L182.02 77.0715L208.983 72.7615C217.276 72.1322 225.965 80.6833 226.223 88.993C226.534 98.225 226.542 109.509 225.249 116.353C222.663 130.145 211.992 131.567 211.992 131.567L211.13 153.281L180.658 152.066L183.546 81.3815Z" fill="#FFBE9D"/>
<path d="M221.232 98.0526C221.217 98.505 221.031 98.9348 220.711 99.255C220.39 99.5751 219.961 99.7615 219.508 99.7766C219.054 99.7906 218.612 99.6245 218.28 99.3146C217.947 99.0046 217.75 98.5758 217.732 98.1215C217.745 97.6684 217.931 97.2374 218.252 96.9169C218.572 96.5964 219.003 96.4106 219.456 96.3975C219.911 96.3836 220.352 96.5496 220.685 96.8596C221.018 97.1695 221.214 97.5983 221.232 98.0526Z" fill="#263238"/>
<path d="M223.146 94.7337C222.922 94.9578 221.612 93.9234 219.698 93.8717C217.784 93.82 216.362 94.7337 216.164 94.4924C216.069 94.3803 216.302 93.9751 216.922 93.5441C217.768 92.9989 218.761 92.7253 219.767 92.7597C220.758 92.7857 221.715 93.1269 222.499 93.7338C223.077 94.2079 223.258 94.6389 223.146 94.7337Z" fill="#263238"/>
<path d="M202.389 97.0525C202.376 97.5056 202.19 97.9366 201.87 98.2572C201.549 98.5777 201.118 98.7635 200.665 98.7765C200.212 98.7906 199.772 98.6257 199.439 98.3176C199.107 98.0094 198.909 97.5828 198.889 97.1301C198.902 96.677 199.088 96.246 199.409 95.9255C199.729 95.6049 200.16 95.4191 200.613 95.4061C201.066 95.3921 201.506 95.5569 201.839 95.8651C202.171 96.1732 202.369 96.5998 202.389 97.0525Z" fill="#263238"/>
<path d="M203.958 94.5012C203.734 94.7253 202.415 93.6909 200.51 93.6392C198.605 93.5875 197.174 94.5012 196.976 94.2599C196.872 94.1564 197.105 93.7427 197.734 93.3203C198.575 92.7711 199.566 92.497 200.57 92.5359C201.564 92.5617 202.524 92.9029 203.311 93.5099C203.88 93.9582 204.07 94.3978 203.958 94.5012Z" fill="#263238"/>
<path d="M210.888 108.896C211.905 108.611 212.953 108.454 214.009 108.431C214.491 108.431 214.957 108.31 215.052 107.983C215.101 107.48 215.002 106.973 214.767 106.526L213.431 102.776C211.586 97.4318 210.268 93.0442 210.483 92.9666C210.699 92.889 212.371 97.1732 214.215 102.509L215.5 106.285C215.788 106.883 215.855 107.564 215.69 108.207C215.61 108.381 215.49 108.534 215.341 108.654C215.191 108.774 215.015 108.857 214.828 108.896C214.545 108.963 214.255 108.992 213.966 108.983C212.94 109.085 211.906 109.056 210.888 108.896Z" fill="#263238"/>
<path d="M212.052 131.558C205.385 131.466 198.87 129.556 193.208 126.033C193.208 126.033 197.596 135.851 211.948 135.006L212.052 131.558Z" fill="#EB996E"/>
<path d="M203.294 84.4759C203.19 85.019 201.268 85.0793 199.105 85.7086C196.941 86.3378 195.243 87.2257 194.872 86.8119C194.708 86.6137 194.941 86.0792 195.579 85.4672C196.324 84.5483 197.403 83.9624 198.579 83.838C199.699 83.5113 200.882 83.461 202.027 83.6915C202.863 83.8898 203.337 84.2259 203.294 84.4759Z" fill="#263238"/>
<path d="M223.103 88.7257C222.732 89.1308 221.456 88.5791 219.879 88.4412C218.302 88.3033 216.948 88.5016 216.672 88.0275C216.56 87.7947 216.802 87.3809 217.414 87.0189C218.231 86.5699 219.17 86.3918 220.094 86.5103C221.018 86.6014 221.891 86.9746 222.594 87.5792C223.12 88.0705 223.258 88.5274 223.103 88.7257Z" fill="#263238"/>
<path d="M197.338 72.4943C197.612 73.614 198.17 74.6441 198.958 75.4855C199.363 75.8911 199.903 76.1337 200.475 76.1671C201.048 76.2005 201.612 76.0223 202.061 75.6665C202.374 76.0013 202.757 76.2622 203.182 76.4302C203.608 76.5982 204.066 76.6691 204.523 76.6377C204.98 76.6063 205.423 76.4734 205.822 76.2488C206.221 76.0241 206.565 75.7133 206.828 75.339C207.501 75.9643 208.36 76.3518 209.274 76.4421C210.188 76.5324 211.106 76.3205 211.888 75.8389L216.009 76.7009C217.5 77.0285 219.362 77.2267 220.275 76.0027C220.491 75.7268 220.646 75.3648 220.965 75.2183C221.312 75.1237 221.678 75.1237 222.025 75.2183C222.622 75.2548 223.218 75.1405 223.759 74.8859C224.3 74.6313 224.768 74.2446 225.12 73.7615C225.81 72.7877 226.329 71.7032 226.654 70.5548C227.258 68.8308 227.732 66.5897 226.318 65.3829C225.729 64.9681 225.049 64.6992 224.335 64.5984C222.937 64.191 221.469 64.0794 220.025 64.2709C218.264 64.7606 216.735 65.8644 215.715 67.3827C215.863 66.9092 215.823 66.3971 215.603 65.9526C215.383 65.508 215 65.1651 214.535 64.995C213.576 64.6963 212.537 64.7893 211.647 65.2535C210.31 65.866 209.181 66.8544 208.397 68.0982C207.239 68.0979 206.104 68.4204 205.118 69.0294C204.133 69.6385 203.337 70.51 202.82 71.5462C202.302 71.2043 201.72 70.9714 201.11 70.8617C200.499 70.7521 199.873 70.7679 199.269 70.9083C199.054 70.9426 198.849 71.0199 198.666 71.1354C198.482 71.251 198.323 71.4024 198.2 71.5806C198.145 71.6714 198.11 71.7732 198.099 71.8787C198.088 71.9842 198.1 72.0909 198.134 72.1912C198.169 72.2915 198.225 72.383 198.299 72.4593C198.373 72.5355 198.463 72.5945 198.562 72.6323" fill="#263238"/>
<path d="M210.681 73.3218C210.318 74.247 210.266 75.2653 210.534 76.2225C210.801 77.1797 211.374 78.0235 212.165 78.6259C212.955 79.2284 213.921 79.5565 214.914 79.5607C215.908 79.5649 216.877 79.2448 217.672 78.649C218.009 79.5884 218.67 80.3774 219.535 80.8748C220.4 81.3722 221.414 81.5457 222.396 81.3643C222.386 82.5469 222.694 83.7104 223.288 84.7328C223.883 85.7551 224.742 86.5984 225.775 87.1742C225.268 88.3758 225.235 89.7243 225.68 90.9498C225.805 91.3453 226.007 91.7121 226.275 92.0287C226.543 92.3454 226.871 92.6057 227.24 92.7944C227.703 92.9582 228.194 93.0251 228.683 92.991C229.173 92.9569 229.65 92.8225 230.085 92.5962C230.737 92.3494 231.332 91.9721 231.833 91.4874C232.334 91.0027 232.73 90.4209 232.998 89.7774C233.24 89.1227 233.241 88.4032 233.001 87.7478C232.761 87.0924 232.296 86.5437 231.688 86.2001C232.894 85.1024 233.842 83.7512 234.464 82.2436C234.677 81.8308 234.807 81.3799 234.845 80.9169C234.884 80.4539 234.83 79.9878 234.688 79.5455C234.606 79.3325 234.477 79.1402 234.312 78.9825C234.147 78.8248 233.949 78.7054 233.733 78.633C233.516 78.5605 233.286 78.5367 233.06 78.5634C232.833 78.59 232.615 78.6663 232.421 78.7869C232.784 78.1125 232.949 77.3493 232.897 76.5852C232.845 75.8212 232.579 75.0871 232.129 74.4676C231.679 73.8481 231.063 73.3683 230.352 73.0832C229.641 72.7982 228.864 72.7196 228.111 72.8564C228.101 72.2118 227.907 71.5836 227.551 71.0458C227.196 70.508 226.694 70.0831 226.105 69.8212C225.516 69.5593 224.864 69.4714 224.227 69.5678C223.59 69.6642 222.993 69.9408 222.508 70.3652" fill="#263238"/>
<path d="M194.148 71.7703C194.278 70.0463 192.674 68.6757 191.011 68.4429C189.322 68.3433 187.641 68.7484 186.183 69.6066C185.393 68.6917 184.342 68.0408 183.17 67.7418C181.999 67.4428 180.764 67.51 179.632 67.9344C177.4 68.7964 175.969 70.96 174.124 72.503C173.065 73.2125 172.125 74.0853 171.34 75.089C170.667 76.1665 170.685 77.8387 171.779 78.4852C171.049 78.7405 170.4 79.1878 169.902 79.7802C169.404 80.3726 169.074 81.0883 168.948 81.852C168.822 82.6157 168.904 83.3992 169.185 84.1204C169.467 84.8415 169.937 85.4735 170.547 85.9502C170.935 86.2519 171.409 86.5191 171.564 86.9846C171.652 87.3895 171.61 87.812 171.443 88.1914C170.788 90.0447 169.771 91.7773 169.374 93.6995C168.978 95.6218 169.374 97.9233 171.038 99.0008C171.469 99.2853 172.003 99.5094 172.202 99.9921C172.31 100.317 172.31 100.667 172.202 100.992C171.829 102.052 171.361 103.076 170.805 104.052C170.247 105.035 170.064 106.186 170.288 107.293C170.428 107.84 170.779 108.308 171.263 108.597C171.748 108.886 172.327 108.972 172.874 108.836C172.141 110.957 172.193 113.482 173.564 115.25C174.934 117.017 179.486 117.836 182.184 116.181L182.434 109.845C182.072 108.733 183.804 102.794 183.089 101.587C183.089 101.587 181.184 105.707 185.468 105.035C186.856 105.414 189.528 101.328 189.718 99.8628C189.763 99.1402 189.603 98.4195 189.257 97.7836C188.911 97.1476 188.392 96.6224 187.761 96.2683C188.951 95.3206 189.771 93.9849 190.076 92.4944C190.382 91.004 190.154 89.4535 189.433 88.1138C190.216 88.0262 190.946 87.673 191.5 87.1128C192.055 86.5527 192.401 85.8196 192.48 85.0355C192.56 84.2513 192.369 83.4636 191.938 82.8035C191.508 82.1434 190.864 81.6506 190.114 81.4074C191.074 81.1247 191.964 80.643 192.726 79.9936C193.488 79.3442 194.104 78.5417 194.535 77.6383C194.966 76.7348 195.202 75.7508 195.227 74.7502C195.253 73.7495 195.067 72.7548 194.683 71.8306" fill="#263238"/>
<path d="M173.46 73.02C173.46 73.02 173.253 73.1407 172.986 73.4941C172.504 74.1899 172.276 75.0299 172.338 75.8739C172.401 76.7179 172.751 77.5148 173.331 78.1317C173.815 78.6167 174.417 78.9673 175.077 79.1487C175.738 79.3301 176.434 79.3361 177.098 79.1661L176.753 78.8213C176.664 79.1841 176.65 79.561 176.71 79.9297C176.77 80.2983 176.904 80.651 177.103 80.9669C177.302 81.2828 177.563 81.5554 177.87 81.7684C178.177 81.9814 178.523 82.1306 178.889 82.2069C179.254 82.2833 179.631 82.2853 179.998 82.2129C180.364 82.1404 180.712 81.995 181.021 81.7853C181.33 81.5756 181.594 81.3058 181.797 80.9921C181.999 80.6784 182.137 80.3271 182.201 79.9591H181.554C181.651 80.4135 181.859 80.8367 182.16 81.1904C182.461 81.5441 182.845 81.8171 183.278 81.9848C183.843 82.2142 184.468 82.2476 185.054 82.0796C185.628 81.9067 186.12 81.5335 186.442 81.028C186.751 80.5617 186.917 80.0145 186.917 79.4548C186.917 78.8952 186.751 78.348 186.442 77.8817L186.037 78.3386C186.881 78.7929 187.808 79.0694 188.763 79.151C189.718 79.2325 190.68 79.1174 191.588 78.8127C192.757 78.403 193.791 77.6783 194.574 76.7185C195.357 75.7587 195.86 74.6011 196.027 73.3734C196.099 73.0352 196.099 72.6859 196.027 72.3477C195.853 73.6003 195.402 74.7986 194.709 75.856C193.909 77.0087 192.751 77.866 191.416 78.2955C190.577 78.5539 189.695 78.642 188.821 78.5547C187.948 78.4673 187.101 78.2063 186.33 77.7869L185.08 77.0887L185.942 78.2437C186.176 78.6043 186.301 79.025 186.301 79.4548C186.301 79.8847 186.176 80.3054 185.942 80.666C185.7 81.0466 185.329 81.3275 184.897 81.4573C184.465 81.5871 184 81.5571 183.589 81.3728C183.256 81.2488 182.96 81.0447 182.725 80.7785C182.49 80.5124 182.325 80.1924 182.244 79.8471L181.882 77.8989L181.589 79.8643C181.524 80.1612 181.4 80.442 181.225 80.6903C181.05 80.9386 180.827 81.1493 180.569 81.31C180.311 81.4707 180.024 81.5781 179.724 81.6259C179.424 81.6737 179.117 81.6609 178.822 81.5883C178.293 81.4019 177.85 81.0302 177.574 80.542C177.298 80.0539 177.209 79.4824 177.322 78.9333L177.451 78.4506L176.977 78.5885C176.405 78.7486 175.801 78.7581 175.224 78.6162C174.647 78.4742 174.117 78.1856 173.684 77.7783C173.354 77.4558 173.094 77.0673 172.924 76.6381C172.753 76.2089 172.674 75.7486 172.693 75.2871C172.737 74.4756 173.003 73.6916 173.46 73.02Z" fill="#455A64"/>
<path d="M224.982 65.4C225.091 65.6527 225.141 65.9268 225.128 66.2017C225.117 66.3516 225.07 66.4967 224.992 66.6254C224.914 66.7541 224.808 66.8629 224.68 66.943C224.516 67.0491 224.324 67.1056 224.129 67.1056C223.933 67.1056 223.741 67.0491 223.577 66.943L223.017 66.5551L223.292 67.1843C223.482 67.6875 223.519 68.2353 223.399 68.7594C223.28 69.2836 223.009 69.7611 222.62 70.1324C222.115 70.5687 221.46 70.7926 220.793 70.7573C220.126 70.722 219.499 70.4301 219.043 69.9427L218.715 69.5893L218.526 70.0289C218.205 70.7685 217.704 71.4156 217.068 71.9108C216.432 72.406 215.681 72.7334 214.886 72.863C214.09 72.9926 213.275 72.9202 212.515 72.6524C211.754 72.3846 211.074 71.9301 210.535 71.3306L210.337 71.0978L210.095 71.2961C208.96 72.2515 207.586 72.8802 206.121 73.1149C204.978 73.3169 203.806 73.2906 202.673 73.0373C201.651 72.764 200.662 72.3766 199.725 71.8822C199.725 71.8822 199.924 72.115 200.38 72.4339C201.054 72.8751 201.793 73.2067 202.57 73.4166C203.764 73.7487 205.015 73.828 206.242 73.6493C207.823 73.4343 209.315 72.787 210.552 71.7788H210.121C210.723 72.4674 211.491 72.9914 212.351 73.3013C213.212 73.6113 214.137 73.697 215.04 73.5504C215.943 73.4038 216.794 73.0297 217.512 72.4634C218.231 71.897 218.793 71.1571 219.146 70.3134L218.629 70.3996C219.12 70.9452 219.79 71.2967 220.518 71.3903C221.246 71.484 221.984 71.3136 222.597 70.9101C223.21 70.5065 223.658 69.8966 223.86 69.1908C224.062 68.4851 224.004 67.7304 223.698 67.0637L223.413 67.305C223.641 67.441 223.904 67.507 224.169 67.4948C224.434 67.4825 224.69 67.3925 224.904 67.2361C225.057 67.1201 225.181 66.9702 225.267 66.7982C225.352 66.6262 225.396 66.4367 225.396 66.2448C225.353 65.5896 224.982 65.3741 224.982 65.4Z" fill="#455A64"/>
<path d="M200.674 57.116C200.674 57.1678 200.967 56.9954 201.475 56.9695C201.828 56.9559 202.179 57.0172 202.506 57.1494C202.833 57.2817 203.128 57.4819 203.372 57.7367C203.705 58.1367 203.938 58.6107 204.05 59.1191C204.163 59.6276 204.152 60.1556 204.018 60.6589C203.645 61.9324 202.957 63.0915 202.018 64.0293L202.492 64.4861C202.82 64.15 203.587 64.4861 203.794 64.8999C203.902 65.1755 203.955 65.4701 203.947 65.7663C203.94 66.0624 203.873 66.354 203.751 66.6239C203.373 67.6426 202.786 68.5706 202.027 69.3478C201.271 70.0387 200.451 70.6564 199.579 71.1925C199.579 71.1925 199.898 71.1925 200.441 70.9598C201.156 70.6442 201.814 70.2132 202.389 69.684C203.257 68.895 203.935 67.9195 204.372 66.8308C204.53 66.489 204.617 66.1181 204.626 65.7414C204.634 65.3647 204.566 64.9902 204.423 64.6413C204.218 64.2377 203.862 63.9311 203.432 63.7879C203.207 63.6995 202.963 63.6736 202.724 63.713C202.486 63.7525 202.263 63.8558 202.079 64.012L202.553 64.4689C203.572 63.4466 204.298 62.1695 204.656 60.7709C204.795 60.1774 204.785 59.5586 204.625 58.9701C204.466 58.3817 204.162 57.8423 203.742 57.4005C203.444 57.1206 203.085 56.9135 202.693 56.7954C202.301 56.6773 201.887 56.6513 201.484 56.7195C200.846 56.8316 200.656 57.0902 200.674 57.116Z" fill="#455A64"/>
<path d="M178.106 62.1244C178.884 61.8134 179.703 61.616 180.537 61.5383C181.457 61.5023 182.37 61.72 183.175 62.1675C184.189 62.7494 184.971 63.6626 185.39 64.7535L185.606 65.3138L185.942 64.8139C186.29 64.3183 186.785 63.9447 187.356 63.7457C187.928 63.5466 188.548 63.5324 189.128 63.7048C189.709 63.8773 190.22 64.2278 190.59 64.7068C190.96 65.1858 191.171 65.769 191.192 66.3741V66.762L191.571 66.6758C192.13 66.5631 192.706 66.5725 193.261 66.7034C193.816 66.8344 194.336 67.0837 194.786 67.4343C195.506 68.0009 195.996 68.8095 196.165 69.71C196.288 70.5364 196.235 71.3794 196.01 72.1839C196.01 72.1839 196.191 72.0029 196.355 71.5806C196.581 70.9606 196.65 70.294 196.553 69.6411C196.41 68.6326 195.901 67.712 195.122 67.0551C194.615 66.6347 194.022 66.3317 193.384 66.1678C192.746 66.0039 192.08 65.9831 191.433 66.1069L191.812 66.4086C191.806 65.6619 191.56 64.9371 191.111 64.3405C190.662 63.7438 190.033 63.3069 189.318 63.0937C188.602 62.8806 187.837 62.9025 187.135 63.1563C186.433 63.41 185.83 63.8822 185.416 64.5035L185.968 64.5725C185.469 63.3613 184.551 62.37 183.382 61.7796C182.485 61.3153 181.472 61.1235 180.468 61.2279C179.819 61.2902 179.19 61.4806 178.615 61.7882C178.27 61.9262 178.089 62.0641 178.106 62.1244Z" fill="#455A64"/>
<path d="M178.218 40.1866C178.558 39.7532 178.991 39.4025 179.485 39.1608C180.055 38.9042 180.702 38.8826 181.287 39.1005C181.66 39.243 181.992 39.4746 182.255 39.7751C182.518 40.0756 182.704 40.4359 182.796 40.8245L183.08 42.1175L183.296 40.8072C183.424 40.1536 183.735 39.5498 184.192 39.0661C184.65 38.5824 185.236 38.2386 185.882 38.0747C186.636 37.9238 187.419 38.0293 188.106 38.3745C188.793 38.7196 189.345 39.2847 189.674 39.9797L189.804 40.2728L190.105 40.1435C190.503 39.9736 190.932 39.8913 191.364 39.9021C192.103 39.8883 192.826 40.1205 193.419 40.562C194.011 41.0035 194.441 41.6295 194.639 42.3416C194.793 42.9827 194.765 43.654 194.558 44.2799C194.35 44.9058 193.973 45.4614 193.467 45.8844L192.674 46.4792L193.657 46.3844C194.153 46.3475 194.649 46.4478 195.091 46.6744C195.534 46.9009 195.905 47.245 196.165 47.6688C196.363 48.0028 196.481 48.3779 196.511 48.765C196.541 49.1521 196.482 49.5409 196.338 49.9013C196.064 50.5507 195.605 51.1052 195.019 51.496C195.019 51.496 195.234 51.496 195.562 51.2805C196.037 50.9667 196.408 50.52 196.631 49.9962C196.822 49.5892 196.915 49.1424 196.9 48.6927C196.885 48.2431 196.763 47.8035 196.544 47.4102C196.255 46.8912 195.825 46.4651 195.303 46.1813C194.781 45.8974 194.189 45.7676 193.596 45.8068L193.795 46.3068C194.402 45.8239 194.86 45.1792 195.116 44.4471C195.372 43.7149 195.416 42.9252 195.243 42.1692C195.014 41.3186 194.508 40.5682 193.806 40.0362C193.104 39.5041 192.245 39.2204 191.364 39.2298C190.843 39.2272 190.327 39.3298 189.847 39.5315L190.278 39.7039C189.933 38.9252 189.344 38.2796 188.6 37.8643C187.857 37.4491 186.998 37.2866 186.154 37.4013C185.311 37.516 184.527 37.9018 183.921 38.5005C183.315 39.0992 182.92 39.8785 182.796 40.721H183.304C183.182 40.2598 182.948 39.8363 182.621 39.4886C182.294 39.141 181.886 38.8802 181.434 38.7298C181.095 38.6216 180.739 38.5819 180.385 38.6129C180.032 38.644 179.688 38.7453 179.373 38.9108C178.984 39.1117 178.652 39.4083 178.408 39.7728C178.236 40.0228 178.201 40.178 178.218 40.1866Z" fill="#455A64"/>
<path d="M158.91 44.9274C159.497 44.5321 160.193 44.3274 160.901 44.3412C161.298 44.3502 161.687 44.4523 162.038 44.6395C162.388 44.8267 162.69 45.0936 162.918 45.4187C163.195 45.8398 163.349 46.3294 163.365 46.8331C163.38 47.3369 163.255 47.8349 163.004 48.2719L161.884 50.0735L163.409 48.5909C163.842 48.2107 164.388 47.9857 164.963 47.9513C165.537 47.917 166.107 48.0753 166.581 48.4012C167.083 48.8104 167.407 49.3969 167.487 50.0389C167.568 50.681 167.398 51.3293 167.012 51.8492L167.555 52.194C167.709 51.8731 167.924 51.5855 168.188 51.3478C168.453 51.11 168.762 50.9266 169.097 50.8081C169.433 50.6897 169.788 50.6384 170.143 50.6573C170.498 50.6762 170.846 50.7649 171.167 50.9183C171.488 51.0717 171.776 51.2868 172.014 51.5513C172.251 51.8158 172.435 52.1246 172.553 52.4599C172.672 52.7953 172.723 53.1508 172.704 53.506C172.685 53.8611 172.596 54.2091 172.443 54.5301L172.943 54.4266C172.775 54.2311 172.682 53.9819 172.682 53.7241C172.682 53.4663 172.775 53.217 172.943 53.0216C173.121 52.8293 173.349 52.6903 173.602 52.6203C173.855 52.5503 174.122 52.5519 174.374 52.625C174.876 52.8036 175.321 53.1138 175.662 53.5232C176.003 53.9327 176.228 54.4263 176.313 54.9524L176.813 54.78C176.725 54.5401 176.707 54.2796 176.764 54.0301C176.821 53.7806 176.949 53.553 177.132 53.375C177.293 53.1973 177.493 53.0584 177.715 52.9688C177.938 52.8792 178.177 52.8413 178.417 52.8578C178.83 52.8939 179.233 53.0124 179.6 53.2063C179.967 53.4002 180.291 53.6657 180.554 53.987C181.416 55.0817 181.77 55.8748 181.847 55.8231C181.81 55.6262 181.74 55.4368 181.641 55.2628C181.413 54.7413 181.124 54.2493 180.779 53.7974C180.501 53.4248 180.15 53.1137 179.746 52.8837C179.343 52.6538 178.896 52.5099 178.434 52.4613C178.128 52.4359 177.82 52.4784 177.533 52.5857C177.245 52.693 176.985 52.8624 176.77 53.0819C176.513 53.3274 176.334 53.6427 176.255 53.9889C176.175 54.3351 176.198 54.697 176.322 55.03L176.813 54.849C176.683 54.2662 176.443 53.7134 176.107 53.2198C175.73 52.6565 175.159 52.2515 174.503 52.082C174.14 51.9749 173.754 51.9741 173.39 52.0795C173.027 52.1848 172.701 52.3921 172.452 52.6768C172.186 52.998 172.045 53.4048 172.057 53.8216C172.068 54.2384 172.229 54.6371 172.512 54.9438L172.831 55.2455L173.021 54.8404C173.341 54.0498 173.347 53.1671 173.04 52.3717C172.732 51.5763 172.132 50.9282 171.363 50.5591C170.595 50.1901 169.714 50.1278 168.901 50.3851C168.088 50.6424 167.403 51.1999 166.987 51.9441L167.53 52.2889C167.998 51.6859 168.22 50.9279 168.151 50.1677C168.082 49.4076 167.728 48.7017 167.16 48.1923C166.591 47.6829 165.851 47.4079 165.088 47.4226C164.325 47.4374 163.595 47.7409 163.047 48.2719L163.452 48.5909C163.749 48.0651 163.888 47.4648 163.851 46.8622C163.814 46.2595 163.604 45.6804 163.245 45.1946C162.791 44.6156 162.137 44.2274 161.412 44.1062C160.686 43.985 159.941 44.1395 159.323 44.5395C159.013 44.7464 158.901 44.9101 158.91 44.9274Z" fill="#263238"/>
<path d="M236.188 111.629C236.188 111.629 235.981 111.629 235.653 111.482C235.426 111.38 235.221 111.233 235.052 111.049C234.883 110.865 234.753 110.649 234.671 110.413C234.523 110.055 234.467 109.666 234.507 109.281C234.548 108.895 234.684 108.526 234.903 108.207C235.524 107.361 236.314 106.654 237.222 106.129L236.903 105.681C236.287 106.085 235.569 106.309 234.832 106.328C234.095 106.346 233.367 106.158 232.731 105.785C232.018 105.353 231.476 104.688 231.2 103.902C230.923 103.115 230.928 102.257 231.214 101.475C231.391 100.932 231.686 100.435 232.076 100.018C232.396 99.6256 232.845 99.3599 233.343 99.2678C233.714 99.2678 233.99 99.7506 233.964 100.19C233.949 100.408 233.869 100.616 233.733 100.786C233.598 100.957 233.414 101.083 233.205 101.147C232.756 101.279 232.284 101.316 231.819 101.255C231.354 101.194 230.908 101.037 230.507 100.794C229.749 100.395 229.112 99.7993 228.663 99.0696C228.015 97.9998 227.8 96.7239 228.059 95.5009C228.24 94.6389 228.525 94.1907 228.464 94.1648C228.137 94.521 227.91 94.9586 227.809 95.4319C227.621 96.076 227.564 96.7515 227.642 97.418C227.721 98.0845 227.933 98.7283 228.266 99.3109C228.736 100.125 229.418 100.795 230.24 101.25C230.71 101.546 231.237 101.738 231.787 101.814C232.337 101.89 232.897 101.848 233.429 101.69C233.732 101.577 234.001 101.39 234.214 101.147C234.447 100.881 234.581 100.543 234.593 100.19C234.614 99.8392 234.526 99.4903 234.343 99.1903C234.242 99.0206 234.102 98.8779 233.933 98.7743C233.765 98.6708 233.575 98.6094 233.378 98.5955C233.014 98.5983 232.66 98.7094 232.361 98.9144C232.083 99.0928 231.829 99.3041 231.602 99.5437C231.146 100.038 230.804 100.626 230.602 101.268C230.287 102.216 230.287 103.241 230.602 104.19C230.924 105.097 231.568 105.855 232.412 106.319C233.151 106.744 233.996 106.95 234.847 106.913C235.699 106.876 236.522 106.599 237.222 106.112L236.903 105.672C235.947 106.253 235.131 107.039 234.516 107.974C234.274 108.357 234.134 108.796 234.11 109.249C234.086 109.702 234.178 110.153 234.378 110.56C234.487 110.822 234.653 111.056 234.863 111.247C235.073 111.437 235.322 111.58 235.593 111.663C235.981 111.732 236.188 111.646 236.188 111.629Z" fill="#263238"/>
<path d="M198.932 48.9358C198.932 48.9358 199.053 49.0651 199.329 49.2375C199.724 49.4896 200.143 49.7032 200.579 49.8754C201.288 50.1941 202.083 50.264 202.837 50.0736C203.315 49.9303 203.744 49.659 204.078 49.2892C204.278 49.0744 204.424 48.8162 204.507 48.5349C204.589 48.2536 204.605 47.957 204.552 47.6686L204.216 47.9531C204.505 48.0711 204.814 48.1306 205.125 48.1282C205.437 48.1258 205.745 48.0615 206.032 47.9391C206.318 47.8166 206.578 47.6385 206.795 47.415C207.012 47.1915 207.183 46.9271 207.297 46.6371C207.411 46.3471 207.467 46.0373 207.46 45.7257C207.453 45.4142 207.385 45.107 207.259 44.822C207.133 44.5371 206.951 44.28 206.725 44.0658C206.498 43.8516 206.232 43.6845 205.94 43.5741L205.811 44.1775C206.447 44.1989 207.069 43.9847 207.558 43.5759C208.046 43.1671 208.366 42.5925 208.457 41.9622C208.539 41.2986 208.387 40.6274 208.029 40.063C207.67 39.4987 207.127 39.0762 206.492 38.8676C205.973 38.6686 205.414 38.6006 204.863 38.6694L205.044 39.29C205.475 39.0932 205.855 38.8008 206.155 38.4348C206.456 38.0689 206.669 37.6392 206.779 37.1784C206.888 36.7176 206.891 36.2379 206.787 35.7759C206.683 35.3138 206.475 34.8816 206.178 34.5122C205.882 34.1428 205.505 33.8459 205.077 33.6441C204.648 33.4424 204.179 33.3411 203.706 33.3479C203.232 33.3548 202.767 33.4697 202.344 33.6838C201.922 33.8979 201.554 34.2056 201.268 34.5835H201.699C201.274 34.0846 200.718 33.714 200.094 33.5131C199.469 33.3121 198.802 33.2888 198.165 33.4456C197.386 33.6618 196.712 34.1551 196.271 34.8329C195.83 35.5106 195.651 36.3262 195.769 37.1264C195.782 37.3425 195.853 37.551 195.976 37.7298C195.855 36.9535 195.966 36.1589 196.295 35.4455C196.482 35.052 196.756 34.7062 197.096 34.4344C197.437 34.1626 197.835 33.9718 198.26 33.8766C198.809 33.7616 199.379 33.7978 199.909 33.9815C200.438 34.1653 200.908 34.4895 201.268 34.9197L201.484 35.1955L201.699 34.911C202.172 34.3786 202.836 34.0545 203.546 34.0092C204.256 33.964 204.956 34.2014 205.492 34.6697C205.756 34.9634 205.95 35.3137 206.057 35.6938C206.165 36.0739 206.184 36.4736 206.114 36.8623C206.043 37.251 205.884 37.6183 205.649 37.936C205.415 38.2537 205.11 38.5134 204.759 38.6952L202.88 39.5572L204.94 39.3072C205.381 39.249 205.829 39.3054 206.242 39.471C206.735 39.6206 207.161 39.9374 207.446 40.3669C207.73 40.7964 207.856 41.3118 207.802 41.8243C207.735 42.296 207.502 42.7285 207.145 43.0443C206.788 43.3601 206.331 43.5387 205.854 43.5483L203.191 43.2811L205.725 44.1431C205.957 44.2345 206.169 44.3719 206.347 44.5473C206.525 44.7226 206.666 44.932 206.761 45.1631C206.856 45.3942 206.903 45.6422 206.9 45.892C206.897 46.1418 206.843 46.3885 206.742 46.617C206.52 47.0099 206.167 47.3119 205.744 47.4697C205.322 47.6274 204.857 47.6307 204.432 47.479L203.984 47.2894L204.087 47.7548C204.122 48.184 204.006 48.6121 203.759 48.9647C203.512 49.3174 203.149 49.5725 202.734 49.6857C202.06 49.8698 201.346 49.8397 200.691 49.5995C199.553 49.2289 198.958 48.8754 198.932 48.9358Z" fill="#263238"/>
<path d="M184.554 98.5438C184.365 98.4404 176.796 95.3458 176.193 103.371C175.589 111.396 183.813 110.319 183.839 110.086C183.865 109.853 184.554 98.5438 184.554 98.5438Z" fill="#FFBE9D"/>
<path d="M181.597 106.888C181.597 106.888 181.451 106.974 181.21 107.069C180.865 107.184 180.49 107.165 180.158 107.017C179.296 106.647 178.71 105.293 178.779 103.793C178.806 103.105 178.986 102.431 179.305 101.819C179.399 101.574 179.551 101.356 179.747 101.182C179.944 101.008 180.179 100.884 180.434 100.82C180.598 100.789 180.767 100.817 180.913 100.897C181.059 100.977 181.173 101.105 181.235 101.259C181.322 101.492 181.235 101.647 181.304 101.664C181.373 101.682 181.485 101.544 181.442 101.207C181.416 101.005 181.318 100.819 181.166 100.682C180.955 100.504 180.684 100.412 180.408 100.423C180.073 100.465 179.754 100.593 179.482 100.794C179.211 100.995 178.995 101.262 178.856 101.569C178.467 102.242 178.248 103 178.218 103.776C178.149 105.397 178.874 106.966 180.011 107.388C180.223 107.464 180.449 107.492 180.673 107.47C180.896 107.447 181.112 107.375 181.304 107.259C181.572 107.06 181.623 106.888 181.597 106.888Z" fill="#EB996E"/>
<path d="M205.38 111.543C205.701 111.236 206.092 111.011 206.518 110.886C206.944 110.76 207.394 110.739 207.831 110.824C208.267 110.908 208.677 111.096 209.026 111.371C209.375 111.646 209.653 112 209.836 112.405C209.983 112.74 210.059 113.103 210.059 113.469C210.059 113.836 209.983 114.198 209.836 114.534C209.611 114.993 209.251 115.373 208.804 115.622C208.358 115.872 207.846 115.979 207.337 115.93C206.829 115.86 206.356 115.634 205.982 115.284C205.609 114.933 205.353 114.476 205.251 113.974C205.061 112.965 204.742 111.775 205.639 111.293" fill="#EB996E"/>
<path d="M205.259 109.474C205.561 109.474 205.699 111.457 207.526 112.784C209.354 114.112 211.492 113.741 211.535 114.017C211.535 114.146 211.078 114.448 210.164 114.525C208.982 114.627 207.802 114.303 206.837 113.612C205.904 112.952 205.266 111.952 205.061 110.827C204.932 110 205.156 109.474 205.259 109.474Z" fill="#263238"/>
<path d="M175.132 135.394L180.606 134.472L211.405 137.204L222.396 142.428L225.318 144.152C225.318 144.152 213.862 160.099 202.122 159.237C190.381 158.375 170.107 141.635 170.107 141.635L170.012 136.161L175.132 135.394Z" fill="#FFBE9D"/>
<path d="M262.048 161.435L236.869 146.885C233.748 145.851 219.207 140.911 219.207 140.911C219.207 140.911 207.914 158.841 198.57 157.686C193.519 157.065 187.364 152.695 182.822 148.824C178.911 145.501 175.574 141.558 172.943 137.153L171.926 135.429C167.504 135.429 153.746 138.748 148.885 139.963C147.727 140.247 146.678 140.865 145.868 141.739C143.17 144.626 137.954 150.126 136.851 155.531C135.791 160.703 131.472 177.348 131.472 177.348L255.419 173.555L262.048 161.435Z" fill="#6E7DAB"/>
<path d="M301.864 161.858C299.976 162.72 284.357 168.038 283.658 168.831C282.96 169.624 261.539 162.056 261.539 162.056L255.419 173.65L310.673 172.452L301.864 161.858Z" fill="#FFBE9D"/>
<path d="M161.013 158.099C160.935 158.099 160.677 157.108 159.918 155.625C158.9 153.702 157.578 151.956 156.005 150.453C154.419 148.964 152.731 147.587 150.953 146.333C150.195 145.836 149.477 145.28 148.807 144.669C149.622 145.065 150.401 145.533 151.134 146.066C152.982 147.258 154.713 148.62 156.306 150.135C157.917 151.657 159.235 153.463 160.194 155.462C160.477 156.066 160.705 156.695 160.875 157.341C160.965 157.584 161.012 157.84 161.013 158.099Z" fill="#263238"/>
<path d="M235.412 169.124C235.277 168.269 235.225 167.403 235.257 166.538C235.257 164.944 235.257 162.746 235.36 160.315C235.464 157.884 235.671 155.694 235.843 154.117C235.895 153.244 236.03 152.378 236.248 151.531C236.285 152.394 236.256 153.258 236.162 154.117C236.067 155.841 235.947 157.97 235.817 160.315C235.688 162.659 235.645 164.789 235.576 166.513C235.598 167.386 235.543 168.26 235.412 169.124Z" fill="#263238"/>
<path d="M176.917 143.808C176.917 143.808 176.865 143.902 176.736 144.058C176.545 144.289 176.331 144.499 176.098 144.687C175.254 145.398 174.257 145.902 173.184 146.161C171.58 146.569 169.888 146.461 168.349 145.851C167.446 145.477 166.626 144.929 165.935 144.239C165.202 143.549 164.547 142.765 163.789 142.075C162.383 140.763 160.54 140.019 158.617 139.989C157.039 139.96 155.492 140.427 154.195 141.325C153.31 141.925 152.552 142.693 151.962 143.584C151.548 144.213 151.384 144.609 151.341 144.592C151.355 144.488 151.384 144.386 151.428 144.29C151.54 144.015 151.669 143.747 151.815 143.489C152.506 142.297 153.498 141.308 154.692 140.622C155.886 139.935 157.239 139.574 158.617 139.575C160.658 139.579 162.623 140.355 164.116 141.747C164.901 142.463 165.556 143.256 166.263 143.92C166.914 144.575 167.683 145.101 168.53 145.471C169.753 145.968 171.084 146.144 172.395 145.982C173.706 145.821 174.954 145.328 176.02 144.549C176.607 144.109 176.874 143.765 176.917 143.808Z" fill="white"/>
<path d="M234.559 157.289C234.559 157.289 234.291 156.824 233.697 156.013C232.773 154.852 231.619 153.892 230.309 153.195C228.24 152.062 225.85 151.662 223.525 152.057C222.009 152.356 220.575 152.977 219.32 153.878C218.065 154.78 217.018 155.94 216.25 157.281C215.338 158.83 214.906 160.615 215.008 162.409C215.073 163.33 215.369 164.22 215.87 164.995C216.426 165.79 217.229 166.379 218.155 166.668C218.625 166.816 219.124 166.853 219.611 166.777C220.099 166.7 220.562 166.513 220.965 166.228C221.81 165.63 222.408 164.744 222.646 163.737C222.872 162.693 222.732 161.604 222.249 160.651C221.771 159.656 221.047 158.799 220.146 158.16C218.214 156.866 215.867 156.344 213.569 156.694C211.164 157.03 208.877 157.947 206.906 159.367C202.785 162.134 199.536 166.34 194.958 169.168C192.703 170.596 190.117 171.419 187.45 171.555C184.865 171.693 182.285 171.199 179.934 170.116C177.636 169.103 175.687 167.436 174.331 165.323C173.683 164.303 173.255 163.159 173.073 161.965C172.89 160.77 172.957 159.551 173.27 158.384C173.531 157.256 174.081 156.214 174.865 155.362C175.649 154.51 176.641 153.876 177.744 153.522C178.794 153.232 179.901 153.217 180.958 153.48C182.015 153.743 182.987 154.274 183.778 155.022C184.51 155.779 184.976 156.753 185.106 157.798C185.208 158.794 185.045 159.799 184.632 160.711C183.86 162.427 182.477 163.795 180.753 164.547C179.179 165.161 177.468 165.331 175.805 165.039C174.339 164.785 172.919 164.318 171.59 163.651C169.501 162.536 167.518 161.232 165.668 159.755C164.116 158.582 162.892 157.712 162.021 157.169C161.59 156.901 161.263 156.694 161.03 156.565C160.797 156.436 160.694 156.358 160.694 156.358C160.694 156.358 160.823 156.41 161.056 156.531C161.289 156.651 161.633 156.832 162.073 157.091C162.935 157.617 164.211 158.462 165.771 159.608C167.624 161.057 169.606 162.333 171.693 163.418C173.005 164.064 174.405 164.514 175.848 164.754C177.458 165.027 179.113 164.854 180.632 164.254C182.272 163.525 183.583 162.213 184.313 160.573C184.695 159.717 184.847 158.774 184.752 157.841C184.636 156.865 184.2 155.956 183.511 155.255C182.766 154.551 181.85 154.053 180.854 153.81C179.858 153.566 178.816 153.586 177.83 153.867C176.795 154.204 175.866 154.804 175.131 155.608C174.397 156.412 173.884 157.392 173.641 158.453C173.348 159.566 173.288 160.728 173.465 161.866C173.641 163.003 174.05 164.092 174.667 165.064C175.986 167.099 177.871 168.705 180.089 169.685C182.38 170.733 184.891 171.212 187.407 171.081C189.994 170.94 192.502 170.139 194.691 168.754C199.182 165.987 202.449 161.789 206.63 158.97C208.671 157.508 211.038 156.567 213.526 156.229C215.939 155.868 218.399 156.425 220.422 157.789C221.377 158.473 222.145 159.386 222.654 160.444C223.161 161.485 223.304 162.666 223.06 163.797C222.798 164.898 222.141 165.864 221.215 166.513C220.764 166.825 220.248 167.031 219.706 167.114C219.164 167.198 218.61 167.157 218.086 166.995C217.084 166.673 216.215 166.031 215.612 165.168C215.056 164.333 214.726 163.367 214.655 162.366C214.554 160.505 215.01 158.657 215.965 157.056C216.762 155.683 217.845 154.498 219.14 153.58C220.436 152.662 221.914 152.034 223.473 151.738C225.845 151.353 228.278 151.788 230.369 152.971C231.692 153.695 232.847 154.691 233.757 155.893C234.075 156.327 234.344 156.796 234.559 157.289Z" fill="white"/>
<path d="M252.282 155.781C252.226 156.029 252.133 156.267 252.006 156.487C251.698 157.114 251.325 157.706 250.894 158.255C250.256 159.07 249.508 159.793 248.67 160.401C247.646 161.146 246.53 161.758 245.351 162.22C243.199 163.063 240.867 163.345 238.576 163.039C237.888 162.941 237.211 162.786 236.55 162.573C236.3 162.517 236.064 162.415 235.852 162.271C235.852 162.194 236.895 162.556 238.61 162.72C240.845 162.933 243.098 162.617 245.187 161.797C247.289 161.016 249.166 159.728 250.652 158.048C251.756 156.737 252.204 155.738 252.282 155.781Z" fill="white"/>
<path d="M260.324 161.194C260.324 161.194 260.048 161.056 259.522 160.918C258.783 160.742 258.011 160.76 257.281 160.97C256.202 161.324 255.197 161.873 254.316 162.591C253.273 163.366 252.161 164.263 251.04 165.254C249.123 166.954 247.339 168.798 245.704 170.771C244.437 172.279 243.731 173.271 243.67 173.236C243.778 172.967 243.92 172.712 244.093 172.478C244.394 172.021 244.851 171.357 245.455 170.573C247.032 168.524 248.802 166.631 250.739 164.918C251.803 163.974 252.916 163.088 254.074 162.263C255.001 161.529 256.065 160.987 257.204 160.668C257.986 160.468 258.809 160.498 259.574 160.755C259.86 160.829 260.12 160.981 260.324 161.194Z" fill="white"/>
<path d="M225.973 144.325C225.639 144.722 225.221 145.039 224.749 145.256C222.553 146.484 219.978 146.853 217.525 146.29C217.011 146.214 216.52 146.025 216.086 145.738C217.758 146.084 219.473 146.174 221.172 146.006C222.849 145.693 224.468 145.127 225.973 144.325Z" fill="white"/>
<path d="M151.634 174.305C151.654 173.036 151.602 171.767 151.479 170.504C151.096 167.472 149.906 164.599 148.031 162.185C146.995 160.876 145.782 159.715 144.428 158.737C143.312 157.942 142.095 157.302 140.808 156.832C139.603 156.441 138.373 156.13 137.127 155.901C137.467 155.854 137.812 155.854 138.153 155.901C139.091 155.998 140.016 156.197 140.911 156.496C142.245 156.936 143.507 157.566 144.661 158.367C146.07 159.354 147.325 160.545 148.385 161.901C150.324 164.369 151.52 167.338 151.833 170.461C151.924 171.398 151.924 172.342 151.833 173.279C151.81 173.628 151.744 173.973 151.634 174.305Z" fill="white"/>
<g opacity="0.3">
<path opacity="0.3" d="M160.409 169.961C159.733 169.45 158.93 169.133 158.087 169.045C157.244 168.957 156.393 169.1 155.625 169.461C154.979 169.771 154.41 170.236 153.746 170.521C153.425 170.687 153.065 170.764 152.704 170.743C152.343 170.722 151.994 170.603 151.695 170.4C151.212 169.995 151.074 169.306 150.703 168.797C150.005 167.857 148.634 167.711 147.479 167.935C146.356 168.259 145.199 168.447 144.031 168.495C142.892 168.281 141.775 167.961 140.695 167.538C139.435 167.222 138.11 167.269 136.875 167.673C135.639 168.078 134.543 168.823 133.713 169.823L131.627 175.995L162.056 174.46C162.215 173.631 162.146 172.775 161.856 171.982C161.566 171.19 161.066 170.491 160.409 169.961Z" fill="black"/>
</g>
<path d="M170.676 173.934C170.598 173.934 170.331 173.133 169.495 172.047C168.428 170.621 166.912 169.597 165.192 169.139C163.472 168.681 161.647 168.815 160.013 169.521C158.746 170.047 158.099 170.642 158.048 170.573C157.996 170.504 158.177 170.392 158.47 170.133C158.904 169.776 159.378 169.472 159.884 169.228C161.57 168.392 163.503 168.198 165.322 168.682C167.141 169.165 168.722 170.294 169.771 171.857C170.09 172.317 170.351 172.815 170.547 173.34C170.629 173.527 170.673 173.729 170.676 173.934Z" fill="white"/>
<g opacity="0.3">
<path opacity="0.3" d="M242.817 170.814C240.753 170.401 238.823 169.486 237.197 168.15C235.671 166.728 234.809 164.392 235.645 162.47C234.256 165.647 231.978 168.356 229.087 170.27C226.195 172.185 222.812 173.224 219.344 173.262L248.756 172.779C246.866 171.88 244.87 171.22 242.817 170.814Z" fill="black"/>
</g>
<path d="M208.544 97.7165C208.449 96.9911 208.314 96.2717 208.138 95.5615C207.591 93.6464 206.416 91.9707 204.803 90.8032C203.619 89.945 202.239 89.3967 200.789 89.2085C199.339 89.0203 197.865 89.1981 196.501 89.7257C194.89 90.3403 193.499 91.4243 192.51 92.8376C191.437 94.3471 190.875 96.1602 190.906 98.012C190.937 99.8638 191.56 101.657 192.683 103.13C193.204 103.835 193.836 104.452 194.553 104.957C195.233 105.451 195.983 105.84 196.777 106.112C197.936 106.509 199.165 106.661 200.385 106.558C201.606 106.454 202.792 106.098 203.867 105.512C204.943 104.926 205.885 104.123 206.634 103.153C207.382 102.184 207.921 101.069 208.216 99.8801C208.362 99.165 208.472 98.4428 208.544 97.7165C208.607 98.4528 208.554 99.1944 208.388 99.9146C207.952 101.922 206.838 103.717 205.234 105C204.041 105.96 202.625 106.601 201.117 106.864C199.609 107.126 198.06 107.001 196.614 106.5C194.901 105.915 193.401 104.835 192.304 103.397C191.121 101.85 190.466 99.9646 190.433 98.0178C190.401 96.0709 190.993 94.1648 192.123 92.579C193.173 91.106 194.637 89.9779 196.329 89.3378C197.854 88.7576 199.506 88.5998 201.113 88.881C202.82 89.1811 204.404 89.9667 205.676 91.1439C206.948 92.321 207.854 93.8398 208.285 95.5184C208.487 96.2329 208.574 96.9747 208.544 97.7165Z" fill="#455A64"/>
<path d="M230.947 97.3286C230.851 96.6035 230.715 95.8841 230.542 95.1736C229.994 93.2589 228.815 91.5854 227.197 90.4239C226.098 89.6196 224.826 89.0852 223.482 88.8637C221.941 88.6138 220.362 88.7775 218.905 89.3378C218.116 89.6344 217.378 90.0501 216.715 90.5705C216.016 91.0969 215.407 91.7346 214.914 92.4583C213.832 93.9641 213.264 95.7788 213.295 97.633C213.326 99.4871 213.954 101.282 215.086 102.751C215.608 103.454 216.239 104.068 216.957 104.569C217.631 105.071 218.382 105.461 219.181 105.724C220.561 106.206 222.041 106.334 223.483 106.096C224.926 105.858 226.286 105.262 227.439 104.362C229.014 103.14 230.134 101.426 230.62 99.4922C230.767 98.7773 230.877 98.0551 230.947 97.3286C231.009 98.0682 230.954 98.813 230.783 99.5353C230.356 101.542 229.243 103.337 227.637 104.612C226.446 105.574 225.03 106.217 223.522 106.481C222.014 106.745 220.464 106.621 219.017 106.121C218.182 105.842 217.395 105.438 216.681 104.923C215.925 104.397 215.259 103.754 214.707 103.018C213.532 101.473 212.882 99.5923 212.854 97.6515C212.826 95.7106 213.421 93.812 214.552 92.2341C215.077 91.4787 215.721 90.8122 216.457 90.2602C217.154 89.7235 217.926 89.2935 218.75 88.9844C220.279 88.4109 221.933 88.2562 223.542 88.5362C225.248 88.8366 226.831 89.6213 228.102 90.7967C229.374 91.972 230.281 93.4884 230.714 95.1649C230.903 95.8698 230.982 96.5997 230.947 97.3286Z" fill="#455A64"/>
<path d="M190.821 96.2424C189.821 96.8853 188.723 97.3626 187.571 97.6561C186.467 98.0809 185.304 98.331 184.123 98.3974C185.191 97.9051 186.302 97.5126 187.442 97.2251C188.537 96.8002 189.668 96.4714 190.821 96.2424Z" fill="#455A64"/>
<path d="M214 95.1649C213.021 95.0289 212.031 94.9828 211.043 95.0269C210.073 95.2235 209.123 95.5121 208.207 95.8889C208.935 95.1171 209.932 94.6568 210.992 94.6046C212.029 94.3909 213.109 94.592 214 95.1649Z" fill="#455A64"/>
<path d="M196.639 104.578C196.128 104.527 195.638 104.346 195.217 104.052C194.141 103.432 193.253 102.532 192.646 101.449C192.039 100.366 191.736 99.1387 191.769 97.8974C191.732 97.3868 191.83 96.8756 192.053 96.4148C192.122 96.4148 192.053 96.9923 192.053 97.8974C192.112 99.07 192.443 100.213 193.02 101.235C193.598 102.257 194.406 103.13 195.381 103.785C196.131 104.302 196.665 104.509 196.639 104.578Z" fill="white"/>
<path d="M218.801 103.94C218.322 103.885 217.864 103.707 217.474 103.423C216.469 102.824 215.637 101.975 215.06 100.958C214.495 99.9364 214.199 98.7886 214.198 97.6216C214.156 97.1403 214.239 96.6563 214.44 96.2166C214.495 96.6771 214.521 97.1406 214.517 97.6044C214.61 98.7036 214.936 99.7703 215.474 100.733C216.021 101.689 216.768 102.516 217.664 103.156C218.058 103.394 218.438 103.656 218.801 103.94Z" fill="white"/>
<path d="M96.2508 175.512C96.2508 175.512 93.9579 314.113 113.086 407.338L351.627 406.597L289.184 174.4L96.2508 175.512Z" fill="#E0E0E0"/>
<path d="M96.2507 175.512L289.184 174.219H289.322L289.365 174.348C307.148 240.463 328.62 320.242 351.842 406.536L351.92 406.821H351.627L332.663 406.881L113.086 407.536H112.922V407.381C112.117 403.094 111.327 398.856 110.551 394.667C110.181 392.563 109.75 390.486 109.422 388.4C109.095 386.314 108.793 384.245 108.474 382.185C107.853 378.053 107.235 373.976 106.621 369.953C106.109 365.93 105.606 361.936 105.112 357.971C104.865 356.006 104.618 354.049 104.371 352.101C104.129 350.153 103.948 348.213 103.742 346.291C103.345 342.435 102.951 338.637 102.561 334.896C102.138 331.154 101.88 327.448 101.552 323.802C101.224 320.155 100.931 316.569 100.63 313.044C98.4402 284.762 97.4231 260.022 96.8283 239.645C96.2335 219.267 96.1473 203.225 96.1387 192.286C96.1387 186.813 96.1387 182.623 96.199 179.796C96.199 178.382 96.2163 177.313 96.2507 176.589C96.2507 175.908 96.2507 175.607 96.2507 175.512C96.2507 175.926 96.2507 181.399 96.2507 192.286C96.2507 203.173 96.4404 219.258 97.0438 239.636C97.6472 260.014 98.7678 284.744 100.94 313.018C101.25 316.544 101.561 320.138 101.871 323.776C102.181 327.413 102.466 331.12 102.888 334.861C103.311 338.602 103.681 342.404 104.086 346.248C104.293 348.17 104.474 350.11 104.716 352.058C104.957 354.006 105.207 355.963 105.457 357.928C105.957 361.876 106.463 365.867 106.974 369.901C107.595 373.927 108.207 378.004 108.836 382.124C109.158 384.182 109.477 386.253 109.793 388.34C110.112 390.426 110.551 392.503 110.922 394.598C111.704 398.787 112.494 403.022 113.292 407.304L113.103 407.148L332.68 406.424L351.644 406.373L351.429 406.648C328.241 320.354 306.794 240.558 289.028 174.451L289.209 174.581L96.2507 175.512Z" fill="#263238"/>
<path d="M96.2508 175.512C96.2508 175.512 96.0526 193.778 99.1472 226.301C101.19 247.851 100.966 276.081 106.672 312.096C118.74 388.184 125.076 399.821 125.076 399.821L357.73 398.244L295.812 172.107L96.2508 175.512Z" fill="#EBEBEB"/>
<path d="M96.2509 175.512L295.812 171.917H295.959V172.055C313.768 236.791 335.042 314.509 357.98 398.244L358.057 398.528H357.773L345.093 398.615L125.076 400.011H124.99L124.938 399.908C124.096 397.945 123.382 395.929 122.8 393.874C122.18 391.865 121.637 389.839 121.076 387.84C120.516 385.84 120.042 383.823 119.568 381.806C119.094 379.789 118.637 377.815 118.189 375.832C116.402 367.919 114.815 360.161 113.431 352.558C110.586 337.326 108.19 322.819 106.06 309.165C105.017 302.338 104.19 295.7 103.474 289.27C102.759 282.839 102.25 276.65 101.828 270.685C100.966 258.746 100.492 247.765 99.8713 237.86C99.5782 232.904 99.1817 228.223 98.7679 223.818C98.3541 219.413 98.0266 215.284 97.7421 211.44C97.1646 203.742 96.7939 197.191 96.5698 191.873C96.3457 186.554 96.2422 182.477 96.2078 179.727C96.2078 178.348 96.2078 177.305 96.2078 176.607C96.2078 175.908 96.2078 175.555 96.2078 175.555C96.2078 175.753 96.2078 177.02 96.2681 179.718C96.3284 182.416 96.4405 186.554 96.6905 191.864C96.9405 197.174 97.3284 203.734 97.9231 211.423C98.2162 215.267 98.561 219.405 98.9748 223.801C99.3885 228.197 99.7937 232.887 100.095 237.843C100.733 247.756 101.225 258.738 102.104 270.659C102.535 276.624 103.089 282.819 103.767 289.244C104.448 295.657 105.285 302.295 106.354 309.122C108.491 322.767 110.896 337.266 113.758 352.489C115.172 360.109 116.761 367.887 118.525 375.823C118.965 377.806 119.387 379.806 119.904 381.797C120.421 383.788 120.887 385.805 121.413 387.831C121.938 389.857 122.49 391.848 123.137 393.865C123.713 395.885 124.418 397.866 125.249 399.796L125.076 399.692L345.084 398.209L357.764 398.123L357.549 398.408C334.628 314.63 313.354 236.895 295.666 172.159L295.847 172.297L96.2509 175.512Z" fill="#263238"/>
<path d="M316.863 182.856L96.4405 186.606C95.5095 246.386 116.56 339.688 131.989 388.762L363.316 386.34C339.628 323.457 312.397 251.963 316.863 182.856Z" fill="#F5F5F5"/>
<path d="M316.862 182.856C316.862 183.054 316.862 184.201 316.75 186.692C316.75 187.959 316.655 189.537 316.595 191.416C316.535 193.295 316.38 195.476 316.483 197.933C316.595 202.855 316.552 208.932 317.164 216.035C317.285 217.816 317.408 219.664 317.535 221.577C317.724 223.482 317.957 225.456 318.181 227.491C318.405 229.525 318.647 231.62 318.888 233.775C319.129 235.93 319.526 238.145 319.853 240.412C320.181 242.679 320.552 245.024 320.922 247.411C321.293 249.799 321.827 252.23 322.293 254.73C322.758 257.23 323.207 259.79 323.793 262.376C324.379 264.962 324.965 267.617 325.569 270.323C325.879 271.677 326.172 273.047 326.508 274.418L327.56 278.573C328.278 281.366 329.005 284.213 329.741 287.115C330.476 290.017 331.304 292.951 332.223 295.916C332.646 297.407 333.085 298.916 333.508 300.424L334.895 304.984C342.265 329.551 352.325 356.704 363.497 386.271L363.591 386.53H363.316L139.644 388.917L131.972 388.995H131.8L131.756 388.84C126.179 370.867 121.412 352.955 117.232 335.318C113.051 317.682 109.379 300.304 106.293 283.305C103.207 266.306 100.69 249.687 98.8884 233.516C97.0351 217.949 96.1455 202.283 96.2248 186.606V186.416H96.4145L316.836 182.856L96.4231 186.804L96.6127 186.615C96.5427 202.274 97.4409 217.924 99.3022 233.473C101.104 249.618 103.612 266.229 106.724 283.227C109.836 300.226 113.456 317.587 117.663 335.215C121.869 352.843 126.61 370.746 132.179 388.702L131.963 388.547L139.644 388.469L363.316 386.176L363.134 386.435C351.98 356.868 341.947 329.689 334.594 305.105C334.128 303.571 333.671 302.045 333.206 300.536C332.74 299.028 332.344 297.511 331.93 296.02L329.456 287.219C328.726 284.311 328.002 281.46 327.284 278.667C326.93 277.271 326.586 275.883 326.232 274.513C325.879 273.142 325.612 271.763 325.31 270.41C324.707 267.703 324.112 265.057 323.534 262.453C322.957 259.85 322.534 257.281 322.043 254.799C321.552 252.316 321.095 249.868 320.69 247.48L319.629 240.498C319.31 238.222 318.905 236.016 318.673 233.861C318.44 231.706 318.207 229.594 317.983 227.56C317.759 225.525 317.535 223.551 317.354 221.646C317.173 219.741 317.104 217.879 316.992 216.104C316.405 208.975 316.457 202.898 316.362 198.002C316.276 195.536 316.466 193.381 316.509 191.502C316.552 189.623 316.647 188.054 316.699 186.787C316.811 184.218 316.854 183.054 316.862 182.856Z" fill="#263238"/>
<path d="M317.268 171.745L96.2509 175.512C95.32 235.283 105.121 290.201 120.559 339.292L184.347 378.789L369.479 375.634C345.774 312.734 312.803 240.851 317.268 171.745Z" fill="#FAFAFA"/>
<path d="M317.268 171.745C317.268 171.943 317.216 173.107 317.112 175.615C317.052 176.9 316.975 178.503 316.966 180.391C316.957 182.279 316.88 184.477 316.966 186.959C317.214 201.309 318.679 215.612 321.345 229.714C324.664 247.972 330.508 269.789 338.947 294.235C343.145 306.467 347.955 319.362 353.17 332.913C358.385 346.464 364.022 360.644 369.651 375.556L369.746 375.815H369.47L184.347 379.004H184.278H184.227L156.643 361.902L120.49 339.49L120.421 339.447V339.369C111.684 311.619 105.223 283.202 101.104 254.402C97.4132 228.276 95.7532 201.903 96.1388 175.52V175.331H96.3284L317.345 171.762L96.337 175.719L96.5267 175.529C96.1416 201.87 97.79 228.202 101.457 254.29C105.578 283.064 112.036 311.454 120.766 339.18L120.671 339.059L156.824 361.471L184.408 378.582H184.287L369.41 375.461L369.238 375.72C363.617 360.807 357.988 346.61 352.791 333.06C347.593 319.509 342.783 306.605 338.593 294.364C330.18 269.901 324.362 248.058 321.078 229.783C318.407 215.669 316.965 201.349 316.768 186.985C316.699 184.502 316.768 182.304 316.811 180.417C316.854 178.529 316.914 176.969 316.983 175.658C317.216 173.115 317.259 171.943 317.268 171.745Z" fill="#263238"/>
<path d="M120.74 339.266L176.9 333.232L184.321 378.78L120.74 339.266Z" fill="#E0E0E0"/>
<path d="M184.321 378.78C184.294 378.708 184.277 378.633 184.27 378.556C184.27 378.375 184.192 378.159 184.132 377.884L183.666 375.298C183.278 372.996 182.718 369.72 182.029 365.652C180.675 357.446 178.796 346.076 176.676 333.284L176.926 333.473L171.693 334.034L135.541 337.852L124.585 338.956L121.602 339.24L120.827 339.3H120.559C120.643 339.272 120.73 339.255 120.818 339.249L121.594 339.145L124.568 338.783L135.506 337.533L171.65 333.594L176.874 333.034H177.089V333.241C179.141 346.041 180.968 357.377 182.261 365.635C182.891 369.703 183.408 372.996 183.761 375.298C183.922 376.412 184.051 377.274 184.149 377.884L184.235 378.565C184.278 378.63 184.307 378.703 184.321 378.78Z" fill="#263238"/>
<path d="M275.78 234.085C275.78 234.205 245.998 234.817 209.268 235.447C172.538 236.076 142.739 236.472 142.739 236.352C142.739 236.231 172.512 235.619 209.259 234.998C246.006 234.378 275.78 233.964 275.78 234.085Z" fill="#263238"/>
<path d="M279.495 254.816C279.495 254.936 249.713 255.548 212.974 256.178C176.236 256.807 146.454 257.204 146.454 257.083C146.454 256.962 176.227 256.35 212.974 255.721C249.721 255.092 279.486 254.695 279.495 254.816Z" fill="#263238"/>
<path d="M287.822 275.469C287.822 275.59 258.04 276.202 221.31 276.823C184.58 277.443 154.781 277.857 154.781 277.736C154.781 277.616 184.554 277.004 221.301 276.374C258.048 275.745 287.822 275.34 287.822 275.469Z" fill="#263238"/>
<path d="M296.528 298.881C296.528 299.011 266.746 299.614 230.016 300.243C193.286 300.873 163.487 301.278 163.487 301.148C163.487 301.019 193.26 300.424 230.007 299.795C266.754 299.166 296.528 298.761 296.528 298.881Z" fill="#263238"/>
<path d="M306.406 320.664C306.406 320.785 276.624 321.397 239.894 322.017C203.165 322.638 173.365 323.052 173.365 322.931C173.365 322.81 203.139 322.198 239.886 321.569C276.633 320.94 306.406 320.535 306.406 320.664Z" fill="#263238"/>
<path d="M104.94 175.469C104.94 175.469 107.569 171.719 109.017 170.909C110.465 170.098 112.465 170.047 113.387 170.831L114.301 171.607C114.301 171.607 118.87 169.392 121.137 170.926C121.137 170.926 125.447 168.719 127.653 171.038C127.653 171.038 130.981 168.736 132.472 170.616C133.963 172.495 133.912 175.788 133.265 177.451C132.619 179.115 131.481 184.899 130.472 185.028C130.472 185.028 127.774 185.39 127.378 183.942C126.981 182.494 126.8 181.787 126.8 181.787C126.8 181.787 125.938 186.959 124.679 187.287C123.421 187.614 121.059 187.502 120.913 185.235C120.913 185.235 119.809 186.959 118.663 186.52C117.516 186.08 116.077 185.27 116.189 183.865C116.301 182.46 116.249 181.046 116.249 181.046C116.249 181.046 115.689 183.115 114.654 182.701C113.62 182.287 112.594 182.408 111.974 180.692C111.353 178.977 109.776 175.589 109.776 175.589L104.94 175.469Z" fill="#FFBE9D"/>
<path d="M116.163 180.942C116.094 180.942 116.353 180.374 116.56 179.46C116.843 178.283 116.858 177.057 116.603 175.874C116.347 174.69 115.829 173.58 115.086 172.624C114.517 171.883 114.068 171.504 114.112 171.443C114.155 171.383 114.672 171.702 115.327 172.426C116.186 173.373 116.78 174.53 117.051 175.779C117.32 177.028 117.261 178.326 116.879 179.546C116.758 180.063 116.513 180.543 116.163 180.942Z" fill="#EB996E"/>
<path d="M121.43 170.943C121.744 171.583 121.962 172.266 122.076 172.969C122.817 176.334 122.683 179.833 121.688 183.132C121.524 183.822 121.254 184.482 120.887 185.089C121.514 182.789 121.916 180.433 122.085 178.055C122.098 175.669 121.878 173.287 121.43 170.943Z" fill="#EB996E"/>
<path d="M127.766 171.098C128.38 174.728 128.059 178.454 126.835 181.925C126.705 181.925 127.291 179.52 127.541 176.538C127.791 173.555 127.628 171.116 127.766 171.098Z" fill="#EB996E"/>
<path d="M146.005 171.736C145.882 171.513 145.71 171.32 145.503 171.171C145.296 171.021 145.058 170.92 144.807 170.874C144.214 170.76 143.602 170.791 143.023 170.964C142.443 171.136 141.914 171.446 141.48 171.866C140.622 172.717 139.906 173.701 139.359 174.779L145.669 174.727C145.583 173.684 146.393 172.659 146.005 171.736Z" fill="#FFBE9D"/>
<path d="M385.167 388.012C385.098 387.952 386.193 386.771 387.59 384.616C388.401 383.347 389.115 382.018 389.727 380.642C391.233 377.272 392.109 373.656 392.313 369.971C392.395 368.476 392.361 366.977 392.21 365.488C391.96 362.902 391.512 361.385 391.607 361.359C391.752 361.707 391.865 362.068 391.943 362.437C392.07 362.858 392.171 363.287 392.244 363.721C392.339 364.23 392.469 364.807 392.529 365.445C392.721 366.957 392.788 368.482 392.727 370.005C392.639 371.869 392.383 373.721 391.96 375.539C391.508 377.351 390.897 379.119 390.133 380.823C389.493 382.207 388.741 383.536 387.883 384.797C387.529 385.349 387.15 385.797 386.84 386.211C386.571 386.562 386.283 386.899 385.978 387.219C385.736 387.511 385.464 387.777 385.167 388.012Z" fill="#263238"/>
<path d="M371.91 392.925C371.858 392.874 372.936 391.891 374.496 390.133C378.503 385.54 381.365 380.063 382.849 374.151C383.417 371.893 383.607 370.453 383.711 370.47C383.706 370.824 383.665 371.176 383.59 371.522C383.487 372.444 383.332 373.359 383.124 374.263C381.788 380.285 378.882 385.846 374.703 390.383C374.076 391.069 373.411 391.719 372.711 392.331C372.472 392.564 372.202 392.764 371.91 392.925Z" fill="#263238"/>
<path d="M337.441 255.133C353.553 247.817 360.685 228.825 353.369 212.713C346.053 196.6 327.061 189.469 310.948 196.785C294.836 204.1 287.705 223.093 295.02 239.205C302.336 255.318 321.328 262.449 337.441 255.133Z" fill="#6E7DAB"/>
<path d="M323.414 214.767C323.54 222.198 323.667 229.628 323.793 237.059C323.845 239.826 328.155 239.834 328.103 237.059C327.982 229.628 327.856 222.198 327.724 214.767C327.681 212 323.371 211.992 323.414 214.767Z" fill="white"/>
<path d="M313.837 228.275L337.688 227.861C340.455 227.861 340.464 223.551 337.688 223.551L313.837 223.965C311.07 224.008 311.061 228.318 313.837 228.275Z" fill="white"/>
<g opacity="0.3">
<path opacity="0.3" d="M330.146 194.381C324.059 193.142 317.739 193.807 312.044 196.286C313.263 198.387 314.668 200.375 316.242 202.225C317.587 203.897 319.604 205.673 321.629 204.923C322.149 204.637 322.715 204.444 323.302 204.354C324.215 204.354 324.827 205.259 325.336 206.027C326.696 208.068 328.42 209.842 330.422 211.259C331.499 212.026 333.128 212.621 333.999 211.63C334.374 211.088 334.548 210.433 334.49 209.776C334.559 204.872 332.361 198.76 330.146 194.381Z" fill="black"/>
</g>
<path d="M301.864 161.858L307.036 160.306C309.099 159.735 311.265 159.646 313.368 160.045C315.471 160.444 317.454 161.321 319.164 162.608C321.974 164.72 324.983 167.125 325.948 168.435L330.379 174.391C330.871 175.029 331.205 175.773 331.355 176.564C331.505 177.355 331.466 178.17 331.241 178.943C331.179 179.279 331.002 179.584 330.741 179.805L329.172 182.08C329.172 182.08 329.637 185.528 329.655 187.726C329.672 189.925 327.534 193.674 327.534 193.674L331.723 205.113C331.925 205.635 331.968 206.204 331.847 206.75C331.726 207.296 331.446 207.794 331.042 208.182C330.937 208.304 330.808 208.403 330.664 208.475C330.519 208.546 330.362 208.587 330.201 208.596C330.04 208.605 329.879 208.581 329.727 208.526C329.575 208.471 329.436 208.386 329.318 208.277C327.672 206.949 323.284 197.622 323.284 197.622L321.56 195.622L319.173 195.028C319.173 195.028 319.604 198.476 318.052 199.157L311.492 193.502L306.415 184.882C306.415 184.882 306.277 173.09 305.001 169.831L301.864 161.858Z" fill="#FFBE9D"/>
<path d="M324.439 184.649C326.217 187.351 327.271 190.465 327.499 193.691C327.37 193.691 326.974 191.605 326.129 189.123C325.284 186.64 324.327 184.718 324.439 184.649Z" fill="#EB996E"/>
<path d="M328.241 179.356C328.379 179.296 328.862 180.425 329.103 181.856C329.352 182.712 329.44 183.606 329.362 184.494C329 183.687 328.764 182.829 328.663 181.951C328.449 181.1 328.308 180.232 328.241 179.356Z" fill="#EB996E"/>
<path d="M324.284 199.691C323.761 198.938 323.284 198.156 322.853 197.346C321.991 195.881 320.767 193.898 319.345 191.735C318.638 190.649 317.94 189.632 317.302 188.709C316.778 187.887 316.126 187.154 315.371 186.537C314.645 186.015 313.782 185.716 312.889 185.675C313.124 185.582 313.38 185.555 313.63 185.597C314.322 185.666 314.984 185.913 315.552 186.313C316.369 186.917 317.074 187.658 317.638 188.502C318.302 189.416 319.009 190.433 319.724 191.519C321.147 193.683 322.31 195.717 323.129 197.226C323.601 198.004 323.988 198.83 324.284 199.691Z" fill="#EB996E"/>
<path d="M314.44 186.666C314.509 186.666 314.578 187.347 314.923 188.39C315.374 189.742 316.112 190.98 317.087 192.019C317.688 192.557 318.237 193.152 318.724 193.795C319.107 194.37 319.316 195.043 319.328 195.734C319.385 196.348 319.293 196.965 319.061 197.536C318.983 197.536 319.104 196.838 319.009 195.76C318.961 195.14 318.747 194.544 318.388 194.036C317.892 193.419 317.348 192.842 316.759 192.312C315.732 191.232 314.997 189.91 314.621 188.468C314.426 187.888 314.364 187.273 314.44 186.666Z" fill="#EB996E"/>
<path d="M305.837 174.452C305.708 174.452 305.837 172.4 305.45 169.917C305.062 167.435 304.467 165.469 304.656 165.444C304.882 165.83 305.056 166.245 305.174 166.676C305.508 167.713 305.75 168.778 305.898 169.857C306.184 171.377 306.163 172.939 305.837 174.452Z" fill="#EB996E"/>
<path d="M410.157 406.467C410.157 406.588 325.543 406.89 221.181 407.131C116.818 407.373 32.1958 407.467 32.1958 407.338C32.1958 407.209 116.792 406.924 221.181 406.683C325.569 406.442 410.157 406.338 410.157 406.467Z" fill="#263238"/>
</svg>
