<svg width="500" height="500" viewBox="0 0 500 500" fill="none" xmlns="http://www.w3.org/2000/svg">
<path d="M227.665 362.154C227.705 338.015 227.739 269.484 227.773 242.745C243.293 232.711 257.853 221.72 271.336 209.886C271.343 242.84 271.336 332.255 271.333 362.154H227.665Z" fill="white"/>
<path d="M141.356 362.154V285.052C155.717 279.966 169.625 274.183 183.033 267.762V362.154H141.356Z" fill="white"/>
<path d="M315.067 362.154L315.147 163.593C332.806 140.931 347.086 116.309 357.418 90.217L357.44 362.154H315.067Z" fill="white"/>
<path d="M143.911 419.82H356.084C390.814 419.82 422.35 406.625 445.245 385.301C468.372 363.764 482.683 333.988 482.683 301.09C482.683 268.197 468.371 238.422 445.245 216.885C429.534 202.251 409.745 191.447 387.66 186.105L386.933 231.56C397.193 235.414 406.402 241.133 414.059 248.265C428.581 261.795 437.573 280.475 437.573 301.091C437.573 321.712 428.582 340.393 414.059 353.922C385.873 380.181 350.383 377.008 315.062 378.338L133.708 377.895C115.085 375.768 98.4484 367.89 85.9374 356.237C71.4134 342.715 62.4304 324.034 62.4304 303.414C62.4304 282.797 71.4124 264.111 85.9374 250.588C100.691 236.843 121.185 228.343 143.911 228.343H144.019C169.124 228.343 162.249 231.323 166.785 208.135C170.107 191.135 175.826 177.194 193.143 163.091C207.457 151.434 226.341 144.371 247.144 144.371C260.18 144.371 272.473 147.154 283.358 152.112C288.588 154.193 290.712 155.006 293.633 150.283L309.801 125.029C314.661 117.443 311.716 117.196 306.419 114.572C288.716 105.728 268.524 100.709 247.144 100.709C215.526 100.709 186.512 111.702 164.245 129.83C151.026 140.595 140.214 153.876 132.659 168.87C121.967 190.08 132.141 182.963 108.674 189.462C88.3034 195.105 69.6464 205.441 54.7524 219.203C31.6264 240.74 17.3174 270.52 17.3174 303.415C17.3174 336.311 31.6224 366.08 54.7524 387.619C77.6474 408.943 109.184 419.836 143.911 419.82Z" fill="white"/>
<path fill-rule="evenodd" clip-rule="evenodd" d="M381.548 119.329H421.984C425.323 119.329 428.049 121.968 428.049 125.198V164.334C428.049 167.569 425.322 170.205 421.984 170.205H381.548C378.213 170.205 375.482 167.569 375.482 164.334V125.198C375.481 121.968 378.213 119.329 381.548 119.329Z" fill="white"/>
<path fill-rule="evenodd" clip-rule="evenodd" d="M438.878 98.407H469.281C471.792 98.407 473.844 100.39 473.844 102.82V132.252C473.844 134.684 471.791 136.666 469.281 136.666H438.878C436.365 136.666 434.314 134.685 434.314 132.252V102.82C434.313 100.39 436.365 98.407 438.878 98.407Z" fill="white"/>
<path fill-rule="evenodd" clip-rule="evenodd" d="M398.399 80.18H424.183C426.309 80.18 428.048 81.862 428.048 83.92V108.878C428.048 110.94 426.309 112.622 424.183 112.622H398.399C396.272 112.622 394.532 110.94 394.532 108.878V83.92C394.532 81.861 396.272 80.18 398.399 80.18Z" fill="white"/>
</svg>
