<svg width="20" height="20" viewBox="0 0 20 20" fill="none" xmlns="http://www.w3.org/2000/svg">
<path d="M14.6166 6.92495C15.7488 6.92495 16.6666 6.00713 16.6666 4.87495C16.6666 3.74277 15.7488 2.82495 14.6166 2.82495C13.4845 2.82495 12.5667 3.74277 12.5667 4.87495C12.5667 6.00713 13.4845 6.92495 14.6166 6.92495Z" stroke="white" stroke-width="1.5" stroke-miterlimit="10" stroke-linecap="round" stroke-linejoin="round"/>
<path d="M5.38326 6.92495C6.51544 6.92495 7.43325 6.00713 7.43325 4.87495C7.43325 3.74277 6.51544 2.82495 5.38326 2.82495C4.25107 2.82495 3.33325 3.74277 3.33325 4.87495C3.33325 6.00713 4.25107 6.92495 5.38326 6.92495Z" stroke="white" stroke-width="1.5" stroke-miterlimit="10" stroke-linecap="round" stroke-linejoin="round"/>
<path d="M14.6166 17.175C15.7488 17.175 16.6666 16.2571 16.6666 15.125C16.6666 13.9928 15.7488 13.075 14.6166 13.075C13.4845 13.075 12.5667 13.9928 12.5667 15.125C12.5667 16.2571 13.4845 17.175 14.6166 17.175Z" stroke="white" stroke-width="1.5" stroke-miterlimit="10" stroke-linecap="round" stroke-linejoin="round"/>
<path d="M5.38326 17.175C6.51544 17.175 7.43325 16.2571 7.43325 15.125C7.43325 13.9928 6.51544 13.075 5.38326 13.075C4.25107 13.075 3.33325 13.9928 3.33325 15.125C3.33325 16.2571 4.25107 17.175 5.38326 17.175Z" stroke="white" stroke-width="1.5" stroke-miterlimit="10" stroke-linecap="round" stroke-linejoin="round"/>
</svg>
