<svg width="16" height="16" viewBox="0 0 16 16" fill="none" xmlns="http://www.w3.org/2000/svg">
<path d="M11.3333 6.66665H12.6666C13.9999 6.66665 14.6666 5.99998 14.6666 4.66665V3.33331C14.6666 1.99998 13.9999 1.33331 12.6666 1.33331H11.3333C9.99992 1.33331 9.33325 1.99998 9.33325 3.33331V4.66665C9.33325 5.99998 9.99992 6.66665 11.3333 6.66665Z" stroke="white" stroke-width="1.5" stroke-miterlimit="10" stroke-linecap="round" stroke-linejoin="round"/>
<path d="M3.33325 14.6666H4.66659C5.99992 14.6666 6.66659 14 6.66659 12.6666V11.3333C6.66659 9.99998 5.99992 9.33331 4.66659 9.33331H3.33325C1.99992 9.33331 1.33325 9.99998 1.33325 11.3333V12.6666C1.33325 14 1.99992 14.6666 3.33325 14.6666Z" stroke="white" stroke-width="1.5" stroke-miterlimit="10" stroke-linecap="round" stroke-linejoin="round"/>
<path d="M3.99992 6.66665C5.47268 6.66665 6.66659 5.47274 6.66659 3.99998C6.66659 2.52722 5.47268 1.33331 3.99992 1.33331C2.52716 1.33331 1.33325 2.52722 1.33325 3.99998C1.33325 5.47274 2.52716 6.66665 3.99992 6.66665Z" stroke="white" stroke-width="1.5" stroke-miterlimit="10" stroke-linecap="round" stroke-linejoin="round"/>
<path d="M11.9999 14.6666C13.4727 14.6666 14.6666 13.4727 14.6666 12C14.6666 10.5272 13.4727 9.33331 11.9999 9.33331C10.5272 9.33331 9.33325 10.5272 9.33325 12C9.33325 13.4727 10.5272 14.6666 11.9999 14.6666Z" stroke="white" stroke-width="1.5" stroke-miterlimit="10" stroke-linecap="round" stroke-linejoin="round"/>
</svg>
