<svg width="16" height="16" viewBox="0 0 16 16" fill="none" xmlns="http://www.w3.org/2000/svg">
<path d="M3.33325 6V10.6667" stroke="white" stroke-width="1.5" stroke-linecap="round" stroke-linejoin="round"/>
<path d="M3.49992 5.66665C4.69654 5.66665 5.66658 4.6966 5.66658 3.49998C5.66658 2.30336 4.69654 1.33331 3.49992 1.33331C2.3033 1.33331 1.33325 2.30336 1.33325 3.49998C1.33325 4.6966 2.3033 5.66665 3.49992 5.66665Z" stroke="white" stroke-width="1.5" stroke-linecap="round" stroke-linejoin="round"/>
<path d="M3.33325 14.6667C4.43782 14.6667 5.33325 13.7713 5.33325 12.6667C5.33325 11.5621 4.43782 10.6667 3.33325 10.6667C2.22868 10.6667 1.33325 11.5621 1.33325 12.6667C1.33325 13.7713 2.22868 14.6667 3.33325 14.6667Z" stroke="white" stroke-width="1.5" stroke-linecap="round" stroke-linejoin="round"/>
<path d="M12.6667 14.6667C13.7713 14.6667 14.6667 13.7713 14.6667 12.6667C14.6667 11.5621 13.7713 10.6667 12.6667 10.6667C11.5622 10.6667 10.6667 11.5621 10.6667 12.6667C10.6667 13.7713 11.5622 14.6667 12.6667 14.6667Z" stroke="white" stroke-width="1.5" stroke-linecap="round" stroke-linejoin="round"/>
<path d="M3.41992 6C3.71992 7.16667 4.78659 8.03334 6.04659 8.02667L8.33325 8.02C10.0799 8.01333 11.5666 9.13334 12.1133 10.6933" stroke="white" stroke-width="1.5" stroke-linecap="round" stroke-linejoin="round"/>
</svg>
