<svg width="20" height="20" viewBox="0 0 20 20" fill="none" xmlns="http://www.w3.org/2000/svg">
<path d="M17.9167 4.45837C17.9167 5.21671 17.5584 5.89171 17.0084 6.32504C16.6084 6.64171 16.1001 6.83337 15.5417 6.83337C14.2251 6.83337 13.1667 5.77504 13.1667 4.45837C13.1667 3.90004 13.3584 3.40004 13.6751 2.99171H13.6834C14.1084 2.44171 14.7834 2.08337 15.5417 2.08337C16.8584 2.08337 17.9167 3.14171 17.9167 4.45837Z" stroke="white" stroke-width="1.5" stroke-linecap="round" stroke-linejoin="round"/>
<path d="M6.83325 4.45837C6.83325 5.77504 5.77492 6.83337 4.45825 6.83337C3.89992 6.83337 3.39992 6.64171 2.99159 6.32504C2.44159 5.89171 2.08325 5.21671 2.08325 4.45837C2.08325 3.14171 3.14159 2.08337 4.45825 2.08337C5.21659 2.08337 5.89159 2.44171 6.32492 2.99171C6.64159 3.40004 6.83325 3.90004 6.83325 4.45837Z" stroke="white" stroke-width="1.5" stroke-linecap="round" stroke-linejoin="round"/>
<path d="M17.9167 15.5416C17.9167 16.8583 16.8584 17.9166 15.5417 17.9166C14.7834 17.9166 14.1084 17.5583 13.6834 17.0083H13.6751C13.3584 16.6083 13.1667 16.1 13.1667 15.5416C13.1667 14.225 14.2251 13.1666 15.5417 13.1666C16.1001 13.1666 16.6001 13.3583 17.0084 13.675V13.6833C17.5584 14.1083 17.9167 14.7833 17.9167 15.5416Z" stroke="white" stroke-width="1.5" stroke-linecap="round" stroke-linejoin="round"/>
<path d="M6.83325 15.5416C6.83325 16.1 6.64159 16.6 6.32492 17.0083C5.89159 17.5666 5.21659 17.9166 4.45825 17.9166C3.14159 17.9166 2.08325 16.8583 2.08325 15.5416C2.08325 14.7833 2.44159 14.1083 2.99159 13.6833V13.675C3.39159 13.3583 3.89992 13.1666 4.45825 13.1666C5.77492 13.1666 6.83325 14.225 6.83325 15.5416Z" stroke="white" stroke-width="1.5" stroke-linecap="round" stroke-linejoin="round"/>
<path d="M17.9166 10C17.9166 11.3334 17.5916 12.575 17.0083 13.675C16.6083 13.3584 16.0999 13.1667 15.5416 13.1667C14.2249 13.1667 13.1666 14.225 13.1666 15.5417C13.1666 16.1 13.3583 16.6 13.6749 17.0084C12.5749 17.5917 11.3333 17.9167 9.99992 17.9167C8.67492 17.9167 7.42492 17.5917 6.32492 17.0084C6.64159 16.6084 6.83325 16.1 6.83325 15.5417C6.83325 14.225 5.77492 13.1667 4.45825 13.1667C3.89992 13.1667 3.39992 13.3584 2.99159 13.675C2.40825 12.575 2.08325 11.3334 2.08325 10C2.08325 8.67504 2.40825 7.42504 2.99159 6.32504C3.39992 6.64171 3.89992 6.83337 4.45825 6.83337C5.77492 6.83337 6.83325 5.77504 6.83325 4.45837C6.83325 3.90004 6.64159 3.40004 6.32492 2.99171C7.42492 2.40837 8.67492 2.08337 9.99992 2.08337C11.3333 2.08337 12.5749 2.40837 13.6749 2.99171C13.3583 3.39171 13.1666 3.90004 13.1666 4.45837C13.1666 5.77504 14.2249 6.83337 15.5416 6.83337C16.0999 6.83337 16.5999 6.64171 17.0083 6.32504C17.5916 7.42504 17.9166 8.67504 17.9166 10Z" stroke="white" stroke-width="1.5" stroke-linecap="round" stroke-linejoin="round"/>
</svg>
