<svg width="20" height="20" viewBox="0 0 20 20" fill="none" xmlns="http://www.w3.org/2000/svg">
<path d="M9.99995 7.76663C10.9916 7.76663 11.8 6.95829 11.8 5.96663C11.8 4.97496 10.9916 4.16663 9.99995 4.16663C9.00828 4.16663 8.19995 4.97496 8.19995 5.96663C8.19995 6.95829 9.00828 7.76663 9.99995 7.76663Z" stroke="white" stroke-width="1.5" stroke-linecap="round" stroke-linejoin="round"/>
<path d="M5.6584 15.8333C6.65006 15.8333 7.4584 15.0249 7.4584 14.0333C7.4584 13.0416 6.65006 12.2333 5.6584 12.2333C4.66673 12.2333 3.8584 13.0416 3.8584 14.0333C3.8584 15.0249 4.6584 15.8333 5.6584 15.8333Z" stroke="white" stroke-width="1.5" stroke-linecap="round" stroke-linejoin="round"/>
<path d="M14.3417 15.8333C15.3334 15.8333 16.1417 15.0249 16.1417 14.0333C16.1417 13.0416 15.3334 12.2333 14.3417 12.2333C13.3501 12.2333 12.5417 13.0416 12.5417 14.0333C12.5417 15.0249 13.3501 15.8333 14.3417 15.8333Z" stroke="white" stroke-width="1.5" stroke-linecap="round" stroke-linejoin="round"/>
</svg>
