<svg width="20" height="20" viewBox="0 0 20 20" fill="none" xmlns="http://www.w3.org/2000/svg">
<path d="M13.3333 6.66663H6.66663V13.3333H13.3333V6.66663Z" stroke="white" stroke-width="1.5" stroke-linecap="round" stroke-linejoin="round"/>
<path d="M4.16663 18.3334C5.54163 18.3334 6.66663 17.2084 6.66663 15.8334V13.3334H4.16663C2.79163 13.3334 1.66663 14.4584 1.66663 15.8334C1.66663 17.2084 2.79163 18.3334 4.16663 18.3334Z" stroke="white" stroke-width="1.5" stroke-linecap="round" stroke-linejoin="round"/>
<path d="M4.16663 6.66663H6.66663V4.16663C6.66663 2.79163 5.54163 1.66663 4.16663 1.66663C2.79163 1.66663 1.66663 2.79163 1.66663 4.16663C1.66663 5.54163 2.79163 6.66663 4.16663 6.66663Z" stroke="white" stroke-width="1.5" stroke-linecap="round" stroke-linejoin="round"/>
<path d="M13.3334 6.66663H15.8334C17.2084 6.66663 18.3334 5.54163 18.3334 4.16663C18.3334 2.79163 17.2084 1.66663 15.8334 1.66663C14.4584 1.66663 13.3334 2.79163 13.3334 4.16663V6.66663Z" stroke="white" stroke-width="1.5" stroke-linecap="round" stroke-linejoin="round"/>
<path d="M15.8334 18.3334C17.2084 18.3334 18.3334 17.2084 18.3334 15.8334C18.3334 14.4584 17.2084 13.3334 15.8334 13.3334H13.3334V15.8334C13.3334 17.2084 14.4584 18.3334 15.8334 18.3334Z" stroke="white" stroke-width="1.5" stroke-linecap="round" stroke-linejoin="round"/>
</svg>
