<svg width="24" height="24" viewBox="0 0 24 24" fill="none" xmlns="http://www.w3.org/2000/svg">
<path d="M11 19C15.4183 19 19 15.4183 19 11C19 6.58172 15.4183 3 11 3C6.58172 3 3 6.58172 3 11C3 15.4183 6.58172 19 11 19Z" fill="white"/>
<path d="M21 21L16.65 16.65M19 11C19 15.4183 15.4183 19 11 19C6.58172 19 3 15.4183 3 11C3 6.58172 6.58172 3 11 3C15.4183 3 19 6.58172 19 11Z" stroke="#003059" stroke-width="2" stroke-linecap="round" stroke-linejoin="round"/>
<path d="M8.8 11.4L9.11378 12.0276C9.21998 12.24 9.27308 12.3462 9.34401 12.4382C9.40696 12.5198 9.48016 12.593 9.56182 12.656C9.65385 12.7269 9.76004 12.78 9.97243 12.8862L10.6 13.2L9.97243 13.5138C9.76004 13.62 9.65385 13.6731 9.56182 13.744C9.48016 13.807 9.40696 13.8802 9.34401 13.9618C9.27308 14.0538 9.21998 14.16 9.11378 14.3724L8.8 15L8.48622 14.3724C8.38002 14.16 8.32692 14.0538 8.25599 13.9618C8.19304 13.8802 8.11984 13.807 8.03818 13.744C7.94615 13.6731 7.83996 13.62 7.62757 13.5138L7 13.2L7.62757 12.8862C7.83996 12.78 7.94615 12.7269 8.03818 12.656C8.11984 12.593 8.19304 12.5198 8.25599 12.4382C8.32692 12.3462 8.38002 12.24 8.48622 12.0276L8.8 11.4Z" fill="#003059"/>
<path d="M12.2 7L12.6714 8.22577C12.7843 8.51906 12.8407 8.66571 12.9284 8.78906C13.0061 8.89838 13.1016 8.9939 13.2109 9.07163C13.3343 9.15934 13.4809 9.21575 13.7742 9.32855L15 9.8L13.7742 10.2714C13.4809 10.3843 13.3343 10.4407 13.2109 10.5284C13.1016 10.6061 13.0061 10.7016 12.9284 10.8109C12.8407 10.9343 12.7843 11.0809 12.6714 11.3742L12.2 12.6L11.7286 11.3742C11.6157 11.0809 11.5593 10.9343 11.4716 10.8109C11.3939 10.7016 11.2984 10.6061 11.1891 10.5284C11.0657 10.4407 10.9191 10.3843 10.6258 10.2714L9.4 9.8L10.6258 9.32855C10.9191 9.21575 11.0657 9.15934 11.1891 9.07163C11.2984 8.9939 11.3939 8.89838 11.4716 8.78906C11.5593 8.66571 11.6157 8.51906 11.7286 8.22577L12.2 7Z" fill="#003059"/>
<path d="M8.8 11.4L9.11378 12.0276C9.21998 12.24 9.27308 12.3462 9.34401 12.4382C9.40696 12.5198 9.48016 12.593 9.56182 12.656C9.65385 12.7269 9.76004 12.78 9.97243 12.8862L10.6 13.2L9.97243 13.5138C9.76004 13.62 9.65385 13.6731 9.56182 13.744C9.48016 13.807 9.40696 13.8802 9.34401 13.9618C9.27308 14.0538 9.21998 14.16 9.11378 14.3724L8.8 15L8.48622 14.3724C8.38002 14.16 8.32692 14.0538 8.25599 13.9618C8.19304 13.8802 8.11984 13.807 8.03818 13.744C7.94615 13.6731 7.83996 13.62 7.62757 13.5138L7 13.2L7.62757 12.8862C7.83996 12.78 7.94615 12.7269 8.03818 12.656C8.11984 12.593 8.19304 12.5198 8.25599 12.4382C8.32692 12.3462 8.38002 12.24 8.48622 12.0276L8.8 11.4Z" stroke="#003059" stroke-width="0.6" stroke-linecap="round" stroke-linejoin="round"/>
<path d="M12.2 7L12.6714 8.22577C12.7843 8.51906 12.8407 8.66571 12.9284 8.78906C13.0061 8.89838 13.1016 8.9939 13.2109 9.07163C13.3343 9.15934 13.4809 9.21575 13.7742 9.32855L15 9.8L13.7742 10.2714C13.4809 10.3843 13.3343 10.4407 13.2109 10.5284C13.1016 10.6061 13.0061 10.7016 12.9284 10.8109C12.8407 10.9343 12.7843 11.0809 12.6714 11.3742L12.2 12.6L11.7286 11.3742C11.6157 11.0809 11.5593 10.9343 11.4716 10.8109C11.3939 10.7016 11.2984 10.6061 11.1891 10.5284C11.0657 10.4407 10.9191 10.3843 10.6258 10.2714L9.4 9.8L10.6258 9.32855C10.9191 9.21575 11.0657 9.15934 11.1891 9.07163C11.2984 8.9939 11.3939 8.89838 11.4716 8.78906C11.5593 8.66571 11.6157 8.51906 11.7286 8.22577L12.2 7Z" stroke="#003059" stroke-width="0.6" stroke-linecap="round" stroke-linejoin="round"/>
</svg>
