<?xml version="1.0" encoding="UTF-8"?>
<svg version="1.1" xmlns="http://www.w3.org/2000/svg" width="512" height="512">
<path d="M0 0 C0.83192871 0.16628906 1.66385742 0.33257812 2.52099609 0.50390625 C21.59700784 4.34973277 39.97038772 10.69753838 57.09667969 19.97021484 C59.04746877 21.02568282 61.01146519 22.053493 62.9765625 23.08203125 C70.31101259 26.99338222 77.14648076 31.34179684 83.8125 36.3125 C84.48861328 36.81620117 85.16472656 37.31990234 85.86132812 37.83886719 C92.48919802 42.91661602 92.48919802 42.91661602 94 46 C93.93941406 47.2684375 93.87882812 48.536875 93.81640625 49.84375 C93.68944942 53.28675527 94.22399956 54.83350434 96.52734375 57.40625 C97.63745855 58.46608546 98.77572769 59.49705874 99.9375 60.5 C100.52853516 61.03044922 101.11957031 61.56089844 101.72851562 62.10742188 C105.06870176 64.92536392 107.4490826 66.74641177 112 66.5 C112.66 66.3453125 113.32 66.190625 114 66.03125 C117.32817801 65.97924722 118.64153147 67.74619723 121 70 C123.19835904 72.54139647 125.23302081 75.1882868 127.25 77.875 C127.82355225 78.63603027 128.39710449 79.39706055 128.98803711 80.18115234 C163.97201439 127.05193709 178.25515947 183.92263553 170.91699219 241.90771484 C163.90452966 288.0457193 142.00625932 328.58480776 110 362 C108.93652344 363.12535156 108.93652344 363.12535156 107.8515625 364.2734375 C72.52614421 400.75233884 18.82173585 423.27287933 -31.70703125 424.3359375 C-34.7424796 424.37664884 -37.77681649 424.38320734 -40.8125 424.375 C-41.61337036 424.37412384 -42.41424072 424.37324768 -43.23937988 424.37234497 C-73.01922956 424.26578293 -101.20147656 418.37723979 -128.38745117 406.11279297 C-129.3282251 405.69400879 -130.26899902 405.27522461 -131.23828125 404.84375 C-132.06368408 404.46412109 -132.88908691 404.08449219 -133.73950195 403.69335938 C-136.36337484 402.88854255 -137.48503915 402.94491174 -140 404 C-141.6677569 405.2737395 -141.6677569 405.2737395 -143.171875 406.9140625 C-143.75018066 407.50727295 -144.32848633 408.1004834 -144.92431641 408.71166992 C-145.82802979 409.65876831 -145.82802979 409.65876831 -146.75 410.625 C-148.00077855 411.90673199 -149.25336944 413.18669803 -150.5078125 414.46484375 C-151.10883789 415.07827637 -151.70986328 415.69170898 -152.32910156 416.32373047 C-155.39422472 419.39870644 -158.62391664 422.27193264 -162 425 C-162.60585937 425.55300781 -163.21171875 426.10601562 -163.8359375 426.67578125 C-166.91335066 428.55889147 -168.4261615 428.60849528 -172 428 C-174.92836372 426.3110763 -177.50302138 424.25079714 -180.125 422.125 C-181.52131983 421.02075441 -182.91969197 419.91909798 -184.3203125 418.8203125 C-185.23707764 418.08192139 -185.23707764 418.08192139 -186.17236328 417.32861328 C-188.03819163 415.97223633 -189.91188425 414.97176587 -192 414 C-195.91763157 417.8928316 -199.83190527 421.78899791 -203.74316406 425.68823242 C-205.07298486 427.01303808 -206.40370357 428.33694309 -207.73535156 429.65991211 C-209.654088 431.56645927 -211.56952542 433.47626879 -213.484375 435.38671875 C-214.07619568 435.97337814 -214.66801636 436.56003754 -215.277771 437.16447449 C-217.74401836 439.63038938 -220.04382769 442.05505456 -222.21972656 444.78833008 C-224 447 -224 447 -227 449 C-228.4848007 448.8365874 -229.96425493 448.62175041 -231.4375 448.375 C-235.42210635 448.22242303 -237.37648802 449.05349817 -240.25390625 451.6640625 C-242.43387442 453.82614875 -244.48684647 456.08529526 -246.53125 458.375 C-247.3459375 459.24125 -248.160625 460.1075 -249 461 C-249.66 461 -250.32 461 -251 461 C-250.4121875 462.546875 -250.4121875 462.546875 -249.8125 464.125 C-248.80489708 468.93049084 -249.4169396 469.89895613 -252 474 C-254.3936439 476.62471072 -256.99135507 478.99400553 -259.625 481.375 C-261.15264759 482.78222231 -262.6799818 484.18978489 -264.20703125 485.59765625 C-264.99416504 486.31840332 -265.78129883 487.03915039 -266.59228516 487.78173828 C-271.26615101 492.08783696 -275.85923701 496.48053693 -280.46533203 500.85888672 C-281.13290527 501.48939941 -281.80047852 502.11991211 -282.48828125 502.76953125 C-283.07134033 503.32229736 -283.65439941 503.87506348 -284.25512695 504.44458008 C-287.96403285 507.75078401 -290.49007682 509.81521909 -295.734375 509.6015625 C-300.69876447 508.2834315 -304.29027393 504.38371984 -308 501 C-308.85078125 500.24460937 -309.7015625 499.48921875 -310.578125 498.7109375 C-312.27133871 497.19951054 -313.95505394 495.6773726 -315.62890625 494.14453125 C-317.73078868 492.24348767 -319.88205927 490.43411815 -322.0625 488.625 C-327.02754132 484.3032029 -330.96697416 479.17546092 -335 474 C-335.55429687 473.34644531 -336.10859375 472.69289063 -336.6796875 472.01953125 C-339.38672872 468.67778827 -341.04681103 465.54764096 -340.7265625 461.1484375 C-339.03419444 456.14412334 -334.64371856 452.65401155 -331 449 C-329.49803631 447.38443397 -328.01435195 445.75326567 -326.53100586 444.12060547 C-321.90274922 439.03254913 -317.17370647 434.0783386 -312.23046875 429.29296875 C-310.45850383 427.47135157 -308.83526905 425.63456056 -307.19628906 423.69848633 C-301.65058166 417.34592717 -295.60123383 411.47805953 -289.62890625 405.53125 C-288.33831715 404.24252928 -287.0479511 402.95358515 -285.75779724 401.66442871 C-282.38499816 398.29542172 -279.00920538 394.92943045 -275.63275146 391.56408691 C-272.17846255 388.12008377 -268.72705315 384.67319751 -265.27539062 381.2265625 C-258.51972087 374.48157161 -251.76088066 367.73976742 -245 361 C-245.40602448 360.45957062 -245.81204895 359.91914124 -246.2303772 359.36233521 C-246.76617401 358.64866791 -247.30197083 357.93500061 -247.85400391 357.19970703 C-248.38377838 356.49427765 -248.91355286 355.78884827 -249.4593811 355.06204224 C-251.47630591 352.36248808 -253.44991598 349.64092532 -255.375 346.875 C-256.06335938 345.90304687 -256.75171875 344.93109375 -257.4609375 343.9296875 C-259.21976189 340.58167153 -259.52449129 338.72745269 -259 335 C-257.85546875 333.0859375 -257.85546875 333.0859375 -256.1875 331.375 C-255.55199219 330.70339844 -254.91648437 330.03179687 -254.26171875 329.33984375 C-253.14216797 328.18162109 -253.14216797 328.18162109 -252 327 C-250.64068619 325.50535187 -249.281512 324.01057103 -247.92602539 322.51245117 C-243.82397279 317.9820041 -239.68775261 313.58923676 -235.046875 309.59765625 C-233.7479741 307.99542563 -233.7479741 307.99542563 -234.30493164 305.72412109 C-235.01427473 302.94405428 -235.94978227 300.45488764 -237.07421875 297.81640625 C-248.01214092 271.66417629 -255.21260989 245.11875962 -255.4375 216.5625 C-255.44765137 215.65113281 -255.45780273 214.73976562 -255.46826172 213.80078125 C-255.4193305 210.20605966 -255.32239343 207.6556319 -253.72265625 204.40234375 C-252 203 -252 203 -248 203 C-247.34 195.41 -246.68 187.82 -246 180 C-247.98 179.01 -247.98 179.01 -250 178 C-252.94076774 173.5888484 -251.82710496 170.07668224 -251 165 C-250.28164388 161.52069269 -249.39422975 158.10835423 -248.4375 154.6875 C-248.17211426 153.73673584 -247.90672852 152.78597168 -247.63330078 151.80639648 C-240.5172864 127.0150545 -229.60911417 103.60681613 -214 83 C-213.28021973 82.0411792 -213.28021973 82.0411792 -212.54589844 81.06298828 C-200.18391789 64.77059414 -185.69068055 49.86863238 -169 38 C-168.34660645 37.52933105 -167.69321289 37.05866211 -167.02001953 36.57373047 C-141.71420565 18.50833973 -113.4538208 6.25609027 -83 0 C-81.89229248 -0.24339111 -81.89229248 -0.24339111 -80.76220703 -0.49169922 C-55.49305338 -5.86021706 -25.20866629 -5.44125875 0 0 Z " fill="#65EFFD" transform="translate(340,3)"/>
<path d="M0 0 C0.83192871 0.16628906 1.66385742 0.33257812 2.52099609 0.50390625 C21.59700784 4.34973277 39.97038772 10.69753838 57.09667969 19.97021484 C59.04746877 21.02568282 61.01146519 22.053493 62.9765625 23.08203125 C70.31101259 26.99338222 77.14648076 31.34179684 83.8125 36.3125 C84.48861328 36.81620117 85.16472656 37.31990234 85.86132812 37.83886719 C92.48919802 42.91661602 92.48919802 42.91661602 94 46 C93.93941406 47.2684375 93.87882812 48.536875 93.81640625 49.84375 C93.68944942 53.28675527 94.22399956 54.83350434 96.52734375 57.40625 C97.63745855 58.46608546 98.77572769 59.49705874 99.9375 60.5 C100.52853516 61.03044922 101.11957031 61.56089844 101.72851562 62.10742188 C105.06870176 64.92536392 107.4490826 66.74641177 112 66.5 C112.66 66.3453125 113.32 66.190625 114 66.03125 C117.32817801 65.97924722 118.64153147 67.74619723 121 70 C123.19835904 72.54139647 125.23302081 75.1882868 127.25 77.875 C127.82355225 78.63603027 128.39710449 79.39706055 128.98803711 80.18115234 C163.97201439 127.05193709 178.25515947 183.92263553 170.91699219 241.90771484 C163.90452966 288.0457193 142.00625932 328.58480776 110 362 C108.93652344 363.12535156 108.93652344 363.12535156 107.8515625 364.2734375 C72.52614421 400.75233884 18.82173585 423.27287933 -31.70703125 424.3359375 C-34.7424796 424.37664884 -37.77681649 424.38320734 -40.8125 424.375 C-41.61337036 424.37412384 -42.41424072 424.37324768 -43.23937988 424.37234497 C-73.01922956 424.26578293 -101.20147656 418.37723979 -128.38745117 406.11279297 C-129.3282251 405.69400879 -130.26899902 405.27522461 -131.23828125 404.84375 C-132.06368408 404.46412109 -132.88908691 404.08449219 -133.73950195 403.69335938 C-136.36337484 402.88854255 -137.48503915 402.94491174 -140 404 C-141.6677569 405.2737395 -141.6677569 405.2737395 -143.171875 406.9140625 C-143.75018066 407.50727295 -144.32848633 408.1004834 -144.92431641 408.71166992 C-145.82802979 409.65876831 -145.82802979 409.65876831 -146.75 410.625 C-148.00077855 411.90673199 -149.25336944 413.18669803 -150.5078125 414.46484375 C-151.10883789 415.07827637 -151.70986328 415.69170898 -152.32910156 416.32373047 C-155.39422472 419.39870644 -158.62391664 422.27193264 -162 425 C-162.60585937 425.55300781 -163.21171875 426.10601562 -163.8359375 426.67578125 C-166.91335066 428.55889147 -168.4261615 428.60849528 -172 428 C-174.92836372 426.3110763 -177.50302138 424.25079714 -180.125 422.125 C-181.52131983 421.02075441 -182.91969197 419.91909798 -184.3203125 418.8203125 C-185.23707764 418.08192139 -185.23707764 418.08192139 -186.17236328 417.32861328 C-188.03819163 415.97223633 -189.91188425 414.97176587 -192 414 C-195.91763157 417.8928316 -199.83190527 421.78899791 -203.74316406 425.68823242 C-205.07298486 427.01303808 -206.40370357 428.33694309 -207.73535156 429.65991211 C-209.654088 431.56645927 -211.56952542 433.47626879 -213.484375 435.38671875 C-214.07619568 435.97337814 -214.66801636 436.56003754 -215.277771 437.16447449 C-217.74401836 439.63038938 -220.04382769 442.05505456 -222.21972656 444.78833008 C-224 447 -224 447 -227 449 C-228.4848007 448.8365874 -229.96425493 448.62175041 -231.4375 448.375 C-235.42210635 448.22242303 -237.37648802 449.05349817 -240.25390625 451.6640625 C-242.43387442 453.82614875 -244.48684647 456.08529526 -246.53125 458.375 C-247.3459375 459.24125 -248.160625 460.1075 -249 461 C-249.66 461 -250.32 461 -251 461 C-250.4121875 462.546875 -250.4121875 462.546875 -249.8125 464.125 C-248.80489708 468.93049084 -249.4169396 469.89895613 -252 474 C-254.3936439 476.62471072 -256.99135507 478.99400553 -259.625 481.375 C-261.15264759 482.78222231 -262.6799818 484.18978489 -264.20703125 485.59765625 C-264.99416504 486.31840332 -265.78129883 487.03915039 -266.59228516 487.78173828 C-271.26615101 492.08783696 -275.85923701 496.48053693 -280.46533203 500.85888672 C-281.13290527 501.48939941 -281.80047852 502.11991211 -282.48828125 502.76953125 C-283.07134033 503.32229736 -283.65439941 503.87506348 -284.25512695 504.44458008 C-287.96403285 507.75078401 -290.49007682 509.81521909 -295.734375 509.6015625 C-300.69876447 508.2834315 -304.29027393 504.38371984 -308 501 C-308.85078125 500.24460937 -309.7015625 499.48921875 -310.578125 498.7109375 C-312.27133871 497.19951054 -313.95505394 495.6773726 -315.62890625 494.14453125 C-317.73078868 492.24348767 -319.88205927 490.43411815 -322.0625 488.625 C-327.02754132 484.3032029 -330.96697416 479.17546092 -335 474 C-335.55429687 473.34644531 -336.10859375 472.69289063 -336.6796875 472.01953125 C-339.38672872 468.67778827 -341.04681103 465.54764096 -340.7265625 461.1484375 C-339.03419444 456.14412334 -334.64371856 452.65401155 -331 449 C-329.49803631 447.38443397 -328.01435195 445.75326567 -326.53100586 444.12060547 C-321.90274922 439.03254913 -317.17370647 434.0783386 -312.23046875 429.29296875 C-310.45850383 427.47135157 -308.83526905 425.63456056 -307.19628906 423.69848633 C-301.65058166 417.34592717 -295.60123383 411.47805953 -289.62890625 405.53125 C-288.33831715 404.24252928 -287.0479511 402.95358515 -285.75779724 401.66442871 C-282.38499816 398.29542172 -279.00920538 394.92943045 -275.63275146 391.56408691 C-272.17846255 388.12008377 -268.72705315 384.67319751 -265.27539062 381.2265625 C-258.51972087 374.48157161 -251.76088066 367.73976742 -245 361 C-245.40602448 360.45957062 -245.81204895 359.91914124 -246.2303772 359.36233521 C-246.76617401 358.64866791 -247.30197083 357.93500061 -247.85400391 357.19970703 C-248.38377838 356.49427765 -248.91355286 355.78884827 -249.4593811 355.06204224 C-251.47630591 352.36248808 -253.44991598 349.64092532 -255.375 346.875 C-256.06335938 345.90304687 -256.75171875 344.93109375 -257.4609375 343.9296875 C-259.21976189 340.58167153 -259.52449129 338.72745269 -259 335 C-257.85546875 333.0859375 -257.85546875 333.0859375 -256.1875 331.375 C-255.55199219 330.70339844 -254.91648437 330.03179687 -254.26171875 329.33984375 C-253.14216797 328.18162109 -253.14216797 328.18162109 -252 327 C-250.64068619 325.50535187 -249.281512 324.01057103 -247.92602539 322.51245117 C-243.82397279 317.9820041 -239.68775261 313.58923676 -235.046875 309.59765625 C-233.7479741 307.99542563 -233.7479741 307.99542563 -234.30493164 305.72412109 C-235.01427473 302.94405428 -235.94978227 300.45488764 -237.07421875 297.81640625 C-248.01214092 271.66417629 -255.21260989 245.11875962 -255.4375 216.5625 C-255.44765137 215.65113281 -255.45780273 214.73976562 -255.46826172 213.80078125 C-255.4193305 210.20605966 -255.32239343 207.6556319 -253.72265625 204.40234375 C-252 203 -252 203 -248 203 C-247.34 195.41 -246.68 187.82 -246 180 C-247.98 179.01 -247.98 179.01 -250 178 C-252.94076774 173.5888484 -251.82710496 170.07668224 -251 165 C-250.28164388 161.52069269 -249.39422975 158.10835423 -248.4375 154.6875 C-248.17211426 153.73673584 -247.90672852 152.78597168 -247.63330078 151.80639648 C-240.5172864 127.0150545 -229.60911417 103.60681613 -214 83 C-213.28021973 82.0411792 -213.28021973 82.0411792 -212.54589844 81.06298828 C-200.18391789 64.77059414 -185.69068055 49.86863238 -169 38 C-168.34660645 37.52933105 -167.69321289 37.05866211 -167.02001953 36.57373047 C-141.71420565 18.50833973 -113.4538208 6.25609027 -83 0 C-81.89229248 -0.24339111 -81.89229248 -0.24339111 -80.76220703 -0.49169922 C-55.49305338 -5.86021706 -25.20866629 -5.44125875 0 0 Z M-158 90 C-158.96035156 90.89460938 -159.92070312 91.78921875 -160.91015625 92.7109375 C-189.27905907 119.73617128 -207.76561755 160.5382414 -209.09204102 199.71875 C-209.13350899 202.5634035 -209.13934288 205.40508937 -209.125 208.25 C-209.12016602 209.26360596 -209.11533203 210.27721191 -209.11035156 211.3215332 C-208.79827314 250.40311443 -196.04844268 288.41411449 -170 318 C-168.88818359 319.27617188 -168.88818359 319.27617188 -167.75390625 320.578125 C-165.53565027 323.08471581 -163.27893116 325.54854412 -161 328 C-160.3503125 328.71542969 -159.700625 329.43085938 -159.03125 330.16796875 C-138.80138295 351.52603992 -111.25675484 365.77732558 -83 373 C-81.84628906 373.29648437 -80.69257813 373.59296875 -79.50390625 373.8984375 C-76.34566668 374.66430112 -73.18513755 375.35572439 -70 376 C-68.48599609 376.309375 -68.48599609 376.309375 -66.94140625 376.625 C-60.47850853 377.78686925 -54.05475608 378.27685394 -47.5 378.4375 C-46.73405518 378.47190186 -45.96811035 378.50630371 -45.17895508 378.54174805 C-40.96260212 378.57388417 -39.43099419 378.33268752 -35.96875 375.66015625 C-33.70255562 373.14966969 -33.70255562 373.14966969 -34 370 C-32.94425781 370.01740234 -32.94425781 370.01740234 -31.8671875 370.03515625 C-24.83045999 370.09946055 -18.01959257 369.67805856 -11.03125 368.828125 C-8 369 -8 369 -6.09375 371.046875 C-4.02130373 373.43760231 -4.02130373 373.43760231 -0.26171875 372.90234375 C3.99054436 372.1162688 8.09315118 370.94277423 12.1875 369.5625 C13.333396 369.17650635 13.333396 369.17650635 14.50244141 368.78271484 C28.82526771 363.76409809 42.84689962 357.1442415 55 348 C55.5573584 347.58105469 56.1147168 347.16210938 56.68896484 346.73046875 C67.31039679 338.69419317 77.51960943 330.33242989 86 320 C86.61230469 319.27554687 87.22460938 318.55109375 87.85546875 317.8046875 C102.37608327 300.24083042 113.3953783 279.8460564 120 258 C120.42152344 256.62714844 120.42152344 256.62714844 120.8515625 255.2265625 C121.70019479 252.16634303 122.3750727 249.11404451 123 246 C123.13680176 245.32807617 123.27360352 244.65615234 123.41455078 243.96386719 C125.73008528 232.08598445 126.3129836 220.25780581 126.375 208.1875 C126.38276459 207.50265533 126.39052917 206.81781067 126.39852905 206.11221313 C126.491219 195.75003548 125.24562557 186.10875085 123 176 C122.79600586 175.07711182 122.59201172 174.15422363 122.38183594 173.20336914 C114.3834578 138.85306653 95.63050331 105.42339657 68 83 C67.27369385 82.39720215 67.27369385 82.39720215 66.53271484 81.78222656 C-0.13055237 26.58899232 -95.36764108 31.36941141 -158 90 Z " fill="#EBF6F7" transform="translate(340,3)"/>
<path d="M0 0 C4.73360621 3.16645305 7.87317415 7.37690571 11.25 11.875 C11.82355225 12.63603027 12.39710449 13.39706055 12.98803711 14.18115234 C47.97201439 61.05193709 62.25515947 117.92263553 54.91699219 175.90771484 C47.90452966 222.0457193 26.00625932 262.58480776 -6 296 C-7.06347656 297.12535156 -7.06347656 297.12535156 -8.1484375 298.2734375 C-43.47385579 334.75233884 -97.17826415 357.27287933 -147.70703125 358.3359375 C-150.7424796 358.37664884 -153.77681649 358.38320734 -156.8125 358.375 C-157.61337036 358.37412384 -158.41424072 358.37324768 -159.23937988 358.37234497 C-189.01922956 358.26578293 -217.20147656 352.37723979 -244.38745117 340.11279297 C-245.3282251 339.69400879 -246.26899902 339.27522461 -247.23828125 338.84375 C-248.06368408 338.46412109 -248.88908691 338.08449219 -249.73950195 337.69335938 C-252.36337484 336.88854255 -253.48503915 336.94491174 -256 338 C-257.6677569 339.2737395 -257.6677569 339.2737395 -259.171875 340.9140625 C-259.75018066 341.50727295 -260.32848633 342.1004834 -260.92431641 342.71166992 C-261.82802979 343.65876831 -261.82802979 343.65876831 -262.75 344.625 C-264.00077855 345.90673199 -265.25336944 347.18669803 -266.5078125 348.46484375 C-267.10883789 349.07827637 -267.70986328 349.69170898 -268.32910156 350.32373047 C-271.39422472 353.39870644 -274.62391664 356.27193264 -278 359 C-278.60585938 359.55300781 -279.21171875 360.10601562 -279.8359375 360.67578125 C-282.91335066 362.55889147 -284.4261615 362.60849528 -288 362 C-290.92836372 360.3110763 -293.50302138 358.25079714 -296.125 356.125 C-297.52131983 355.02075441 -298.91969197 353.91909798 -300.3203125 352.8203125 C-301.23707764 352.08192139 -301.23707764 352.08192139 -302.17236328 351.32861328 C-304.03819163 349.97223633 -305.91188425 348.97176587 -308 348 C-311.91763157 351.8928316 -315.83190527 355.78899791 -319.74316406 359.68823242 C-321.07298486 361.01303808 -322.40370357 362.33694309 -323.73535156 363.65991211 C-325.654088 365.56645927 -327.56952542 367.47626879 -329.484375 369.38671875 C-330.07619568 369.97337814 -330.66801636 370.56003754 -331.277771 371.16447449 C-333.74401836 373.63038938 -336.04382769 376.05505456 -338.21972656 378.78833008 C-340 381 -340 381 -343 383 C-344.4848007 382.8365874 -345.96425493 382.62175041 -347.4375 382.375 C-351.42210635 382.22242303 -353.37648802 383.05349817 -356.25390625 385.6640625 C-358.43387442 387.82614875 -360.48684647 390.08529526 -362.53125 392.375 C-363.3459375 393.24125 -364.160625 394.1075 -365 395 C-365.66 395 -366.32 395 -367 395 C-366.4121875 396.546875 -366.4121875 396.546875 -365.8125 398.125 C-364.80489708 402.93049084 -365.4169396 403.89895613 -368 408 C-370.3936439 410.62471072 -372.99135507 412.99400553 -375.625 415.375 C-377.15264759 416.78222231 -378.6799818 418.18978489 -380.20703125 419.59765625 C-380.99416504 420.31840332 -381.78129883 421.03915039 -382.59228516 421.78173828 C-387.26615101 426.08783696 -391.85923701 430.48053693 -396.46533203 434.85888672 C-397.13290527 435.48939941 -397.80047852 436.11991211 -398.48828125 436.76953125 C-399.07134033 437.32229736 -399.65439941 437.87506348 -400.25512695 438.44458008 C-403.96403285 441.75078401 -406.49007682 443.81521909 -411.734375 443.6015625 C-416.69876447 442.2834315 -420.29027393 438.38371984 -424 435 C-424.85078125 434.24460937 -425.7015625 433.48921875 -426.578125 432.7109375 C-428.27133871 431.19951054 -429.95505394 429.6773726 -431.62890625 428.14453125 C-433.73078868 426.24348767 -435.88205927 424.43411815 -438.0625 422.625 C-443.02754132 418.3032029 -446.96697416 413.17546092 -451 408 C-451.55429687 407.34644531 -452.10859375 406.69289063 -452.6796875 406.01953125 C-455.38672872 402.67778827 -457.04681103 399.54764096 -456.7265625 395.1484375 C-455.03419444 390.14412334 -450.64371856 386.65401155 -447 383 C-445.49803631 381.38443397 -444.01435195 379.75326567 -442.53100586 378.12060547 C-437.90274922 373.03254913 -433.17370647 368.0783386 -428.23046875 363.29296875 C-426.45850383 361.47135157 -424.83526905 359.63456056 -423.19628906 357.69848633 C-417.65058166 351.34592717 -411.60123383 345.47805953 -405.62890625 339.53125 C-404.33831715 338.24252928 -403.0479511 336.95358515 -401.75779724 335.66442871 C-398.38499816 332.29542172 -395.00920538 328.92943045 -391.63275146 325.56408691 C-388.17846255 322.12008377 -384.72705315 318.67319751 -381.27539062 315.2265625 C-374.51972087 308.48157161 -367.76088066 301.73976742 -361 295 C-361.40602448 294.45957062 -361.81204895 293.91914124 -362.2303772 293.36233521 C-362.76617401 292.64866791 -363.30197083 291.93500061 -363.85400391 291.19970703 C-364.38377838 290.49427765 -364.91355286 289.78884827 -365.4593811 289.06204224 C-367.47630591 286.36248808 -369.44991598 283.64092532 -371.375 280.875 C-372.06335938 279.90304687 -372.75171875 278.93109375 -373.4609375 277.9296875 C-375.21976189 274.58167153 -375.52449129 272.72745269 -375 269 C-373.85546875 267.0859375 -373.85546875 267.0859375 -372.1875 265.375 C-371.55199219 264.70339844 -370.91648437 264.03179687 -370.26171875 263.33984375 C-369.14216797 262.18162109 -369.14216797 262.18162109 -368 261 C-366.64068619 259.50535187 -365.281512 258.01057103 -363.92602539 256.51245117 C-359.82397279 251.9820041 -355.68775261 247.58923676 -351.046875 243.59765625 C-349.7479741 241.99542563 -349.7479741 241.99542563 -350.30493164 239.72412109 C-351.01427473 236.94405428 -351.94978227 234.45488764 -353.07421875 231.81640625 C-364.01214092 205.66417629 -371.21260989 179.11875962 -371.4375 150.5625 C-371.44765137 149.65113281 -371.45780273 148.73976562 -371.46826172 147.80078125 C-371.41914709 144.19258512 -371.34572453 141.67400896 -369.68359375 138.43359375 C-368 137 -368 137 -364.625 136.5 C-360.24040236 137.10477209 -358.93019436 137.68399672 -356 141 C-355.13209944 144.61585819 -355.02642628 148.23132733 -354.875 151.9375 C-354.73924089 154.11359028 -354.59852155 156.28937615 -354.453125 158.46484375 C-354.38287109 159.56038574 -354.31261719 160.65592773 -354.24023438 161.78466797 C-352.184616 189.29736518 -344.04542925 214.76999548 -331 239 C-330.38640625 240.16660156 -329.7728125 241.33320313 -329.140625 242.53515625 C-305.40490657 286.03429312 -262.98731771 319.1690747 -215.76220703 333.68798828 C-211.21052931 334.96212466 -206.61615372 335.98898343 -202 337 C-200.9171875 337.27457031 -199.834375 337.54914063 -198.71875 337.83203125 C-175.77181108 343.59716566 -151.30143131 343.62058181 -128 340 C-127.21447754 339.8870459 -126.42895508 339.7740918 -125.61962891 339.65771484 C-75.8186848 332.31873176 -29.7311051 303.83038802 0.4375 263.78515625 C14.22637857 245.15124427 24.03634296 225.22904122 31.25390625 203.26123047 C31.87896258 201.36683526 32.53013796 199.48108498 33.1875 197.59765625 C43.14652168 166.74803049 42.87611632 130.29810415 35 99 C34.66976744 97.56528933 34.34039172 96.13038126 34.01171875 94.6953125 C27.39945562 66.8125235 14.04471035 41.41551609 -4.01953125 19.2578125 C-4.49068359 18.67362549 -4.96183594 18.08943848 -5.44726562 17.48754883 C-6.72418178 15.92086039 -8.02721387 14.3755594 -9.33203125 12.83203125 C-11 10 -11 10 -10.8671875 6.78515625 C-9.06299626 0.99061411 -5.99281475 -0.97841873 0 0 Z " fill="#010101" transform="translate(456,69)"/>
<path d="M0 0 C0.99338379 0.48339844 0.99338379 0.48339844 2.00683594 0.9765625 C15.6236227 7.67267353 27.39634522 16.1052605 38.37890625 26.5546875 C40.94233735 29.01058589 40.94233735 29.01058589 43.6328125 31.09375 C47.23914052 33.99785573 50.04108397 37.45546518 53 41 C53.61875 41.73089844 54.2375 42.46179688 54.875 43.21484375 C70.70882506 62.40058742 81.60151007 84.18147933 88.25 108.125 C88.49637207 109.00687988 88.74274414 109.88875977 88.99658203 110.79736328 C92.29272904 123.15051132 93.37799951 135.25096131 93.3125 148 C93.31100952 148.71966949 93.30951904 149.43933899 93.3079834 150.18081665 C93.24441006 167.32165997 91.53175297 183.69117489 86 200 C85.7736084 200.69206543 85.5472168 201.38413086 85.31396484 202.09716797 C77.79705189 224.88606644 66.42169066 245.32642303 49.97265625 262.8515625 C47.93057444 265.02356742 47.93057444 265.02356742 45.953125 267.58203125 C43.01853911 271.21504858 39.58257193 274.01995153 36 277 C35.47470703 277.4429541 34.94941406 277.8859082 34.40820312 278.34228516 C17.35608886 292.66586933 -1.1447908 302.86507295 -22.25 310 C-23.59022217 310.45463623 -23.59022217 310.45463623 -24.95751953 310.91845703 C-26.22378174 311.3300708 -26.22378174 311.3300708 -27.515625 311.75 C-28.26102539 311.99234375 -29.00642578 312.2346875 -29.77441406 312.484375 C-32.28355869 313.06569504 -34.43231754 313.18666341 -37 313 C-39.3125 311.5 -39.3125 311.5 -41 309 C-41.59002965 306.03793195 -41.39336407 304.09774206 -41 301 C-38.32989166 298.47139683 -35.60953514 297.34616526 -32.140625 296.23828125 C-31.19735352 295.92818115 -30.25408203 295.61808105 -29.28222656 295.29858398 C-28.2815918 294.97317627 -27.28095703 294.64776855 -26.25 294.3125 C7.17693774 283.05066841 35.06510951 261.85136341 54 232 C54.41475586 231.34950684 54.82951172 230.69901367 55.25683594 230.02880859 C70.53623383 205.62266572 77.41491873 177.49128257 77.375 148.875 C77.37445618 148.20634918 77.37391235 147.53769836 77.37335205 146.8487854 C77.26087186 116.52907627 67.41411296 87.75139632 50 63 C49.26394531 61.94554688 48.52789062 60.89109375 47.76953125 59.8046875 C29.53211649 34.93826269 4.864456 17.44807342 -24 7 C-25.36318359 6.45085937 -25.36318359 6.45085937 -26.75390625 5.890625 C-60.73081844 -6.96817728 -102.76522214 -3.65705546 -135.5234375 10.87109375 C-153.5174563 19.26391311 -168.75456423 30.247145 -183 44 C-183.98033203 44.88558594 -183.98033203 44.88558594 -184.98046875 45.7890625 C-211.30029971 70.17085365 -224.90449446 109.58289888 -226.32421875 144.54296875 C-227.37282081 187.40303585 -212.06887383 226.2627427 -182.62890625 257.3359375 C-165.24379248 274.95354165 -142.85940687 289.04905141 -119 296 C-118.37851074 296.18111328 -117.75702148 296.36222656 -117.11669922 296.54882812 C-105.87519641 299.7566942 -94.53527071 301.70329854 -82.8359375 302.19921875 C-82.16054932 302.23055908 -81.48516113 302.26189941 -80.78930664 302.29418945 C-78.92927173 302.37022645 -77.0680911 302.41657854 -75.20703125 302.4609375 C-71.38967219 303.1025886 -69.69698115 304.26313743 -67 307 C-66.375 309.9375 -66.375 309.9375 -67 313 C-69.72440904 316.54225267 -71.19669314 317.86167657 -75.65234375 318.62890625 C-77.08086487 318.63901967 -78.50989768 318.61471593 -79.9375 318.5625 C-81.10309448 318.53978027 -81.10309448 318.53978027 -82.29223633 318.51660156 C-126.54947147 316.89152097 -167.6350581 295.89554888 -197.9609375 264.34765625 C-213.81535469 247.24864149 -224.50153866 227.55480857 -233 206 C-233.43183594 204.91203125 -233.86367187 203.8240625 -234.30859375 202.703125 C-239.20451534 189.21552778 -241.65226754 174.30049732 -242 160 C-242.02578125 159.18225098 -242.0515625 158.36450195 -242.078125 157.52197266 C-243.33641141 113.69428429 -229.56242975 70.64171065 -199.1652832 38.32714844 C-197.78171211 36.88010635 -196.39089262 35.44000606 -195 34 C-194.14921875 33.08605469 -193.2984375 32.17210937 -192.421875 31.23046875 C-143.31474237 -20.1555877 -62.78335962 -30.93416121 0 0 Z " fill="#020304" transform="translate(373,63)"/>
<path d="M0 0 C16.73029656 11.84141401 23.00989443 31.82783417 26.3785553 51.17404175 C28.80506919 65.80254398 29.52991613 80.21302919 29.50097656 95.02905273 C29.49998454 98.61844487 29.54221839 102.20582573 29.5859375 105.79492188 C29.59113233 108.09374561 29.59383289 110.39257665 29.59375 112.69140625 C29.61014526 113.75589493 29.62654053 114.82038361 29.64343262 115.91712952 C29.59807822 120.74096744 29.57179676 123.20737514 26.68945312 127.20288086 C24 129 24 129 20.375 129.0625 C17 128 17 128 15.30737305 126.53222656 C13.27357491 122.59300074 13.63141968 118.78869115 13.70703125 114.421875 C13.71005249 113.60025879 13.71307373 112.77864258 13.71618652 111.93212891 C13.73184912 108.87129097 13.77373321 105.8106325 13.8125 102.75 C13.874375 95.9025 13.93625 89.055 14 82 C-6.46 82 -26.92 82 -48 82 C-47.80239139 95.59754711 -47.80239139 95.59754711 -47.54956055 109.1940918 C-47.53495169 110.90411824 -47.52221196 112.6141621 -47.51171875 114.32421875 C-47.473349 115.6461322 -47.473349 115.6461322 -47.4342041 116.99475098 C-47.43102545 121.47728498 -47.55467098 123.40064386 -50.30395508 127.10083008 C-53 129 -53 129 -56.625 129.0625 C-60.37038517 127.88339726 -61.06060108 127.27579733 -63 124 C-63.38095093 121.82698059 -63.38095093 121.82698059 -63.38818359 119.44458008 C-63.39749405 118.54370163 -63.4068045 117.64282318 -63.41639709 116.71464539 C-63.41047043 115.74275772 -63.40454376 114.77087006 -63.3984375 113.76953125 C-63.40262192 112.75458084 -63.40680634 111.73963043 -63.41111755 110.69392395 C-63.41741384 107.39980336 -63.39853095 104.10653444 -63.375 100.8125 C-63.37067963 99.69631287 -63.36635925 98.58012573 -63.36190796 97.43011475 C-63.22293063 67.03656827 -62.5653163 29.6785162 -40.90234375 5.67578125 C-29.51169799 -5.19254213 -14.06193388 -7.73092947 0 0 Z " fill="#020405" transform="translate(270,151)"/>
<path d="M0 0 C0.66 0 1.32 0 2 0 C16.21583644 23.04064313 26.27409516 49.95335979 29 77 C29.16435547 78.60101563 29.16435547 78.60101563 29.33203125 80.234375 C29.65872715 84.15472581 29.85877249 88.06958057 30 92 C30.03399902 92.87640137 30.06799805 93.75280273 30.10302734 94.65576172 C30.91015149 118.75067092 28.07442593 142.23562416 20 165 C19.70609375 165.85110352 19.4121875 166.70220703 19.109375 167.57910156 C1.77763037 217.35278769 -34.45270722 257.91277246 -81.6328125 281.3359375 C-104.97298257 292.51582213 -130.99173536 300.35249134 -157 301 C-157.90169922 301.02578125 -158.80339844 301.0515625 -159.73242188 301.078125 C-174.78277443 301.45794462 -189.2062158 300.8316663 -204 298 C-204.89138672 297.83371094 -205.78277344 297.66742188 -206.70117188 297.49609375 C-229.42481638 293.14166932 -250.0283116 284.54373805 -270 273 C-266.46911935 271.82303978 -265.69835902 272.22401434 -262.30078125 273.4765625 C-260.87487671 273.98497681 -260.87487671 273.98497681 -259.42016602 274.50366211 C-258.39463623 274.87370361 -257.36910645 275.24374512 -256.3125 275.625 C-247.65145317 278.63728005 -239.05017771 281.10851781 -230.0625 282.9375 C-228.60034058 283.23551514 -228.60034058 283.23551514 -227.10864258 283.53955078 C-218.43118377 285.23077362 -209.91405372 286.15239157 -201.07421875 286.203125 C-200.2527536 286.21009399 -199.43128845 286.21706299 -198.58493042 286.22424316 C-195.95240081 286.24152502 -193.32008395 286.24796149 -190.6875 286.25 C-189.78949677 286.25100708 -188.89149353 286.25201416 -187.96627808 286.25305176 C-175.05996298 286.24324179 -162.64081843 285.80466251 -150 283 C-148.61749155 282.72891351 -147.23467601 282.45938855 -145.8515625 282.19140625 C-115.62818941 276.01136607 -86.99129648 262.31167547 -63 243 C-61.9790625 242.18273437 -60.958125 241.36546875 -59.90625 240.5234375 C-46.3811802 229.49314314 -34.22782037 217.15152648 -24 203 C-23.58975586 202.43941895 -23.17951172 201.87883789 -22.75683594 201.30126953 C-5.39631744 177.32231108 5.68971696 149.78778757 12 121 C12.17934082 120.19288574 12.35868164 119.38577148 12.54345703 118.55419922 C20.35400027 81.39400789 15.38413374 39.10527728 0.8828125 4.265625 C0 2 0 2 0 0 Z " fill="#D7EBEC" transform="translate(467,111)"/>
<path d="M0 0 C0.83192871 0.16628906 1.66385742 0.33257812 2.52099609 0.50390625 C21.59700784 4.34973277 39.97038772 10.69753838 57.09667969 19.97021484 C59.04746877 21.02568282 61.01146519 22.053493 62.9765625 23.08203125 C70.31101259 26.99338222 77.14648076 31.34179684 83.8125 36.3125 C84.48861328 36.81620117 85.16472656 37.31990234 85.86132812 37.83886719 C92.09470882 42.61438966 92.09470882 42.61438966 94 46 C94 49.5625 94 49.5625 93 53 C90.875 55 90.875 55 88 56 C82.54596416 55.69344998 79.67710705 54.45691618 75.5 51 C35.35303431 19.4916227 -17.59373521 8.52037535 -67.60546875 14.24609375 C-111.12282066 19.92227009 -149.45604083 39.94311319 -181 70 C-181.77859375 70.72574219 -182.5571875 71.45148438 -183.359375 72.19921875 C-209.95119926 97.70662465 -227.92371604 134.06493345 -235.32983398 169.80932617 C-236.30408615 174.27895073 -237.0963218 177.20224189 -241 180 C-244.5 180.5625 -244.5 180.5625 -248 180 C-250.5 178.125 -250.5 178.125 -252 175 C-252.05792359 168.07694122 -250.28903969 161.30780982 -248.4375 154.6875 C-248.17211426 153.73673584 -247.90672852 152.78597168 -247.63330078 151.80639648 C-240.5172864 127.0150545 -229.60911417 103.60681613 -214 83 C-213.52014648 82.36078613 -213.04029297 81.72157227 -212.54589844 81.06298828 C-200.18391789 64.77059414 -185.69068055 49.86863238 -169 38 C-168.34660645 37.52933105 -167.69321289 37.05866211 -167.02001953 36.57373047 C-141.71420565 18.50833973 -113.4538208 6.25609027 -83 0 C-81.89229248 -0.24339111 -81.89229248 -0.24339111 -80.76220703 -0.49169922 C-55.49305338 -5.86021706 -25.20866629 -5.44125875 0 0 Z " fill="#010101" transform="translate(340,3)"/>
<path d="M0 0 C4.18347783 3.58583814 6.38184212 7.93400935 8.875 12.75 C9.53471802 14.02254639 9.53471802 14.02254639 10.20776367 15.32080078 C25.91242648 46.18709226 31.03640725 83.12916399 23 117 C22.80664062 117.82580566 22.61328125 118.65161133 22.4140625 119.50244141 C17.81394814 138.4814626 10.3384967 156.07579729 -1 172 C-1.73476563 173.05058594 -2.46953125 174.10117187 -3.2265625 175.18359375 C-22.15266339 201.04082524 -47.73112801 219.04730033 -77.90869141 229.2890625 C-80.82740622 230.28127561 -83.72660181 231.32512743 -86.625 232.375 C-87.46289062 232.67148437 -88.30078125 232.96796875 -89.1640625 233.2734375 C-90.98646982 233.8540387 -90.98646982 233.8540387 -92 235 C-92.36760731 237.32817964 -92.70241581 239.6618385 -93 242 C-99.86699481 243.13772695 -106.7259084 244.15630964 -113.6875 244.4375 C-114.64011719 244.47746094 -115.59273438 244.51742187 -116.57421875 244.55859375 C-119 244 -119 244 -120.70703125 241.53515625 C-121.13371094 240.69855469 -121.56039062 239.86195313 -122 239 C-124.32213285 237.83893357 -125.99957316 237.73908017 -128.5859375 237.53515625 C-129.97304932 237.42034912 -129.97304932 237.42034912 -131.38818359 237.30322266 C-132.86665771 237.18406494 -132.86665771 237.18406494 -134.375 237.0625 C-157.82498537 235.02843842 -178.44851051 229.64313379 -199.375 218.75 C-200.21458252 218.31349121 -201.05416504 217.87698242 -201.91918945 217.42724609 C-203.08454224 216.8058374 -203.08454224 216.8058374 -204.2734375 216.171875 C-204.96872559 215.8015918 -205.66401367 215.43130859 -206.38037109 215.04980469 C-208 214 -208 214 -209 212 C-204.31572763 212.65059338 -199.9737084 213.89179697 -195.5 215.375 C-155.64227735 228.19830631 -111.19540016 223.86022643 -74 205 C-60.61381784 198.08004994 -48.18644931 189.46182606 -37.66796875 178.609375 C-35 176 -35 176 -33 176 C-32.75121094 175.42765625 -32.50242187 174.8553125 -32.24609375 174.265625 C-30.81547366 171.66449757 -29.12599638 169.88439409 -27.0625 167.75 C-4.41224407 142.88553636 10.88624311 107.55818592 11.23828125 73.7421875 C11.25304001 72.57684227 11.25304001 72.57684227 11.26809692 71.38795471 C11.51200372 47.1361536 8.91647797 26.72423596 0.57910156 3.8215332 C0 2 0 2 0 0 Z " fill="#65D2FC" transform="translate(425,129)"/>
<path d="M0 0 C2.56781441 1.30886536 3.99883332 3.08934017 5.85453796 5.28843689 C13.24632832 13.78656429 21.19690518 21.63701698 29.79203796 28.91343689 C25.84454637 33.64844027 21.72556433 38.10788253 17.33500671 42.43296814 C16.74657486 43.01761337 16.15814301 43.60225861 15.55187988 44.20462036 C13.69687356 46.04754004 11.83862715 47.88713658 9.97953796 49.72593689 C7.51183635 52.16708708 5.0474428 54.61150797 2.58500671 57.05796814 C2.01839828 57.61627823 1.45178986 58.17458832 0.86801147 58.74981689 C-3.33504606 62.7727581 -3.33504606 62.7727581 -4.27046204 68.28843689 C-4.24983704 69.48468689 -4.22921204 70.68093689 -4.20796204 71.91343689 C-4.20796204 76.49992796 -5.15445472 77.35412938 -8.27827454 80.48179626 C-8.83257141 81.01611267 -9.38686829 81.55042908 -9.95796204 82.10093689 C-10.49679016 82.64685486 -11.03561829 83.19277283 -11.59077454 83.75523376 C-14.34891415 86.46964677 -16.34318389 88.34399133 -20.20796204 88.91343689 C-20.53796204 88.58343689 -20.86796204 88.25343689 -21.20796204 87.91343689 C-24.66389228 87.34038723 -27.13830189 87.20340386 -30.13374329 89.1917572 C-32.24621572 91.06610023 -34.23176844 93.02089553 -36.20796204 95.03843689 C-37.70131091 96.49821627 -39.19480354 97.95784859 -40.68843079 99.41734314 C-42.19524582 100.91573479 -43.70175922 102.41442983 -45.20796204 103.91343689 C-47.95937619 106.62175438 -50.73326452 109.30452594 -53.52046204 111.97593689 C-54.13598938 112.58904724 -54.75151672 113.20215759 -55.38569641 113.83384705 C-57.13374329 115.51109314 -57.13374329 115.51109314 -60.20796204 117.91343689 C-64.63264709 117.46560513 -67.197331 114.48528736 -70.27046204 111.53843689 C-70.83611877 111.00476501 -71.40177551 110.47109314 -71.98457336 109.92124939 C-73.73509722 108.26149343 -75.47298923 106.58943045 -77.20796204 104.91343689 C-77.75097961 104.39233337 -78.29399719 103.87122986 -78.85346985 103.33433533 C-88.49320294 94.05184992 -88.49320294 94.05184992 -90.20796204 89.91343689 C-89.71167297 89.42874939 -89.21538391 88.94406189 -88.70405579 88.44468689 C-85.32896145 85.11442303 -82.03148531 81.77577535 -78.95796204 78.16343689 C-75.42737871 74.04982145 -71.61350179 70.25839977 -67.73432922 66.47691345 C-65.12550884 63.91334279 -62.65583217 61.29650998 -60.28877258 58.50743103 C-55.06939828 52.5195107 -49.44275088 46.9226797 -43.85249329 41.28453064 C-43.26814703 40.69486071 -42.68380077 40.10519077 -42.08174706 39.49765205 C-39.00044793 36.38983281 -35.91562776 33.28555351 -32.82832336 30.18370056 C-30.27733618 27.61927549 -27.73385567 25.04773336 -25.19648743 22.46983337 C-22.11956731 19.34379252 -19.03073532 16.23002139 -15.93272972 13.12487984 C-14.75668369 11.94210595 -13.58490877 10.75506948 -12.41750526 9.56376457 C-10.79245077 7.9072951 -9.15255039 6.26708322 -7.50801086 4.62998962 C-6.57870255 3.69259445 -5.64939423 2.75519928 -4.69192505 1.78939819 C-2.20796204 -0.08656311 -2.20796204 -0.08656311 0 0 Z " fill="#F2AF61" transform="translate(107.20796203613281,376.08656311035156)"/>
<path d="M0 0 C1.79072685 -0.01210762 1.79072685 -0.01210762 3.61763 -0.02445984 C6.12796608 -0.03822374 8.63832027 -0.04897989 11.14868164 -0.05688477 C13.71384165 -0.06846526 16.27897645 -0.08901112 18.84399414 -0.1184082 C22.56282819 -0.16097303 26.28095301 -0.17723199 30 -0.1875 C31.14385666 -0.20500809 32.28771332 -0.22251617 33.4662323 -0.24055481 C39.67583873 -0.22360262 43.64233138 -0.06413423 48.30078125 4.23828125 C49.31174272 7.21404918 48.76035472 9.02126695 48.30078125 12.23828125 C47.31078125 13.22828125 46.32078125 14.21828125 45.30078125 15.23828125 C36.72078125 15.23828125 28.14078125 15.23828125 19.30078125 15.23828125 C19.30078125 48.23828125 19.30078125 81.23828125 19.30078125 115.23828125 C27.55078125 115.23828125 35.80078125 115.23828125 44.30078125 115.23828125 C45.62078125 116.22828125 46.94078125 117.21828125 48.30078125 118.23828125 C49.08233465 123.70915504 49.08233465 123.70915504 48.30078125 126.23828125 C44.55524908 129.90204536 42.13062352 130.74098098 36.9375 130.75585938 C35.04028198 130.77477234 35.04028198 130.77477234 33.10473633 130.79406738 C31.73257894 130.78690732 30.36042666 130.77870326 28.98828125 130.76953125 C27.57250706 130.77222798 26.15673467 130.77611191 24.7409668 130.78112793 C21.77862862 130.78701461 18.816774 130.77848767 15.85449219 130.75976562 C12.06462615 130.73697556 8.27589323 130.75010324 4.48606873 130.77405548 C1.56400067 130.78853654 -1.35780044 130.78389712 -4.27987671 130.77354431 C-5.67687109 130.77088335 -7.07389001 130.7741246 -8.47085571 130.78346252 C-10.42587801 130.79366404 -12.38098572 130.77534787 -14.3359375 130.75585938 C-15.44670654 130.752677 -16.55747559 130.74949463 -17.7019043 130.74621582 C-21.40877975 130.11803675 -23.08848924 128.9087996 -25.69921875 126.23828125 C-26.32006905 122.37521269 -26.4338127 120.27481357 -24.140625 117.0390625 C-20.83720819 114.60246226 -18.00990894 114.75901472 -14.07421875 114.92578125 C-13.41292969 114.93544922 -12.75164062 114.94511719 -12.0703125 114.95507812 C-6.55682112 115.07677707 -1.21289247 115.68691388 4.30078125 116.23828125 C4.30078125 82.90828125 4.30078125 49.57828125 4.30078125 15.23828125 C-4.60921875 15.23828125 -13.51921875 15.23828125 -22.69921875 15.23828125 C-25.69921875 12.23828125 -25.69921875 12.23828125 -26.13671875 8.80078125 C-25.69921875 5.23828125 -25.69921875 5.23828125 -24.26171875 2.86328125 C-17.76339789 -1.25760515 -7.47680905 0.04854233 0 0 Z " fill="#010404" transform="translate(341.69921875,147.76171875)"/>
<path d="M0 0 C5.03163018 4.29785078 10.02718443 8.63425542 15 13 C11.0525084 17.73500338 6.93352637 22.19444564 2.54296875 26.51953125 C1.9545369 27.10417648 1.36610504 27.68882172 0.75984192 28.29118347 C-1.0951644 30.13410315 -2.95341081 31.97369969 -4.8125 33.8125 C-7.28020161 36.25365019 -9.74459517 38.69807108 -12.20703125 41.14453125 C-12.77363968 41.70284134 -13.34024811 42.26115143 -13.92402649 42.83638 C-18.12708402 46.85932121 -18.12708402 46.85932121 -19.0625 52.375 C-19.041875 53.57125 -19.02125 54.7675 -19 56 C-19 60.58649107 -19.94649269 61.44069249 -23.0703125 64.56835938 C-23.62460938 65.10267578 -24.17890625 65.63699219 -24.75 66.1875 C-25.28882812 66.73341797 -25.82765625 67.27933594 -26.3828125 67.84179688 C-29.14095211 70.55620988 -31.13522186 72.43055445 -35 73 C-35.33 72.67 -35.66 72.34 -36 72 C-39.45593024 71.42695034 -41.93033985 71.28996697 -44.92578125 73.27832031 C-47.03825369 75.15266334 -49.0238064 77.10745864 -51 79.125 C-52.49334887 80.58477938 -53.98684151 82.0444117 -55.48046875 83.50390625 C-56.98728379 85.0022979 -58.49379718 86.50099294 -60 88 C-62.75141416 90.70831749 -65.52530249 93.39108905 -68.3125 96.0625 C-69.23579102 96.98216553 -69.23579102 96.98216553 -70.17773438 97.92041016 C-71.92578125 99.59765625 -71.92578125 99.59765625 -75 102 C-79.24566293 101.55503521 -81.75351559 98.86629709 -84.75 96.0625 C-85.25660156 95.60681641 -85.76320313 95.15113281 -86.28515625 94.68164062 C-87.56785768 93.50093297 -88.78935193 92.25448188 -90 91 C-90 89 -90 89 -88.77734375 87.765625 C-88.17019531 87.26546875 -87.56304687 86.7653125 -86.9375 86.25 C-82.75184234 82.68773816 -78.70549507 78.99874798 -74.6875 75.25 C-74.03765137 74.64373779 -73.38780273 74.03747559 -72.71826172 73.4128418 C-67.92009667 68.91284416 -63.25189874 64.3088587 -58.66015625 59.59765625 C-56.60907888 57.59476866 -54.54634678 55.73028201 -52.37304688 53.86865234 C-47.85302227 49.92665223 -43.60490758 45.74920708 -39.37109375 41.50390625 C-38.1810952 40.31534279 -38.1810952 40.31534279 -36.96705627 39.10276794 C-35.30110919 37.43749717 -33.63640744 35.77097971 -31.97290039 34.10327148 C-29.44463866 31.56965378 -26.91108339 29.04141833 -24.37695312 26.51367188 C-22.7496793 24.88573717 -21.12271575 23.25749225 -19.49609375 21.62890625 C-18.74798935 20.88282608 -17.99988495 20.13674591 -17.22911072 19.36805725 C-11.10862654 13.22056821 -5.34284881 6.83884647 0 0 Z " fill="#EB8C57" transform="translate(122,392)"/>
<path d="M0 0 C10.55196204 6.02679371 15.36304976 17.73156778 18.50146484 28.93920898 C20.9424944 38.02051386 21.78125 45.64203981 21.78125 55.16015625 C2.64125 55.16015625 -16.49875 55.16015625 -36.21875 55.16015625 C-36.21875 46.73992548 -35.19913485 40.20973775 -33.21875 32.16015625 C-32.9403125 30.97550781 -32.661875 29.79085937 -32.375 28.5703125 C-29.66540223 18.00054535 -25.60707812 7.41904166 -16.21875 1.16015625 C-11.16655173 -1.77032882 -5.48176649 -2.07496443 0 0 Z " fill="#65EFFC" transform="translate(260.21875,162.83984375)"/>
<path d="M0 0 C3.63913742 3.44827357 6.48148514 6.95172019 9.25 11.125 C25.49381136 35.10994959 47.46663254 57.00575053 73 71 C69.55033273 78.84015288 61.8338103 84.20179277 55 89 C43.68929423 80.50757639 32.39273157 71.78760269 22.5703125 61.5703125 C20.79397233 59.79397233 18.91585411 58.18696946 17 56.5625 C13.56006209 53.59977891 10.62791605 50.40709853 7.69921875 46.9453125 C6.12545649 45.14362605 4.48702345 43.51712668 2.75 41.875 C-2.29616549 36.93181747 -6.45268031 31.19895156 -10.75146484 25.61230469 C-12.4746803 23.38701824 -14.23428677 21.19163468 -16 19 C-14.35437425 14.95896636 -11.50767109 12.06698427 -8.5625 8.9375 C-8.07201172 8.40833984 -7.58152344 7.87917969 -7.07617188 7.33398438 C-4.76143767 4.84431749 -2.42853755 2.37914357 0 0 Z " fill="#94C6D3" transform="translate(115,324)"/>
<path d="M0 0 C0.52207031 0.35191406 1.04414063 0.70382812 1.58203125 1.06640625 C7.65976476 5.14306463 13.81313679 9.09129016 20 13 C16.55033273 20.84015288 8.8338103 26.20179277 2 31 C-0.0428701 29.43905326 -2.08430858 27.87629071 -4.125 26.3125 C-4.69476563 25.87744141 -5.26453125 25.44238281 -5.8515625 24.99414062 C-9.64625172 22.0834415 -13.34422615 19.08351746 -17 16 C-13.33090512 12.27644731 -9.55325121 8.7056624 -5.6875 5.1875 C-5.13771484 4.68541016 -4.58792969 4.18332031 -4.02148438 3.66601562 C-2.68194761 2.44296032 -1.34111008 1.22132992 0 0 Z " fill="#75A2AC" transform="translate(168,382)"/>
<path d="M0 0 C4.42690311 1.44355536 4.42690311 1.44355536 5.875 3.9375 C6.34125573 6.69474065 6.38545632 9.18447717 5.875 11.9375 C3.68746717 14.6298481 2.29076045 14.87686827 -1.125 15.375 C-4.125 14.9375 -4.125 14.9375 -6.5 13.375 C-8.76413895 9.97879157 -8.76769755 7.93650698 -8.125 3.9375 C-5.45043116 0.79094842 -4.15592269 -0.08311845 0 0 Z " fill="#020606" transform="translate(317.125,109.0625)"/>
<path d="M0 0 C4.42690311 1.44355536 4.42690311 1.44355536 5.875 3.9375 C6.34125573 6.69474065 6.38545632 9.18447717 5.875 11.9375 C3.68746717 14.6298481 2.29076045 14.87686827 -1.125 15.375 C-4.125 14.9375 -4.125 14.9375 -6.5 13.375 C-8.76413895 9.97879157 -8.76769755 7.93650698 -8.125 3.9375 C-5.45043116 0.79094842 -4.15592269 -0.08311845 0 0 Z " fill="#020606" transform="translate(282.125,109.0625)"/>
<path d="M0 0 C2 1 2 1 3 3 C3.52265149 6.5838959 3.66071832 9.75629493 1.9375 13 C-1.17909511 14.60856522 -3.56262469 14.42213381 -7 14 C-9.4375 12.4375 -9.4375 12.4375 -11 10 C-11.42213381 6.56262469 -11.60856522 4.17909511 -10 1.0625 C-6.75629493 -0.66071832 -3.5838959 -0.52265149 0 0 Z " fill="#020405" transform="translate(320,308)"/>
<path d="M0 0 C2 1 2 1 3 3 C3.52265149 6.5838959 3.66071832 9.75629493 1.9375 13 C-1.17909511 14.60856522 -3.56262469 14.42213381 -7 14 C-9.4375 12.4375 -9.4375 12.4375 -11 10 C-11.42213381 6.56262469 -11.60856522 4.17909511 -10 1.0625 C-6.75629493 -0.66071832 -3.5838959 -0.52265149 0 0 Z " fill="#020405" transform="translate(285,308)"/>
<path d="M0 0 C4.69159716 3.38772897 9.0299782 6.78185183 13 11 C12.67 11.99 12.34 12.98 12 14 C8.41081881 12.5342196 6.63622259 10.63223332 4.3125 7.5625 C3.71050781 6.78003906 3.10851562 5.99757813 2.48828125 5.19140625 C1 3 1 3 0 0 Z " fill="#DCEEEE" transform="translate(435,59)"/>
</svg>
