<svg width="16" height="17" viewBox="0 0 16 17" fill="none" xmlns="http://www.w3.org/2000/svg">
<path d="M10.3566 5.46415L5.64325 10.1783C5.56365 10.2552 5.50017 10.3471 5.4565 10.4488C5.41282 10.5505 5.38983 10.6598 5.38887 10.7705C5.38791 10.8811 5.40899 10.9909 5.4509 11.0933C5.4928 11.1957 5.55467 11.2887 5.63292 11.367C5.71116 11.4452 5.8042 11.5071 5.90662 11.549C6.00903 11.5909 6.11877 11.612 6.22941 11.611C6.34006 11.6101 6.44941 11.5871 6.55108 11.5434C6.65275 11.4997 6.74471 11.4362 6.82158 11.3567L11.5357 6.64332C12.0046 6.17444 12.268 5.5385 12.268 4.8754C12.268 4.21231 12.0046 3.57637 11.5357 3.10749C11.0669 2.63861 10.4309 2.37519 9.76783 2.37519C9.10473 2.37519 8.46879 2.63861 7.99991 3.10749L3.28575 7.82165C2.89081 8.20676 2.57627 8.66645 2.36038 9.17407C2.14448 9.68168 2.03153 10.2271 2.02808 10.7787C2.02462 11.3303 2.13073 11.8771 2.34024 12.3874C2.54976 12.8977 2.85851 13.3613 3.24859 13.7513C3.63867 14.1413 4.10232 14.45 4.61263 14.6595C5.12293 14.8689 5.66975 14.9749 6.22136 14.9714C6.77297 14.9679 7.31838 14.8548 7.82596 14.6389C8.33355 14.4229 8.7932 14.1083 9.17825 13.7133L13.8924 8.99999L15.0707 10.1783L10.3566 14.8925C9.81488 15.4342 9.17178 15.8639 8.46401 16.1571C7.75625 16.4502 6.99766 16.6011 6.23158 16.6011C5.4655 16.6011 4.70691 16.4502 3.99915 16.1571C3.29138 15.8639 2.64828 15.4342 2.10658 14.8925C1.56488 14.3508 1.13518 13.7077 0.842008 12.9999C0.54884 12.2922 0.397949 11.5336 0.397949 10.7675C0.397949 10.0014 0.54884 9.24282 0.842008 8.53505C1.13518 7.82728 1.56488 7.18419 2.10658 6.64249L6.82158 1.92915C7.60742 1.17016 8.65993 0.750186 9.75242 0.759679C10.8449 0.769172 11.89 1.20738 12.6625 1.97991C13.435 2.75244 13.8732 3.7975 13.8827 4.88998C13.8922 5.98247 13.4722 7.03498 12.7132 7.82082L7.99991 12.5367C7.76769 12.7688 7.49202 12.953 7.18863 13.0786C6.88524 13.2042 6.56007 13.2689 6.2317 13.2688C5.90333 13.2688 5.57818 13.2041 5.27482 13.0784C4.97146 12.9527 4.69583 12.7685 4.46366 12.5362C4.2315 12.304 4.04734 12.0283 3.92172 11.725C3.79609 11.4216 3.73145 11.0964 3.73149 10.768C3.73153 10.4397 3.79624 10.1145 3.92194 9.81115C4.04764 9.50779 4.23186 9.23215 4.46408 8.99999L9.17825 4.28582L10.3566 5.46415Z" fill="#A8A8A8"/>
</svg>
