<svg width="10" height="8" viewBox="0 0 10 8" fill="none" xmlns="http://www.w3.org/2000/svg">
<path d="M3.74998 0.25H6.24998L7.08331 1.08333H8.74998C8.86049 1.08333 8.96647 1.12723 9.04461 1.20537C9.12275 1.28351 9.16665 1.38949 9.16665 1.5V7.33333C9.16665 7.44384 9.12275 7.54982 9.04461 7.62796C8.96647 7.7061 8.86049 7.75 8.74998 7.75H1.24998C1.13947 7.75 1.03349 7.7061 0.955352 7.62796C0.877212 7.54982 0.833313 7.44384 0.833313 7.33333V1.5C0.833313 1.38949 0.877212 1.28351 0.955352 1.20537C1.03349 1.12723 1.13947 1.08333 1.24998 1.08333H2.91665L3.74998 0.25ZM4.99998 6.91667C5.66302 6.91667 6.29891 6.65327 6.76775 6.18443C7.23659 5.71559 7.49998 5.07971 7.49998 4.41667C7.49998 3.75363 7.23659 3.11774 6.76775 2.6489C6.29891 2.18006 5.66302 1.91667 4.99998 1.91667C4.33694 1.91667 3.70105 2.18006 3.23221 2.6489C2.76337 3.11774 2.49998 3.75363 2.49998 4.41667C2.49998 5.07971 2.76337 5.71559 3.23221 6.18443C3.70105 6.65327 4.33694 6.91667 4.99998 6.91667V6.91667ZM4.99998 6.08333C4.55795 6.08333 4.13403 5.90774 3.82147 5.59518C3.50891 5.28262 3.33331 4.85869 3.33331 4.41667C3.33331 3.97464 3.50891 3.55072 3.82147 3.23816C4.13403 2.92559 4.55795 2.75 4.99998 2.75C5.44201 2.75 5.86593 2.92559 6.17849 3.23816C6.49105 3.55072 6.66665 3.97464 6.66665 4.41667C6.66665 4.85869 6.49105 5.28262 6.17849 5.59518C5.86593 5.90774 5.44201 6.08333 4.99998 6.08333Z" fill="#686868"/>
</svg>
