<svg width="29" height="29" viewBox="0 0 29 29" fill="none" xmlns="http://www.w3.org/2000/svg">
<path d="M5.70118 2.70116C4.55418 3.58116 3.54318 4.62617 2.70118 5.80117L4.30116 7.00117C5.03516 5.98317 5.91116 5.07417 6.90116 4.30117L5.70118 2.70116ZM2.60117 10.3012L0.70118 9.70117C0.21818 11.0832 -0.0188321 12.5382 0.00116791 14.0012H2.00117C1.99717 12.7432 2.20017 11.4932 2.60117 10.3012ZM0.70118 18.4012C1.16518 19.7962 1.83918 21.1112 2.70118 22.3012L4.30116 21.1012C3.57816 20.0892 3.00517 18.9772 2.60117 17.8012L0.70118 18.4012ZM5.80116 25.3012C6.99116 26.1632 8.30718 26.8372 9.70118 27.3012L10.3012 25.4012C9.12516 24.9972 8.01317 24.4242 7.00117 23.7012L5.80116 25.3012ZM9.70118 0.701165L10.3012 2.60117C11.4932 2.20017 12.7432 1.99717 14.0012 2.00117V0.00116798C12.5382 -0.018832 11.0822 0.218165 9.70118 0.701165ZM22.2012 25.3012C23.3792 24.4232 24.4232 23.3792 25.3012 22.2012L23.7012 21.0012C22.9572 22.0452 22.0452 22.9582 21.0012 23.7012L22.2012 25.3012ZM25.4012 17.7012L27.3012 18.3012C27.7362 16.9082 27.9722 15.4602 28.0012 14.0012H26.0012C26.0052 15.2592 25.8022 16.5092 25.4012 17.7012ZM27.2012 9.60117C26.7372 8.20717 26.0632 6.89216 25.2012 5.70116L23.6012 6.90116C24.3242 7.91316 24.8962 9.02517 25.3012 10.2012L27.2012 9.60117ZM22.1012 2.60117C20.9112 1.73917 19.5952 1.06517 18.2012 0.601174L17.6012 2.50117C18.7772 2.90617 19.8892 3.47816 20.9012 4.20116L22.1012 2.60117ZM18.3012 27.3012L17.7012 25.4012C16.5092 25.8032 15.2592 26.0052 14.0012 26.0012V28.0012C15.4542 27.9152 16.8952 27.6802 18.3012 27.3012Z" fill="#0E497A"/>
</svg>
