<svg width="26" height="24" viewBox="0 0 26 24" fill="none" xmlns="http://www.w3.org/2000/svg">
<path d="M5.6515 2.7802H6.97518V1.48855C6.97518 1.21874 7.19392 1 7.46374 1H18.5363C18.8061 1 19.0248 1.21874 19.0248 1.48855V2.7802H20.3485C20.6183 2.7802 20.8371 2.99894 20.8371 3.26876V17.9277H22.3645C22.6343 17.9277 22.853 18.1464 22.853 18.4162V19.9979H24.5114C24.7813 19.9979 25 20.2166 25 20.4864V22.5569C25 22.8268 24.7813 23.0455 24.5114 23.0455H1.48855C1.21874 23.0455 1 22.8268 1 22.5569V20.4864C1 20.2166 1.21874 19.9979 1.48855 19.9979H3.14698V18.4162C3.14698 18.1464 3.36572 17.9277 3.63553 17.9277H5.16295V3.26876C5.16295 2.99894 5.38168 2.7802 5.6515 2.7802ZM1.97711 20.975V22.0684H24.0229V20.975C16.6744 20.975 9.32561 20.975 1.97711 20.975ZM7.95229 2.7802H18.0477V1.97711H7.95229V2.7802ZM14.0164 15.1903C14.1855 15.1903 14.3225 15.3273 14.3225 15.4964C14.3225 15.6655 14.1855 15.8026 14.0164 15.8026C13.8472 15.8026 13.7102 15.6655 13.7102 15.4964C13.7102 15.3273 13.8472 15.1903 14.0164 15.1903ZM11.9839 15.1903C12.1528 15.1903 12.2901 15.3273 12.2901 15.4964C12.2901 15.6655 12.1528 15.8026 11.9839 15.8026C11.8148 15.8026 11.6778 15.6655 11.6778 15.4964C11.6778 15.3273 11.8148 15.1903 11.9839 15.1903ZM7.13765 4.46374H10.0118C10.2816 4.46374 10.5004 4.68247 10.5004 4.95229V7.82647C10.5004 8.09629 10.2816 8.31502 10.0118 8.31502H7.13765C6.86783 8.31502 6.6491 8.09629 6.6491 7.82647V4.95229C6.6491 4.68247 6.86783 4.46374 7.13765 4.46374ZM9.52328 5.44084H7.6262V7.33792H9.52328V5.44084ZM15.9885 4.46374H18.8626C19.1325 4.46374 19.3512 4.68247 19.3512 4.95229V7.82647C19.3512 8.09629 19.1325 8.31502 18.8626 8.31502H15.9885C15.7186 8.31502 15.4999 8.09629 15.4999 7.82647V4.95229C15.4999 4.68247 15.7186 4.46374 15.9885 4.46374ZM18.3741 5.44084H16.477V7.33792H18.3741V5.44084ZM11.5629 4.46374H14.4371C14.7069 4.46374 14.9256 4.68247 14.9256 4.95229V7.82647C14.9256 8.09629 14.7069 8.31502 14.4371 8.31502H11.5629C11.2931 8.31502 11.0744 8.09629 11.0744 7.82647V4.95229C11.0744 4.68247 11.2931 4.46374 11.5629 4.46374ZM13.9485 5.44084H12.0515V7.33792H13.9485V5.44084ZM13.4886 12.6742V17.9277H15.4589V12.6742H13.4886ZM12.5114 17.9277V12.6742H10.5411V17.9277H12.5114ZM4.12409 18.9048V19.9979H21.8759V18.9048C15.9587 18.9048 10.0413 18.9048 4.12409 18.9048ZM10.0525 11.6971H15.9475C16.2173 11.6971 16.436 11.9158 16.436 12.1856V17.9277H19.8599V3.75731C15.2866 3.75731 10.7134 3.75731 6.14005 3.75731V17.9277H9.56397V12.1856C9.56397 11.9158 9.78271 11.6971 10.0525 11.6971Z" fill="#3C4E5D" stroke="#3C4E5D" stroke-width="0.3"/>
</svg>
