<svg width="18" height="9" viewBox="0 0 18 9" fill="none" xmlns="http://www.w3.org/2000/svg">
<path d="M1.5 0.5C0.675 0.5 0 1.175 0 2C0 2.825 0.675 3.5 1.5 3.5C2.325 3.5 3 2.825 3 2C3 1.175 2.325 0.5 1.5 0.5ZM16.5 0.5C15.675 0.5 15 1.175 15 2C15 2.825 15.675 3.5 16.5 3.5C17.325 3.5 18 2.825 18 2C18 1.175 17.325 0.5 16.5 0.5ZM9 0.5C8.175 0.5 7.5 1.175 7.5 2C7.5 2.825 8.175 3.5 9 3.5C9.825 3.5 10.5 2.825 10.5 2C10.5 1.175 9.825 0.5 9 0.5Z" fill="black"/>
<path d="M1.5 5.5C0.675 5.5 0 6.175 0 7C0 7.825 0.675 8.5 1.5 8.5C2.325 8.5 3 7.825 3 7C3 6.175 2.325 5.5 1.5 5.5ZM16.5 5.5C15.675 5.5 15 6.175 15 7C15 7.825 15.675 8.5 16.5 8.5C17.325 8.5 18 7.825 18 7C18 6.175 17.325 5.5 16.5 5.5ZM9 5.5C8.175 5.5 7.5 6.175 7.5 7C7.5 7.825 8.175 8.5 9 8.5C9.825 8.5 10.5 7.825 10.5 7C10.5 6.175 9.825 5.5 9 5.5Z" fill="black"/>
</svg>
