<svg width="15" height="15" viewBox="0 0 15 15" fill="none" xmlns="http://www.w3.org/2000/svg">
<path d="M12.0666 0H2.56756C1.15171 0 0 1.15171 0 2.56829V9.09366C0 10.4144 1.00244 11.5054 2.28659 11.6466V14.1776C2.28659 14.3451 2.37805 14.4995 2.52585 14.5793C2.5939 14.6166 2.66927 14.6349 2.7439 14.6349C2.83098 14.6349 2.91732 14.61 2.99342 14.561L7.45317 11.662H12.0666C13.4824 11.662 14.6341 10.5095 14.6341 9.09366V2.56829C14.6341 1.15171 13.4824 0 12.0666 0ZM13.7195 9.09293C13.7195 10.0046 12.9776 10.7466 12.0659 10.7466H7.32439H7.32366H7.31707C7.31342 10.7466 7.31049 10.7473 7.30683 10.7473C7.29585 10.7473 7.28488 10.748 7.2739 10.7488C7.26878 10.7495 7.26439 10.7502 7.25927 10.751C7.24903 10.7524 7.23951 10.7539 7.22927 10.7554C7.22342 10.7568 7.21829 10.7576 7.21244 10.759C7.20366 10.7612 7.19488 10.7634 7.1861 10.7656C7.17951 10.7678 7.17293 10.77 7.16634 10.7722C7.15903 10.7751 7.15171 10.7773 7.14439 10.7802C7.13707 10.7832 7.12902 10.7868 7.12171 10.7905C7.11585 10.7934 7.11 10.7956 7.10415 10.7993C7.09537 10.8037 7.08659 10.8095 7.07781 10.8146C7.07415 10.8168 7.07049 10.8183 7.06756 10.8205L7.06098 10.8249L3.20049 13.3339V11.2039C3.20049 10.9515 2.99561 10.7466 2.74317 10.7466C2.71317 10.7466 2.6839 10.7495 2.65537 10.7554C2.62683 10.7495 2.59756 10.7466 2.56756 10.7466C1.65585 10.7466 0.913903 10.0046 0.913903 9.09293V2.56756C0.913903 1.65585 1.65585 0.913903 2.56756 0.913903H12.0659C12.9776 0.913903 13.7195 1.65585 13.7195 2.56756V9.09293Z" fill="white"/>
<path d="M10.9756 7.3172H3.65849C3.40605 7.3172 3.20117 7.52208 3.20117 7.77452C3.20117 8.02696 3.40605 8.23183 3.65849 8.23183H10.9756C11.228 8.23183 11.4329 8.02696 11.4329 7.77452C11.4329 7.52208 11.228 7.3172 10.9756 7.3172Z" fill="white"/>
<path d="M10.9756 5.48792H3.65849C3.40605 5.48792 3.20117 5.69279 3.20117 5.94523C3.20117 6.19767 3.40605 6.40255 3.65849 6.40255H10.9756C11.228 6.40255 11.4329 6.19767 11.4329 5.94523C11.4329 5.69279 11.228 5.48792 10.9756 5.48792Z" fill="white"/>
<path d="M10.9756 3.65866H3.65849C3.40605 3.65866 3.20117 3.86354 3.20117 4.11598C3.20117 4.36842 3.40605 4.5733 3.65849 4.5733H10.9756C11.228 4.5733 11.4329 4.36842 11.4329 4.11598C11.4329 3.86354 11.228 3.65866 10.9756 3.65866Z" fill="white"/>
</svg>
