<svg width="25" height="26" viewBox="0 0 25 26" fill="none" xmlns="http://www.w3.org/2000/svg">
<path d="M8.35693 25.0986H15.6455V17.81H8.35693V25.0986ZM9.67806 19.1312H14.3243V23.7774H9.67806V19.1312Z" fill="#3C4E5D"/>
<path d="M16.7139 17.81V25.0986H24.0018V17.81H16.7139ZM22.6806 23.7774H18.0344V19.1312H22.6806V23.7774Z" fill="#3C4E5D"/>
<path d="M0 25.0986H7.28791V17.81H0V25.0986ZM1.32112 19.1312H5.96741V23.7774H1.32112V19.1312Z" fill="#3C4E5D"/>
<path d="M5.90887 14.7478L5.16139 14.0003L4.17179 14.9899V11.034H10.5353V8.6022H11.4709V14.9899L10.4807 14.0003L9.73318 14.7478L11.9992 17.0132L14.2646 14.7478L13.5171 14.0003L12.5275 14.9899V8.60345H13.4631V11.0352H19.8266V14.9911L18.837 14.0016L18.0895 14.7478L20.3549 17.0132L22.6203 14.7478L21.8729 14.0003L20.8826 14.9899V9.97734H14.5198V8.60282H16.3003V0H7.69748V8.60282H9.47802V9.97734H3.11514V14.9899L2.12492 14.0003L1.37744 14.7478L3.64285 17.0132L5.90887 14.7478ZM9.0186 1.32112H14.9792V7.2817H9.0186V1.32112Z" fill="#3C4E5D"/>
</svg>
