<?xml version="1.0" encoding="utf-8"?>
<!-- Generator: Adobe Illustrator 27.3.1, SVG Export Plug-In . SVG Version: 6.00 Build 0)  -->
<svg version="1.1" xmlns="http://www.w3.org/2000/svg" xmlns:xlink="http://www.w3.org/1999/xlink" x="0px" y="0px"
	 viewBox="0 0 30 30" style="enable-background:new 0 0 30 30;" xml:space="preserve">
<g id="Layer_2">
</g>
<g id="Layer_1">
	<path d="M26.3,12.7l-2.7-0.5c-0.2-0.5-0.4-0.9-0.6-1.4l1.6-2.2c0.2-0.3,0.2-0.8-0.1-1.1l-2.1-2.1c-0.3-0.3-0.7-0.3-1.1-0.1
		l-2.2,1.6c-0.4-0.2-0.9-0.4-1.4-0.6l-0.4-2.6C17.2,3.3,16.9,3,16.5,3h-3c-0.4,0-0.7,0.3-0.8,0.7l-0.5,2.7c-0.5,0.2-0.9,0.4-1.4,0.6
		L8.6,5.4C8.3,5.1,7.8,5.2,7.6,5.4L5.4,7.6C5.1,7.9,5.1,8.3,5.3,8.7l1.6,2.2c-0.2,0.4-0.4,0.9-0.6,1.4l-2.6,0.4
		C3.3,12.7,3,13.1,3,13.5v3c0,0.4,0.3,0.7,0.7,0.8l2.7,0.5c0.2,0.5,0.4,0.9,0.6,1.4l-1.6,2.2c-0.2,0.3-0.2,0.8,0.1,1.1l2.1,2.1
		c0.3,0.3,0.7,0.3,1.1,0.1l2.2-1.6c0.4,0.2,0.9,0.4,1.4,0.6l0.5,2.7c0.1,0.4,0.4,0.7,0.8,0.7h3c0.4,0,0.7-0.3,0.8-0.7l0.4-2.7
		c0.5-0.2,0.9-0.4,1.4-0.6l2.2,1.6c0.3,0.2,0.8,0.2,1.1-0.1l2.1-2.1c0.3-0.3,0.3-0.7,0.1-1.1l-1.6-2.2c0.2-0.4,0.4-0.9,0.6-1.4
		l2.7-0.5c0.4-0.1,0.7-0.4,0.7-0.8v-3C27,13.1,26.7,12.7,26.3,12.7z M15,19.3c-2.4,0-4.3-1.9-4.3-4.3c0-2.4,1.9-4.3,4.3-4.3
		s4.3,1.9,4.3,4.3S17.4,19.3,15,19.3z"/>
</g>
</svg>
