<?xml version="1.0" encoding="utf-8"?>
<!-- Generator: Adobe Illustrator 27.3.1, SVG Export Plug-In . SVG Version: 6.00 Build 0)  -->
<svg version="1.1"
	 id="Layer_1" xmlns:rdf="http://www.w3.org/1999/02/22-rdf-syntax-ns#" xmlns:sodipodi="http://sodipodi.sourceforge.net/DTD/sodipodi-0.dtd" xmlns:cc="http://creativecommons.org/ns#" xmlns:svg="http://www.w3.org/2000/svg" xmlns:inkscape="http://www.inkscape.org/namespaces/inkscape" xmlns:dc="http://purl.org/dc/elements/1.1/"
	 xmlns="http://www.w3.org/2000/svg" xmlns:xlink="http://www.w3.org/1999/xlink" x="0px" y="0px" viewBox="0 0 30 30"
	 style="enable-background:new 0 0 30 30;" xml:space="preserve">
<g transform="translate(0,-952.36218)">
	<path d="M16.6,955.4c1,0,1.9,0.8,1.9,1.9v0.9c0.2,0.1,0.4,0.2,0.6,0.2l0.7-0.7c0.7-0.7,1.9-0.7,2.6,0l2.3,2.3
		c0.7,0.7,0.7,1.9,0,2.6l-0.7,0.7c0.1,0.2,0.2,0.4,0.2,0.6h0.9c1,0,1.9,0.8,1.9,1.9v3.2c0,1-0.8,1.9-1.9,1.9h-0.9
		c-0.1,0.2-0.2,0.4-0.2,0.6l0.7,0.7c0.7,0.7,0.7,1.9,0,2.6l-2.3,2.3c-0.7,0.7-1.9,0.7-2.6,0l-0.7-0.7c-0.2,0.1-0.4,0.2-0.6,0.2v0.9
		c0,1-0.8,1.9-1.9,1.9h-3.2c-1,0-1.9-0.8-1.9-1.9v-0.9c-0.2-0.1-0.4-0.2-0.6-0.2l-0.7,0.7c-0.7,0.7-1.9,0.7-2.6,0h0l-2.3-2.2
		c0,0,0,0,0,0c-0.7-0.7-0.7-1.9,0-2.6l0.7-0.7c-0.1-0.2-0.2-0.4-0.3-0.6H4.9c-1,0-1.9-0.8-1.9-1.9v-3.2c0-1,0.8-1.9,1.9-1.9h0.9
		c0.1-0.2,0.2-0.4,0.3-0.6l-0.7-0.7c-0.7-0.7-0.7-1.9,0-2.6l2.3-2.3c0.7-0.7,1.9-0.7,2.6,0l0.7,0.7c0.2-0.1,0.4-0.2,0.6-0.2v-0.9
		c0-1,0.8-1.9,1.9-1.9H16.6L16.6,955.4z M16.6,957h-3.2c-0.2,0-0.3,0.1-0.3,0.3v1.5c0,0.3-0.2,0.7-0.6,0.8c-0.5,0.2-1,0.4-1.4,0.6
		c-0.3,0.2-0.7,0.1-0.9-0.1l-1-1c-0.1-0.1-0.3-0.1-0.4,0c0,0,0,0,0,0l-2.3,2.2c-0.1,0.1-0.1,0.3,0,0.4l1,1c0.2,0.2,0.3,0.6,0.1,0.9
		c-0.2,0.5-0.4,0.9-0.6,1.4c-0.1,0.3-0.4,0.6-0.8,0.6H4.9c-0.2,0-0.3,0.1-0.3,0.3v3.2c0,0.2,0.1,0.3,0.3,0.3h1.5
		c0.3,0,0.7,0.2,0.8,0.6c0.2,0.5,0.4,1,0.6,1.4c0.2,0.3,0.1,0.7-0.1,0.9l-1,1c-0.1,0.1-0.1,0.3,0,0.4l2.3,2.3c0.1,0.1,0.3,0.1,0.4,0
		l1-1c0.2-0.2,0.6-0.3,0.9-0.1c0.5,0.2,0.9,0.4,1.4,0.6c0.3,0.1,0.6,0.4,0.6,0.8v1.5c0,0.2,0.1,0.3,0.3,0.3h3.2
		c0.2,0,0.3-0.1,0.3-0.3V976c0-0.3,0.2-0.7,0.6-0.8c0.5-0.2,1-0.4,1.4-0.6c0.3-0.2,0.7-0.1,0.9,0.1l1,1c0.1,0.1,0.3,0.1,0.4,0
		l2.3-2.3c0.1-0.1,0.1-0.3,0-0.4l-1-1c-0.2-0.2-0.3-0.6-0.1-0.9c0.2-0.5,0.4-0.9,0.6-1.4c0.1-0.3,0.4-0.6,0.8-0.6h1.5
		c0.2,0,0.3-0.1,0.3-0.3v-3.2c0-0.2-0.1-0.3-0.3-0.3h-1.5c-0.3,0-0.7-0.2-0.8-0.6c-0.2-0.5-0.4-1-0.6-1.4c-0.2-0.3-0.1-0.7,0.1-0.9
		l1-1c0.1-0.1,0.1-0.3,0-0.4l-2.3-2.3c-0.1-0.1-0.3-0.1-0.4,0l-1,1c-0.2,0.2-0.6,0.3-0.9,0.1c-0.5-0.2-0.9-0.4-1.4-0.6
		c-0.3-0.1-0.6-0.4-0.6-0.8v-1.5C16.9,957.1,16.8,957,16.6,957z M15,961.8c3.1,0,5.6,2.5,5.6,5.6S18.1,973,15,973
		c-3.1,0-5.6-2.5-5.6-5.6S11.9,961.8,15,961.8z M15,963.4c-2.2,0-4,1.8-4,4s1.8,4,4,4s4-1.8,4-4S17.2,963.4,15,963.4z"/>
</g>
</svg>
