<svg class="svg-icon" style="width: 1em; height: 1em;vertical-align: middle;fill: currentColor;overflow: hidden;" viewBox="0 0 1024 1024" version="1.1" xmlns="http://www.w3.org/2000/svg"><path d="M108.992 648.992H320l-232 232q-12.992 12.992-12.992 31.008t12.992 31.008 31.008 12.992 31.008-12.992l236-236v210.016q0 18.016 12.992 31.008t31.008 12.992 31.008-12.992 12.992-31.008v-312q0-19.008-12.992-31.488t-31.008-12.512H109.024q-18.016 0-31.008 12.512t-12.992 31.008 12.992 31.488 31.008 12.992z m486.016-184h320.992q18.016 0 31.008-12.992t12.992-31.008-12.992-31.008-31.008-12.992h-211.008l232-232q12.992-12.992 12.992-31.488t-12.992-31.008-31.008-12.512-31.008 12l-236 236V108.992q0-18.016-12.992-31.008t-31.008-12.992-31.008 12.992-12.992 31.008v312q0 18.016 12.992 31.008t31.008 12.992z"  /></svg>