<svg width="28" height="28" viewBox="0 0 28 28" fill="none" xmlns="http://www.w3.org/2000/svg">
<rect width="28" height="28" rx="3" fill="rgb(0, 48, 89)"/>
<path d="M8.5 15L9.28446 16.5689C9.54995 17.0999 9.68269 17.3654 9.86003 17.5954C10.0174 17.7996 10.2004 17.9826 10.4046 18.14C10.6346 18.3173 10.9001 18.4501 11.4311 18.7155L13 19.5L11.4311 20.2845C10.9001 20.5499 10.6346 20.6827 10.4046 20.86C10.2004 21.0174 10.0174 21.2004 9.86003 21.4046C9.68269 21.6346 9.54995 21.9001 9.28446 22.4311L8.5 24L7.71554 22.4311C7.45005 21.9001 7.31731 21.6346 7.13997 21.4046C6.98261 21.2004 6.79959 21.0174 6.59545 20.86C6.36538 20.6827 6.0999 20.5499 5.56892 20.2845L4 19.5L5.56892 18.7155C6.0999 18.4501 6.36538 18.3173 6.59545 18.14C6.79959 17.9826 6.98261 17.7996 7.13997 17.5954C7.31731 17.3654 7.45005 17.0999 7.71554 16.5689L8.5 15Z" fill="white"/>
<path d="M17 4L18.1786 7.06442C18.4606 7.79765 18.6016 8.16426 18.8209 8.47264C19.0153 8.74595 19.254 8.98475 19.5274 9.17909C19.8357 9.39836 20.2024 9.53937 20.9356 9.82138L24 11L20.9356 12.1786C20.2024 12.4606 19.8357 12.6016 19.5274 12.8209C19.254 13.0153 19.0153 13.254 18.8209 13.5274C18.6016 13.8357 18.4606 14.2024 18.1786 14.9356L17 18L15.8214 14.9356C15.5394 14.2024 15.3984 13.8357 15.1791 13.5274C14.9847 13.254 14.746 13.0153 14.4726 12.8209C14.1643 12.6016 13.7976 12.4606 13.0644 12.1786L10 11L13.0644 9.82138C13.7976 9.53937 14.1643 9.39836 14.4726 9.17909C14.746 8.98475 14.9847 8.74595 15.1791 8.47264C15.3984 8.16426 15.5394 7.79765 15.8214 7.06442L17 4Z" fill="white"/>
<path d="M8.5 15L9.28446 16.5689C9.54995 17.0999 9.68269 17.3654 9.86003 17.5954C10.0174 17.7996 10.2004 17.9826 10.4046 18.14C10.6346 18.3173 10.9001 18.4501 11.4311 18.7155L13 19.5L11.4311 20.2845C10.9001 20.5499 10.6346 20.6827 10.4046 20.86C10.2004 21.0174 10.0174 21.2004 9.86003 21.4046C9.68269 21.6346 9.54995 21.9001 9.28446 22.4311L8.5 24L7.71554 22.4311C7.45005 21.9001 7.31731 21.6346 7.13997 21.4046C6.98261 21.2004 6.79959 21.0174 6.59545 20.86C6.36538 20.6827 6.0999 20.5499 5.56892 20.2845L4 19.5L5.56892 18.7155C6.0999 18.4501 6.36538 18.3173 6.59545 18.14C6.79959 17.9826 6.98261 17.7996 7.13997 17.5954C7.31731 17.3654 7.45005 17.0999 7.71554 16.5689L8.5 15Z" stroke="white" stroke-linecap="round" stroke-linejoin="round"/>
<path d="M17 4L18.1786 7.06442C18.4606 7.79765 18.6016 8.16426 18.8209 8.47264C19.0153 8.74595 19.254 8.98475 19.5274 9.17909C19.8357 9.39836 20.2024 9.53937 20.9356 9.82138L24 11L20.9356 12.1786C20.2024 12.4606 19.8357 12.6016 19.5274 12.8209C19.254 13.0153 19.0153 13.254 18.8209 13.5274C18.6016 13.8357 18.4606 14.2024 18.1786 14.9356L17 18L15.8214 14.9356C15.5394 14.2024 15.3984 13.8357 15.1791 13.5274C14.9847 13.254 14.746 13.0153 14.4726 12.8209C14.1643 12.6016 13.7976 12.4606 13.0644 12.1786L10 11L13.0644 9.82138C13.7976 9.53937 14.1643 9.39836 14.4726 9.17909C14.746 8.98475 14.9847 8.74595 15.1791 8.47264C15.3984 8.16426 15.5394 7.79765 15.8214 7.06442L17 4Z" stroke="white" stroke-linecap="round" stroke-linejoin="round"/>
</svg>
