<svg width="26" height="26" viewBox="0 0 26 26" fill="none" xmlns="http://www.w3.org/2000/svg">
<path d="M24.6129 10.6774H23.5863C23.3149 9.42553 22.8211 8.23245 22.1285 7.15484L22.8539 6.42942C22.9265 6.35683 22.9673 6.25839 22.9673 6.15574C22.9673 6.0531 22.9265 5.95466 22.8539 5.88206L20.1168 3.14606C20.0442 3.0735 19.9457 3.03273 19.8431 3.03273C19.7405 3.03273 19.642 3.0735 19.5694 3.14606L18.8452 3.87148C17.7676 3.17881 16.5745 2.68505 15.3226 2.41368V1.3871C15.3226 1.28443 15.2818 1.18597 15.2092 1.11338C15.1366 1.04078 15.0381 1 14.9355 1H11.0645C10.9619 1 10.8634 1.04078 10.7908 1.11338C10.7182 1.18597 10.6774 1.28443 10.6774 1.3871V2.41368C9.4255 2.68505 8.23241 3.17881 7.15484 3.87148L6.43058 3.14606C6.35662 3.07613 6.25869 3.03716 6.1569 3.03716C6.05511 3.03716 5.95718 3.07613 5.88323 3.14606L3.14606 5.88323C3.0735 5.95582 3.03273 6.05426 3.03273 6.1569C3.03273 6.25955 3.0735 6.35799 3.14606 6.43058L3.87148 7.15484C3.1789 8.23245 2.68515 9.42553 2.41368 10.6774H1.3871C1.28443 10.6774 1.18597 10.7182 1.11338 10.7908C1.04078 10.8634 1 10.9619 1 11.0645V14.9355C1 15.0381 1.04078 15.1366 1.11338 15.2092C1.18597 15.2818 1.28443 15.3226 1.3871 15.3226H2.41368C2.68515 16.5745 3.1789 17.7675 3.87148 18.8452L3.14606 19.5694C3.0735 19.642 3.03273 19.7405 3.03273 19.8431C3.03273 19.9457 3.0735 20.0442 3.14606 20.1168L5.88323 22.8539C5.95582 22.9265 6.05426 22.9673 6.1569 22.9673C6.25955 22.9673 6.35799 22.9265 6.43058 22.8539L7.15484 22.1285C8.23241 22.8212 9.4255 23.3149 10.6774 23.5863V24.6129C10.6774 24.7156 10.7182 24.814 10.7908 24.8866C10.8634 24.9592 10.9619 25 11.0645 25H14.9355C15.0381 25 15.1366 24.9592 15.2092 24.8866C15.2818 24.814 15.3226 24.7156 15.3226 24.6129V23.5863C16.5745 23.3149 17.7676 22.8212 18.8452 22.1285L19.5706 22.8539C19.6445 22.9239 19.7425 22.9628 19.8443 22.9628C19.946 22.9628 20.044 22.9239 20.1179 22.8539L22.8551 20.1168C22.9277 20.0442 22.9684 19.9457 22.9684 19.8431C22.9684 19.7405 22.9277 19.642 22.8551 19.5694L22.1285 18.8452C22.8211 17.7675 23.3149 16.5745 23.5863 15.3226H24.6129C24.7156 15.3226 24.814 15.2818 24.8866 15.2092C24.9592 15.1366 25 15.0381 25 14.9355V11.0645C25 10.9619 24.9592 10.8634 24.8866 10.7908C24.814 10.7182 24.7156 10.6774 24.6129 10.6774ZM24.2258 14.5484H23.2697C23.1794 14.5484 23.092 14.5799 23.0225 14.6375C22.953 14.6951 22.9059 14.7752 22.8892 14.8639C22.6352 16.2305 22.0978 17.5288 21.3117 18.6752C21.2607 18.7497 21.2374 18.8397 21.2457 18.9297C21.254 19.0196 21.2936 19.1038 21.3574 19.1676L22.0325 19.8431L19.8431 22.0329L19.1676 21.3574C19.1038 21.2936 19.0196 21.254 18.9297 21.2457C18.8397 21.2374 18.7497 21.2607 18.6752 21.3117C17.5289 22.0979 16.2308 22.6354 14.8643 22.8895C14.7756 22.9062 14.6954 22.9532 14.6378 23.0226C14.5801 23.0921 14.5485 23.1794 14.5484 23.2697V24.2258H11.4516V23.2697C11.4515 23.1794 11.4199 23.0921 11.3622 23.0226C11.3046 22.9532 11.2244 22.9062 11.1357 22.8895C9.76922 22.6354 8.47105 22.0979 7.32477 21.3117C7.25026 21.2607 7.16025 21.2374 7.07034 21.2457C6.98042 21.254 6.89624 21.2936 6.83239 21.3574L6.1569 22.0329L3.96748 19.8431L4.64258 19.1676C4.70643 19.1038 4.74595 19.0196 4.75429 18.9297C4.76263 18.8397 4.73927 18.7497 4.68826 18.6752C3.90215 17.5288 3.36482 16.2305 3.11084 14.8639C3.09414 14.7752 3.04697 14.6951 2.97749 14.6375C2.90801 14.5799 2.82058 14.5484 2.73032 14.5484H1.77419V11.4516H2.73032C2.82058 11.4516 2.90801 11.4201 2.97749 11.3625C3.04697 11.3049 3.09414 11.2248 3.11084 11.1361C3.36482 9.76949 3.90215 8.47118 4.68826 7.32477C4.73927 7.25026 4.76263 7.16025 4.75429 7.07034C4.74595 6.98042 4.70643 6.89624 4.64258 6.83239L3.96748 6.1569L6.1569 3.9671L6.83239 4.64258C6.89624 4.70643 6.98042 4.74595 7.07034 4.75429C7.16025 4.76263 7.25026 4.73927 7.32477 4.68826C8.47105 3.90211 9.76922 3.36464 11.1357 3.11045C11.2244 3.09385 11.3046 3.04677 11.3622 2.97736C11.4199 2.90795 11.4515 2.82057 11.4516 2.73032V1.77419H14.5484V2.73032C14.5485 2.82057 14.5801 2.90795 14.6378 2.97736C14.6954 3.04677 14.7756 3.09385 14.8643 3.11045C16.2308 3.36464 17.5289 3.90211 18.6752 4.68826C18.7497 4.73927 18.8397 4.76263 18.9297 4.75429C19.0196 4.74595 19.1038 4.70643 19.1676 4.64258L19.8431 3.9671L22.0325 6.1569L21.3574 6.83239C21.2936 6.89624 21.254 6.98042 21.2457 7.07034C21.2374 7.16025 21.2607 7.25026 21.3117 7.32477C22.0978 8.47118 22.6352 9.76949 22.8892 11.1361C22.9059 11.2248 22.953 11.3049 23.0225 11.3625C23.092 11.4201 23.1794 11.4516 23.2697 11.4516H24.2258V14.5484Z" fill="#3C4E5D" stroke="#3C4E5D" stroke-width="0.4"/>
<path d="M13 4.87097C11.3922 4.87097 9.82057 5.34773 8.48376 6.24096C7.14695 7.13419 6.10503 8.40377 5.48976 9.88916C4.87449 11.3745 4.71351 13.009 5.02717 14.5859C5.34083 16.1628 6.11505 17.6112 7.25191 18.7481C8.38878 19.885 9.83723 20.6592 11.4141 20.9728C12.991 21.2865 14.6255 21.1255 16.1109 20.5102C17.5962 19.895 18.8658 18.8531 19.7591 17.5163C20.6523 16.1794 21.129 14.6078 21.129 13C21.1266 10.8448 20.2693 8.77858 18.7454 7.25463C17.2214 5.73067 15.1552 4.87343 13 4.87097ZM13 20.3548C11.5454 20.3548 10.1234 19.9235 8.91388 19.1153C7.70438 18.3072 6.76169 17.1585 6.20502 15.8146C5.64835 14.4707 5.5027 12.9918 5.78649 11.5651C6.07028 10.1384 6.77076 8.82794 7.79935 7.79935C8.82794 6.77076 10.1385 6.07027 11.5651 5.78649C12.9918 5.5027 14.4707 5.64835 15.8146 6.20502C17.1585 6.76169 18.3072 7.70438 19.1153 8.91387C19.9235 10.1234 20.3548 11.5454 20.3548 13C20.3527 14.95 19.5771 16.8195 18.1983 18.1983C16.8195 19.5771 14.95 20.3527 13 20.3548Z" fill="#3C4E5D" stroke="#3C4E5D" stroke-width="0.4"/>
<path d="M17.258 11.4516H16.871V7.96775C16.871 7.86509 16.8302 7.76663 16.7576 7.69404C16.685 7.62144 16.5865 7.58066 16.4839 7.58066H9.51611C9.41345 7.58066 9.31499 7.62144 9.24239 7.69404C9.1698 7.76663 9.12901 7.86509 9.12901 7.96775V9.12905H8.74192C8.43392 9.12905 8.13855 9.25139 7.92076 9.46918C7.70298 9.68696 7.58063 9.98234 7.58063 10.2903V16.4839C7.58063 16.7919 7.70298 17.0873 7.92076 17.305C8.13855 17.5228 8.43392 17.6452 8.74192 17.6452H17.258C17.566 17.6452 17.8614 17.5228 18.0792 17.305C18.297 17.0873 18.4193 16.7919 18.4193 16.4839V12.6129C18.4193 12.3049 18.297 12.0095 18.0792 11.7918C17.8614 11.574 17.566 11.4516 17.258 11.4516ZM9.90321 8.35485H16.0968V11.4516H13.5682L11.9811 9.54711C11.8725 9.41636 11.7364 9.31112 11.5826 9.23887C11.4287 9.16662 11.2608 9.12912 11.0908 9.12905H9.90321V8.35485ZM8.74192 9.90324H11.0889C11.1457 9.9032 11.2018 9.91567 11.2532 9.93975C11.3047 9.96384 11.3502 9.99895 11.3866 10.0426L11.9161 10.6774H8.35482V10.2903C8.35482 10.1877 8.3956 10.0892 8.4682 10.0166C8.54079 9.94402 8.63925 9.90324 8.74192 9.90324ZM17.6451 16.4839C17.6451 16.5865 17.6044 16.685 17.5318 16.7576C17.4592 16.8302 17.3607 16.871 17.258 16.871H8.74192C8.63925 16.871 8.54079 16.8302 8.4682 16.7576C8.3956 16.685 8.35482 16.5865 8.35482 16.4839V11.4516H12.5606L13.0898 12.0869C13.1261 12.1304 13.1716 12.1654 13.223 12.1894C13.2744 12.2134 13.3304 12.2258 13.3871 12.2258H17.258C17.3607 12.2258 17.4592 12.2666 17.5318 12.3392C17.6044 12.4118 17.6451 12.5103 17.6451 12.6129V16.4839Z" fill="#3C4E5D" stroke="#3C4E5D" stroke-width="0.4"/>
<path d="M16.4838 13.7742H14.1613C14.0586 13.7742 13.9601 13.815 13.8875 13.8876C13.815 13.9602 13.7742 14.0586 13.7742 14.1613V15.7097C13.7742 15.8123 13.815 15.9108 13.8875 15.9834C13.9601 16.056 14.0586 16.0968 14.1613 16.0968H16.4838C16.5865 16.0968 16.685 16.056 16.7576 15.9834C16.8302 15.9108 16.8709 15.8123 16.8709 15.7097V14.1613C16.8709 14.0586 16.8302 13.9602 16.7576 13.8876C16.685 13.815 16.5865 13.7742 16.4838 13.7742ZM16.0968 15.3226H14.5484V14.5484H16.0968V15.3226Z" fill="#3C4E5D" stroke="#3C4E5D" stroke-width="0.4"/>
</svg>
