<svg width="14" height="14" viewBox="0 0 14 14" fill="none" xmlns="http://www.w3.org/2000/svg">
<path d="M4 1H13.75V2.5H4V1ZM1.375 2.875C1.07663 2.875 0.790483 2.75647 0.579505 2.5455C0.368526 2.33452 0.25 2.04837 0.25 1.75C0.25 1.45163 0.368526 1.16548 0.579505 0.954505C0.790483 0.743526 1.07663 0.625 1.375 0.625C1.67337 0.625 1.95952 0.743526 2.1705 0.954505C2.38147 1.16548 2.5 1.45163 2.5 1.75C2.5 2.04837 2.38147 2.33452 2.1705 2.5455C1.95952 2.75647 1.67337 2.875 1.375 2.875ZM1.375 8.125C1.07663 8.125 0.790483 8.00647 0.579505 7.7955C0.368526 7.58452 0.25 7.29837 0.25 7C0.25 6.70163 0.368526 6.41548 0.579505 6.2045C0.790483 5.99353 1.07663 5.875 1.375 5.875C1.67337 5.875 1.95952 5.99353 2.1705 6.2045C2.38147 6.41548 2.5 6.70163 2.5 7C2.5 7.29837 2.38147 7.58452 2.1705 7.7955C1.95952 8.00647 1.67337 8.125 1.375 8.125ZM1.375 13.3C1.07663 13.3 0.790483 13.1815 0.579505 12.9705C0.368526 12.7595 0.25 12.4734 0.25 12.175C0.25 11.8766 0.368526 11.5905 0.579505 11.3795C0.790483 11.1685 1.07663 11.05 1.375 11.05C1.67337 11.05 1.95952 11.1685 2.1705 11.3795C2.38147 11.5905 2.5 11.8766 2.5 12.175C2.5 12.4734 2.38147 12.7595 2.1705 12.9705C1.95952 13.1815 1.67337 13.3 1.375 13.3ZM4 6.25H13.75V7.75H4V6.25ZM4 11.5H13.75V13H4V11.5Z" fill="#6E7DAB"/>
</svg>
