<svg width="26" height="26" viewBox="0 0 26 26" fill="none" xmlns="http://www.w3.org/2000/svg">
<path d="M13 1C6.37904 1 1 6.37904 1 13C1 19.621 6.37904 25 13 25C19.621 25 25 19.621 25 13C25 6.37904 19.621 1 13 1ZM12.4375 2.10795C12.4431 2.10767 12.4489 2.10823 12.4545 2.10795V4C12.4535 4.07228 12.4669 4.14404 12.4938 4.21111C12.5208 4.27819 12.5608 4.33924 12.6115 4.39071C12.6623 4.44218 12.7228 4.48306 12.7895 4.51096C12.8561 4.53886 12.9277 4.55322 13 4.55322C13.0723 4.55322 13.1439 4.53886 13.2105 4.51096C13.2772 4.48306 13.3377 4.44218 13.3885 4.39071C13.4392 4.33924 13.4792 4.27819 13.5062 4.21111C13.5331 4.14404 13.5465 4.07228 13.5455 4V2.10795C15.0703 2.18276 16.5102 2.56218 17.8068 3.19886L17.1676 4.2642C17.1307 4.32576 17.1062 4.39399 17.0957 4.465C17.0851 4.536 17.0886 4.60839 17.106 4.67804C17.1234 4.74768 17.1544 4.81321 17.1971 4.87089C17.2399 4.92857 17.2936 4.97727 17.3551 5.0142C17.4167 5.05114 17.4849 5.07559 17.5559 5.08615C17.6269 5.09672 17.6993 5.0932 17.7689 5.07578C17.8386 5.05837 17.9041 5.02742 17.9618 4.98468C18.0195 4.94194 18.0682 4.88826 18.1051 4.8267L18.7614 3.7358C19.9762 4.49243 21.0308 5.48264 21.8636 6.64205L20.5256 7.98011C20.466 8.02815 20.4171 8.0882 20.3822 8.15635C20.3474 8.2245 20.3272 8.29923 20.3231 8.37567C20.319 8.45212 20.3311 8.52857 20.3585 8.60006C20.3859 8.67155 20.428 8.73647 20.4821 8.79061C20.5363 8.84474 20.6012 8.88687 20.6727 8.91427C20.7442 8.94166 20.8206 8.9537 20.8971 8.9496C20.9735 8.9455 21.0482 8.92536 21.1164 8.89048C21.1845 8.8556 21.2446 8.80677 21.2926 8.74716L22.4688 7.57102C23.3022 9.02215 23.805 10.6808 23.892 12.4545H22C21.983 12.4537 21.9659 12.4537 21.9489 12.4545C21.8772 12.4579 21.8069 12.4753 21.742 12.5058C21.6771 12.5363 21.6189 12.5793 21.5706 12.6323C21.5223 12.6854 21.4849 12.7474 21.4606 12.8149C21.4363 12.8823 21.4255 12.9539 21.4289 13.0256C21.4322 13.0972 21.4497 13.1675 21.4802 13.2324C21.5107 13.2973 21.5537 13.3555 21.6067 13.4038C21.6598 13.4521 21.7218 13.4894 21.7893 13.5138C21.8568 13.5381 21.9284 13.5488 22 13.5455H23.892C23.6086 19.323 18.8486 23.9091 13 23.9091C7.15139 23.9091 2.39138 19.323 2.10795 13.5455H4C4.07228 13.5465 4.14404 13.5331 4.21111 13.5062C4.27819 13.4792 4.33924 13.4392 4.39071 13.3885C4.44218 13.3377 4.48306 13.2772 4.51096 13.2105C4.53886 13.1439 4.55322 13.0723 4.55322 13C4.55322 12.9277 4.53886 12.8561 4.51096 12.7895C4.48306 12.7228 4.44218 12.6623 4.39071 12.6115C4.33924 12.5608 4.27819 12.5208 4.21111 12.4938C4.14404 12.4669 4.07228 12.4535 4 12.4545H2.10795C2.19497 10.6808 2.69778 9.02215 3.53125 7.57102L4.70739 8.74716C4.75542 8.80677 4.81547 8.8556 4.88362 8.89048C4.95177 8.92536 5.0265 8.9455 5.10295 8.9496C5.17939 8.9537 5.25585 8.94166 5.32733 8.91427C5.39882 8.88687 5.46374 8.84474 5.51788 8.79061C5.57201 8.73647 5.61415 8.67155 5.64154 8.60006C5.66893 8.52857 5.68097 8.45212 5.67687 8.37567C5.67277 8.29923 5.65263 8.2245 5.61775 8.15635C5.58287 8.0882 5.53404 8.02815 5.47443 7.98011L4.13636 6.64205C4.96922 5.48264 6.02376 4.49243 7.23864 3.7358L7.89489 4.8267C7.96948 4.95102 8.0904 5.04062 8.23105 5.07578C8.37171 5.11095 8.52057 5.0888 8.64489 5.0142C8.76921 4.93961 8.8588 4.81869 8.89397 4.67804C8.92913 4.53738 8.90698 4.38852 8.83239 4.2642L8.19318 3.19886C9.48501 2.56454 10.9189 2.18478 12.4375 2.10795ZM18.7188 6.71875C18.5763 6.72438 18.4417 6.78556 18.3438 6.8892L13.7074 11.5256C13.4921 11.4205 13.2537 11.3636 13 11.3636C12.1027 11.3636 11.3636 12.1027 11.3636 13C11.3636 13.8973 12.1027 14.6364 13 14.6364C13.8973 14.6364 14.6364 13.8973 14.6364 13C14.6364 12.7463 14.5795 12.5079 14.4744 12.2926L19.1108 7.65625C19.1897 7.57995 19.2438 7.48162 19.2659 7.37411C19.288 7.2666 19.2772 7.15491 19.2349 7.05365C19.1925 6.95238 19.1206 6.86625 19.0285 6.8065C18.9364 6.74675 18.8285 6.71617 18.7188 6.71875ZM13 12.4545C13.1539 12.4545 13.2941 12.5101 13.392 12.608C13.3949 12.6108 13.3977 12.6137 13.4006 12.6165C13.4935 12.7137 13.5455 12.8505 13.5455 13C13.5455 13.3077 13.3077 13.5455 13 13.5455C12.6923 13.5455 12.4545 13.3077 12.4545 13C12.4545 12.6923 12.6923 12.4545 13 12.4545Z" fill="#3C4E5D" stroke="#3C4E5D" stroke-width="0.4"/>
</svg>
