<svg width="24" height="29" viewBox="0 0 24 29" fill="none" xmlns="http://www.w3.org/2000/svg">
<path d="M11.8977 15.2032C11.9269 15.2032 11.9561 15.2032 11.9912 15.2032C12.0029 15.2032 12.0145 15.2032 12.0262 15.2032C12.0438 15.2032 12.0671 15.2032 12.0847 15.2032C13.7966 15.174 15.1814 14.5722 16.2039 13.4211C18.4534 10.8853 18.0795 6.5382 18.0386 6.12335C17.8925 3.00909 16.4201 1.51915 15.2048 0.823848C14.2991 0.303831 13.2415 0.0233716 12.0613 0H12.0204C12.0145 0 12.0029 0 11.997 0H11.962C11.3134 0 10.0396 0.105172 8.81847 0.800477C7.59147 1.49578 6.09568 2.98572 5.94961 6.12335C5.90871 6.5382 5.53477 10.8853 7.78428 13.4211C8.80094 14.5722 10.1857 15.174 11.8977 15.2032ZM7.50966 6.26943C7.50966 6.2519 7.51551 6.23437 7.51551 6.22268C7.70832 2.03333 10.6824 1.58342 11.9561 1.58342H11.9795C11.9912 1.58342 12.0087 1.58342 12.0262 1.58342C13.6038 1.61848 16.2857 2.2612 16.4668 6.22268C16.4668 6.24021 16.4668 6.25774 16.4727 6.26943C16.4785 6.31033 16.8875 10.2835 15.0295 12.3753C14.2933 13.2049 13.3117 13.6139 12.0204 13.6256C12.0087 13.6256 12.0029 13.6256 11.9912 13.6256C11.9795 13.6256 11.9736 13.6256 11.962 13.6256C10.6765 13.6139 9.68906 13.2049 8.9587 12.3753C7.1065 10.2952 7.50382 6.30448 7.50966 6.26943Z" fill="#3C4E5D"/>
<path d="M23.9984 22.4132C23.9984 22.4074 23.9984 22.4015 23.9984 22.3957C23.9984 22.349 23.9925 22.3022 23.9925 22.2496C23.9575 21.0927 23.8815 18.3875 21.3457 17.5227C21.3282 17.5169 21.3048 17.511 21.2873 17.5052C18.6521 16.8333 16.461 15.3141 16.4377 15.2966C16.0812 15.0453 15.5904 15.133 15.3392 15.4894C15.0879 15.8458 15.1756 16.3366 15.532 16.5879C15.6313 16.658 17.9568 18.2765 20.8666 19.0244C22.228 19.5093 22.3799 20.9642 22.4208 22.2964C22.4208 22.349 22.4208 22.3957 22.4266 22.4424C22.4325 22.9683 22.3974 23.7805 22.3039 24.2479C21.3574 24.7854 17.6471 26.6435 12.0029 26.6435C6.38203 26.6435 2.64842 24.7796 1.69603 24.2421C1.60254 23.7746 1.56164 22.9625 1.57333 22.4366C1.57333 22.3899 1.57917 22.3431 1.57917 22.2905C1.62007 20.9584 1.77199 19.5035 3.13338 19.0185C6.04314 18.2706 8.36862 16.6463 8.46795 16.582C8.82436 16.3308 8.91201 15.84 8.66076 15.4836C8.40952 15.1271 7.91871 15.0395 7.5623 15.2907C7.53893 15.3083 5.35953 16.8274 2.71269 17.4994C2.68932 17.5052 2.67179 17.511 2.65427 17.5169C0.118448 18.3875 0.0424906 21.0927 0.00743326 22.2438C0.00743326 22.2964 0.00743312 22.3431 0.00159023 22.3899C0.00159023 22.3957 0.00159023 22.4015 0.00159023 22.4074C-0.00425267 22.7112 -0.0100954 24.2713 0.299578 25.0542C0.358007 25.2061 0.463179 25.3347 0.603409 25.4223C0.778696 25.5392 4.97974 28.2152 12.0087 28.2152C19.0377 28.2152 23.2388 25.5333 23.4141 25.4223C23.5485 25.3347 23.6595 25.2061 23.7179 25.0542C24.01 24.2771 24.0042 22.7171 23.9984 22.4132Z" fill="#3C4E5D"/>
</svg>
