<?xml version="1.0" encoding="utf-8"?>
<!-- Generator: Adobe Illustrator 15.0.0, SVG Export Plug-In . SVG Version: 6.00 Build 0)  -->
<!DOCTYPE svg PUBLIC "-//W3C//DTD SVG 1.1//EN" "http://www.w3.org/Graphics/SVG/1.1/DTD/svg11.dtd">
<svg version="1.1" id="Layer_1" xmlns="http://www.w3.org/2000/svg" xmlns:xlink="http://www.w3.org/1999/xlink" x="0px" y="0px"
	 width="500px" height="500px" viewBox="0 0 500 500" enable-background="new 0 0 500 500" xml:space="preserve">
<g>
	<path fill="#F58345" d="M227.665,362.154c0.04-24.139,0.074-92.67,0.108-119.409c15.52-10.034,30.08-21.025,43.563-32.859
		c0.007,32.954,0,122.369-0.003,152.268H227.665z"/>
	<path fill="#F58345" d="M141.356,362.154v-77.102c14.361-5.086,28.269-10.869,41.677-17.29v94.392H141.356z"/>
	<path fill="#F58345" d="M315.067,362.154l0.08-198.561c17.659-22.662,31.939-47.284,42.271-73.376l0.022,271.937H315.067z"/>
	<path fill="#F58345" d="M143.911,419.82h212.173c34.73,0,66.266-13.195,89.161-34.519c23.127-21.537,37.438-51.313,37.438-84.211
		c0-32.893-14.312-62.668-37.438-84.205c-15.711-14.634-35.5-25.438-57.585-30.78l-0.727,45.455
		c10.26,3.854,19.469,9.573,27.126,16.705c14.522,13.53,23.514,32.21,23.514,52.826c0,20.621-8.991,39.302-23.514,52.831
		c-28.186,26.259-63.676,23.086-98.997,24.416l-181.354-0.443c-18.623-2.127-35.26-10.005-47.771-21.658
		c-14.524-13.522-23.507-32.203-23.507-52.823c0-20.617,8.982-39.303,23.507-52.826c14.754-13.745,35.248-22.245,57.974-22.245
		h0.108c25.105,0,18.23,2.98,22.766-20.208c3.322-17,9.041-30.941,26.358-45.044c14.314-11.657,33.198-18.72,54.001-18.72
		c13.036,0,25.329,2.783,36.214,7.741c5.23,2.081,7.354,2.894,10.275-1.829l16.168-25.254c4.86-7.586,1.915-7.833-3.382-10.457
		c-17.703-8.844-37.895-13.863-59.275-13.863c-31.618,0-60.632,10.993-82.899,29.121c-13.219,10.765-24.031,24.046-31.586,39.04
		c-10.692,21.21-0.518,14.093-23.985,20.592c-20.371,5.643-39.028,15.979-53.922,29.741c-23.126,21.537-37.435,51.317-37.435,84.212
		c0,32.896,14.305,62.665,37.435,84.204C77.647,408.943,109.184,419.836,143.911,419.82"/>
	<path fill-rule="evenodd" clip-rule="evenodd" fill="#58574B" d="M381.548,119.329h40.436c3.339,0,6.065,2.639,6.065,5.869v39.136
		c0,3.235-2.727,5.871-6.065,5.871h-40.436c-3.335,0-6.066-2.636-6.066-5.871v-39.136
		C375.481,121.968,378.213,119.329,381.548,119.329"/>
	<path fill-rule="evenodd" clip-rule="evenodd" fill="#58574B" d="M438.878,98.407h30.403c2.511,0,4.563,1.983,4.563,4.413v29.432
		c0,2.432-2.053,4.414-4.563,4.414h-30.403c-2.513,0-4.564-1.981-4.564-4.414V102.82C434.313,100.39,436.365,98.407,438.878,98.407"
		/>
	<path fill-rule="evenodd" clip-rule="evenodd" fill="#58574B" d="M398.399,80.18h25.784c2.126,0,3.865,1.682,3.865,3.74v24.958
		c0,2.062-1.739,3.744-3.865,3.744h-25.784c-2.127,0-3.867-1.682-3.867-3.744V83.92C394.532,81.861,396.272,80.18,398.399,80.18"/>
</g>
</svg>
