<svg width="25" height="27" viewBox="0 0 25 27" fill="none" xmlns="http://www.w3.org/2000/svg">
<g clip-path="url(#clip0_1_6897)">
<path d="M24.3651 14.3992C23.5166 13.5544 22.1435 13.5544 21.2951 14.3992L17.0539 18.6217C16.7711 17.9306 16.118 17.43 15.3436 17.3613L4.90971 16.2272C4.74081 16.2087 4.57247 16.2679 4.45182 16.3875L0.164134 20.6553C-0.0547113 20.8731 -0.0547113 21.2273 0.164134 21.4452L4.66 25.9214C4.87941 26.1392 5.23461 26.1392 5.45346 25.9214L6.69246 24.6878L16.4788 25.0537C16.6331 25.0599 16.7863 25.0007 16.8968 24.8906L24.3651 17.4546C25.2113 16.6121 25.2113 15.2405 24.3651 14.398V14.3992ZM23.5716 16.6657L16.2762 23.9291L6.71042 23.5716L4.35418 21.2257C4.13478 21.0078 3.77957 21.0078 3.56073 21.2257C3.34188 21.4435 3.34132 21.7978 3.56073 22.0156L5.67567 24.1213L5.05729 24.737L1.35488 21.0508L5.05505 17.3669C7.28839 17.6099 15.2325 18.4736 15.2403 18.4742C15.8099 18.5228 16.2027 19.0775 16.0489 19.6312C15.9968 19.7016 15.9631 19.7809 15.9479 19.8636C15.774 20.1474 15.4603 20.3161 15.1219 20.3022L9.36911 20.053C9.05992 20.039 8.79786 20.2787 8.78384 20.5871C8.76981 20.8955 9.01054 21.1564 9.32029 21.1692L15.0731 21.4184C15.916 21.4558 16.6752 20.9743 17.0164 20.2396L22.0885 15.1897C22.4981 14.7819 23.1614 14.7819 23.5716 15.1897C23.9807 15.5964 23.9807 16.259 23.5716 16.6663V16.6657Z" fill="white"/>
<path d="M11.6748 15.8457C13.251 16.3212 14.8856 16.3178 16.4445 15.8457C21.8146 14.2021 23.9402 7.75552 20.5902 3.26709C18.1706 0.0317782 13.8111 -0.881103 10.3477 0.889909C9.2456 1.45306 8.27146 2.27543 7.52963 3.26709C4.1942 7.72646 6.27604 14.1926 11.6748 15.8457ZM8.18616 4.28724C8.80005 4.52467 9.44144 4.72301 10.1036 4.88167C9.91673 5.7169 9.80394 6.61413 9.77195 7.5421H7.06781C7.1632 6.3482 7.56161 5.23811 8.18616 4.28779V4.28724ZM21.0515 7.5421H18.3473C18.3148 6.61469 18.202 5.7169 18.0157 4.88167C18.6778 4.72301 19.3198 4.52467 19.9331 4.28724C20.5577 5.23755 20.9561 6.34764 21.0515 7.54154V7.5421ZM19.9331 11.9138C19.3192 11.6763 18.6778 11.478 18.0157 11.3193C18.2025 10.4841 18.3153 9.58687 18.3473 8.6589H21.0515C20.9561 9.8528 20.5577 10.9629 19.9331 11.9138ZM13.4991 1.23908V4.21237C12.8234 4.18947 12.1568 4.12522 11.5064 4.02131C11.6282 3.66375 11.7663 3.32631 11.9211 3.01345C12.3723 2.10336 12.9267 1.48658 13.4996 1.23852L13.4991 1.23908ZM16.1993 3.01401C16.3541 3.32631 16.4922 3.66431 16.614 4.02186C15.963 4.12578 15.2964 4.19003 14.6213 4.21293V1.23908C15.1937 1.48714 15.7487 2.10392 16.1993 3.01401ZM14.6213 14.9608V11.9875C15.297 12.0104 15.9636 12.0747 16.614 12.1786C16.4922 12.5361 16.3541 12.8736 16.1993 13.1864C15.7481 14.0965 15.1937 14.7133 14.6213 14.9614V14.9608ZM14.6213 10.8696V8.65834H17.225C17.1931 9.512 17.0887 10.3344 16.9175 11.0947C16.1684 10.969 15.3996 10.8942 14.6213 10.869V10.8696ZM14.6213 7.54098V5.32973C15.3996 5.30515 16.1684 5.22973 16.9175 5.10402C17.0887 5.86495 17.1931 6.68676 17.225 7.54042H14.6213V7.54098ZM13.4991 5.32973V7.54098H10.8954C10.9273 6.68732 11.0317 5.86495 11.2029 5.10402C11.952 5.22973 12.7208 5.30459 13.4991 5.32973ZM13.4991 8.65834V10.8696C12.7208 10.8942 11.952 10.9696 11.2029 11.0953C11.0317 10.3344 10.9273 9.51256 10.8954 8.65834H13.4991ZM13.4991 11.9869V14.9602C12.9267 14.7122 12.3717 14.0954 11.9206 13.1853C11.7657 12.873 11.6276 12.535 11.5059 12.1775C12.1568 12.0735 12.8234 12.0093 13.4985 11.9864L13.4991 11.9869ZM11.4425 14.5781C10.4723 14.1881 9.60978 13.5887 8.9106 12.8356C9.38981 12.6641 9.88699 12.5177 10.3976 12.397C10.644 13.1557 10.9812 13.9183 11.4425 14.5787V14.5781ZM16.6785 14.5781C17.1397 13.9183 17.477 13.1557 17.7233 12.3965C18.234 12.5177 18.7311 12.6641 19.2104 12.835C18.5112 13.5881 17.6481 14.1876 16.6785 14.5775V14.5781ZM17.7233 3.8023C17.477 3.04362 17.1397 2.28102 16.6785 1.62066C17.6487 2.01062 18.5112 2.61064 19.2104 3.36318C18.7306 3.5347 18.2334 3.68107 17.7233 3.8023ZM11.4425 1.62066C10.9812 2.28046 10.644 3.04306 10.3976 3.8023C9.88699 3.68107 9.38981 3.5347 8.9106 3.36374C9.60978 2.61064 10.4728 2.01118 11.4425 1.62122V1.62066ZM9.77307 8.65778C9.80562 9.58519 9.91841 10.483 10.1047 11.3182C9.44256 11.4769 8.80062 11.6752 8.18729 11.9126C7.56274 10.9623 7.16432 9.85224 7.06893 8.65834H9.77307V8.65778Z" fill="white"/>
</g>
<defs>
<clipPath id="clip0_1_6897">
<rect width="25" height="26.087" fill="white"/>
</clipPath>
</defs>
</svg>
