<svg width="25" height="23" viewBox="0 0 25 23" fill="none" xmlns="http://www.w3.org/2000/svg">
<g clip-path="url(#clip0_1_6867)">
<path d="M19.1196 17.8484C19.1196 18.212 18.5761 18.212 18.5761 17.8484V17.5455C18.5761 17.1819 19.1196 17.1819 19.1196 17.5455V17.8484ZM18.5761 14.5597C18.5761 14.1961 19.1196 14.1961 19.1196 14.5597V16.7247C19.1196 17.0882 18.5761 17.0882 18.5761 16.7247V14.5597ZM19.0815 12.3397L22.7011 18.6913C22.8098 18.8731 22.6739 19.1044 22.4674 19.1044H15.2283C15.0272 19.1044 14.875 18.8786 15 18.6748L16.7989 15.5127L18.6087 12.3342C18.7174 12.1524 18.9783 12.1579 19.0815 12.3397ZM20.4239 15.7882L18.8478 13.0228L15.7011 18.5536H22L20.4239 15.7882ZM18.8478 10.1472C19.087 10.1472 19.3207 10.1637 19.5543 10.1857C19.5543 8.3458 19.038 6.54443 18.0652 4.99646L18.2337 6.41222C18.2554 6.59952 18.087 6.75927 17.9022 6.7152L17.0652 6.51689C17.6522 7.66822 17.9457 8.93524 17.9402 10.2188C18.2337 10.1692 18.538 10.1472 18.8478 10.1472ZM20.0924 10.2739C22.9185 10.8633 25 13.3974 25 16.3831C25 19.8261 22.2446 22.619 18.8478 22.619C16.6793 22.619 14.7337 21.4732 13.6304 19.6884C11.163 20.6414 8.40761 20.5808 5.96739 19.4846L5.82065 19.4184L5.30978 20.2778C5.19565 20.4706 4.91304 20.4486 4.82609 20.2393L4.04348 18.3387L4.00543 18.3112C1.4837 16.3886 0 13.3863 0 10.1802C0 4.56127 4.49457 0 10.0435 0C12.3478 0 14.5707 0.793264 16.3587 2.26411L16.4837 2.36877L17.1957 1.66916C17.3533 1.50941 17.625 1.60305 17.6522 1.82891L17.9239 3.86716L17.9565 3.90572C19.3696 5.72913 20.1087 7.96019 20.0924 10.2739ZM13.3587 19.2036C13.1141 18.7243 12.9348 18.2065 12.8207 17.6611C11.0217 18.3442 9.02174 18.3442 7.22283 17.6446L6.71739 17.4518C6.55978 17.3912 6.49457 17.2039 6.58152 17.0552L7.20109 16.003L3.77174 16.1187L4.66848 18.4434L5.11413 19.5286L5.46739 18.9282C5.53261 18.8125 5.67935 18.7629 5.80978 18.818L6.17935 18.9833C8.46739 20.0134 11.038 20.0795 13.3587 19.2036ZM12.7337 17.1103C12.5978 15.9149 12.7989 14.725 13.2989 13.6783L13 13.5791C12.5489 13.9868 12.0217 14.2953 11.4457 14.4881L11.2065 15.6504C11.1793 15.7827 11.0652 15.8708 10.9402 15.8708H9.14674C9.01087 15.8708 8.89674 15.7661 8.875 15.6339L8.6413 14.4881C8.06522 14.2953 7.53804 13.9813 7.08696 13.5791L5.96739 13.9537C5.83696 13.9978 5.69565 13.9317 5.63587 13.8105L5.49457 13.5571L4.76087 12.246C4.69565 12.1303 4.72283 11.9926 4.81522 11.9045L5.69022 11.1112C5.57065 10.5107 5.57065 9.89377 5.69022 9.29331L4.81522 8.50005C4.71196 8.41191 4.69565 8.25766 4.7663 8.14748L4.92391 7.87205L5.65761 6.58299C5.72283 6.46731 5.8587 6.41773 5.97826 6.4618L7.09783 6.83639C7.54891 6.42874 8.07609 6.12025 8.65217 5.92745L8.8913 4.76509C8.91848 4.63288 9.03261 4.54474 9.15761 4.54474H10.9511C11.0924 4.54474 11.2011 4.64941 11.2228 4.78162L11.4565 5.92745C12.0326 6.12025 12.5598 6.42874 13.0109 6.83639L14.125 6.4618C14.2554 6.41773 14.3913 6.47832 14.4511 6.59952L14.6033 6.86945L15.337 8.1585C15.4022 8.27419 15.375 8.41741 15.2826 8.50005L14.4022 9.29331C14.5272 9.89377 14.5272 10.5163 14.4022 11.1112L14.9185 11.5795C15.625 10.9845 16.4674 10.5493 17.3913 10.3179C17.4185 8.89668 17.0652 7.58008 16.3478 6.34611L13.6685 5.71811C13.462 5.66853 13.3804 5.40411 13.5489 5.24436L14.5326 4.28032L14.3587 4.14811C11.4457 2.0052 7.40761 2.3192 4.85326 4.91383C1.97826 7.82797 1.98913 12.538 4.85326 15.4466L4.94022 15.5348L7.68478 15.4411C7.89674 15.4356 8.03261 15.6725 7.92391 15.8543L7.21196 17.0552C7.75 17.2645 8.13043 17.3967 8.70652 17.5014C10.0652 17.7548 11.4565 17.6171 12.7337 17.1103ZM13.5652 13.1825C13.8315 12.7363 14.1522 12.3176 14.5163 11.9541L13.9239 11.4197C13.8533 11.3536 13.8152 11.2544 13.8424 11.1498C13.9511 10.687 13.9837 10.2023 13.9239 9.7285C13.9076 9.57426 13.8804 9.42552 13.8478 9.27678C13.8152 9.17763 13.8424 9.06194 13.9239 8.99033L14.7554 8.24113L14.0761 7.05675L13.0163 7.40931C12.9239 7.44236 12.8207 7.42032 12.7446 7.34871C12.3207 6.93555 11.7174 6.56096 11.1467 6.41222C11.0489 6.39018 10.9674 6.30755 10.9457 6.20289L10.7174 5.10113H9.36413L9.1413 6.20289C9.11957 6.29653 9.04891 6.37917 8.95109 6.41222C8.64674 6.50036 8.3587 6.62706 8.09239 6.78131C7.82609 6.93555 7.57609 7.12836 7.35326 7.33769C7.28261 7.41482 7.17391 7.44787 7.07065 7.41482L6.0163 7.06225L5.34239 8.24664L6.17391 8.99584C6.24457 9.06194 6.28261 9.16661 6.25543 9.26577C6.14674 9.72299 6.11413 10.2133 6.17391 10.687C6.19022 10.8413 6.21739 10.99 6.25 11.1332C6.28261 11.2324 6.25543 11.3481 6.17391 11.4197L5.34239 12.1689L5.97283 13.2817L6.0163 13.3588L7.07065 13.0062C7.16304 12.9787 7.2663 12.9952 7.34239 13.0668C7.7663 13.48 8.36957 13.8546 8.94022 14.0088C9.03804 14.0309 9.11957 14.1135 9.1413 14.2182L9.36413 15.3199H10.7174L10.9457 14.2182C10.9674 14.119 11.038 14.0419 11.1359 14.0088C11.4402 13.9207 11.7283 13.794 11.9946 13.6397C12.2609 13.4855 12.5109 13.2927 12.7337 13.0834C12.8043 13.0062 12.913 12.9732 13.0163 13.0062L13.5652 13.1825ZM22.8152 12.3617C20.625 10.1417 17.0707 10.1417 14.8804 12.3617C12.6902 14.5817 12.6902 18.179 14.8804 20.4045C17.0707 22.6246 20.625 22.6246 22.8152 20.4045C25.0054 18.1845 25.0054 14.5817 22.8152 12.3617ZM3.65217 17.3031L3.13587 15.9589C3.07065 15.7882 3.19022 15.5898 3.38043 15.5843L4.21196 15.5568C1.38587 12.4003 1.49457 7.54152 4.47283 4.52271C7.21196 1.74077 11.5543 1.39923 14.6848 3.7019L15.125 4.02692C15.2609 4.12608 15.2772 4.3299 15.1522 4.44558L14.2826 5.29394L16.587 5.8338L17.6467 6.0872L17.3587 3.65232L17.1957 2.43488L16.6957 2.92516C16.5978 3.01881 16.4457 3.02983 16.337 2.94169L16.0217 2.68278C12.2554 -0.40765 6.77174 -0.121193 3.33152 3.36586C1.54348 5.18376 0.548913 7.60762 0.548913 10.1747C0.543478 12.8961 1.66848 15.4687 3.65217 17.3031ZM10.0489 7.60212C11.4674 7.60212 12.6196 8.76998 12.6196 10.2078C12.6196 11.6456 11.4674 12.8134 10.0489 12.8134C8.63043 12.8134 7.47826 11.6456 7.47826 10.2078C7.47826 8.76998 8.63043 7.60212 10.0489 7.60212ZM11.4783 8.75345C10.6848 7.94917 9.40217 7.94917 8.61413 8.75345C7.82065 9.55222 7.82065 10.8578 8.61413 11.6566C9.40217 12.4553 10.6902 12.4553 11.4783 11.6566C12.2717 10.8578 12.2717 9.55222 11.4783 8.75345Z" fill="white"/>
</g>
<defs>
<clipPath id="clip0_1_6867">
<rect width="25" height="22.619" fill="white"/>
</clipPath>
</defs>
</svg>
