<svg width="24" height="25" viewBox="0 0 24 25"  xmlns="http://www.w3.org/2000/svg">
<path d="M7.8125 0H20.3125C22.0312 0 23.4375 1.40625 23.4375 3.125V18.75C23.4375 20.4688 22.0312 21.875 20.3125 21.875C20.3125 23.5938 18.9062 25 17.1875 25H4.6875C2.96875 25 1.5625 23.5938 1.5625 21.875H3.125C3.125 22.8125 3.75 23.4375 4.6875 23.4375H17.1875C18.125 23.4375 18.75 22.8125 18.75 21.875V6.25C18.75 5.3125 18.125 4.6875 17.1875 4.6875H4.6875C3.75 4.6875 3.125 5.3125 3.125 6.25H1.5625C1.5625 4.53125 2.96875 3.125 4.6875 3.125H17.1875C18.9062 3.125 20.3125 4.53125 20.3125 6.25V20.3125C21.25 20.3125 21.875 19.6875 21.875 18.75V3.125C21.875 2.1875 21.25 1.5625 20.3125 1.5625H7.8125C6.875 1.5625 6.25 2.1875 6.25 3.125H4.6875C4.6875 1.40625 6.09375 0 7.8125 0Z" />
<path d="M1.5625 9.375V8.59375C1.5625 8.125 1.875 7.8125 2.34375 7.8125C2.8125 7.8125 3.125 8.125 3.125 8.59375V9.375H3.90625C4.375 9.375 4.6875 9.6875 4.6875 10.1562C4.6875 10.625 4.375 10.9375 3.90625 10.9375H0.78125C0.3125 10.9375 0 10.625 0 10.1562C0 9.6875 0.3125 9.375 0.78125 9.375H1.5625ZM1.5625 14.0625V13.2812C1.5625 12.8125 1.875 12.5 2.34375 12.5C2.8125 12.5 3.125 12.8125 3.125 13.2812V14.0625H3.90625C4.375 14.0625 4.6875 14.375 4.6875 14.8438C4.6875 15.3125 4.375 15.625 3.90625 15.625H0.78125C0.3125 15.625 0 15.3125 0 14.8438C0 14.375 0.3125 14.0625 0.78125 14.0625H1.5625ZM1.5625 17.9688V18.75H0.78125C0.3125 18.75 0 19.0625 0 19.5312C0 20 0.3125 20.3125 0.78125 20.3125H3.90625C4.375 20.3125 4.6875 20 4.6875 19.5312C4.6875 19.0625 4.375 18.75 3.90625 18.75H3.125V17.9688C3.125 17.5 2.8125 17.1875 2.34375 17.1875C1.875 17.1875 1.5625 17.5 1.5625 17.9688Z" />
<path d="M6.40625 19.0703C6.40625 18.6016 6.71875 18.2891 7.1875 18.2891H10.3125C10.7812 18.2891 11.0938 18.6016 11.0938 19.0703C11.0938 19.5391 10.7812 19.8516 10.3125 19.8516H7.1875C6.875 19.8516 6.40625 19.5391 6.40625 19.0703ZM6.40625 15.9453C6.40625 15.4766 6.71875 15.1641 7.1875 15.1641H15C15.4688 15.1641 15.7813 15.4766 15.7813 15.9453C15.7813 16.4141 15.4688 16.7266 15 16.7266H7.1875C6.875 16.7266 6.40625 16.4141 6.40625 15.9453ZM6.40625 12.8203C6.40625 12.3516 6.71875 12.0391 7.1875 12.0391H15C15.4688 12.0391 15.7813 12.3516 15.7813 12.8203C15.7813 13.2891 15.4688 13.6016 15 13.6016H7.1875C6.875 13.6016 6.40625 13.2891 6.40625 12.8203ZM6.40625 9.69531C6.40625 9.22656 6.71875 8.91406 7.1875 8.91406H15C15.4688 8.91406 15.7813 9.22656 15.7813 9.69531C15.7813 10.1641 15.4688 10.4766 15 10.4766H7.1875C6.875 10.4766 6.40625 10.1641 6.40625 9.69531Z" />
</svg>
