<svg width="24" height="25" viewBox="0 0 24 25" fill="none" xmlns="http://www.w3.org/2000/svg">
<path d="M7.03125 3.125C5.58085 3.125 4.18985 3.70117 3.16426 4.72676C2.13867 5.75235 1.5625 7.14335 1.5625 8.59375V16.4062C1.5625 17.8567 2.13867 19.2477 3.16426 20.2732C4.18985 21.2988 5.58085 21.875 7.03125 21.875H14.8438C16.2942 21.875 17.6852 21.2988 18.7107 20.2732C19.7363 19.2477 20.3125 17.8567 20.3125 16.4062V12.5C20.3125 12.2928 20.3948 12.0941 20.5413 11.9476C20.6878 11.8011 20.8865 11.7188 21.0938 11.7188C21.301 11.7188 21.4997 11.8011 21.6462 11.9476C21.7927 12.0941 21.875 12.2928 21.875 12.5V16.4062C21.875 18.2711 21.1342 20.0595 19.8156 21.3781C18.497 22.6967 16.7086 23.4375 14.8438 23.4375H7.03125C5.16645 23.4375 3.37802 22.6967 2.05941 21.3781C0.74079 20.0595 0 18.2711 0 16.4062V8.59375C0 6.72895 0.74079 4.94052 2.05941 3.62191C3.37802 2.30329 5.16645 1.5625 7.03125 1.5625H10.9375C11.1447 1.5625 11.3434 1.64481 11.4899 1.79132C11.6364 1.93784 11.7188 2.13655 11.7188 2.34375C11.7188 2.55095 11.6364 2.74966 11.4899 2.89618C11.3434 3.04269 11.1447 3.125 10.9375 3.125H7.03125Z" fill="white"/>
<path d="M23.4375 4.6875C23.4375 5.9307 22.9436 7.12299 22.0646 8.00206C21.1855 8.88114 19.9932 9.375 18.75 9.375C17.5068 9.375 16.3145 8.88114 15.4354 8.00206C14.5564 7.12299 14.0625 5.9307 14.0625 4.6875C14.0625 3.4443 14.5564 2.25201 15.4354 1.37294C16.3145 0.49386 17.5068 0 18.75 0C19.9932 0 21.1855 0.49386 22.0646 1.37294C22.9436 2.25201 23.4375 3.4443 23.4375 4.6875Z" fill="white"/>
<!-- <path d="M2.9 64.0031H20C21.1 64.0031 21.9 63.1031 21.9 62.1031V45.1031C21.8 44.0031 21 43.2031 20 43.2031H16.2V44.8031H20C20.2 44.8031 20.3 44.9031 20.3 45.1031V62.1031C20.3 62.3031 20.2 62.4031 20 62.4031H2.9C2.7 62.4031 2.6 62.3031 2.6 62.1031V45.1031C2.6 44.9031 2.7 44.8031 2.9 44.8031H6.5V43.2031H2.9C1.8 43.2031 1 44.1031 1 45.1031V62.1031C1 63.2031 1.9 64.0031 2.9 64.0031Z" fill="white"/> -->
<!-- <path d="M6.59985 47.2L10.8998 51.5C11.1998 51.8 11.5998 51.8 11.8998 51.5L16.1999 47.2C16.6999 46.7 16.2999 45.9 15.6999 45.9H14.0999V38.5H8.69985V46H7.09985C6.39985 46 6.09985 46.8 6.59985 47.2Z" fill="white"/> -->
</svg>
