<?xml version="1.0" encoding="utf-8"?>
<!-- Generator: Adobe Illustrator 27.3.1, SVG Export Plug-In . SVG Version: 6.00 Build 0)  -->
<svg version="1.1" id="Layer_1" xmlns="http://www.w3.org/2000/svg" xmlns:xlink="http://www.w3.org/1999/xlink" x="0px" y="0px"
	 viewBox="0 0 25 25" style="enable-background:new 0 0 25 25;" xml:space="preserve">
<path d="M21.9,12.1H11.6c-0.2-0.8-0.6-1.5-1.2-2C9.8,9.6,9,9.4,8.2,9.4s-1.5,0.3-2.2,0.8c-0.6,0.5-1,1.2-1.2,2H3.7
	c-0.2,0-0.4,0.1-0.5,0.2S3,12.6,3,12.8s0.1,0.4,0.2,0.5c0.1,0.1,0.3,0.2,0.5,0.2h1.2c0.2,0.8,0.6,1.5,1.2,2c0.6,0.5,1.4,0.8,2.2,0.8
	s1.5-0.3,2.2-0.8c0.6-0.5,1-1.2,1.2-2h10.3c0.2,0,0.4-0.1,0.5-0.2c0.1-0.1,0.2-0.3,0.2-0.5s-0.1-0.4-0.2-0.5
	C22.2,12.2,22,12.1,21.9,12.1z M8.2,14.8c-0.4,0-0.8-0.1-1.1-0.3c-0.3-0.2-0.6-0.5-0.8-0.9c-0.2-0.4-0.2-0.8-0.1-1.2
	c0.1-0.4,0.3-0.8,0.6-1c0.3-0.3,0.7-0.5,1-0.6c0.4-0.1,0.8,0,1.2,0.1c0.4,0.2,0.7,0.4,0.9,0.8s0.3,0.7,0.3,1.1
	c0,0.5-0.2,1.1-0.6,1.4C9.3,14.6,8.8,14.8,8.2,14.8z"/>
<path d="M21.9,5.7h-2.1c-0.2-0.8-0.6-1.5-1.2-2C17.9,3.3,17.2,3,16.4,3c-0.8,0-1.5,0.3-2.2,0.8s-1,1.2-1.2,2H3.7
	c-0.2,0-0.4,0.1-0.5,0.2C3.1,6.1,3,6.2,3,6.4c0,0.2,0.1,0.4,0.2,0.5C3.3,7,3.5,7.1,3.7,7.1h9.4c0.2,0.8,0.6,1.5,1.2,2
	c0.6,0.5,1.4,0.8,2.2,0.8c0.8,0,1.5-0.3,2.2-0.8c0.6-0.5,1-1.2,1.2-2h2.1c0.2,0,0.4-0.1,0.5-0.2c0.1-0.1,0.2-0.3,0.2-0.5
	c0-0.2-0.1-0.4-0.2-0.5C22.2,5.8,22,5.7,21.9,5.7z M16.4,8.5c-0.4,0-0.8-0.1-1.1-0.3c-0.3-0.2-0.6-0.5-0.8-0.9
	c-0.2-0.4-0.2-0.8-0.1-1.2c0.1-0.4,0.3-0.8,0.6-1c0.3-0.3,0.7-0.5,1-0.6c0.4-0.1,0.8,0,1.2,0.1c0.4,0.2,0.7,0.4,0.9,0.8
	c0.2,0.3,0.3,0.7,0.3,1.1c0,0.5-0.2,1.1-0.6,1.4C17.5,8.2,16.9,8.5,16.4,8.5z"/>
<path d="M21.9,18.4h-2.1c-0.2-0.8-0.6-1.5-1.2-2c-0.6-0.5-1.4-0.8-2.2-0.8c-0.8,0-1.5,0.3-2.2,0.8c-0.6,0.5-1,1.2-1.2,2H3.7
	c-0.2,0-0.4,0.1-0.5,0.2C3.1,18.8,3,18.9,3,19.1s0.1,0.4,0.2,0.5c0.1,0.1,0.3,0.2,0.5,0.2h9.4c0.2,0.8,0.6,1.5,1.2,2
	c0.6,0.5,1.4,0.8,2.2,0.8c0.8,0,1.5-0.3,2.2-0.8c0.6-0.5,1-1.2,1.2-2h2.1c0.2,0,0.4-0.1,0.5-0.2c0.1-0.1,0.2-0.3,0.2-0.5
	s-0.1-0.4-0.2-0.5C22.2,18.5,22,18.4,21.9,18.4z M16.4,21.2c-0.4,0-0.8-0.1-1.1-0.3c-0.3-0.2-0.6-0.5-0.8-0.9
	c-0.2-0.4-0.2-0.8-0.1-1.2s0.3-0.8,0.6-1c0.3-0.3,0.7-0.5,1-0.6c0.4-0.1,0.8,0,1.2,0.1c0.4,0.2,0.7,0.4,0.9,0.8
	c0.2,0.3,0.3,0.7,0.3,1.1c0,0.5-0.2,1.1-0.6,1.4C17.5,21,16.9,21.2,16.4,21.2z"/>
<path d="M21.9,1.6c0.4,0,0.8,0.2,1.1,0.5c0.3,0.3,0.5,0.7,0.5,1.1v18.8c0,0.4-0.2,0.8-0.5,1.1c-0.3,0.3-0.7,0.5-1.1,0.5H3.1
	c-0.4,0-0.8-0.2-1.1-0.5c-0.3-0.3-0.5-0.7-0.5-1.1V3.1C1.6,2.7,1.7,2.3,2,2c0.3-0.3,0.7-0.5,1.1-0.5H21.9z M3.1,0
	C2.3,0,1.5,0.3,0.9,0.9C0.3,1.5,0,2.3,0,3.1v18.8c0,0.8,0.3,1.6,0.9,2.2C1.5,24.7,2.3,25,3.1,25h18.8c0.8,0,1.6-0.3,2.2-0.9
	c0.6-0.6,0.9-1.4,0.9-2.2V3.1c0-0.8-0.3-1.6-0.9-2.2C23.5,0.3,22.7,0,21.9,0H3.1z"/>
</svg>
