<svg width="25" height="25" viewBox="0 0 25 25" fill="none" xmlns="http://www.w3.org/2000/svg">
<g id="trash-2 2">
<path id="Vector" d="M3.8125 6.5H5.8125H21.8125" stroke="#000000" stroke-width="2" stroke-linecap="round" stroke-linejoin="round"/>
<path id="Vector_2" d="M8.8125 6.5V4.5C8.8125 3.96957 9.02321 3.46086 9.39829 3.08579C9.77336 2.71071 10.2821 2.5 10.8125 2.5H14.8125C15.3429 2.5 15.8516 2.71071 16.2267 3.08579C16.6018 3.46086 16.8125 3.96957 16.8125 4.5V6.5M19.8125 6.5V20.5C19.8125 21.0304 19.6018 21.5391 19.2267 21.9142C18.8516 22.2893 18.3429 22.5 17.8125 22.5H7.8125C7.28207 22.5 6.77336 22.2893 6.39829 21.9142C6.02321 21.5391 5.8125 21.0304 5.8125 20.5V6.5H19.8125Z" stroke="#000000" stroke-width="2" stroke-linecap="round" stroke-linejoin="round"/>
<path id="Vector_3" d="M10.8125 11.5V17.5" stroke="#000000" stroke-width="2" stroke-linecap="round" stroke-linejoin="round"/>
<path id="Vector_4" d="M14.8125 11.5V17.5" stroke="#000000" stroke-width="2" stroke-linecap="round" stroke-linejoin="round"/>
</g>
</svg>
