<svg width="25" height="28" viewBox="0 0 25 28"  xmlns="http://www.w3.org/2000/svg">
<g clip-path="url(#clip0_4_102)">
<path d="M11.5053 7.92969H4.29656C3.89287 7.92969 3.57568 8.24687 3.57568 8.65056C3.57568 9.05426 3.89287 9.37144 4.29656 9.37144H11.5053C11.909 9.37144 12.2262 9.05426 12.2262 8.65056C12.2262 8.24687 11.909 7.92969 11.5053 7.92969Z" />
<path d="M7.18007 13.6967H4.29656C3.89287 13.6967 3.57568 14.0138 3.57568 14.4175C3.57568 14.8212 3.89287 15.1384 4.29656 15.1384H7.18007C7.58376 15.1384 7.90094 14.8212 7.90094 14.4175C7.90094 14.0138 7.58376 13.6967 7.18007 13.6967Z" />
<path d="M11.5053 10.8131H4.29656C3.89287 10.8131 3.57568 11.1303 3.57568 11.534C3.57568 11.9377 3.89287 12.2549 4.29656 12.2549H11.5053C11.909 12.2549 12.2262 11.9377 12.2262 11.534C12.2262 11.1303 11.909 10.8131 11.5053 10.8131Z" />
<path d="M2.88351 21.6263C2.09054 21.6263 1.44175 20.9775 1.44175 20.1845V2.88351C1.44175 2.09054 2.09054 1.44175 2.88351 1.44175H10.8131V4.32526C10.8131 5.52191 11.7791 6.48789 12.9758 6.48789H15.8593V12.6298C16.3206 12.5433 16.8108 12.4856 17.301 12.4856V6.48789L10.8131 0H2.88351C1.29758 0 0 1.29758 0 2.88351V20.1845C0 21.7705 1.29758 23.0681 2.88351 23.0681H10.1788C9.99135 22.6067 9.84718 22.1309 9.74625 21.6263H2.88351Z" />
<path d="M17.301 12.4856C16.8108 12.4856 16.3206 12.5433 15.8593 12.6298C12.2981 13.3074 9.60205 16.436 9.60205 20.1846C9.60205 20.6748 9.65972 21.1505 9.74623 21.6263C9.84715 22.1309 9.99132 22.6067 10.1788 23.0681C11.3177 25.8795 14.0859 27.8835 17.301 27.8835C21.5398 27.8835 25 24.4377 25 20.1846C25 15.9314 21.5542 12.4856 17.301 12.4856ZM17.301 26.8022C13.6534 26.8022 10.6834 23.8322 10.6834 20.1846C10.6834 16.5369 13.6534 13.5669 17.301 13.5669C20.9486 13.5669 23.9187 16.5369 23.9187 20.1846C23.9187 23.8322 20.9486 26.8022 17.301 26.8022Z" />
<path d="M17.3012 20.8478C13.9996 20.8478 13.3364 22.823 13.3364 23.4862C13.3364 24.1494 13.9996 24.1494 13.9996 24.1494H20.6029C20.6029 24.1494 21.2661 24.1494 21.2661 23.4862C21.2661 22.823 20.6029 20.8478 17.3012 20.8478ZM13.9996 23.4862C13.9996 23.3276 14.1006 22.8374 14.5475 22.3905C14.98 21.9579 15.7874 21.511 17.3012 21.511C18.8151 21.511 19.6225 21.9579 20.055 22.3905C20.4875 22.823 20.6029 23.3276 20.6029 23.4862H13.9996Z" />
<path d="M17.3011 19.8386C16.4072 19.8386 15.6719 19.1033 15.6719 18.2094C15.6719 17.3155 16.4072 16.5802 17.3011 16.5802C18.1949 16.5802 18.9302 17.3155 18.9302 18.2094C18.9302 19.1033 18.1949 19.8386 17.3011 19.8386ZM17.3011 16.9406C16.5946 16.9406 16.0323 17.5173 16.0323 18.2094C16.0323 18.9014 16.609 19.4781 17.3011 19.4781C17.9931 19.4781 18.5698 18.9014 18.5698 18.2094C18.5698 17.5173 17.9931 16.9406 17.3011 16.9406Z" />
</g>
<defs>
<clipPath id="clip0_4_102">
<rect width="25" height="27.8835" fill="white"/>
</clipPath>
</defs>
</svg>
