<svg id="Layer_1" data-name="Layer 1" xmlns="http://www.w3.org/2000/svg" viewBox="0 0 200 200"><defs><style>.cls-1{fill:white;}</style></defs><path class="cls-1" d="M117.42,175.69H36.89a12.59,12.59,0,0,1-12.58-12.58V75a5,5,0,0,1,1.47-3.54L71.46,25.78A5,5,0,0,1,75,24.31h42.42A12.59,12.59,0,0,1,130,36.89V75a5,5,0,0,1-10,0V36.89a2.59,2.59,0,0,0-2.58-2.58H77.07L34.31,77.07v86a2.59,2.59,0,0,0,2.58,2.58h80.53a2.59,2.59,0,0,0,2.58-2.58V150a5,5,0,0,1,10,0v13.11A12.59,12.59,0,0,1,117.42,175.69Z"/><path class="cls-1" d="M64.65,80H29.31a5,5,0,0,1,0-10H64.65A5.36,5.36,0,0,0,70,64.65V29.31a5,5,0,0,1,10,0V64.65A15.37,15.37,0,0,1,64.65,80Z"/><path class="cls-1" d="M162.19,155H108.25A13.26,13.26,0,0,1,95,141.75V125a5,5,0,0,1,10,0v16.75a3.26,3.26,0,0,0,3.25,3.25h53.94a3.26,3.26,0,0,0,3.25-3.25V83.25A3.26,3.26,0,0,0,162.19,80H108.25A3.26,3.26,0,0,0,105,83.25V100a5,5,0,0,1-10,0V83.25A13.26,13.26,0,0,1,108.25,70h53.94a13.26,13.26,0,0,1,13.25,13.25v58.5A13.26,13.26,0,0,1,162.19,155Z"/><path class="cls-1" d="M120.72,131.54v-25c0-5.8,3.7-9.65,9.2-9.65s9.2,3.85,9.2,9.65v25a.9.9,0,0,1-1,1h-5.35a.9.9,0,0,1-1-1v-9.11h-3.7v9.11a.9.9,0,0,1-1,1h-5.35A.9.9,0,0,1,120.72,131.54Zm11.05-15.86V106c0-1.35-.7-2.15-1.85-2.15s-1.85.8-1.85,2.15v9.7Z"/><path class="cls-1" d="M142.57,100.88a3.62,3.62,0,0,1,3.75-3.75,3.68,3.68,0,0,1,3.75,3.75,3.78,3.78,0,0,1-3.75,3.75A3.65,3.65,0,0,1,142.57,100.88Zm.3,30.66v-23a.9.9,0,0,1,1-1h4.9a.9.9,0,0,1,1,1v23a.9.9,0,0,1-1,1h-4.9A.9.9,0,0,1,142.87,131.54Z"/></svg>