<svg width="29" height="30" viewBox="0 0 29 30" fill="none" xmlns="http://www.w3.org/2000/svg">
<g id="Group 33915">
<path id="Ellipse 4" d="M28.4062 15.1448C28.4062 23.1312 22.1382 29.6055 14.4062 29.6055C6.67426 29.6055 0.40625 23.1312 0.40625 15.1448C0.40625 7.15845 6.67426 0.684189 14.4062 0.684189C22.1382 0.684189 28.4062 7.15845 28.4062 15.1448Z" fill="#1BBC9B"/>
<g id="Group 33911">
<g id="Group 33910">
<path id="Vector (Stroke)" fill-rule="evenodd" clip-rule="evenodd" d="M7.73808 5.36046C8.24568 4.83616 8.93413 4.54161 9.65198 4.54161H16.7453C16.9928 4.54161 17.2302 4.64318 17.4053 4.82397L22.7253 10.319C22.9003 10.4998 22.9986 10.745 22.9986 11.0007V21.9908C22.9986 22.7323 22.7135 23.4434 22.2059 23.9677C21.6983 24.492 21.0098 24.7865 20.292 24.7865H9.65198C8.93413 24.7865 8.24567 24.492 7.73808 23.9677C7.23048 23.4434 6.94531 22.7323 6.94531 21.9908V7.33734C6.94531 6.59587 7.23048 5.88476 7.73808 5.36046ZM9.65198 6.4697C9.4292 6.4697 9.21554 6.56111 9.05801 6.72382C8.90048 6.88654 8.81198 7.10723 8.81198 7.33734V21.9908C8.81198 22.2209 8.90048 22.4416 9.05801 22.6043C9.21554 22.767 9.4292 22.8584 9.65198 22.8584H20.292C20.5148 22.8584 20.7284 22.767 20.8859 22.6043C21.0435 22.4416 21.132 22.2209 21.132 21.9908V11.4L16.3587 6.4697H9.65198Z" fill="white"/>
</g>
<path id="Vector (Stroke)_2" fill-rule="evenodd" clip-rule="evenodd" d="M16.7458 4.54201C17.2613 4.54201 17.6792 4.97362 17.6792 5.50605V10.0371H22.0658C22.5813 10.0371 22.9992 10.4687 22.9992 11.0011C22.9992 11.5335 22.5813 11.9651 22.0658 11.9651H16.7458C16.2304 11.9651 15.8125 11.5335 15.8125 11.0011V5.50605C15.8125 4.97362 16.2304 4.54201 16.7458 4.54201Z" fill="white"/>
<path id="Vector (Stroke)_3" fill-rule="evenodd" clip-rule="evenodd" d="M10.4844 15.5844C10.4844 15.0519 10.9022 14.6203 11.4177 14.6203H18.511C19.0265 14.6203 19.4444 15.0519 19.4444 15.5844C19.4444 16.1168 19.0265 16.5484 18.511 16.5484H11.4177C10.9022 16.5484 10.4844 16.1168 10.4844 15.5844Z" fill="white"/>
<path id="Vector (Stroke)_4" fill-rule="evenodd" clip-rule="evenodd" d="M10.4844 19.2519C10.4844 18.7194 10.9022 18.2878 11.4177 18.2878H18.511C19.0265 18.2878 19.4444 18.7194 19.4444 19.2519C19.4444 19.7843 19.0265 20.2159 18.511 20.2159H11.4177C10.9022 20.2159 10.4844 19.7843 10.4844 19.2519Z" fill="white"/>
<path id="Vector (Stroke)_5" fill-rule="evenodd" clip-rule="evenodd" d="M10.4844 11.9168C10.4844 11.3844 10.9022 10.9528 11.4177 10.9528H13.191C13.7065 10.9528 14.1244 11.3844 14.1244 11.9168C14.1244 12.4493 13.7065 12.8809 13.191 12.8809H11.4177C10.9022 12.8809 10.4844 12.4493 10.4844 11.9168Z" fill="white"/>
</g>
</g>
</svg>
