<svg xmlns="http://www.w3.org/2000/svg" xmlns:xlink="http://www.w3.org/1999/xlink" version="1.1" x="0px" y="0px" viewBox="0 0 1024 1280" style="enable-background:new 0 0 1024 1024;" xml:space="preserve"><g><g><g><path d="M924,680.5c-25.5,0-51.1,0-76.6,0c-1.6,0-3.1,0-4.7,0c-0.4,0-0.9-0.1-1.3,0c-2.1,0.2,1.6,0.1,1.9,0.4     c-0.3-0.3-1.5-0.3-2-0.5c-0.4-0.1-1.5-0.7-1.9-0.6c0.9-0.1,3.6,1.8,1.2,0.3c-2.9-1.8,2.8,2.9-0.6-0.5c-0.1-0.1-1.4-1.3-1.3-1.4     c-0.1,0.1,2.6,3,1.2,1.4c-0.1-0.1-1-1.7-1-1.7c0.2-0.1,1.2,3.9,0.7,1.7c-0.1-0.6-0.4-1.3-0.6-1.9c-0.9-3,0.6,0.7,0.1,1.2     c0.2-0.2,0-3.2,0-3.6c0-13.7,0-27.5,0-41.2c0-12.8,0-25.6,0-38.4c-11.4,4.7-22.8,9.4-34.1,14.1c30.6,30.6,61.3,61.3,91.9,91.9     c4.3,4.3,8.6,8.6,13,13c7.4,7.4,21,8,28.3,0c7.3-8,7.9-20.4,0-28.3c-30.6-30.6-61.3-61.3-91.9-91.9c-4.3-4.3-8.6-8.6-13-13     c-12.2-12.2-34.1-3.2-34.1,14.1c0,26.3,0,52.6,0,78.9c0,9.4,1.7,19,7.3,26.9c8.7,12.1,21.5,19,36.5,19.1c13.4,0.1,26.8,0,40.2,0     c13.6,0,27.3,0,40.9,0c10.5,0,20.5-9.2,20-20C943.5,689.7,935.2,680.5,924,680.5z"/></g></g><g><g><path d="M904,700.5c0,28.5,0,57,0,85.6c0,41.9,0,83.8,0,125.7c0,5,0,10,0,14.9c0,1,0,2,0,3c0,0.1,0,0.1,0,0.2     c0,0.2,0,0.4,0,0.7c-0.1,4.3,0-0.6,0.2-0.6c0,0-1.1,5.2-1.4,5.1c-0.8-0.1,2.1-3.9,0.4-1.2c-0.1,0.1-1.9,3.4-2,3.3     c-0.7-0.4,3-3.2,0.7-1c-0.6,0.5-1.3,1.2-1.8,1.8c-2.8,3,2.8-1.4,0.5-0.3c-0.8,0.3-1.5,0.9-2.2,1.4c-3.5,2.3,0.6-0.5,0.6-0.1     c0,0.1-2.7,0.9-2.5,0.8c-0.3,0.1-2.6,0.6-2.6,0.6c2.9-0.3,3.5-0.4,2-0.3c-0.7,0.1-1.4,0.1-2.1,0.1c-0.6,0-1.2,0-1.8,0     c-4.3,0-8.6,0-12.9,0c-41.3,0-82.7,0-124,0c-29.4,0-58.8,0.6-88.2,0c-0.7,0-2.2-0.3-2.8-0.1c2.8-0.8,3.4,0.8,1.3,0.1     c-0.8-0.2-1.7-0.5-2.6-0.7c-4-0.9,2.6,1.7,0.6,0.3c-0.7-0.5-1.5-0.9-2.3-1.3c-3.7-2,0.8,0.1,0.4,0.5c-0.1,0.1-2.2-2.1-2.3-2.2     c-3-2.8,0.7,0.4,0.3,0.6c-0.1,0-1.5-2.3-1.4-2.2c-0.2-0.3-1.3-2.3-1.2-2.3c0.7-0.4,1.3,4.2,0.6,1.1c-0.2-0.8-0.4-1.8-0.7-2.6     c-1.3-4.1,0,3.4,0,0.7c0-0.7-0.1-1.4-0.1-2.1c0-2.1,0-4.1,0-6.2c0-12.8,0-25.7,0-38.5c0-43.9,0-87.8,0-131.7     c0-37.6,0-75.3,0-112.9c0-4,0-8,0-12.1c0-0.8,0-1.7,0-2.5c0-0.5,0-1.1,0-1.6c0-3.3,0.4,1.4-0.3,1.3c-0.1,0,0.5-2.3,0.6-2.6     c-0.1,0.2,0.7-2.5,0.8-2.5c-1.2,2.7-1.4,3.2-0.4,1.2c0.2-0.4,0.4-0.8,0.6-1.1c-0.1,0.2,1.3-2.2,1.4-2.2c0.4,0.2-3.3,3.4-0.3,0.6     c0.6-0.6,1.3-1.1,1.9-1.8c1.6-1.9-4.1,2.3-0.5,0.4c0.7-0.4,1.6-0.9,2.2-1.3c2.7-1.7-1.1,1.2-1.2,0.4c0-0.1,2.2-0.7,2.5-0.8     c0.6-0.2,1.3-0.3,1.9-0.5c1.5-0.3,0.9-0.2-2,0.2c1.1,0.3,3.6-0.1,4.9-0.1c5.8,0,11.7,0,17.5,0c41,0,82,0,123,0c3.2,0,6.4,0,9.6,0     c-4.7-2-9.4-3.9-14.1-5.9c30.6,30.6,61.3,61.3,91.9,91.9c4.3,4.3,8.6,8.6,13,13c7.4,7.4,21,8,28.3,0c7.3-8,7.9-20.4,0-28.3     c-29.8-29.8-59.6-59.6-89.4-89.4c-4.9-4.9-9.6-9.8-14.6-14.6c-6.3-6.1-13-6.7-20.9-6.7c-22.3,0-44.5,0-66.8,0     c-23.5,0-47,0-70.6,0c-7.9,0-16-0.3-23.7,2.2c-21.2,6.9-35.2,26-35.6,48.3c-0.6,33.6,0,67.2,0,100.8c0,52.4,0,104.8,0,157.2     c0,14.2,0,28.4,0,42.6c0,10,1.7,19.8,6.8,28.6c9.3,15.8,26.3,24.7,44.4,24.8c41.3,0.2,82.6,0,123.9,0c24.6,0,49.3,0,73.9,0     c14,0,31.2,2,44.6-2.8c20.4-7.5,33.4-26.2,33.7-47.9c0.1-4.5,0-9,0-13.5c0-21.6,0-43.2,0-64.8c0-47.2,0-94.4,0-141.6c0-3,0-6,0-9     c0-10.5-9.2-20.5-20-20C913.2,681,904,689.3,904,700.5z"/></g></g></g><g><g><g><path d="M657.3,263.3c0,5.7-0.2,11.3-0.7,17c-0.2,2.8-0.5,5.6-0.8,8.4c-0.2,1.3-0.2,4.8,0,0c-0.1,2-0.6,4-0.9,6     c-1.9,10.8-4.5,21.4-8,31.8c-0.8,2.3-1.6,4.6-2.5,6.9c-0.5,1.4-1,2.7-1.6,4.1c-0.4,0.9-1.9,5.6-0.2,0.6c-1.7,5-4.5,9.9-6.9,14.5     c-5.2,9.9-11.1,19.3-17.7,28.3c-0.6,0.7-1.1,1.6-1.7,2.3c3.4-3.9,0.2-0.3-0.4,0.5c-1.7,2.1-3.4,4.1-5.1,6.1     c-3.6,4.2-7.4,8.2-11.4,12.1c-3.8,3.7-7.7,7.3-11.7,10.7c-1.8,1.6-3.7,3.1-5.6,4.6c-3.8,3.1,3.5-2.5-0.5,0.4     c-1.2,0.9-2.3,1.7-3.5,2.6c-9.7,7-19.9,13.1-30.6,18.4c-2.5,1.2-5.1,2.4-7.6,3.6c-5.1,2.4,3.8-1.4-1.4,0.6     c-1.3,0.5-2.6,1-3.9,1.5c-6.1,2.3-12.2,4.4-18.5,6.1c-6,1.7-12.2,3.1-18.3,4.3c-2.8,0.5-5.7,1-8.5,1.4c-5.7,0.9,4.2-0.4-1.6,0.2     c-2,0.2-4.1,0.4-6.1,0.6c-13.2,1.1-26.5,1.1-39.7-0.2c-1.4-0.1-2.9-0.3-4.3-0.5c-3.4-0.3,4.8,0.8-0.7-0.1c-3.1-0.5-6.3-1-9.4-1.6     c-6.4-1.2-12.8-2.8-19.1-4.6c-6-1.7-11.8-3.7-17.6-6c-1.6-0.6-3.1-1.2-4.7-1.9c0.7,0.3,3.6,1.6,0.2,0c-3.3-1.5-6.6-3-9.8-4.7     c-10.4-5.3-20.3-11.4-29.7-18.2c-1-0.7-1.9-1.4-2.9-2.2c-2.5-1.8,3.7,3,0,0c-2.2-1.8-4.5-3.6-6.7-5.5c-4-3.5-7.9-7.1-11.6-10.8     c-3.7-3.7-7.4-7.6-10.8-11.6c-1.6-1.8-3.1-3.7-4.6-5.5c-0.6-0.8-3.9-4.4-0.4-0.5c-1.1-1.3-2-2.7-3-4.1     c-6.4-8.8-12.1-18.1-17.1-27.8c-1.1-2.2-2.2-4.3-3.2-6.5c-0.6-1.3-1.2-2.7-1.8-4c-0.4-0.9-2.7-5.3-0.3-0.6     c-2.4-4.8-4-10.1-5.6-15.2c-3.5-10.6-6.1-21.5-7.9-32.6c-0.2-1.2-0.5-2.5-0.6-3.7c0.3,5.4,0.1,0.4-0.1-0.7     c-0.3-2.5-0.5-5.1-0.7-7.6c-0.5-6.1-0.7-12.3-0.7-18.4c0-5.1,0.2-10.2,0.6-15.3c0.2-2.3,0.4-4.6,0.6-6.9c0.1-1.1,0-3.1,0.5-4.1     c-0.1,0.9-0.2,1.7-0.3,2.6c0.1-0.9,0.3-1.8,0.4-2.7c1.6-10.2,3.9-20.4,7-30.3c1.3-4.3,2.8-8.5,4.3-12.6c0.5-1.2,1-2.5,1.5-3.7     c0.2-0.4,0.3-0.8,0.5-1.2c0.8-2,0.7-1.6-0.5,1.1c0-2,2.4-5.4,3.3-7.2c4.1-8.7,8.9-17.2,14.2-25.2c2.6-4,5.4-7.9,8.3-11.8     c2.7-3.7-2.8,3.5,0.1-0.1c0.6-0.7,1.1-1.4,1.6-2c1.9-2.4,3.9-4.7,5.9-7c6.4-7.2,13.2-13.9,20.4-20.2c1.6-1.4,3.3-2.8,5-4.2     c0.8-0.6,2.1-2.1,3.1-2.4c-0.7,0.5-1.3,1-2,1.5c0.7-0.5,1.4-1.1,2.1-1.6c3.9-2.9,7.8-5.6,11.8-8.2c8.5-5.5,17.4-10.3,26.5-14.6     c0.8-0.4,1.6-0.7,2.4-1.1c0.4-0.2,0.8-0.4,1.2-0.5c2-0.9,1.6-0.7-1.1,0.5c1.5-1.2,4.4-1.8,6.2-2.5c5-1.9,10.1-3.6,15.2-5.1     c9.5-2.8,19.2-4.9,29.1-6.4c4.8-0.7-4.7,0.5,0.1,0c1.4-0.2,2.7-0.3,4.1-0.5c2.3-0.2,4.6-0.4,6.9-0.6c5.6-0.4,11.2-0.6,16.8-0.5     c4.7,0,9.3,0.2,14,0.5c2.8,0.2,5.5,0.4,8.3,0.7c0.9,0.1,1.8,0.2,2.7,0.3c2.2,0.3,1.8,0.2-1.2-0.2c0.9,0.1,1.8,0.3,2.7,0.4     c9.8,1.5,19.5,3.7,29,6.6c4.7,1.4,9.3,3,13.9,4.7c1.8,0.7,4.7,1.2,6.2,2.5c-0.8-0.3-1.6-0.7-2.3-1c0.8,0.3,1.6,0.7,2.4,1.1     c1.6,0.7,3.2,1.5,4.8,2.2c8.7,4.1,17.2,8.9,25.2,14.2c4,2.6,7.9,5.4,11.8,8.3c2.9,2.1-0.6-0.7-0.9-0.7c0.9,0.2,2.3,1.8,3.1,2.4     c2,1.6,4,3.3,6,5.1c7.5,6.6,14.6,13.7,21.2,21.3c1.4,1.6,2.8,3.3,4.2,5c0.6,0.8,2.1,2.1,2.4,3.1c-0.8-2.5-2-2.6-0.7-0.9     c3.1,4.2,6.2,8.5,9,12.9c5.2,8.1,9.9,16.6,14,25.3c0.6,1.2,1.1,2.4,1.6,3.6c0.2,0.4,0.4,0.8,0.5,1.2c0.9,2,0.7,1.6-0.5-1.1     c1.2,1.4,1.8,4.5,2.5,6.2c1.9,5,3.6,10.1,5.1,15.2c2.8,9.6,4.8,19.2,6.4,29.1c0.8,4.8-0.5-4.7,0,0.1c0.1,0.9,0.2,1.8,0.3,2.7     c0.3,2.7,0.5,5.5,0.7,8.3C657.2,253.1,657.3,258.2,657.3,263.3c0,10.5,9.2,20.5,20,20c10.8-0.5,20-8.8,20-20     c-0.3-89.9-53.6-175.4-136-212.7c-43.2-19.5-90.1-25.7-136.9-18.4c-43.7,6.8-84.8,27.2-117.8,56.4     c-69.5,61.6-96.2,163.5-65.4,251.2c16.5,46.9,47,87,87.5,115.7c44.9,31.9,102.3,46.9,157.1,41c53.8-5.7,104.4-29,142.8-67.4     c34.1-34.1,57.9-79.2,65.4-126.9c2-12.9,3.3-25.9,3.3-38.9c0-10.5-9.2-20.5-20-20C666.5,243.8,657.4,252.1,657.3,263.3z"/></g></g><g><g><path d="M536.6,940.1c-12.8,0-25.6,0-38.4,0c-30.4,0-60.8,0-91.1,0c-35.9,0-71.9,0-107.8,0c-29.3,0-58.7,0-88,0     c-8.6,0-17.2,0-25.8,0c-2.1,0-4.2,0-6.2,0c-0.4,0-0.8,0-1.2,0c-0.5,0-1,0-1.5,0c-1.6,0-3.2-0.1-4.9-0.2c-0.7-0.1-1.4-0.1-2.1-0.2     c-3.4-0.3,1.2,0.3,1.3,0.2c-0.3,0.5-7.6-1.6-8.6-1.9c-1.5-0.4-3-0.9-4.5-1.4c-0.6-0.2-1.2-0.5-1.9-0.7c-4-1.4,0.2,0.5,0.5,0.3     c-0.7,0.5-6.9-3.5-7.6-3.9c-1.1-0.7-2.2-1.3-3.3-2.1c-0.7-0.5-1.4-1-2.2-1.5c-0.8-0.5-2.9-1.3-0.6-0.4c1.9,0.8,0.8,0.7,0,0     c-0.7-0.6-1.3-1.1-2-1.7c-1-0.9-1.9-1.7-2.9-2.6c-2.2-2.1-4.2-4.4-6.2-6.7c-2.3-2.6,2.1,3.1-0.4-0.6c-0.8-1.3-1.7-2.5-2.5-3.8     c-1.6-2.6-3-5.3-4.3-8.1c-1.7-3.3,1.2,3.4,0-0.1c-0.5-1.5-1.1-2.9-1.5-4.4c-0.9-3-1.7-6-2.3-9.1c-0.9-4.7,0.1,2.9-0.2-0.7     c-0.1-1.4-0.3-2.7-0.3-4.1c-0.1-1.4-0.1-2.9-0.1-4.3c0-2.4,0-4.7,0-7.1c0-30.6,0-61.1,0-91.7c0-22.7-0.1-45.3,0-68     c0-7,0.3-14,0.9-21c0.3-3.3,0.7-6.6,1.1-9.9c0.3-2.9-0.6,3.7-0.1,0.8c0.1-0.8,0.2-1.5,0.3-2.3c0.3-2,0.7-4,1-6     c2.4-13.3,5.9-26.4,10.5-39.2c1.1-3,2.2-6,3.4-9c1.9-4.7-0.9,1.9,0.6-1.4c0.8-1.8,1.6-3.6,2.4-5.4c2.8-6,5.8-11.9,9.1-17.7     c3.2-5.7,6.7-11.4,10.4-16.8c1.8-2.6,3.6-5.2,5.5-7.8c0.1-0.1,3.1-4.1,3.1-4.1c0,0-2.3,3-0.9,1.2c0.8-0.9,1.5-1.9,2.3-2.9     c8.3-10.2,17.4-19.7,27.2-28.5c2.5-2.3,5.1-4.5,7.7-6.7c1.1-0.9,2.3-1.8,3.4-2.8c0.4-0.3,2.3-1.9,0.3-0.2c-2.3,1.9,1-0.7,1.5-1.1     c5.5-4.1,11.1-8,16.9-11.6c14.8-9.4,30-18.1,45.7-25.9c7.3-3.6,14.7-7.1,22.1-10.4c1.1-0.5,6.1-2.6,2.6-1.1     c1.6-0.7,3.2-1.3,4.9-2c3.8-1.5,7.5-3,11.3-4.4c14.1-5.3,28.5-9.8,43-13.6c-5.1-0.7-10.3-1.3-15.4-2     c57.1,34.7,128.5,43.8,192.3,23.5c17.6-5.6,34.7-13.3,50.5-22.7c-5.1,0.7-10.3,1.3-15.4,2c15,3.9,29.9,8.5,44.5,13.8     c6.6,2.4,13.2,5,19.8,7.6c0.7,0.3,1.4,0.6,2.1,0.9c2.1,0.9-1.3-0.5-1.4-0.6c1.2,0.9,3.3,1.4,4.6,2c2.9,1.3,5.9,2.6,8.8,4     c15.7,7.2,31,15.3,45.6,24.4c2.5,1.6,5.1,3.2,7.5,4.9c8.6,6.1,22.6,1.8,27.4-7.2c5.4-10.3,2-20.9-7.2-27.4     c-11.7-8.3-24.6-15.2-37.4-21.7c-15.1-7.7-30.7-14.5-46.5-20.7c-8.9-3.5-17.9-6.8-27-9.7c-9.9-3.2-20-6.8-30.2-8.8     c-6.2-1.2-11.3-0.2-16.8,2.9c-1.9,1.1-3.8,2.2-5.8,3.3c-4.4,2.4-8.9,4.7-13.4,6.8c-1,0.5-2,0.9-3.1,1.4c-4.9,2.3,2.5-0.9-0.6,0.3     c-2.1,0.8-4.2,1.7-6.3,2.5c-4.8,1.8-9.6,3.4-14.4,4.8c-9.6,2.8-19.4,4.9-29.3,6.5c-0.9,0.1-3.9,0.4,0.1,0     c-1.2,0.1-2.3,0.3-3.5,0.4c-2.3,0.2-4.7,0.5-7,0.6c-5.3,0.4-10.6,0.6-15.9,0.6c-5,0-10-0.2-15-0.5c-2.6-0.2-5.2-0.4-7.9-0.7     c-1.2-0.1-2.3-0.3-3.5-0.4c2.9,0.3,1.2,0.2-0.7-0.1c-9.9-1.5-19.7-3.7-29.2-6.6c-4.3-1.3-8.6-2.7-12.8-4.3     c-2.4-0.9-4.7-1.8-7.1-2.8c-2.8-1.1,2.9,1.3,0.1,0c-1.3-0.6-2.6-1.1-3.8-1.7c-4.3-2-8.5-4.1-12.7-6.4c-7.1-3.9-13.5-9-22.1-7.8     c-10,1.3-20.1,5.2-29.6,8.3c-9.2,3-18.4,6.4-27.4,10c-20.8,8.4-41.1,17.9-60.7,28.9c-32.7,18.4-63.2,40.4-87.4,69.4     C101.8,593,80,654.7,80,719.4c0,37.9,0,75.8,0,113.7c0,15.3,0,30.5,0,45.8c0,27,9.1,52.7,28.2,72.1     c18.8,19.1,44.6,29.1,71.1,29.1c8.2,0,16.4,0,24.7,0c37.4,0,74.8,0,112.2,0c44.6,0,89.2,0,133.8,0c27.5,0,55.1,0,82.6,0     c1.4,0,2.7,0,4.1,0c10.5,0,20.5-9.2,20-20C556.2,949.2,547.9,940.1,536.6,940.1L536.6,940.1z"/></g></g></g><text x="0" y="1039" fill="#000000" font-size="5px" font-weight="bold" font-family="'Helvetica Neue', Helvetica, Arial-Unicode, Arial, Sans-serif">Created by shashank singh</text><text x="0" y="1044" fill="#000000" font-size="5px" font-weight="bold" font-family="'Helvetica Neue', Helvetica, Arial-Unicode, Arial, Sans-serif">from the Noun Project</text></svg>