<svg xmlns="http://www.w3.org/2000/svg" xmlns:xlink="http://www.w3.org/1999/xlink" version="1.1" x="0px" y="0px" viewBox="0 0 1024 1280" style="enable-background:new 0 0 1024 1024;" xml:space="preserve"><g><g><g><path d="M924,680.5c-27.1,0-54.3,0-81.4,0c-4.4,0-8.9,0.2-13.2-0.2c2.7,0.4,5.3,0.7,8,1.1     c-2.3-0.3-4.4-0.9-6.5-1.8c2.4,1,4.8,2,7.2,3c-0.2-0.1-3.6-1.7-3.5-1.9c0-0.1,6.5,5.6,2.5,1.8c-2.5-2.4,0-2.6,1.8,2.5     c-0.4-1.2-1.4-2.3-1.9-3.5c1,2.4,2,4.8,3,7.2c-0.9-2.1-1.4-4.2-1.8-6.5c0.4,2.7,0.7,5.3,1.1,8c-1-10.7-0.2-21.8-0.2-32.5     c0-16.8,0-33.5,0-50.3c0-3.9,0-7.9,0-11.8c-17.1,7.1-34.1,14.1-51.2,21.2c33.5,33.5,67,67,100.5,100.5c4.8,4.8,9.6,9.6,14.4,14.4     c11.1,11.1,31.5,11.9,42.4,0c11-12,11.9-30.6,0-42.4c-33.5-33.5-67-67-100.5-100.5c-4.8-4.8-9.6-9.6-14.4-14.4     c-8.6-8.6-21.8-10.9-32.8-6.2c-10.9,4.6-18.4,15.4-18.4,27.4c0,29.3,0,58.5,0,87.8c0,11.5,2,22.7,8.3,32.5     c10.3,15.8,27.4,24.5,46.1,24.6c15.2,0.1,30.4,0,45.5,0c15,0,29.9,0,44.9,0c15.7,0,30.7-13.8,30-30     C953.3,694.2,940.8,680.5,924,680.5z"/></g></g><g><g><path d="M894,710.5c0,25.1,0,50.2,0,75.3c0,39.6,0,79.1,0,118.7c0,9.7,0.8,19.8-0.3,29.5c0.4-2.7,0.7-5.3,1.1-8     c-0.4,2.7-1.1,5.1-2.1,7.6c1-2.4,2-4.8,3-7.2c-0.7,1.6-1.6,3.1-2.4,4.6c-2.3,4.1,5.7-6.1,0.7-1.1c-5,5,5.2-2.9,1.1-0.7     c-1.5,0.8-3,1.7-4.6,2.4c2.4-1,4.8-2,7.2-3c-2.5,1-5,1.7-7.6,2.1c2.7-0.4,5.3-0.7,8-1.1c-8.4,1-17.2,0.3-25.7,0.3     c-18.2,0-36.4,0-54.6,0c-41.4,0-82.7,0-124.1,0c-10.1,0-20.7,0.9-30.8-0.3c2.7,0.4,5.3,0.7,8,1.1c-2.7-0.4-5.1-1.1-7.6-2.1     c2.4,1,4.8,2,7.2,3c-1.6-0.7-3.1-1.6-4.6-2.4c-4.1-2.3,6.1,5.7,1.1,0.7c-5-5,2.9,5.2,0.7,1.1c-0.8-1.5-1.7-3-2.4-4.6     c1,2.4,2,4.8,3,7.2c-1-2.5-1.7-5-2.1-7.6c0.4,2.7,0.7,5.3,1.1,8c-1.2-11-0.3-22.5-0.3-33.6c0-24.3,0-48.7,0-73c0-55,0-110,0-165     c0-13.4-1.2-27.4,0.3-40.7c-0.4,2.7-0.7,5.3-1.1,8c0.4-2.7,1.1-5.1,2.1-7.6c-1,2.4-2,4.8-3,7.2c0.7-1.6,1.6-3.1,2.4-4.6     c2.3-4.1-5.7,6.1-0.7,1.1c5-5-5.2,2.9-1.1,0.7c1.5-0.8,3-1.7,4.6-2.4c-2.4,1-4.8,2-7.2,3c2.5-1,5-1.7,7.6-2.1     c-2.7,0.4-5.3,0.7-8,1.1c5.5-0.6,11.3-0.3,16.8-0.3c11.3,0,22.6,0,33.9,0c25.8,0,51.6,0,77.4,0c6.1,0,12.2,0,18.3,0     c-7.1-2.9-14.1-5.9-21.2-8.8c33.5,33.5,67,67,100.5,100.5c4.8,4.8,9.6,9.6,14.4,14.4c11.1,11.1,31.5,11.9,42.4,0     c11-12,11.9-30.6,0-42.4c-29.5-29.5-58.9-58.9-88.4-88.4c-6.8-6.8-13.6-13.6-20.4-20.4c-7.8-7.8-15-14.5-27.5-14.9     c-17.4-0.5-34.8,0-52.2,0c-25.2,0-50.4,0-75.6,0c-4.8,0-9.5-0.1-14.3,0c-32.9,0.7-59.1,26.6-60.1,59.5c-0.9,30.9,0,61.9,0,92.9     c0,52.6,0,105.2,0,157.8c0,16,0,32,0,48c0,3.5-0.1,6.9,0.3,10.4c1.5,15.7,7.9,30.7,20.2,41c11.5,9.5,24.6,14.8,39.7,15.1     c37.6,0.7,75.3,0,113,0c38,0,76,0.7,113.9,0c27.7-0.5,54-20,58.9-48.1c1.2-7,1.3-13.2,1.3-20.1c0-19.9,0-39.8,0-59.7     c0-47.4,0-94.9,0-142.3c0-3.1,0-6.2,0-9.3c0-15.7-13.8-30.7-30-30C907.7,681.2,894,693.7,894,710.5z"/></g></g></g><g><g><g><path d="M647.3,263.3c0,9.7-0.7,19.4-2,29.1c0.4-2.7,0.7-5.3,1.1-8c-2.6,18.7-7.6,37-14.9,54.4c1-2.4,2-4.8,3-7.2     c-5.2,12.1-11.3,23.7-18.6,34.6c-1.9,2.8-3.8,5.6-5.8,8.3c-0.7,0.9-4.7,6.2-1.1,1.6c3.6-4.6-0.5,0.6-1.3,1.5     c-4.1,5-8.5,9.9-13,14.5c-4.6,4.6-9.3,9.1-14.3,13.3c-2.1,1.8-11.7,8.8-2.9,2.6c-2.6,1.8-5,3.7-7.6,5.5     c-12,8.4-24.9,15.4-38.3,21.2c2.4-1,4.8-2,7.2-3c-17.9,7.5-36.6,12.6-55.8,15.2c2.7-0.4,5.3-0.7,8-1.1c-18.7,2.4-37.5,2.4-56.2,0     c2.7,0.4,5.3,0.7,8,1.1c-19.2-2.6-37.9-7.7-55.7-15.2c2.4,1,4.8,2,7.2,3c-13.3-5.7-26-12.6-37.9-20.9c-2.8-1.9-5.5-4-8.2-6     c8.8,6.5-1-0.9-2.9-2.6c-4.9-4.2-9.7-8.6-14.3-13.3c-4.5-4.6-8.9-9.5-13-14.5c-0.9-1.1-1.8-2.3-2.7-3.4c6.5,7.7,1.7,2.2,0.3,0.3     c-1.9-2.5-3.6-5.1-5.4-7.7c-7.4-11.1-13.7-22.9-19-35.2c1,2.4,2,4.8,3,7.2c-7.3-17.4-12.3-35.7-14.9-54.4c0.4,2.7,0.7,5.3,1.1,8     c-2.6-19.3-2.6-38.9,0-58.2c-0.4,2.7-0.7,5.3-1.1,8c2.6-18.7,7.6-36.9,14.9-54.4c-1,2.4-2,4.8-3,7.2     c5.3-12.5,11.8-24.6,19.4-35.9c1.9-2.9,4-5.8,6.1-8.6c4.4-5.9-3.8,4.8-0.7,0.9c1.1-1.4,2.2-2.7,3.3-4.1c4.2-5,8.6-9.9,13.2-14.5     c4.6-4.6,9.5-9,14.5-13.2c1.3-1.1,2.7-2.2,4.1-3.3c3.9-3.1-6.8,5.1-0.9,0.7c2.8-2.1,5.7-4.1,8.6-6.1C370,103.5,382,97,394.6,91.7     c-2.4,1-4.8,2-7.2,3c17.4-7.3,35.7-12.3,54.4-14.9c-2.7,0.4-5.3,0.7-8,1.1c19.3-2.6,38.9-2.6,58.2,0c-2.7-0.4-5.3-0.7-8-1.1     c18.7,2.6,36.9,7.6,54.4,14.9c-2.4-1-4.8-2-7.2-3c12.5,5.3,24.6,11.8,35.9,19.4c2.9,1.9,5.8,4,8.6,6.1c5.9,4.4-4.8-3.8-0.9-0.7     c1.4,1.1,2.7,2.2,4.1,3.3c5,4.2,9.9,8.6,14.5,13.2c4.6,4.6,9,9.5,13.2,14.5c1.1,1.3,2.2,2.7,3.3,4.1c3.1,3.9-5.1-6.8-0.7-0.9     c2.1,2.8,4.1,5.7,6.1,8.6c7.6,11.3,14.1,23.3,19.4,35.9c-1-2.4-2-4.8-3-7.2c7.3,17.4,12.3,35.7,14.9,54.4c-0.4-2.7-0.7-5.3-1.1-8     C646.7,243.9,647.3,253.6,647.3,263.3c0.1,15.7,13.8,30.7,30,30c16.2-0.7,30.1-13.2,30-30c-0.3-93.2-55.5-182.7-141-221.4     c-21.3-9.6-43.2-16.8-66.4-20c-26.4-3.7-51.8-3.5-78.2,0.6c-45.4,7-87.9,28.7-122.2,59c-72,63.7-99.9,170.1-68,260.9     C249,392,281,433.8,323.7,464.2c46.2,32.8,105.8,48.4,162.1,42.4c56.5-6,109.5-30,149.9-70.4c35.2-35.2,60.2-82,67.9-131.3     c2.2-13.8,3.6-27.6,3.7-41.6c0.1-15.7-13.8-30.7-30-30C661,234.1,647.4,246.5,647.3,263.3z"/></g></g><g><g><path d="M516.6,930.1c-11.6,0-23.1,0-34.7,0c-27.7,0-55.3,0-83,0c-33,0-66,0-99,0c-28.1,0-56.3,0-84.4,0     c-12.5,0-25,0.1-37.5,0c-3.7,0-7.4-0.3-11.1-0.8c2.7,0.4,5.3,0.7,8,1.1c-6.7-1-13.1-2.8-19.3-5.3c2.4,1,4.8,2,7.2,3     c-4.4-1.9-8.7-4.2-12.7-6.8c-0.2-0.1-3.2-2-3.2-2.2c0,0.1,6.6,5.5,2.5,1.9c-1.8-1.6-3.6-3.1-5.3-4.8c-1.5-1.5-3-3.1-4.4-4.8     c-1.7-2-3.2-5.5,1.5,2c-0.7-1.1-1.5-2.1-2.2-3.2c-2.7-4-4.9-8.3-6.8-12.7c1,2.4,2,4.8,3,7.2c-2.6-6.2-4.3-12.6-5.3-19.3     c0.4,2.7,0.7,5.3,1.1,8c-1.1-8.6-0.8-17.4-0.8-26.1c0-14.8,0-29.5,0-44.3c0-31.8,0-63.7,0-95.5c0-15.1,0.3-30.1,2.3-45.2     c-0.4,2.7-0.7,5.3-1.1,8c3-21.4,8.7-42.2,17-62.1c-1,2.4-2,4.8-3,7.2c5.5-12.9,12-25.3,19.5-37.1c3.7-5.8,7.6-11.3,11.7-16.8     c2.2-2.9-4.3,5.4-2,2.6c0.5-0.6,0.9-1.1,1.4-1.7c1.1-1.3,2.1-2.6,3.2-4c2.3-2.8,4.7-5.5,7.2-8.2c9.2-10.1,19.4-19.1,29.9-27.8     c-7.4,6.1-2.7,2.1-0.8,0.7c1.4-1,2.7-2,4.1-3c3-2.1,6-4.2,9.1-6.2c7.6-4.9,15.3-9.6,23.1-14.1c17.3-9.9,35.2-18.8,53.5-26.6     c-2.4,1-4.8,2-7.2,3c19.8-8.3,40.1-15.2,60.8-20.7c-7.7-1-15.4-2-23.1-3c59.3,36,133.8,45.6,200,24.6     c18.4-5.8,36.4-13.8,52.9-23.7c-7.7,1-15.4,2-23.1,3c23.1,6,45.6,13.6,67.6,22.8c-2.4-1-4.8-2-7.2-3c5.4,2.3,10.7,4.6,16,7     c7.5,3.5,14.9,5.3,23.1,3c7-1.9,14.5-7.3,17.9-13.8c7-13.2,4.4-34-10.8-41c-19.9-9.2-40.4-17.5-61.2-24.3     c-5.2-1.7-10.5-3.3-15.7-4.8c-9.5-2.8-19.8-6.5-29.7-3.8c-6.6,1.8-12.7,6.4-18.8,9.6c-5,2.6-10,5-15.1,7.2c2.4-1,4.8-2,7.2-3     c-17.9,7.5-36.6,12.6-55.8,15.2c2.7-0.4,5.3-0.7,8-1.1c-18.7,2.4-37.5,2.4-56.2,0c2.7,0.4,5.3,0.7,8,1.1     c-19.2-2.6-37.9-7.7-55.7-15.2c2.4,1,4.8,2,7.2,3c-7.2-3.1-14.2-6.5-21-10.3c-6-3.3-11.4-6.8-18.3-7.8c-7.4-1-14.4,1.1-21.4,3.1     c-14.9,4.3-29.7,9.3-44.1,15.1c-33.3,13.4-65.7,29.4-95.4,49.6c-50.4,34.2-88.3,83.1-108.7,140.5c-10.1,28.5-15.1,59.2-15.3,89.4     c0,7.3,0,14.5,0,21.8c0,33.8,0,67.5,0,101.3c0,12.7,0,25.4,0,38.2c0,2.1,0,4.2,0,6.4c0.1,16.5,4,31.7,10.7,46.7     c12.5,27.8,39.1,49.2,68.3,57.3c11.3,3.1,22.9,3.9,34.6,3.9c21.6,0,43.2,0,64.8,0c35,0,69.9,0,104.9,0c34.1,0,68.1,0,102.2,0     c19.5,0,39,0,58.4,0c0.9,0,1.8,0,2.8,0c15.7,0,30.7-13.8,30-30C545.9,943.8,533.5,930.1,516.6,930.1L516.6,930.1z"/></g></g></g><text x="0" y="1039" fill="#000000" font-size="5px" font-weight="bold" font-family="'Helvetica Neue', Helvetica, Arial-Unicode, Arial, Sans-serif">Created by shashank singh</text><text x="0" y="1044" fill="#000000" font-size="5px" font-weight="bold" font-family="'Helvetica Neue', Helvetica, Arial-Unicode, Arial, Sans-serif">from the Noun Project</text></svg>