<?xml version="1.0" encoding="utf-8"?>
<!-- Generator: Adobe Illustrator 27.3.1, SVG Export Plug-In . SVG Version: 6.00 Build 0)  -->
<svg version="1.1" id="Layer_1" xmlns="http://www.w3.org/2000/svg" xmlns:xlink="http://www.w3.org/1999/xlink" x="0px" y="0px"
	 viewBox="0 0 19.7 16" style="enable-background:new 0 0 19.7 16;" xml:space="preserve">
<style type="text/css">
	.st0{fill:none;}
	.st1{fill:#FFFFFF;}
</style>
<g>
	<polygon class="st0" points="16.2,7.4 15,6.2 15,7.4 	"/>
	<polygon class="st0" points="16.2,9 15,9 15,10.3 	"/>
	<path class="st0" d="M14,12V9h-1v4C13.6,13,14,12.6,14,12z"/>
	<path class="st0" d="M13,1H5C4.4,1,4,1.4,4,2h7c1.1,0,2,0.9,2,2v3.4h1V2C14,1.4,13.6,1,13,1z"/>
	<path d="M13,4c0-1.1-0.9-2-2-2H4c0-0.6,0.4-1,1-1h8c0.6,0,1,0.4,1,1v5.4h1V6.2L14.8,6c-0.3-0.3-0.3-0.8,0-1.2c0,0,0.1-0.1,0.2-0.1
		V2c0-1.1-0.9-2-2-2H5C3.9,0,3,0.9,3,2C1.9,2,1,2.9,1,4h1c0-0.6,0.4-1,1-1h8c0.6,0,1,0.4,1,1v3.4h1V4z"/>
	<path d="M14.8,10.4l0.2-0.2V9h-1v3c0,0.6-0.4,1-1,1V9h-1v5c0,0.6-0.4,1-1,1H3c-0.6,0-1-0.4-1-1H1c0,1.1,0.9,2,2,2h8
		c1.1,0,2-0.9,2-2c1.1,0,2-0.9,2-2v-0.3c-0.1,0-0.1-0.1-0.2-0.1C14.5,11.3,14.5,10.8,14.8,10.4z"/>
	<path d="M0.5,10h2C2.8,10,3,9.8,3,9.5S2.8,9,2.5,9H2V8.5C2,8.2,1.8,8,1.5,8S1,8.2,1,8.5V9H0.5C0.2,9,0,9.2,0,9.5S0.2,10,0.5,10z"/>
	<path d="M3,12.5C3,12.2,2.8,12,2.5,12H2v-0.5C2,11.2,1.8,11,1.5,11S1,11.2,1,11.5V12H0.5C0.2,12,0,12.2,0,12.5S0.2,13,0.5,13h2
		C2.8,13,3,12.8,3,12.5z"/>
	<path d="M0.5,7h2C2.8,7,3,6.8,3,6.5S2.8,6,2.5,6H2V5.5C2,5.2,1.8,5,1.5,5S1,5.2,1,5.5V6H0.5C0.2,6,0,6.2,0,6.5S0.2,7,0.5,7z"/>
	<path d="M4.6,8.7h5c0.3,0,0.5-0.2,0.5-0.5S9.9,7.7,9.6,7.7h-5c-0.3,0-0.5,0.2-0.5,0.5S4.4,8.7,4.6,8.7z"/>
	<path d="M4.6,6.7h5c0.3,0,0.5-0.2,0.5-0.5S9.9,5.7,9.6,5.7h-5c-0.3,0-0.5,0.2-0.5,0.5S4.4,6.7,4.6,6.7z"/>
	<path d="M4.6,12.7h2c0.3,0,0.5-0.2,0.5-0.5s-0.2-0.5-0.5-0.5h-2c-0.3,0-0.5,0.2-0.5,0.5S4.4,12.7,4.6,12.7z"/>
	<path d="M4.6,10.7h5c0.3,0,0.5-0.2,0.5-0.5S9.9,9.7,9.6,9.7h-5c-0.3,0-0.5,0.2-0.5,0.5S4.4,10.7,4.6,10.7z"/>
	<path d="M18.6,8.6c0.1-0.1,0.2-0.2,0.2-0.4c0-0.2-0.1-0.3-0.2-0.4L15.8,5c-0.2-0.2-0.6-0.2-0.8,0c-0.1,0.1-0.2,0.3-0.2,0.4
		c0,0.2,0.1,0.3,0.2,0.4l1.8,1.8h-5.6c-0.3,0-0.6,0.3-0.6,0.6s0.3,0.6,0.6,0.6h5.6L15,10.6c-0.2,0.2-0.2,0.6,0,0.8
		c0.2,0.2,0.6,0.2,0.8,0L18.6,8.6z"/>
	<path class="st1" d="M18.8,7.6L16,4.8c-0.3-0.3-0.7-0.3-1-0.1c-0.1,0-0.1,0.1-0.2,0.1c-0.3,0.3-0.3,0.8,0,1.2L15,6.2l1.2,1.2H15h-1
		h-1h-1h-0.8c-0.5,0-0.8,0.4-0.8,0.8S10.8,9,11.2,9H12h1h1h1h1.2L15,10.3l-0.2,0.2c-0.3,0.3-0.3,0.8,0,1.2c0,0,0.1,0.1,0.2,0.1
		c0.1,0.1,0.3,0.1,0.4,0.1c0.2,0,0.4-0.1,0.6-0.2l2.8-2.8l0,0C19,8.6,19,8.4,19,8.2C19,8,19,7.8,18.8,7.6z M15,11.4
		c-0.2-0.2-0.2-0.6,0-0.8l1.8-1.8h-5.6c-0.3,0-0.6-0.3-0.6-0.6s0.3-0.6,0.6-0.6h5.6L15,5.8c-0.1-0.1-0.2-0.3-0.2-0.4
		c0-0.2,0.1-0.3,0.2-0.4c0.2-0.2,0.6-0.2,0.8,0l2.8,2.8c0.1,0.1,0.2,0.3,0.2,0.4c0,0.1-0.1,0.3-0.2,0.4l-2.8,2.8
		C15.6,11.7,15.2,11.7,15,11.4z"/>
</g>
</svg>
