<svg width="25" height="25" viewBox="0 0 25 25" fill="none" xmlns="http://www.w3.org/2000/svg">
<g id="edit (1) 2">
<path id="Vector" d="M11.8125 4.5H4.8125C4.28207 4.5 3.77336 4.71071 3.39829 5.08579C3.02321 5.46086 2.8125 5.96957 2.8125 6.5V20.5C2.8125 21.0304 3.02321 21.5391 3.39829 21.9142C3.77336 22.2893 4.28207 22.5 4.8125 22.5H18.8125C19.3429 22.5 19.8516 22.2893 20.2267 21.9142C20.6018 21.5391 20.8125 21.0304 20.8125 20.5V13.5" stroke="#505050" stroke-width="2" stroke-linecap="round" stroke-linejoin="round"/>
<path id="Vector_2" d="M19.3125 2.99632C19.7103 2.5985 20.2499 2.375 20.8125 2.375C21.3751 2.375 21.9147 2.5985 22.3125 2.99632C22.7103 3.39415 22.9338 3.93371 22.9338 4.49632C22.9338 5.05893 22.7103 5.5985 22.3125 5.99632L12.8125 15.4963L8.8125 16.4963L9.8125 12.4963L19.3125 2.99632Z" stroke="#505050" stroke-width="2" stroke-linecap="round" stroke-linejoin="round"/>
</g>
</svg>
