<?xml version="1.0" encoding="utf-8"?>
<!-- Generator: Adobe Illustrator 27.3.1, SVG Export Plug-In . SVG Version: 6.00 Build 0)  -->
<svg version="1.1" id="Layer_1" xmlns="http://www.w3.org/2000/svg" xmlns:xlink="http://www.w3.org/1999/xlink" x="0px" y="0px"
	 viewBox="0 0 30 30" style="enable-background:new 0 0 30 30;" xml:space="preserve">
<style type="text/css">
	.st0{fill:#0E497A;}
</style>
<g>
	<g>
		<path class="st0" d="M25.9,11.2L25.9,11.2c-0.9,0-1.6-0.7-1.6-1.6V8.6c0-0.1,0-0.2-0.1-0.2c-0.1-0.1-0.3-0.1-0.4,0l-4.4,4.4
			c-0.6,0.6-1.6,0.6-2.2,0l0,0c-0.6-0.6-0.6-1.6,0-2.2l0,0l4.4-4.4c0.1-0.1,0.1-0.1,0.1-0.2c0-0.2-0.1-0.3-0.3-0.3h-1.1
			c-0.9,0-1.6-0.7-1.6-1.6l0,0l0,0c0-0.9,0.7-1.6,1.6-1.6h5.6c0.9,0,1.6,0.7,1.6,1.6v5.6C27.5,10.6,26.8,11.2,25.9,11.2z M4.1,18.7
			L4.1,18.7c0.9,0,1.6,0.7,1.6,1.6l0,0v1.1c0,0.1,0,0.2,0.1,0.2c0.1,0.1,0.3,0.1,0.4,0l0,0l4.4-4.4c0.6-0.6,1.6-0.6,2.2,0l0,0l0,0
			c0.6,0.6,0.6,1.6,0,2.2l0,0l-4.4,4.4c-0.1,0.1-0.1,0.1-0.1,0.2c0,0.2,0.1,0.3,0.3,0.3h1.1c0.9,0,1.6,0.7,1.6,1.6v0
			c0,0.9-0.7,1.6-1.6,1.6H4.1c-0.9,0-1.6-0.7-1.6-1.6v-5.6C2.5,19.4,3.2,18.7,4.1,18.7L4.1,18.7z"/>
	</g>
</g>
</svg>
