<?xml version="1.0" encoding="utf-8"?>
<!-- Generator: Adobe Illustrator 27.3.1, SVG Export Plug-In . SVG Version: 6.00 Build 0)  -->
<svg version="1.1" id="Layer_1" xmlns="http://www.w3.org/2000/svg" xmlns:xlink="http://www.w3.org/1999/xlink" x="0px" y="0px"
	 viewBox="0 0 16 16" style="enable-background:new 0 0 16 16;" xml:space="preserve">
<style type="text/css">
	.st0{fill:none;}
</style>
<g>
	<path class="st0" d="M10,3H4C3.4,3,3,3.4,3,4v10.6l3.7-2.5c0.2-0.1,0.4-0.1,0.6,0l3.7,2.5V4C11,3.4,10.6,3,10,3z M9.4,7.1l-1,1
		c0,0-0.1,0.1-0.1,0.2l0.2,1.4c0,0.1,0,0.2-0.1,0.2c0,0-0.1,0-0.1,0L7.1,9.2c-0.1,0-0.1,0-0.2,0L5.6,9.9c-0.1,0-0.2,0-0.2-0.1
		c0,0,0-0.1,0-0.1l0.2-1.4c0-0.1,0-0.1,0-0.2l-1-1C4.5,7,4.5,6.9,4.6,6.8c0,0,0.1,0,0.1-0.1l1.4-0.2c0.1,0,0.1,0,0.1-0.1l0.6-1.3
		c0-0.1,0.1-0.1,0.2-0.1c0,0,0.1,0,0.1,0.1l0.6,1.3c0,0.1,0.1,0.1,0.1,0.1l1.4,0.2C9.5,6.8,9.6,7,9.4,7.1z"/>
	<path d="M10,2H4C2.9,2,2,2.9,2,4v11.5c0,0.1,0,0.2,0.1,0.3c0.2,0.2,0.5,0.3,0.7,0.1L7,13.1l4.2,2.8c0.1,0.1,0.2,0.1,0.3,0.1
		c0.3,0,0.5-0.2,0.5-0.5V4C12,2.9,11.1,2,10,2z M11,14.6l-3.7-2.5c-0.2-0.1-0.4-0.1-0.6,0L3,14.6V4c0-0.6,0.4-1,1-1h6
		c0.6,0,1,0.4,1,1V14.6z"/>
	<path d="M12,0H6C5.3,0,4.6,0.4,4.3,1H12c0.6,0,1,0.4,1,1v11.8l0.2,0.1c0.2,0.2,0.5,0.1,0.7-0.1c0.1-0.1,0.1-0.2,0.1-0.3V2
		C14,0.9,13.1,0,12,0z"/>
	<path d="M9.3,6.8L7.9,6.6c-0.1,0-0.1,0-0.1-0.1L7.2,5.2c0,0,0-0.1-0.1-0.1c-0.1,0-0.2,0-0.2,0.1L6.2,6.5c0,0.1-0.1,0.1-0.1,0.1
		L4.7,6.8c0,0-0.1,0-0.1,0.1C4.5,6.9,4.5,7,4.6,7.1l1,1c0,0,0.1,0.1,0,0.2L5.4,9.7c0,0,0,0.1,0,0.1c0,0.1,0.2,0.1,0.2,0.1l1.3-0.7
		c0.1,0,0.1,0,0.2,0l1.3,0.7c0,0,0.1,0,0.1,0c0.1,0,0.2-0.1,0.1-0.2L8.4,8.3c0-0.1,0-0.1,0.1-0.2l1-1C9.6,7,9.5,6.8,9.3,6.8z"/>
</g>
</svg>
