<svg width="25" height="25" viewBox="0 0 25 25" fill="none" xmlns="http://www.w3.org/2000/svg">
<g clip-path="url(#clip0_4_45)">
<path d="M21.875 1.5625C22.2894 1.5625 22.6868 1.72712 22.9799 2.02015C23.2729 2.31317 23.4375 2.7106 23.4375 3.125V21.875C23.4375 22.2894 23.2729 22.6868 22.9799 22.9799C22.6868 23.2729 22.2894 23.4375 21.875 23.4375H3.125C2.7106 23.4375 2.31317 23.2729 2.02015 22.9799C1.72712 22.6868 1.5625 22.2894 1.5625 21.875V3.125C1.5625 2.7106 1.72712 2.31317 2.02015 2.02015C2.31317 1.72712 2.7106 1.5625 3.125 1.5625H21.875ZM3.125 0C2.2962 0 1.50134 0.32924 0.915291 0.915291C0.32924 1.50134 0 2.2962 0 3.125L0 21.875C0 22.7038 0.32924 23.4987 0.915291 24.0847C1.50134 24.6708 2.2962 25 3.125 25H21.875C22.7038 25 23.4987 24.6708 24.0847 24.0847C24.6708 23.4987 25 22.7038 25 21.875V3.125C25 2.2962 24.6708 1.50134 24.0847 0.915291C23.4987 0.32924 22.7038 0 21.875 0L3.125 0Z" fill="black"/>
<path d="M9.375 17.9688C9.375 17.7615 9.45731 17.5628 9.60382 17.4163C9.75034 17.2698 9.94905 17.1875 10.1562 17.1875H14.8438C15.051 17.1875 15.2497 17.2698 15.3962 17.4163C15.5427 17.5628 15.625 17.7615 15.625 17.9688C15.625 18.176 15.5427 18.3747 15.3962 18.5212C15.2497 18.6677 15.051 18.75 14.8438 18.75H10.1562C9.94905 18.75 9.75034 18.6677 9.60382 18.5212C9.45731 18.3747 9.375 18.176 9.375 17.9688ZM6.25 13.2812C6.25 13.074 6.33231 12.8753 6.47882 12.7288C6.62534 12.5823 6.82405 12.5 7.03125 12.5H17.9688C18.176 12.5 18.3747 12.5823 18.5212 12.7288C18.6677 12.8753 18.75 13.074 18.75 13.2812C18.75 13.4885 18.6677 13.6872 18.5212 13.8337C18.3747 13.9802 18.176 14.0625 17.9688 14.0625H7.03125C6.82405 14.0625 6.62534 13.9802 6.47882 13.8337C6.33231 13.6872 6.25 13.4885 6.25 13.2812ZM3.125 8.59375C3.125 8.38655 3.20731 8.18784 3.35382 8.04132C3.50034 7.89481 3.69905 7.8125 3.90625 7.8125H21.0938C21.301 7.8125 21.4997 7.89481 21.6462 8.04132C21.7927 8.18784 21.875 8.38655 21.875 8.59375C21.875 8.80095 21.7927 8.99966 21.6462 9.14618C21.4997 9.29269 21.301 9.375 21.0938 9.375H3.90625C3.69905 9.375 3.50034 9.29269 3.35382 9.14618C3.20731 8.99966 3.125 8.80095 3.125 8.59375Z" fill="black"/>
</g>
<defs>
<clipPath id="clip0_4_45">
<rect width="25" height="25" fill="white"/>
</clipPath>
</defs>
</svg>
