<?xml version="1.0" encoding="utf-8"?>
<!-- Generator: Adobe Illustrator 27.3.1, SVG Export Plug-In . SVG Version: 6.00 Build 0)  -->
<svg version="1.1" id="Layer_1" xmlns="http://www.w3.org/2000/svg" xmlns:xlink="http://www.w3.org/1999/xlink" x="0px" y="0px"
	 viewBox="0 0 25 31.2" style="enable-background:new 0 0 25 31.2;" xml:space="preserve">
<g>
	<path d="M3.9,28H21c1.1,0,1.9-0.9,1.9-1.9V9.1C22.8,8,22,7.2,21,7.2h-3.8v1.6H21c0.2,0,0.3,0.1,0.3,0.3v17c0,0.2-0.1,0.3-0.3,0.3
		H3.9c-0.2,0-0.3-0.1-0.3-0.3v-17c0-0.2,0.1-0.3,0.3-0.3h3.6V7.2H3.9C2.8,7.2,2,8.1,2,9.1v17C2,27.2,2.9,28,3.9,28z"/>
	<rect x="14" y="22.2" width="5" height="0.5"/>
	<rect x="14" y="24.3" width="5" height="0.5"/>
	<rect x="14" y="23.3" width="1.4" height="0.5"/>
	<rect x="16.2" y="23.3" width="1.4" height="0.5"/>
	<path d="M15.6,18.9c-0.1,0-0.2,0-0.3,0l0,0c-0.1,0-0.2,0-0.3,0c-0.1,0-0.1,0.1-0.1,0.2c0,0.1,0.1,0.1,0.1,0.1h0c0.1,0,0.2,0,0.3,0
		c0.1,0,0.2,0,0.2,0c0.1,0,0.2,0,0.2-0.1C15.7,19,15.7,18.9,15.6,18.9z"/>
	<path d="M13.9,20.3c0,0.2,0,0.4,0.2,0.6c0,0,0.1,0.1,0.1,0.1s0,0,0.1,0c0.1,0,0.1-0.1,0.1-0.2c-0.1-0.2-0.1-0.3-0.1-0.5
		c0-0.1-0.1-0.1-0.1-0.1l0,0C13.9,20.1,13.9,20.2,13.9,20.3z"/>
	<path d="M14.4,19.2c-0.2,0.1-0.3,0.3-0.4,0.5c0,0.1,0,0.2,0.1,0.2h0c0,0,0.1,0,0.1-0.1c0.1-0.2,0.2-0.3,0.3-0.4c0,0,0.1-0.1,0-0.2
		C14.5,19.1,14.5,19.1,14.4,19.2z"/>
	<path d="M14.4,21.2c0,0,0,0.2,0,0.2c0.2,0.1,0.4,0.2,0.5,0.3h0c0.1,0,0.1,0,0.1-0.1c0-0.1,0-0.2-0.1-0.2c-0.2,0-0.3-0.1-0.5-0.2
		C14.5,21.1,14.5,21.1,14.4,21.2z"/>
	<path d="M15.4,21.5c0,0.1,0.1,0.1,0.1,0.1h0c0.2,0,0.4-0.2,0.5-0.3c0,0,0.1-0.1,0-0.2c0,0-0.1-0.1-0.2,0c-0.1,0.1-0.3,0.2-0.5,0.2
		C15.5,21.4,15.4,21.5,15.4,21.5z"/>
	<path d="M16.4,20.3c0,0.2,0,0.4-0.1,0.5c0,0.1,0,0.2,0.1,0.2h0c0,0,0.1,0,0.1-0.1c0.1-0.2,0.2-0.4,0.2-0.6l0,0
		c0-0.1-0.1-0.1-0.1-0.1C16.5,20.1,16.4,20.2,16.4,20.3z"/>
	<path d="M16.2,19.1c-0.1,0-0.2,0-0.2,0c0,0,0,0.2,0,0.2c0.1,0.1,0.2,0.2,0.3,0.4c0,0,0.1,0.1,0.1,0.1s0,0,0.1,0
		c0.1,0,0.1-0.1,0.1-0.2C16.4,19.4,16.3,19.3,16.2,19.1z"/>
	<path d="M7.6,11.2l4.3,4.3c0.3,0.3,0.7,0.3,1,0l4.3-4.3c0.5-0.5,0.1-1.3-0.5-1.3h-1.6V2.5H9.7V10H8.1C7.4,10,7.1,10.8,7.6,11.2z"/>
</g>
</svg>
