<svg width="22" height="25" viewBox="0 0 22 25" fill="none" xmlns="http://www.w3.org/2000/svg">
<path fill-rule="evenodd" clip-rule="evenodd" d="M0 12.5C0 12.2928 0.08231 12.0941 0.228823 11.9476C0.375336 11.8011 0.57405 11.7188 0.78125 11.7188H21.0938C21.301 11.7188 21.4997 11.8011 21.6462 11.9476C21.7927 12.0941 21.875 12.2928 21.875 12.5C21.875 12.7072 21.7927 12.9059 21.6462 13.0524C21.4997 13.1989 21.301 13.2812 21.0938 13.2812H0.78125C0.57405 13.2812 0.375336 13.1989 0.228823 13.0524C0.08231 12.9059 0 12.7072 0 12.5ZM10.9375 0C11.1447 0 11.3434 0.08231 11.4899 0.228823C11.6364 0.375336 11.7188 0.57405 11.7188 0.78125V6.70781L13.5094 4.91562C13.6561 4.76893 13.855 4.68651 14.0625 4.68651C14.27 4.68651 14.4689 4.76893 14.6156 4.91562C14.7623 5.06232 14.8447 5.26129 14.8447 5.46875C14.8447 5.67621 14.7623 5.87518 14.6156 6.02188L11.4906 9.14688C11.4181 9.21963 11.3318 9.27735 11.2369 9.31674C11.142 9.35612 11.0403 9.3764 10.9375 9.3764C10.8347 9.3764 10.733 9.35612 10.6381 9.31674C10.5432 9.27735 10.4569 9.21963 10.3844 9.14688L7.25937 6.02188C7.11268 5.87518 7.03026 5.67621 7.03026 5.46875C7.03026 5.26129 7.11268 5.06232 7.25937 4.91562C7.40607 4.76893 7.60504 4.68651 7.8125 4.68651C8.01996 4.68651 8.21893 4.76893 8.36563 4.91562L10.1562 6.70781V0.78125C10.1562 0.57405 10.2386 0.375336 10.3851 0.228823C10.5316 0.08231 10.7303 0 10.9375 0ZM10.1562 18.2922L8.36563 20.0844C8.21893 20.2311 8.01996 20.3135 7.8125 20.3135C7.60504 20.3135 7.40607 20.2311 7.25937 20.0844C7.11268 19.9377 7.03026 19.7387 7.03026 19.5312C7.03026 19.3238 7.11268 19.1248 7.25937 18.9781L10.3844 15.8531C10.4569 15.7804 10.5432 15.7226 10.6381 15.6833C10.733 15.6439 10.8347 15.6236 10.9375 15.6236C11.0403 15.6236 11.142 15.6439 11.2369 15.6833C11.3318 15.7226 11.4181 15.7804 11.4906 15.8531L14.6156 18.9781C14.7623 19.1248 14.8447 19.3238 14.8447 19.5312C14.8447 19.7387 14.7623 19.9377 14.6156 20.0844C14.4689 20.2311 14.27 20.3135 14.0625 20.3135C13.855 20.3135 13.6561 20.2311 13.5094 20.0844L11.7188 18.2922V24.2188C11.7188 24.426 11.6364 24.6247 11.4899 24.7712C11.3434 24.9177 11.1447 25 10.9375 25C10.7303 25 10.5316 24.9177 10.3851 24.7712C10.2386 24.6247 10.1562 24.426 10.1562 24.2188V18.2922Z" fill="black"/>
</svg>
