<svg width="5" height="21" viewBox="0 0 5 21" fill="none" xmlns="http://www.w3.org/2000/svg">
<path d="M4.6875 17.9688C4.6875 18.5904 4.44057 19.1865 4.00103 19.626C3.56149 20.0656 2.96535 20.3125 2.34375 20.3125C1.72215 20.3125 1.12601 20.0656 0.686468 19.626C0.24693 19.1865 0 18.5904 0 17.9688C0 17.3471 0.24693 16.751 0.686468 16.3115C1.12601 15.8719 1.72215 15.625 2.34375 15.625C2.96535 15.625 3.56149 15.8719 4.00103 16.3115C4.44057 16.751 4.6875 17.3471 4.6875 17.9688ZM4.6875 10.1562C4.6875 10.7779 4.44057 11.374 4.00103 11.8135C3.56149 12.2531 2.96535 12.5 2.34375 12.5C1.72215 12.5 1.12601 12.2531 0.686468 11.8135C0.24693 11.374 0 10.7779 0 10.1562C0 9.53465 0.24693 8.93851 0.686468 8.49897C1.12601 8.05943 1.72215 7.8125 2.34375 7.8125C2.96535 7.8125 3.56149 8.05943 4.00103 8.49897C4.44057 8.93851 4.6875 9.53465 4.6875 10.1562ZM4.6875 2.34375C4.6875 2.96535 4.44057 3.56149 4.00103 4.00103C3.56149 4.44057 2.96535 4.6875 2.34375 4.6875C1.72215 4.6875 1.12601 4.44057 0.686468 4.00103C0.24693 3.56149 0 2.96535 0 2.34375C0 1.72215 0.24693 1.12601 0.686468 0.686469C1.12601 0.24693 1.72215 0 2.34375 0C2.96535 0 3.56149 0.24693 4.00103 0.686469C4.44057 1.12601 4.6875 1.72215 4.6875 2.34375Z" fill="black"/>
</svg>
