<svg width="25" height="29" viewBox="0 0 25 29"  xmlns="http://www.w3.org/2000/svg">
<g clip-path="url(#clip0_4_131)">
<path d="M25 8.17084L21.7198 1.92084L15.9131 0.103461C14.7458 -0.265924 13.5047 0.384194 13.1353 1.55145L10.4166 10.2542C9.66309 9.58928 8.70269 9.07214 7.57975 9.07214H3.50174C2.27538 9.07214 1.28543 10.0621 1.28543 11.2884V15.1892C0.413678 15.6029 -0.103462 16.5189 0.0295169 17.4793L0.975143 25.0444C1.21155 26.8913 2.77774 28.2802 4.63945 28.2802H18.6318C20.4935 28.2802 22.0744 26.8913 22.2961 25.0444L23.2417 17.4793C23.3303 16.7997 23.0792 16.1643 22.6507 15.7063L25.0147 8.15606L25 8.17084ZM2.76297 11.3032C2.76297 10.8895 3.08803 10.5645 3.50174 10.5645H7.57975C8.40718 10.5645 9.21982 11.052 9.88472 11.8204C9.88472 11.8204 9.89949 11.8351 9.91427 11.8499L9.16072 14.2583C9.08685 14.5095 9.05729 14.7607 9.07207 15.0119H2.76297V11.318V11.3032ZM21.705 17.8487L21.5868 18.7796L20.8185 24.8818C20.6855 25.99 19.7399 26.8174 18.617 26.8174H4.62467C3.50174 26.8174 2.55611 25.99 2.42313 24.8818L1.47751 17.3168C1.47751 17.3168 1.47751 17.2577 1.47751 17.2282C1.47751 16.8145 1.80257 16.4894 2.21628 16.4894H21.0254C21.0254 16.4894 21.8824 16.3712 21.6903 17.8635L21.705 17.8487ZM21.7789 14.7902L20.4935 14.7459V14.9971H10.1802C10.1802 14.8641 10.1802 14.7163 10.2246 14.5834L10.8156 12.6921L11.3032 11.1555L14.1991 1.90606C14.3764 1.31504 14.997 0.989986 15.588 1.18207L21.4095 2.99944L20.7446 5.11233C20.4639 5.98408 20.9663 6.91493 21.838 7.19566L23.9509 7.86055L23.7145 8.62887L21.7789 14.8198V14.7902Z" />
<path d="M16.0312 11.8055L13.9183 11.1406C13.6228 11.052 13.3125 11.2145 13.2239 11.51C13.1352 11.8055 13.2977 12.1158 13.5933 12.2044L15.7061 12.8693C16.0016 12.958 16.3119 12.7955 16.4006 12.5C16.4892 12.2044 16.3267 11.8942 16.0312 11.8055Z" />
<path d="M20.5229 8.56975L15.2333 6.91491C14.9377 6.82626 14.6275 6.98878 14.5388 7.28429C14.4502 7.5798 14.6127 7.89009 14.9082 7.97874L20.1978 9.63358C20.4933 9.72224 20.8036 9.55971 20.8922 9.2642C20.9809 8.96869 20.8184 8.65841 20.5229 8.56975Z" />
<path d="M19.8729 10.6827L14.5834 9.02782C14.2878 8.93917 13.9776 9.1017 13.8889 9.39721C13.8003 9.69272 13.9628 10.003 14.2583 10.0917L19.5479 11.7465C19.8434 11.8352 20.1537 11.6726 20.2423 11.3771C20.331 11.0816 20.1685 10.7713 19.8729 10.6827Z" />
</g>
<defs>
<clipPath id="clip0_4_131">
<rect width="25" height="28.2949"/>
</clipPath>
</defs>
</svg>
