<?xml version="1.0" encoding="utf-8"?>
<!-- Generator: Adobe Illustrator 27.3.1, SVG Export Plug-In . SVG Version: 6.00 Build 0)  -->
<svg version="1.1" id="Layer_1" xmlns="http://www.w3.org/2000/svg" xmlns:xlink="http://www.w3.org/1999/xlink" x="0px" y="0px"
	 viewBox="0 0 25 26" style="enable-background:new 0 0 25 26;" xml:space="preserve">
<path d="M8.1,8.6l3,2.2l-1.2,3.5c-0.7,2.2,1.1,3.6,3,2.3l3-2.1l3,2.2c1.8,1.4,3.8,0,3.1-2.2L20.9,11l3-2.1c1.9-1.3,1.2-3.6-1.1-3.6
	h-3.7L18,1.7c-0.7-2.2-3-2.2-3.8,0L13,5.2L9.3,5.1C7.1,5,6.3,7.3,8.1,8.6L8.1,8.6z"/>
<path d="M22.9,11.6V21c0,1.1-0.9,1.9-1.9,1.9H4.1C3,22.9,2.2,22,2.2,21V4.4c0-1.1,0.9-1.9,1.9-1.9h9v-2h-9c-2.2,0-3.9,1.8-3.9,3.9
	V21c0,2.2,1.8,3.9,3.9,3.9H21c2.2,0,3.9-1.8,3.9-3.9v-9.4H22.9z"/>
</svg>
