<?xml version="1.0" encoding="utf-8"?>
<!-- Generator: Adobe Illustrator 27.3.1, SVG Export Plug-In . SVG Version: 6.00 Build 0)  -->
<svg version="1.1" id="Layer_1" xmlns="http://www.w3.org/2000/svg" xmlns:xlink="http://www.w3.org/1999/xlink" x="0px" y="0px"
	 viewBox="0 0 25 26" style="enable-background:new 0 0 25 26;" xml:space="preserve">
<path d="M8.1,8.6l3,2.2l-1.2,3.5c-0.7,2.2,1.1,3.6,3,2.3l3-2.1l3,2.2c1.8,1.4,3.8,0,3.1-2.2L20.9,11l3-2.1c1.9-1.3,1.2-3.6-1.1-3.6
	l-3.7,0L18,1.7c-0.7-2.2-3-2.2-3.8,0l-1.2,3.5L9.3,5.1C7.1,5,6.3,7.3,8.1,8.6L8.1,8.6z M13.7,6.6c0.2,0,0.4-0.2,0.5-0.3l1.4-4.2
	c0.3-0.8,0.7-0.8,0.9,0l1.3,4.2c0.1,0.2,0.3,0.4,0.5,0.4l4.4,0c0.8,0,0.9,0.4,0.3,0.9l-3.6,2.6c-0.2,0.1-0.3,0.4-0.2,0.6l1.3,4.2
	c0.3,0.8-0.1,1-0.8,0.5l-3.5-2.7c-0.2-0.1-0.4-0.1-0.6,0L12,15.4c-0.7,0.5-1,0.2-0.7-0.6l1.4-4.2c0.1-0.2,0-0.5-0.2-0.6L9,7.4
	C8.3,6.9,8.5,6.5,9.3,6.6L13.7,6.6z"/>
<path d="M22.9,11.6V21c0,1.1-0.9,1.9-1.9,1.9H4.1c-1.1,0-1.9-0.9-1.9-1.9V4.4c0-1.1,0.9-1.9,1.9-1.9h9v-2h-9c-2.2,0-3.9,1.8-3.9,3.9
	V21c0,2.2,1.8,3.9,3.9,3.9H21c2.2,0,3.9-1.8,3.9-3.9v-9.4H22.9z"/>
</svg>
