<svg width="38" height="38" viewBox="0 0 38 38" fill="none" xmlns="http://www.w3.org/2000/svg">
<g id="Group 34013">
<rect id="Rectangle 776" width="38" height="38" rx="4" fill="#E4E4E4"/>
<path id="Vector" d="M14.3333 24.9286C14.3333 24.6444 14.4431 24.3719 14.6384 24.171C14.8338 23.97 15.0987 23.8571 15.375 23.8571H21.625C21.9013 23.8571 22.1662 23.97 22.3616 24.171C22.5569 24.3719 22.6667 24.6444 22.6667 24.9286C22.6667 25.2127 22.5569 25.4853 22.3616 25.6862C22.1662 25.8871 21.9013 26 21.625 26H15.375C15.0987 26 14.8338 25.8871 14.6384 25.6862C14.4431 25.4853 14.3333 25.2127 14.3333 24.9286ZM10.1667 18.5C10.1667 18.2158 10.2764 17.9433 10.4718 17.7424C10.6671 17.5415 10.9321 17.4286 11.2083 17.4286H25.7917C26.0679 17.4286 26.3329 17.5415 26.5282 17.7424C26.7236 17.9433 26.8333 18.2158 26.8333 18.5C26.8333 18.7842 26.7236 19.0567 26.5282 19.2576C26.3329 19.4585 26.0679 19.5714 25.7917 19.5714H11.2083C10.9321 19.5714 10.6671 19.4585 10.4718 19.2576C10.2764 19.0567 10.1667 18.7842 10.1667 18.5ZM6 12.0714C6 11.7873 6.10975 11.5147 6.3051 11.3138C6.50045 11.1129 6.7654 11 7.04167 11H29.9583C30.2346 11 30.4996 11.1129 30.6949 11.3138C30.8903 11.5147 31 11.7873 31 12.0714C31 12.3556 30.8903 12.6281 30.6949 12.829C30.4996 13.03 30.2346 13.1429 29.9583 13.1429H7.04167C6.7654 13.1429 6.50045 13.03 6.3051 12.829C6.10975 12.6281 6 12.3556 6 12.0714Z" fill="black"/>
</g>
</svg>
