<svg width="271" height="396" viewBox="0 0 271 396" fill="none" xmlns="http://www.w3.org/2000/svg">
<path d="M106.222 168.496C105.762 168.154 105.455 167.644 105.37 167.076C105.285 166.509 105.427 165.931 105.767 165.469L196.857 41.5474C197.199 41.0868 197.71 40.7803 198.277 40.695C198.844 40.6097 199.422 40.7526 199.885 41.0923C200.345 41.4342 200.652 41.9446 200.737 42.5119C200.822 43.0792 200.679 43.6571 200.34 44.1194L109.249 168.03C109.086 168.265 108.876 168.464 108.633 168.615C108.39 168.767 108.118 168.867 107.835 168.911C107.552 168.954 107.264 168.94 106.986 168.869C106.709 168.797 106.449 168.671 106.222 168.496Z" fill="#6E7DAB"/>
<path d="M244.409 96.4038L241.031 101.042L241.905 101.679L245.284 97.0408L244.409 96.4038Z" fill="#6E7DAB"/>
<path d="M248.901 94.3104L248.023 93.6753C249.099 92.2057 249.55 90.3696 249.276 88.5686C249.002 86.7676 248.027 85.1483 246.562 84.0648L223.361 67.0134L223.996 66.1455L247.24 83.1651C248.081 83.7871 248.792 84.569 249.332 85.4661C249.871 86.3632 250.228 87.3578 250.382 88.3931C250.537 89.4283 250.485 90.4839 250.231 91.4992C249.977 92.5146 249.525 93.4699 248.901 94.3104Z" fill="#6E7DAB"/>
<path d="M210.194 133.568L108.583 58.8956C108.141 58.5711 107.768 58.1629 107.484 57.6941C107.201 57.2254 107.012 56.7054 106.93 56.1638C106.847 55.6222 106.872 55.0696 107.003 54.5377C107.134 54.0058 107.369 53.5048 107.694 53.0636L137.563 12.4303C137.887 11.9878 138.294 11.6135 138.763 11.3291C139.232 11.0447 139.752 10.8557 140.294 10.7731C140.836 10.6905 141.389 10.7158 141.921 10.8476C142.453 10.9795 142.954 11.2152 143.395 11.5413L245.006 86.2137C245.448 86.5372 245.82 86.9445 246.104 87.4123C246.387 87.8801 246.576 88.3993 246.658 88.94C246.741 89.4807 246.716 90.0324 246.585 90.5635C246.454 91.0946 246.22 91.5947 245.896 92.0351L216.026 132.679C215.702 133.122 215.295 133.496 214.826 133.78C214.357 134.065 213.837 134.254 213.295 134.336C212.753 134.419 212.2 134.393 211.668 134.262C211.136 134.13 210.635 133.894 210.194 133.568Z" fill="white"/>
<path d="M212.607 134.922C211.606 134.921 210.632 134.602 209.823 134.012L108.212 59.3289C107.712 58.9644 107.288 58.5043 106.966 57.9753C106.645 57.4463 106.431 56.8588 106.337 56.2467C106.244 55.6346 106.273 55.0101 106.422 54.4092C106.571 53.8082 106.838 53.2428 107.207 52.7455L137.076 12.1016C137.81 11.0895 138.915 10.4097 140.149 10.2112C141.383 10.0128 142.646 10.312 143.66 11.0432L245.271 85.7262C246.273 86.4674 246.943 87.5743 247.134 88.8063C247.23 89.4186 247.202 90.0439 247.053 90.6455C246.904 91.2471 246.636 91.8129 246.266 92.3097L216.396 132.954C215.655 133.956 214.548 134.625 213.316 134.816C213.082 134.867 212.846 134.902 212.607 134.922ZM210.49 133.133C211.252 133.69 212.201 133.927 213.135 133.792C214.069 133.658 214.913 133.163 215.486 132.414L245.366 91.7699C245.934 90.9965 246.172 90.029 246.027 89.0803C245.882 88.1315 245.367 87.2792 244.594 86.7106L142.982 12.0275C142.6 11.7448 142.165 11.5405 141.703 11.4263C141.242 11.3121 140.762 11.2903 140.292 11.3621C139.822 11.4339 139.37 11.5979 138.964 11.8447C138.557 12.0915 138.203 12.4162 137.923 12.8002L108.043 53.444C107.474 54.2168 107.234 55.1834 107.376 56.1325C107.446 56.6036 107.609 57.056 107.857 57.4631C108.104 57.8702 108.43 58.2239 108.815 58.5033L210.49 133.133Z" fill="#6E7DAB"/>
<path d="M128.026 41.8431L133.022 45.0184C132.603 45.6899 132.369 46.4605 132.345 47.2517C132.367 47.7749 132.514 48.2853 132.773 48.7401C133.033 49.1949 133.398 49.581 133.837 49.866C134.403 50.3392 135.121 50.5912 135.859 50.5752C136.139 50.5672 136.414 50.4965 136.663 50.3682C136.912 50.24 137.129 50.0576 137.298 49.8343C137.453 49.6138 137.558 49.3623 137.605 49.0973C137.653 48.8322 137.642 48.56 137.574 48.2995C137.162 47.2324 136.523 46.2679 135.7 45.4735C134.206 43.9417 133.09 42.0826 132.44 40.0438C132.258 39.3168 132.244 38.5581 132.398 37.8247C132.552 37.0914 132.87 36.4025 133.329 35.81C133.954 34.9732 134.812 34.3398 135.795 33.9895C136.928 33.6321 138.143 33.6284 139.278 33.9789C140.904 34.4336 142.42 35.2151 143.734 36.2757C145.475 37.3873 146.834 39.005 147.629 40.9117C147.878 41.7683 147.939 42.6688 147.808 43.5513C147.676 44.4337 147.355 45.2773 146.867 46.0239L141.934 42.8486C142.142 42.5367 142.284 42.1854 142.351 41.8166C142.418 41.4477 142.408 41.069 142.323 40.7039C142.238 40.3389 142.078 39.9952 141.855 39.6941C141.632 39.3931 141.349 39.141 141.024 38.9536C140.578 38.5717 140.013 38.3582 139.426 38.3503C139.217 38.3612 139.013 38.4192 138.83 38.52C138.647 38.6208 138.488 38.7618 138.367 38.9324C138.267 39.0693 138.202 39.2283 138.176 39.3959C138.15 39.5636 138.165 39.7349 138.219 39.8956C138.489 40.5914 138.912 41.2174 139.458 41.7267C140.869 43.2089 142.098 44.854 143.12 46.6272C143.675 47.6393 143.932 48.788 143.861 49.9401C143.763 50.984 143.379 51.9805 142.749 52.8191C142.002 53.8492 140.962 54.631 139.765 55.0629C138.524 55.5194 137.175 55.5968 135.891 55.2852C134.282 54.8733 132.778 54.1267 131.477 53.0942C128.714 51.0726 127.243 49.1357 126.915 47.294C126.608 45.4023 127.003 43.4636 128.026 41.8431Z" fill="#263238"/>
<path d="M146.687 51.3167C147.404 50.1048 148.381 49.067 149.548 48.278C150.714 47.489 152.041 46.9684 153.433 46.7538C154.825 46.5392 156.247 46.6359 157.597 47.0369C158.947 47.4379 160.191 48.1332 161.24 49.0729C163.943 51.0627 165.492 53.3172 165.887 55.8362C166.049 57.2093 165.928 58.6009 165.533 59.9258C165.138 61.2507 164.477 62.4811 163.59 63.5416C162.471 65.1991 160.968 66.5609 159.208 67.5108C157.706 68.2486 156.019 68.5248 154.361 68.3046C152.428 68.0082 150.605 67.217 149.068 66.0078C147.465 64.9105 146.133 63.4626 145.173 61.7741C144.39 60.2635 144.08 58.5521 144.284 56.8629C144.569 54.8311 145.4 52.9145 146.687 51.3167ZM151.683 55.0212C150.648 56.1949 150.053 57.6914 150 59.255C150.064 59.8316 150.247 60.3888 150.536 60.8919C150.825 61.3951 151.214 61.8335 151.68 62.1799C152.145 62.5263 152.677 62.7733 153.242 62.9056C153.807 63.0379 154.393 63.0526 154.964 62.9489C156.075 62.6843 157.292 61.6365 158.626 59.7736C159.605 58.6569 160.149 57.2257 160.161 55.741C160.108 55.1595 159.925 54.5974 159.627 54.0956C159.328 53.5938 158.921 53.1651 158.436 52.8409C157.992 52.495 157.477 52.2519 156.928 52.1293C156.379 52.0066 155.809 52.0075 155.26 52.1317C153.756 52.6418 152.478 53.6646 151.651 55.0212H151.683Z" fill="#263238"/>
<path d="M160.277 73.8184L172.206 57.582L180.557 63.7315C181.789 64.5643 182.888 65.5776 183.817 66.7375C184.438 67.5859 184.755 68.6187 184.717 69.6693C184.637 70.7483 184.274 71.7872 183.665 72.6811C183.055 73.575 182.221 74.2922 181.245 74.7604C180.38 75.1355 179.432 75.2813 178.493 75.1838C177.721 75.0824 176.968 74.8647 176.26 74.5381C176.625 75.0107 176.918 75.5351 177.128 76.094C177.243 76.5654 177.303 77.0484 177.308 77.5335C177.352 78.0406 177.352 78.5505 177.308 79.0576L176.249 85.5458L170.587 81.3862L171.55 74.4535C171.68 73.8215 171.68 73.1696 171.55 72.5377C171.372 72.0229 171.039 71.5757 170.597 71.257L170.153 70.9289L165.316 77.5123L160.277 73.8184ZM172.407 67.8488L174.524 69.4047C174.996 69.7055 175.496 69.9607 176.017 70.1668C176.388 70.3373 176.81 70.3674 177.202 70.2515C177.671 70.1027 178.071 69.7895 178.328 69.3694C178.584 68.9494 178.681 68.4507 178.599 67.9653C178.286 67.2139 177.736 66.5857 177.033 66.1765L174.831 64.5571L172.407 67.8488Z" fill="#263238"/>
<path d="M177.911 86.7736L189.84 70.5479L198.191 76.6868C199.421 77.5253 200.52 78.5419 201.451 79.7033C202.069 80.5532 202.386 81.585 202.351 82.6352C202.293 83.7906 201.879 84.8999 201.165 85.8105C200.591 86.6423 199.801 87.3012 198.879 87.7156C198.012 88.0858 197.065 88.2314 196.127 88.139C195.353 88.0383 194.599 87.8168 193.894 87.4828C194.255 87.9581 194.547 88.4818 194.762 89.0387C194.876 89.5138 194.936 90.0002 194.942 90.4887C194.985 90.9959 194.985 91.5057 194.942 92.0129L193.883 98.5011L188.21 94.3097L189.173 87.3875C189.304 86.7521 189.304 86.0966 189.173 85.4612C188.992 84.948 188.66 84.5016 188.22 84.1805L187.776 83.8629L182.939 90.4464L177.911 86.7736ZM190.083 80.8252L192.2 82.3811C192.671 82.6814 193.171 82.9332 193.693 83.1326C194.062 83.3115 194.485 83.3455 194.878 83.2279C195.281 83.1071 195.634 82.8581 195.884 82.5187C196.063 82.3021 196.192 82.0479 196.259 81.7749C196.327 81.5019 196.333 81.2171 196.275 80.9417C195.964 80.1868 195.414 79.5548 194.709 79.1423L192.507 77.5229L190.083 80.8252Z" fill="#263238"/>
<path d="M204.796 81.5459L210.363 85.6315L209.601 93.5168L216.904 90.4473L222.451 94.5223L209.21 99.317L204.214 106.112L199.186 102.418L204.182 95.6231L204.796 81.5459Z" fill="#263238"/>
<path d="M223.774 95.4961L228.59 99.0313L225.87 102.736L219.519 109.478L216.545 107.287L221.096 99.19L223.774 95.4961ZM214.936 107.869L219.424 111.171L216.545 115.151L212.057 111.849L214.936 107.869Z" fill="#263238"/>
<path d="M133.403 94.6698C133.816 95.5588 134.091 96.1939 134.398 96.9348C134.705 97.6757 134.97 98.3637 135.245 99.0517C135.795 100.47 136.303 101.909 136.727 103.349C137.631 106.235 138.38 109.168 138.971 112.134C139.288 113.616 139.532 115.119 139.775 116.622C140.019 118.125 140.177 119.659 140.294 121.194C140.568 124.291 140.635 127.403 140.495 130.508V131.038C140.484 131.377 140.434 131.715 140.347 132.043C139.799 134.139 138.889 136.124 137.658 137.907C136.7 139.314 135.639 140.648 134.483 141.897C132.426 144.145 130.2 146.233 127.825 148.142C125.539 149.994 123.2 151.709 120.808 153.307C118.414 154.912 115.941 156.395 113.399 157.752C112.551 158.207 111.569 158.346 110.628 158.144C109.687 157.941 108.849 157.411 108.264 156.647C107.678 155.884 107.384 154.937 107.432 153.976C107.481 153.015 107.87 152.102 108.53 151.402L108.614 151.307L114.097 145.39C115.907 143.4 117.685 141.421 119.389 139.42C121.012 137.517 122.531 135.528 123.941 133.461C124.549 132.577 125.087 131.646 125.55 130.678C125.849 130.146 126.037 129.559 126.1 128.952L125.941 130.498C125.729 128.042 125.475 125.587 125.02 123.089C124.565 120.591 124.057 118.135 123.401 115.68C122.745 113.224 122.046 110.737 121.284 108.271C120.882 107.053 120.448 105.847 120.035 104.651L119.379 102.883L118.765 101.274L118.606 100.862C117.885 98.9083 117.946 96.7523 118.775 94.8424C119.604 92.9325 121.137 91.4159 123.056 90.6085C124.976 89.801 127.132 89.7649 129.077 90.5076C131.022 91.2503 132.606 92.7146 133.498 94.5957L133.403 94.6698Z" fill="#FFBE9D"/>
<path d="M80.7877 34.1913C73.9395 40.7536 74.7969 72.8347 77.6123 103.36C80.4278 133.885 106.286 128.836 115.886 115.606C128.587 98.0148 114.298 71.681 116.352 61.3084C118.585 50.0361 120.257 37.2819 106.73 29.5554C92.039 21.1408 79.3059 27.4914 80.7877 34.1913Z" fill="#263238"/>
<path d="M75.9611 106.26H75.9081C75.7554 106.244 75.6152 106.168 75.518 106.049C75.4209 105.93 75.3747 105.778 75.3895 105.625C76.2468 97.1576 75.4636 86.1393 74.7121 75.4915C73.2938 55.4871 71.9495 36.5835 80.9358 33.641C81.008 33.6164 81.0844 33.6064 81.1606 33.6118C81.2367 33.6171 81.311 33.6376 81.3791 33.6722C81.4472 33.7067 81.5077 33.7545 81.5569 33.8128C81.6062 33.8711 81.6434 33.9386 81.6661 34.0115C81.713 34.1575 81.7004 34.3161 81.631 34.4528C81.5616 34.5895 81.4411 34.6934 81.2957 34.7418C73.1773 37.3985 74.5427 56.7255 75.8658 75.4174C76.6279 86.1076 77.4111 97.1576 76.5432 105.742C76.5275 105.885 76.4593 106.017 76.3518 106.113C76.2443 106.208 76.1051 106.261 75.9611 106.26Z" fill="#263238"/>
<path d="M88.6414 99.4224L86.027 106.831C85.1485 109.34 84.3229 111.848 83.5079 114.346C82.6929 116.844 81.9519 119.342 81.2745 121.755C80.5971 124.169 80.0256 126.656 79.6128 128.984V127.778C79.5618 129.089 79.7372 130.4 80.1314 131.652C80.3643 132.361 80.6395 133.091 80.9676 133.853C81.2957 134.615 81.7297 135.346 82.1742 136.118C83.1207 137.714 84.182 139.238 85.3496 140.68C85.9529 141.432 86.588 142.183 87.2548 142.913L89.1917 145.03L89.6151 145.485C90.2276 146.164 90.5916 147.03 90.6474 147.942C90.7033 148.854 90.4476 149.758 89.9224 150.506C89.3972 151.254 88.6335 151.801 87.7566 152.058C86.8796 152.315 85.9414 152.267 85.0955 151.921C84.397 151.624 83.8889 151.423 83.3173 151.159C82.7458 150.894 82.2589 150.64 81.6767 150.354C80.6112 149.79 79.5528 149.176 78.5014 148.513C76.3983 147.146 74.4405 145.568 72.6587 143.802C70.731 141.88 69.0783 139.7 67.7475 137.325C67.0472 136.023 66.4525 134.668 65.9693 133.271C65.4662 131.789 65.1117 130.261 64.9109 128.709C64.8953 128.533 64.8953 128.356 64.9109 128.18V127.503C65.3398 121.529 66.3537 115.613 67.9381 109.837C68.6578 107.033 69.5151 104.281 70.4042 101.55C71.2933 98.8191 72.2565 96.1942 73.4314 93.3999C74.2311 91.4413 75.7666 89.874 77.7085 89.0343C79.6503 88.1946 81.8439 88.1494 83.8188 88.9083C85.7936 89.6672 87.3924 91.1698 88.2722 93.0938C89.152 95.0178 89.2427 97.21 88.5249 99.2001L88.6414 99.4224Z" fill="#FFBE9D"/>
<path d="M85.2966 83.4932C76.829 85.0914 75.0614 88.5419 68.8483 101.36C70.7217 109.827 82.5129 117.236 82.5129 117.236C82.5129 117.236 99.1835 94.4056 85.2966 83.4932Z" fill="#6E7DAB"/>
<path d="M71.8755 99.4647C71.7379 103.963 72.1824 109.403 73.188 120.104C73.876 129.175 71.6109 146.417 74.4687 147.623H120.226C121.146 134.636 120.808 125.693 129.021 96.7022C129.506 95.1863 129.645 93.5812 129.428 92.0046C129.212 90.428 128.646 88.9197 127.771 87.5904C126.896 86.261 125.735 85.1441 124.373 84.3216C123.01 83.499 121.481 82.9917 119.897 82.8367C118.077 82.6568 116.161 82.498 114.182 82.4027C107.268 81.91 100.328 81.91 93.415 82.4027C91.1605 82.6144 88.8213 82.9002 86.5774 83.2071C82.621 83.79 78.9905 85.7309 76.3082 88.697C73.6259 91.6631 72.0588 95.4698 71.8755 99.4647Z" fill="#6E7DAB"/>
<path d="M92.7059 93.6008C92.473 94.4581 91.965 95.0614 91.6474 94.9555C91.3299 94.8497 91.1605 94.077 91.404 93.2197C91.6474 92.3624 92.1343 91.7697 92.5154 91.8755C92.8964 91.9813 92.9599 92.754 92.7059 93.6008Z" fill="white"/>
<path d="M91.0334 100.661C90.917 101.539 90.5148 102.216 90.1338 102.164C89.7527 102.111 89.5198 101.37 89.6257 100.491C89.7315 99.6127 90.1337 98.9353 90.5254 98.9883C90.917 99.0412 91.1393 99.7927 91.0334 100.661Z" fill="white"/>
<path d="M109.779 59.7949C109.578 66.7065 108.72 78 113.039 82.456C113.039 82.456 106.688 81.514 93.2668 89.865C89.3717 84.2765 92.2613 82.456 92.2613 82.456C96.0929 81.7574 99.4376 77.8624 97.3418 73.0253L109.779 59.7949Z" fill="#FFBE9D"/>
<path d="M96.0928 88.1505C100.517 88.775 101.904 95.4643 101.904 95.4643C101.904 95.4643 112.488 87.9388 115.907 82.6361C114.57 81.8829 113.273 81.0597 112.022 80.1699C112.022 80.1699 98.6754 85.5891 96.0928 88.1505Z" fill="white"/>
<path d="M91.8802 87.43C91.8802 87.43 88.3662 88.192 86.588 93.082C85.5295 83.3338 90.1973 82.4342 90.1973 82.4342C91.4159 81.7599 92.8396 81.5565 94.1982 81.8626C93.2245 82.376 92.4603 83.2129 92.0372 84.2291C91.6141 85.2453 91.5586 86.3772 91.8802 87.43Z" fill="white"/>
<path opacity="0.2" d="M101.999 68.9081L100.253 69.9665L97.3418 73.0571C98.0945 74.6339 98.1971 76.4435 97.6276 78.0953C100.941 76.804 104.285 74.2108 105.174 71.406V71.3425C105.313 70.9248 105.318 70.4741 105.189 70.0533C105.06 69.6325 104.803 69.2624 104.454 68.9945C104.104 68.7267 103.68 68.5744 103.24 68.5589C102.8 68.5434 102.366 68.6655 101.999 68.9081Z" fill="black"/>
<path d="M107.524 43.5905C110.7 54.0901 112.287 58.4085 109.218 65.8916C104.613 77.0793 91.4251 79.3232 85.2543 70.1254C79.7081 61.8484 75.4107 46.0566 83.6243 37.7585C91.8379 29.4604 104.349 33.0802 107.524 43.5905Z" fill="#FFBE9D"/>
<path d="M93.235 53.0949C93.5419 53.9629 93.3514 54.8519 92.8116 55.0848C92.2718 55.3177 91.5838 54.799 91.2769 53.9311C90.9699 53.0632 91.1604 52.1635 91.7002 51.9307C92.2401 51.6978 92.928 52.2164 93.235 53.0949Z" fill="#263238"/>
<path d="M83.1797 57.6147C83.4867 58.4826 83.2962 59.3823 82.7564 59.6151C82.2165 59.848 81.5391 59.3293 81.2322 58.4508C80.9252 57.5723 81.1157 56.6938 81.6556 56.461C82.1954 56.2281 82.8516 56.7468 83.1797 57.6147Z" fill="#263238"/>
<path d="M81.8884 56.4082L79.6974 56.6516C79.6974 56.6516 81.2851 57.8477 81.8884 56.4082Z" fill="#263238"/>
<path d="M86.1222 57.1172C86.0837 59.4253 85.753 61.7192 85.1378 63.9441C86.6091 64.5474 88.3132 63.2561 88.3132 63.2561L86.1222 57.1172Z" fill="#A02724"/>
<path d="M93.0445 63.3824C93.5433 63.2842 94.0498 63.231 94.5581 63.2236C94.5924 63.2236 94.6263 63.2305 94.6578 63.2439C94.6893 63.2574 94.7178 63.277 94.7416 63.3017C94.7653 63.3265 94.7838 63.3557 94.7959 63.3878C94.808 63.4198 94.8135 63.454 94.8121 63.4882C94.8069 63.5613 94.7748 63.6299 94.7221 63.6807C94.6693 63.7315 94.5996 63.761 94.5263 63.7634C93.3795 63.7783 92.2506 64.0503 91.2229 64.5596C90.1952 65.0689 89.2949 65.8023 88.5884 66.7059C88.5697 66.7337 88.5456 66.7575 88.5176 66.776C88.4896 66.7945 88.4583 66.8073 88.4254 66.8137C88.3925 66.8201 88.3586 66.8199 88.3257 66.8132C88.2929 66.8065 88.2616 66.7934 88.2338 66.7747C88.206 66.7559 88.1822 66.7319 88.1637 66.7039C88.1452 66.6759 88.1324 66.6446 88.126 66.6116C88.1196 66.5787 88.1198 66.5449 88.1265 66.512C88.1332 66.4791 88.1463 66.4479 88.1651 66.4201C89.3578 64.8367 91.0972 63.7538 93.0445 63.3824Z" fill="#263238"/>
<path d="M112.975 50.4694C113.038 51.5151 112.882 52.5625 112.517 53.5447C112.153 54.5269 111.588 55.4224 110.858 56.1743C108.964 57.9419 106.624 55.9097 106.021 52.999C105.471 50.3529 105.799 46.2568 108.254 45.6535C110.71 45.0502 112.901 47.6434 112.975 50.4694Z" fill="#FFB573"/>
<path d="M99.0565 33.2389C91.1182 41.7699 101.766 61.9648 100.676 76.4865C99.3529 94.2894 110.266 96.9037 117.135 82.6466C112.023 69.1621 117.304 48.9672 115.928 41.8863C114.33 33.7681 104.698 29.2804 99.0565 33.2389Z" fill="#263238"/>
<path d="M88.7789 45.9928C88.8487 45.9833 88.9197 45.9888 88.9872 46.0089C89.0547 46.029 89.1172 46.0632 89.1705 46.1092C89.649 46.553 90.2305 46.8706 90.8625 47.0332C91.4946 47.1958 92.1572 47.1984 92.7904 47.0406C92.855 47.0197 92.9232 47.0122 92.9908 47.0186C93.0584 47.0251 93.124 47.0452 93.1835 47.078C93.243 47.1107 93.2951 47.1553 93.3368 47.2089C93.3784 47.2625 93.4086 47.3241 93.4255 47.3899C93.4571 47.5313 93.4357 47.6794 93.3655 47.8062C93.2953 47.9329 93.1811 48.0296 93.0445 48.0779C92.2452 48.2892 91.4057 48.2962 90.603 48.0983C89.8003 47.9004 89.0602 47.504 88.4508 46.9453C88.3767 46.871 88.325 46.7774 88.3015 46.6751C88.278 46.5728 88.2836 46.466 88.3178 46.3667C88.352 46.2675 88.4133 46.1799 88.4948 46.1138C88.5763 46.0476 88.6748 46.0057 88.7789 45.9928Z" fill="#263238"/>
<path d="M78.332 54.6932C78.27 54.7191 78.2035 54.7325 78.1362 54.7325C78.069 54.7325 78.0024 54.7191 77.9404 54.6932C77.8108 54.637 77.7078 54.5332 77.6526 54.4032C77.5974 54.2731 77.5944 54.1269 77.6441 53.9946C77.9161 53.1716 78.3734 52.422 78.9808 51.8036C79.5882 51.1852 80.3295 50.7145 81.1475 50.4277C81.2137 50.4089 81.2831 50.4043 81.3512 50.4143C81.4193 50.4243 81.4845 50.4486 81.5425 50.4856C81.6005 50.5226 81.65 50.5715 81.6877 50.629C81.7255 50.6865 81.7506 50.7514 81.7614 50.8193C81.7937 50.9609 81.7699 51.1095 81.6949 51.2339C81.6199 51.3583 81.4995 51.4487 81.3592 51.4862C80.7165 51.7252 80.1361 52.1064 79.6614 52.6013C79.1867 53.0961 78.83 53.6918 78.6178 54.3439C78.597 54.4188 78.5608 54.4885 78.5116 54.5486C78.4624 54.6087 78.4013 54.658 78.332 54.6932Z" fill="#263238"/>
<path d="M91.9543 51.8779L89.7633 52.132C89.7633 52.132 91.351 53.328 91.9543 51.8779Z" fill="#263238"/>
<path d="M120.31 82.9424C127.719 84.0961 130.736 86.3611 136.822 101.327C134.059 106.905 121.697 121.035 121.697 121.035C121.697 121.035 110.996 93.8442 120.31 82.9424Z" fill="#6E7DAB"/>
<path d="M127.973 372.679C132.398 365.619 132.599 363.671 135.478 359.977C137.933 356.802 137.944 357.045 140.961 354.315C142.961 352.505 141.31 349.912 139.13 348.811C137.425 347.964 135.573 347.213 133.52 346.08L125.666 353.203C127.031 357.257 126.269 365.693 123.284 371.292C121.157 375.282 126.206 375.494 127.973 372.679Z" fill="#263238"/>
<path d="M74.4687 147.677C74.4687 147.677 73.4102 204.737 72.1084 243.666C71.8632 251.47 73.558 259.212 77.0407 266.2C90.8006 293.825 125.094 353.87 125.094 353.87C126.47 355.077 133.033 348.006 133.562 346.059C133.562 346.059 114.912 270.18 98.3791 253.181C120.353 192.374 114.383 147.677 114.383 147.677H74.4687Z" fill="#263238"/>
<g opacity="0.2">
<path opacity="0.2" d="M114.531 149.349L92.9705 150.873C92.9705 150.873 96.4845 213.543 99.9139 248.683C117.675 196.978 115.314 157.816 114.531 149.349Z" fill="black"/>
<path opacity="0.2" d="M100.644 255.901C102.571 273.895 104.561 297.371 105.46 319.026C112.531 331.728 118.871 342.915 122.332 349.001C124.015 341.455 125.814 332.447 127.254 322.9C120.882 300.821 110.562 269.058 100.644 255.901Z" fill="black"/>
</g>
<path d="M120.882 350.906C121.654 351.88 122.999 353.616 123.994 354.949C124.157 355.147 124.387 355.278 124.64 355.319C124.893 355.36 125.152 355.308 125.37 355.172C128.701 352.555 131.784 349.635 134.578 346.45C134.713 346.295 134.797 346.102 134.818 345.897C134.839 345.692 134.796 345.486 134.695 345.307L132.451 341.317C132.378 341.191 132.279 341.082 132.159 340.999C132.04 340.915 131.904 340.859 131.761 340.833C131.618 340.808 131.471 340.815 131.33 340.852C131.189 340.89 131.059 340.958 130.948 341.052L121.009 349.52C120.909 349.602 120.827 349.704 120.767 349.818C120.707 349.933 120.67 350.058 120.658 350.187C120.646 350.315 120.66 350.445 120.698 350.569C120.737 350.692 120.799 350.807 120.882 350.906Z" fill="#6E7DAB"/>
<path opacity="0.3" d="M120.882 350.906C121.654 351.88 122.999 353.616 123.994 354.949C124.157 355.147 124.387 355.278 124.64 355.319C124.893 355.36 125.152 355.308 125.37 355.172C128.701 352.555 131.784 349.635 134.578 346.45C134.713 346.295 134.797 346.102 134.818 345.897C134.839 345.692 134.796 345.486 134.695 345.307L132.451 341.317C132.378 341.191 132.279 341.082 132.159 340.999C132.04 340.915 131.904 340.859 131.761 340.833C131.618 340.808 131.471 340.815 131.33 340.852C131.189 340.89 131.059 340.958 130.948 341.052L121.009 349.52C120.909 349.602 120.827 349.704 120.767 349.818C120.707 349.933 120.67 350.058 120.658 350.187C120.646 350.315 120.66 350.445 120.698 350.569C120.737 350.692 120.799 350.807 120.882 350.906Z" fill="white"/>
<path d="M99.4799 380.33C107.948 380.33 111.186 380.193 115.971 380.034C120.056 379.896 120.988 380.404 124.269 380.33C127.01 380.267 127.148 377.653 126.576 374.636C126.29 373.122 125.804 371.27 125.444 368.825H112.573C110.52 372.159 102.983 374.668 98.1463 375.303C93.542 375.917 96.1035 380.33 99.4799 380.33Z" fill="#263238"/>
<path d="M86.4292 147.677C86.4292 147.677 99.7339 220.953 104.613 254.134C109.736 289.063 116.045 345.625 112.573 368.795C114.457 369.948 121.422 370.022 125.444 368.795C125.444 368.795 143.173 292.725 128.799 255.68C138.463 174.053 124.163 169.799 120.215 147.646L86.4292 147.677Z" fill="#263238"/>
<path d="M112.044 363.999C111.861 365.605 111.567 367.197 111.165 368.762C111.123 368.886 111.11 369.018 111.124 369.147C111.139 369.277 111.183 369.402 111.251 369.513C111.32 369.625 111.413 369.719 111.522 369.791C111.632 369.862 111.755 369.908 111.885 369.926C116.531 370.689 123.443 369.588 125.645 369.207C125.856 369.173 126.052 369.076 126.207 368.928C126.362 368.781 126.468 368.59 126.513 368.381L127.624 363.936C127.665 363.799 127.672 363.654 127.645 363.513C127.618 363.373 127.559 363.24 127.471 363.128C127.383 363.015 127.269 362.925 127.139 362.865C127.01 362.804 126.867 362.776 126.724 362.782L113.102 363.047C112.839 363.045 112.584 363.142 112.389 363.318C112.193 363.494 112.07 363.737 112.044 363.999Z" fill="#6E7DAB"/>
<path opacity="0.3" d="M112.044 363.999C111.861 365.605 111.567 367.197 111.165 368.762C111.123 368.886 111.11 369.018 111.124 369.147C111.139 369.277 111.183 369.402 111.251 369.513C111.32 369.625 111.413 369.719 111.522 369.791C111.632 369.862 111.755 369.908 111.885 369.926C116.531 370.689 123.443 369.588 125.645 369.207C125.856 369.173 126.052 369.076 126.207 368.928C126.362 368.781 126.468 368.59 126.513 368.381L127.624 363.936C127.665 363.799 127.672 363.654 127.645 363.513C127.618 363.373 127.559 363.24 127.471 363.128C127.383 363.015 127.269 362.925 127.139 362.865C127.01 362.804 126.867 362.776 126.724 362.782L113.102 363.047C112.839 363.045 112.584 363.142 112.389 363.318C112.193 363.494 112.07 363.737 112.044 363.999Z" fill="white"/>
<path d="M98.8871 31.6298C107.895 44.6697 83.0103 39.9808 77.5911 52.2375C77.6122 39.9808 78.6283 30.5184 98.8871 31.6298Z" fill="#263238"/>
<path d="M120.226 147.677C107.09 150.45 79.708 156.822 74.4792 147.677C77.8875 145.338 112.626 145.761 120.226 147.677Z" fill="#6E7DAB"/>
<path d="M88.8319 154.853C87.964 154.853 87.149 154.853 86.4081 154.789C77.8558 154.345 75.4108 151.72 75.3155 151.614C75.2879 151.588 75.2659 151.557 75.2509 151.522C75.2359 151.488 75.2281 151.45 75.2281 151.413C75.2281 151.375 75.2359 151.338 75.2509 151.303C75.2659 151.268 75.2879 151.237 75.3155 151.212C75.369 151.159 75.4413 151.129 75.5166 151.129C75.5919 151.129 75.6642 151.159 75.7177 151.212C75.7177 151.212 78.1521 153.762 86.4186 154.207C94.6851 154.651 113.515 152.323 119.231 149.656C119.301 149.625 119.381 149.623 119.453 149.648C119.526 149.674 119.586 149.725 119.622 149.793C119.652 149.865 119.653 149.946 119.625 150.018C119.598 150.091 119.544 150.15 119.474 150.185C114.108 152.715 98.1145 154.853 88.8319 154.853Z" fill="white"/>
<path d="M85.6988 175.534C85.4141 175.524 85.1398 175.424 84.9156 175.248C80.6818 172.263 84.6933 157.668 86.9478 153.688C86.9792 153.634 87.0268 153.592 87.0837 153.566C87.1407 153.541 87.2041 153.535 87.265 153.547C87.3259 153.56 87.3813 153.592 87.4231 153.638C87.465 153.684 87.4912 153.742 87.4982 153.804C87.657 155.847 89.0118 173.787 86.2069 175.396C86.053 175.487 85.8775 175.534 85.6988 175.534ZM86.9901 154.884C84.7674 159.742 81.6979 172.316 85.2437 174.772C85.6036 175.026 85.8047 174.962 85.9211 174.899C87.7205 173.862 87.5617 162.737 86.9901 154.884Z" fill="white"/>
<path d="M90.1761 172.073C89.9544 172.066 89.7357 172.02 89.5304 171.936C84.6404 170.009 85.6988 157.996 86.9266 153.752C86.9451 153.694 86.98 153.644 87.0271 153.606C87.0741 153.568 87.1312 153.545 87.1912 153.54C87.2521 153.541 87.3114 153.56 87.3621 153.593C87.4128 153.627 87.4527 153.675 87.477 153.731C88.0592 155.361 93.0974 169.671 90.9276 171.777C90.7261 171.971 90.4559 172.078 90.1761 172.073ZM87.2442 154.821C86.1116 159.742 85.6776 169.798 89.7421 171.396C90.2713 171.607 90.4618 171.396 90.5254 171.396C91.9013 170.03 89.4246 161.065 87.2442 154.821Z" fill="white"/>
<path d="M82.5341 164.982C82.4651 164.982 82.3982 164.958 82.3456 164.914C82.2931 164.869 82.2585 164.807 82.2483 164.738C81.7402 161.489 84.8733 154.281 87.1172 153.561C87.1525 153.548 87.1902 153.542 87.2279 153.544C87.2656 153.546 87.3025 153.556 87.3362 153.573C87.37 153.59 87.3999 153.614 87.4241 153.642C87.4483 153.671 87.4664 153.705 87.477 153.741C87.5009 153.814 87.4955 153.894 87.4619 153.963C87.4284 154.032 87.3693 154.085 87.2971 154.112C85.3284 154.736 82.3647 161.732 82.8199 164.696C82.8291 164.771 82.809 164.848 82.7637 164.909C82.7184 164.97 82.6513 165.011 82.5764 165.024L82.5341 164.982Z" fill="white"/>
</svg>
