<svg width="22" height="25" viewBox="0 0 22 25" fill="none" xmlns="http://www.w3.org/2000/svg">
<path fill-rule="evenodd" clip-rule="evenodd" d="M21.875 7.03125V21.875C21.875 22.7038 21.5458 23.4987 20.9597 24.0847C20.3737 24.6708 19.5788 25 18.75 25H17.1875V23.4375H18.75C19.1644 23.4375 19.5618 23.2729 19.8549 22.9799C20.1479 22.6868 20.3125 22.2894 20.3125 21.875V7.03125H17.1875C16.5659 7.03125 15.9698 6.78432 15.5302 6.34478C15.0907 5.90524 14.8438 5.3091 14.8438 4.6875V1.5625H6.25C5.8356 1.5625 5.43817 1.72712 5.14515 2.02015C4.85212 2.31317 4.6875 2.7106 4.6875 3.125V17.1875H3.125V3.125C3.125 2.2962 3.45424 1.50134 4.04029 0.915291C4.62634 0.32924 5.4212 0 6.25 0L14.8438 0L21.875 7.03125ZM2.5 18.5156H0V24.7641H1.23594V22.6672H2.49062C2.93906 22.6672 3.32031 22.5781 3.63437 22.3969C3.95156 22.2141 4.19375 21.9672 4.35781 21.6562C4.5281 21.33 4.61455 20.9664 4.60938 20.5984C4.60938 20.2078 4.52656 19.8547 4.3625 19.5406C4.19931 19.2284 3.94982 18.9697 3.64375 18.7953C3.33125 18.6078 2.95156 18.5156 2.5 18.5156ZM3.35156 20.5984C3.3572 20.8043 3.31156 21.0083 3.21875 21.1922C3.13549 21.3523 3.00589 21.4835 2.84687 21.5688C2.66498 21.6587 2.46379 21.7027 2.26094 21.6969H1.23125V19.5H2.2625C2.60312 19.5 2.87031 19.5938 3.0625 19.7828C3.25469 19.9734 3.35156 20.2453 3.35156 20.5984ZM5.25313 18.5156V24.7641H7.53438C8.16094 24.7641 8.68125 24.6391 9.09375 24.3938C9.51118 24.144 9.83715 23.7665 10.0234 23.3172C10.2266 22.8484 10.3297 22.2828 10.3297 21.6234C10.3297 20.9672 10.2281 20.4078 10.0234 19.9438C9.83935 19.4996 9.5165 19.1268 9.10313 18.8812C8.69063 18.6375 8.16719 18.5156 7.53281 18.5156H5.25313ZM6.48906 19.5234H7.36875C7.75625 19.5234 8.07187 19.6016 8.32031 19.7609C8.57819 19.9296 8.77274 20.1791 8.87344 20.4703C8.99687 20.7844 9.05781 21.1766 9.05781 21.6469C9.06266 21.9585 9.02694 22.2695 8.95156 22.5719C8.8959 22.8104 8.79164 23.0349 8.64531 23.2313C8.50936 23.4065 8.32925 23.5424 8.12344 23.625C7.88229 23.7152 7.62616 23.7587 7.36875 23.7531H6.48906V19.5234ZM12.3375 22.2781V24.7641H11.1031V18.5156H15.0844V19.5359H12.3375V21.2812H14.8469V22.2781H12.3375Z" fill="black"/>
</svg>
