<?xml version="1.0" encoding="utf-8"?>
<!-- Generator: Adobe Illustrator 27.3.1, SVG Export Plug-In . SVG Version: 6.00 Build 0)  -->
<svg version="1.1" id="Layer_1" xmlns="http://www.w3.org/2000/svg" xmlns:xlink="http://www.w3.org/1999/xlink" x="0px" y="0px"
	 viewBox="0 0 30 30" style="enable-background:new 0 0 30 30;" xml:space="preserve">
<path d="M26.7,13.1c0.3-0.3,0.4-0.9,0-1.2c-0.1-0.1-0.3-0.2-0.5-0.3l-6.8-1c-0.3,0-0.5-0.2-0.7-0.5l-3-6.2c-0.2-0.4-0.7-0.6-1.2-0.4
	c-0.2,0.1-0.3,0.2-0.4,0.4l-3,6.2c-0.1,0.3-0.4,0.4-0.7,0.5l-6.8,1c-0.5,0.1-0.8,0.5-0.7,1c0,0.2,0.1,0.4,0.3,0.5l4.9,4.8
	c0.2,0.2,0.3,0.5,0.3,0.8l-1.2,6.8c-0.1,0.5,0.2,0.9,0.7,1c0.2,0,0.4,0,0.5-0.1l6.1-3.2c0.3-0.1,0.6-0.1,0.8,0l6.1,3.2
	c0.4,0.2,1,0.1,1.2-0.4c0.1-0.2,0.1-0.4,0.1-0.5l-1.2-6.8c0-0.3,0-0.6,0.3-0.8L26.7,13.1z"/>
</svg>
