<svg height="512" viewBox="0 0 32 32" width="512" xmlns="http://www.w3.org/2000/svg"><g id="Icon_v1" data-name="Icon v1"><path d="m12 27h-6a1 1 0 0 1 -1-1v-17a1 1 0 0 1 1-1h1.35a3.5 3.5 0 0 0 3.15 2h5a3.5 3.5 0 0 0 3.15-2h1.35a1 1 0 0 1 1 1v2a1 1 0 0 0 2 0v-2a3 3 0 0 0 -3-3h-1a3.5 3.5 0 0 0 -3.5-3h-5a3.5 3.5 0 0 0 -3.45 3h-1.05a3 3 0 0 0 -3 3v17a3 3 0 0 0 3 3h6a1 1 0 0 0 0-2zm-1.5-22h5a1.5 1.5 0 0 1 0 3h-5a1.5 1.5 0 0 1 0-3z"/><path d="m19 13a1 1 0 0 0 -1-1h-10a1 1 0 0 0 0 2h10a1 1 0 0 0 1-1z"/><path d="m8 16a1 1 0 0 0 0 2h8a1 1 0 0 0 0-2z"/><path d="m14 20h-6a1 1 0 0 0 0 2h6a1 1 0 0 0 0-2z"/><path d="m22 21a3.5 3.5 0 1 0 -3.5-3.5 3.5 3.5 0 0 0 3.5 3.5zm0-5a1.5 1.5 0 1 1 -1.5 1.5 1.5 1.5 0 0 1 1.5-1.5z"/><path d="m24.06 22h-4.12a5 5 0 0 0 -4.94 4.94 2.06 2.06 0 0 0 2.06 2.06h2.44a1 1 0 0 0 0-2l-2.5-.06a2.94 2.94 0 0 1 2.94-2.94h4.12a2.87 2.87 0 0 1 2.88 3h-4.44a1 1 0 0 0 0 2h4.44a2.06 2.06 0 0 0 2.06-2.06 5 5 0 0 0 -4.94-4.94z"/></g></svg>