<svg width="22" height="26" viewBox="0 0 22 26" fill="none" xmlns="http://www.w3.org/2000/svg">
<path fill-rule="evenodd" clip-rule="evenodd" d="M21.875 7.03125V21.875C21.875 22.7038 21.5458 23.4987 20.9597 24.0847C20.3737 24.6708 19.5788 25 18.75 25H17.1875V23.4375H18.75C19.1644 23.4375 19.5618 23.2729 19.8549 22.9799C20.1479 22.6868 20.3125 22.2894 20.3125 21.875V7.03125H17.1875C16.5659 7.03125 15.9698 6.78432 15.5302 6.34478C15.0907 5.90524 14.8438 5.3091 14.8438 4.6875V1.5625H6.25C5.8356 1.5625 5.43817 1.72712 5.14515 2.02015C4.85212 2.31317 4.6875 2.7106 4.6875 3.125V17.1875H3.125V3.125C3.125 2.2962 3.45424 1.50134 4.04029 0.915291C4.62634 0.32924 5.4212 0 6.25 0L14.8438 0L21.875 7.03125ZM10.1125 23.8906C10.0088 23.6706 9.94986 23.4321 9.93906 23.1891H11.1344C11.1559 23.3109 11.2022 23.4271 11.2705 23.5303C11.3388 23.6335 11.4275 23.7216 11.5312 23.7891C11.6406 23.8656 11.7719 23.925 11.9219 23.9672C12.0703 24.0109 12.2375 24.0312 12.4203 24.0312C12.6766 24.0312 12.8922 23.9953 13.0656 23.9219C13.225 23.8623 13.3635 23.7575 13.4641 23.6203C13.5534 23.4863 13.5997 23.3282 13.5969 23.1672C13.6013 23.0693 13.5818 22.9717 13.5402 22.883C13.4986 22.7943 13.436 22.717 13.3578 22.6578C13.2 22.5328 12.9594 22.4328 12.6359 22.3562L11.6687 22.1328C11.3711 22.0698 11.0863 21.9568 10.8266 21.7984C10.5975 21.6576 10.4086 21.4601 10.2781 21.225C10.1452 20.973 10.0791 20.6911 10.0859 20.4062C10.0859 20.025 10.1844 19.6922 10.3828 19.4078C10.5813 19.125 10.8562 18.9047 11.2063 18.7484C11.5578 18.5922 11.9625 18.5156 12.4203 18.5156C12.8969 18.5156 13.3016 18.5938 13.6391 18.7531C13.9766 18.9125 14.2375 19.1266 14.4203 19.3937C14.6078 19.6594 14.7109 19.9547 14.7328 20.2781H13.5609C13.5342 20.1298 13.4696 19.991 13.3734 19.875C13.2702 19.7502 13.1376 19.653 12.9875 19.5922C12.8046 19.5177 12.6084 19.4815 12.4109 19.4859C12.0719 19.4859 11.8047 19.5641 11.6094 19.7234C11.5178 19.7939 11.4441 19.885 11.3941 19.9892C11.3442 20.0934 11.3194 20.2079 11.3219 20.3234C11.3219 20.5125 11.3969 20.6672 11.5453 20.7922C11.7324 20.9307 11.949 21.0243 12.1781 21.0656L13.1469 21.2891C13.4859 21.3672 13.7812 21.4766 14.0312 21.6188C14.2723 21.7505 14.4744 21.9434 14.6172 22.1781C14.7578 22.4094 14.8281 22.7016 14.8281 23.0531C14.8281 23.4391 14.7297 23.7812 14.5344 24.0781C14.3264 24.3839 14.0337 24.6222 13.6922 24.7641C13.3266 24.9281 12.8797 25.0109 12.3516 25.0109C11.9547 25.0109 11.6078 24.9641 11.3125 24.8703C11.0404 24.7887 10.7867 24.6549 10.5656 24.4766C10.3749 24.3155 10.2204 24.1158 10.1125 23.8906ZM5.51094 18.6438H4.11562L2.82812 20.8906H2.77188L1.47187 18.6438H0.01875L1.93594 21.7422L0 24.8922H1.34531L2.67812 22.6812H2.73281L4.06094 24.8922H5.47969L3.52031 21.7812L5.51094 18.6438ZM9.77188 23.8391H7.12031V18.6438H5.88594V24.8938H9.77188V23.8391Z" fill="black"/>
</svg>
