<svg id="eA0Qekw4bnV1" xmlns="http://www.w3.org/2000/svg" xmlns:xlink="http://www.w3.org/1999/xlink" viewBox="0 0 24 24" shape-rendering="geometricPrecision" text-rendering="geometricPrecision" width="24" height="24" style="background-color:transparent"><defs><linearGradient id="eA0Qekw4bnV3-stroke" x1="1.6813" y1="12" x2="22.1187" y2="12" spreadMethod="pad" gradientUnits="userSpaceOnUse" gradientTransform="translate(0 0)"><stop id="eA0Qekw4bnV3-stroke-0" offset="0%" stop-color="#158cff"/><stop id="eA0Qekw4bnV3-stroke-1" offset="62.01%" stop-color="#a100ff"/></linearGradient><linearGradient id="eA0Qekw4bnV4-stroke" x1="-9.4226" y1="-0.0003" x2="9.5165" y2="-0.0003" spreadMethod="pad" gradientUnits="userSpaceOnUse" gradientTransform="translate(0 0)"><stop id="eA0Qekw4bnV4-stroke-0" offset="0%" stop-color="#158cff"/><stop id="eA0Qekw4bnV4-stroke-1" offset="62.01%" stop-color="#a100ff"/></linearGradient><linearGradient id="eA0Qekw4bnV5-stroke" x1="-7.0547" y1="-0.0003" x2="7.1486" y2="-0.0003" spreadMethod="pad" gradientUnits="userSpaceOnUse" gradientTransform="translate(0 0)"><stop id="eA0Qekw4bnV5-stroke-0" offset="0%" stop-color="#158cff"/><stop id="eA0Qekw4bnV5-stroke-1" offset="62.01%" stop-color="#a100ff"/></linearGradient><linearGradient id="eA0Qekw4bnV6-stroke" x1="-3.9294" y1="-0.0003" x2="4.0233" y2="-0.0003" spreadMethod="pad" gradientUnits="userSpaceOnUse" gradientTransform="translate(0 0)"><stop id="eA0Qekw4bnV6-stroke-0" offset="0%" stop-color="#158cff"/><stop id="eA0Qekw4bnV6-stroke-1" offset="62.01%" stop-color="#a100ff"/></linearGradient></defs><rect width="24" height="24" rx="0" ry="0" fill="#fff" fill-opacity="0"/><path d="M19.6,21.6h-15.4c-1.1,0-1.9-.9-1.9-1.9v-15.4c0-1.1.9-1.9,1.9-1.9h15.3c1.1,0,1.9.9,1.9,1.9v15.3c.1,1.1-.8,2-1.8,2Z" fill="none" stroke="url(#eA0Qekw4bnV3-stroke)" stroke-width="1.2153" stroke-miterlimit="10"/><circle r="8.9" transform="translate(11.9 11.9)" fill="none" stroke="url(#eA0Qekw4bnV4-stroke)" stroke-width="1.2089" stroke-miterlimit="10"/><circle r="6.2" transform="translate(11.9 11.9)" fill="none" stroke="url(#eA0Qekw4bnV5-stroke)" stroke-width="1.8229" stroke-miterlimit="10"/><circle r="3.1" transform="translate(11.9 11.9)" fill="none" stroke="url(#eA0Qekw4bnV6-stroke)" stroke-width="1.8229" stroke-miterlimit="10"/></svg>
