<svg id="eOBfF34R0mj1" xmlns="http://www.w3.org/2000/svg" xmlns:xlink="http://www.w3.org/1999/xlink" viewBox="0 0 24 24" shape-rendering="geometricPrecision" text-rendering="geometricPrecision" width="24" height="24" style="background-color:transparent"><defs><linearGradient id="eOBfF34R0mj3-fill" x1="1.4772" y1="12" x2="22.5228" y2="12" spreadMethod="pad" gradientUnits="userSpaceOnUse" gradientTransform="translate(0 0)"><stop id="eOBfF34R0mj3-fill-0" offset="0%" stop-color="#158cff"/><stop id="eOBfF34R0mj3-fill-1" offset="62.01%" stop-color="#a100ff"/></linearGradient></defs><rect width="24" height="24" rx="0" ry="0" opacity="0" fill="#fff"/><path d="M3.8,18.5c0-.3.2-.5.5-.5h7.4c.3,0,.5.2.5.5s-.2.5-.5.5h-7.4c-.3,0-.5-.2-.5-.5Zm0,2.8h10.2c1.3,0,2.3-1,2.3-2.3v-1.2c-.3.2-.7.3-1.1.4v.8c0,.7-.5,1.2-1.2,1.2h-10.2c-.7,0-1.2-.5-1.2-1.2v-11.1h1.9c1.3,0,2.3-1,2.3-2.3v-1.8h7.2c.7,0,1.2.5,1.2,1.2v1.2c.4.1.7.2,1.1.4v-1.6c0-1.3-1-2.3-2.3-2.3h-7.6c-.1,0-.3,0-.4.1-.1,0-.2.1-.3.2L1.8,6.8c-.1.1-.2.2-.2.3s-.1.3-.1.4v11.5c0,1.2,1,2.3,2.3,2.3ZM9.1,8.2c.2-.1.3-.2.4-.3.3-.3.6-.5.9-.7h-2c-.3,0-.5.2-.5.5s.2.5.5.5h.7ZM4.4,16.9h5.5c-.2-.1-.3-.2-.4-.4-.3-.2-.5-.5-.7-.7h-4.4c-.3,0-.5.2-.5.5-.1.3.2.6.5.6Zm-.6-2.7c0,.3.2.5.5.5h3.9c-.2-.3-.3-.7-.4-1.1h-3.4c-.3,0-.6.3-.6.6v0Zm.6-1.7h3.3c0-.1,0-.2,0-.4s0-.5,0-.7h-3.3c-.3,0-.5.2-.5.5s.2.6.5.6ZM3.8,9.8c0,.3.2.5.5.5h3.6c.1-.3.3-.7.5-1h-4c-.3,0-.6.2-.6.5Zm10-2.6c1.3,0,2.6.5,3.5,1.5c1.8,1.8,1.9,4.6.5,6.6l.5.5.2-.2l3.7,3.7c.4.4.4,1,0,1.3-.2.2-.4.3-.7.3-.2,0-.5-.1-.7-.3L17,16.9l.2-.2-.5-.5c-.9.7-2,1-3,1-1.3,0-2.6-.5-3.5-1.5-2-2-2-5.1,0-7.1c1-.9,2.3-1.4,3.6-1.4Zm0,1.3c-1,0-1.9.4-2.6,1.1-1.4,1.4-1.4,3.8,0,5.2.7.7,1.7,1.1,2.6,1.1s1.9-.4,2.6-1.1c1.4-1.4,1.4-3.8,0-5.2-.7-.8-1.7-1.1-2.6-1.1Z" fill="url(#eOBfF34R0mj3-fill)"/></svg>
