<?xml version="1.0" encoding="utf-8"?>
<!-- Generator: Adobe Illustrator 28.0.0, SVG Export Plug-In . SVG Version: 6.00 Build 0)  -->
<svg version="1.1" id="eOBfF34R0mj1" shape-rendering="geometricPrecision" text-rendering="geometricPrecision"
	 xmlns="http://www.w3.org/2000/svg" xmlns:xlink="http://www.w3.org/1999/xlink" x="0px" y="0px" viewBox="0 0 24 24"
	 style="enable-background:new 0 0 24 24;" xml:space="preserve">
<style type="text/css">
	.st0{fill:#FFFFFF;fill-opacity:0;}
	.st1{fill:#0B539B;}
	.st2{fill:#17990D;}
	.st3{fill:#FFFFFF;}
</style>
<rect class="st0" width="24" height="24"/>
<path class="st1" d="M3.8,18.5C3.8,18.2,4,18,4.3,18h7.4c0.3,0,0.5,0.2,0.5,0.5S12,19,11.7,19H4.3C4,19,3.8,18.8,3.8,18.5z
	 M3.8,21.3H14c1.3,0,2.3-1,2.3-2.3v-1.2c-0.3,0.2-0.7,0.3-1.1,0.4V19c0,0.7-0.5,1.2-1.2,1.2H3.8c-0.7,0-1.2-0.5-1.2-1.2V7.9h1.9
	c1.3,0,2.3-1,2.3-2.3V3.8H14c0.7,0,1.2,0.5,1.2,1.2v1.2c0.4,0.1,0.7,0.2,1.1,0.4V5c0-1.3-1-2.3-2.3-2.3H6.4c-0.1,0-0.3,0-0.4,0.1
	C5.9,2.8,5.8,2.9,5.7,3L1.8,6.8C1.7,6.9,1.6,7,1.6,7.1S1.5,7.4,1.5,7.5V19C1.5,20.2,2.5,21.3,3.8,21.3z M9.1,8.2
	C9.3,8.1,9.4,8,9.5,7.9c0.3-0.3,0.6-0.5,0.9-0.7h-2c-0.3,0-0.5,0.2-0.5,0.5s0.2,0.5,0.5,0.5C8.4,8.2,9.1,8.2,9.1,8.2z M4.4,16.9h5.5
	c-0.2-0.1-0.3-0.2-0.4-0.4C9.2,16.3,9,16,8.8,15.8H4.4c-0.3,0-0.5,0.2-0.5,0.5C3.8,16.6,4.1,16.9,4.4,16.9z M3.8,14.2
	c0,0.3,0.2,0.5,0.5,0.5h3.9C8,14.4,7.9,14,7.8,13.6H4.4C4.1,13.6,3.8,13.9,3.8,14.2C3.8,14.2,3.8,14.2,3.8,14.2z M4.4,12.5h3.3
	c0-0.1,0-0.2,0-0.4s0-0.5,0-0.7H4.4c-0.3,0-0.5,0.2-0.5,0.5S4.1,12.5,4.4,12.5z M3.8,9.8c0,0.3,0.2,0.5,0.5,0.5h3.6
	C8,10,8.2,9.6,8.4,9.3h-4C4.1,9.3,3.8,9.5,3.8,9.8z M13.8,8.5c-1,0-1.9,0.4-2.6,1.1c-1.4,1.4-1.4,3.8,0,5.2c0.7,0.7,1.7,1.1,2.6,1.1
	s1.9-0.4,2.6-1.1c1.4-1.4,1.4-3.8,0-5.2C15.7,8.8,14.7,8.5,13.8,8.5z"/>
<path class="st2" d="M13.8,7.2c1.3,0,2.6,0.5,3.5,1.5c1.8,1.8,1.9,4.6,0.5,6.6l0.5,0.5l0.2-0.2l3.7,3.7c0.4,0.4,0.4,1,0,1.3
	c-0.2,0.2-0.4,0.3-0.7,0.3c-0.2,0-0.5-0.1-0.7-0.3L17,16.9l0.2-0.2l-0.5-0.5c-0.9,0.7-2,1-3,1c-1.3,0-2.6-0.5-3.5-1.5
	c-2-2-2-5.1,0-7.1C11.2,7.7,12.5,7.2,13.8,7.2z"/>
<circle class="st3" cx="13.8" cy="12.2" r="4.1"/>
</svg>
