<svg id="esa625hngqA1" xmlns="http://www.w3.org/2000/svg" xmlns:xlink="http://www.w3.org/1999/xlink" viewBox="0 0 24 24" shape-rendering="geometricPrecision" text-rendering="geometricPrecision" width="24" height="24" style="background-color:transparent"><defs><linearGradient id="esa625hngqA5-fill" x1="1.7" y1="12" x2="22.3" y2="12" spreadMethod="pad" gradientUnits="userSpaceOnUse" gradientTransform="translate(0 0)"><stop id="esa625hngqA5-fill-0" offset="0%" stop-color="#158cff"/><stop id="esa625hngqA5-fill-1" offset="62.01%" stop-color="#a100ff"/></linearGradient><linearGradient id="esa625hngqA6-fill" x1="15.2" y1="14.9" x2="18.7" y2="14.9" spreadMethod="pad" gradientUnits="userSpaceOnUse" gradientTransform="translate(0 0)"><stop id="esa625hngqA6-fill-0" offset="0%" stop-color="#158cff"/><stop id="esa625hngqA6-fill-1" offset="62.01%" stop-color="#a100ff"/></linearGradient></defs><rect width="24" height="24" rx="0" ry="0" fill="#fff" fill-opacity="0"/><g><g><path d="M3.5,20h7.7c1.2,1.5,2.9,2.3,4.8,2.3c3.5,0,6.3-2.8,6.3-6.3v0c0-2-1-4.1-2.8-5.2v-5.8c0-1-.9-1.7-1.9-1.7h-1.5v-1.2c0-.1-.1-.3-.3-.4c0,0,0,0-.1,0h-2.2c-.3,0-.4.1-.4.4v1.2h-5v-1.2c0-.3-.3-.4-.6-.4h-2c-.3,0-.6.1-.6.4v1.2h-1.5C2.5,3.3,1.7,4,1.7,5v13.3c0,1,.8,1.7,1.8,1.7Zm17.8-3.9c0,2.9-2.5,5.4-5.4,5.2-2.9,0-5.4-2.5-5.2-5.4c0-2.9,2.3-5.2,5.4-5.2c2.9,0,5.2,2.5,5.2,5.4v0ZM16.1,9.8c-3.5,0-6.3,2.8-6.3,6.1v0c0,1,.3,2,.7,3.1h-7c-.4,0-.9-.3-.9-.7v-9.5h16v1.6c-.8-.4-1.6-.6-2.5-.6ZM14,2.7h1.2v2h-1.2v-2Zm-8.1,0h1.3v2h-1.3v-2ZM3.5,4.3h1.5v.9c0,.3.1.4.4.4h2.2c.3,0,.4-.3.6-.4v-.9h5v.9c0,.3.1.4.4.4h2.2c.3,0,.4-.3.4-.4v-.9h1.5c.4,0,1,.3,1,.7v2.9h-16v-2.9c0-.4.3-.7.8-.7Z" fill="url(#esa625hngqA5-fill)"/><path d="M15.2,13.3v3.2c0,.3.3.4.6.4h2.5c.3,0,.4-.1.4-.4s-.1-.4-.4-.4h-2v-2.8c0-.3-.1-.4-.4-.4s-.7.3-.7.4Z" fill="url(#esa625hngqA6-fill)"/></g></g></svg>
