<?xml version="1.0" encoding="utf-8"?>
<!-- Generator: Adobe Illustrator 28.0.0, SVG Export Plug-In . SVG Version: 6.00 Build 0)  -->
<svg version="1.1" id="esa625hngqA1" shape-rendering="geometricPrecision" text-rendering="geometricPrecision"
	 xmlns="http://www.w3.org/2000/svg" xmlns:xlink="http://www.w3.org/1999/xlink" x="0px" y="0px" viewBox="0 0 24 24"
	 style="enable-background:new 0 0 24 24;" xml:space="preserve">
<style type="text/css">
	.st0{fill:#FFFFFF;fill-opacity:0;}
	.st1{fill:#0B539B;}
	.st2{fill:#36B209;}
</style>
<rect class="st0" width="24" height="24"/>
<g>
	<g>
		<path class="st1" d="M3.5,20h7.7c1.2,1.5,2.9,2.3,4.8,2.3c3.5,0,6.3-2.8,6.3-6.3l0,0c0-2-1-4.1-2.8-5.2V5c0-1-0.9-1.7-1.9-1.7
			h-1.5V2.1c0-0.1-0.1-0.3-0.3-0.4c0,0,0,0-0.1,0h-2.2c-0.3,0-0.4,0.1-0.4,0.4v1.2h-5V2.1c0-0.3-0.3-0.4-0.6-0.4h-2
			c-0.3,0-0.6,0.1-0.6,0.4v1.2H3.4C2.5,3.3,1.7,4,1.7,5v13.3C1.7,19.3,2.5,20,3.5,20z M21.3,16.1c0,2.9-2.5,5.4-5.4,5.2
			c-2.9,0-5.4-2.5-5.2-5.4c0-2.9,2.3-5.2,5.4-5.2C19,10.7,21.3,13.2,21.3,16.1L21.3,16.1z M16.1,9.8c-3.5,0-6.3,2.8-6.3,6.1l0,0
			c0,1,0.3,2,0.7,3.1h-7c-0.4,0-0.9-0.3-0.9-0.7V8.8h16v1.6C17.8,10,17,9.8,16.1,9.8z M14,2.7h1.2v2H14C14,4.7,14,2.7,14,2.7z
			 M5.9,2.7h1.3v2H5.9C5.9,4.7,5.9,2.7,5.9,2.7z M3.5,4.3H5v0.9c0,0.3,0.1,0.4,0.4,0.4h2.2c0.3,0,0.4-0.3,0.6-0.4V4.3h5v0.9
			c0,0.3,0.1,0.4,0.4,0.4h2.2c0.3,0,0.4-0.3,0.4-0.4V4.3h1.5c0.4,0,1,0.3,1,0.7v2.9h-16V5C2.7,4.6,3,4.3,3.5,4.3z"/>
	</g>
</g>
<path class="st2" d="M15.2,13.3v3.2c0,0.3,0.3,0.4,0.6,0.4h2.5c0.3,0,0.4-0.1,0.4-0.4s-0.1-0.4-0.4-0.4h-2v-2.8
	c0-0.3-0.1-0.4-0.4-0.4S15.2,13.2,15.2,13.3z"/>
</svg>
