<svg id="ePVYIuZQGcM1" xmlns="http://www.w3.org/2000/svg" xmlns:xlink="http://www.w3.org/1999/xlink" viewBox="0 0 24 24" shape-rendering="geometricPrecision" text-rendering="geometricPrecision" width="24" height="24" style="background-color:transparent"><defs><linearGradient id="ePVYIuZQGcM4-fill" x1="1" y1="12" x2="23" y2="12" spreadMethod="pad" gradientUnits="userSpaceOnUse" gradientTransform="translate(0 0)"><stop id="ePVYIuZQGcM4-fill-0" offset="0%" stop-color="#158cff"/><stop id="ePVYIuZQGcM4-fill-1" offset="62.01%" stop-color="#a100ff"/></linearGradient><linearGradient id="ePVYIuZQGcM5-fill" x1="9.2668" y1="11.7984" x2="14.5688" y2="11.7984" spreadMethod="pad" gradientUnits="userSpaceOnUse" gradientTransform="translate(0 0)"><stop id="ePVYIuZQGcM5-fill-0" offset="0%" stop-color="#158cff"/><stop id="ePVYIuZQGcM5-fill-1" offset="62.01%" stop-color="#a100ff"/></linearGradient><linearGradient id="ePVYIuZQGcM6-fill" x1="6.5289" y1="11.7984" x2="17.3067" y2="11.7984" spreadMethod="pad" gradientUnits="userSpaceOnUse" gradientTransform="translate(0 0)"><stop id="ePVYIuZQGcM6-fill-0" offset="0%" stop-color="#158cff"/><stop id="ePVYIuZQGcM6-fill-1" offset="62.01%" stop-color="#a100ff"/></linearGradient><linearGradient id="ePVYIuZQGcM7-fill" x1="-0.3299" y1="-0.0016" x2="0.3654" y2="-0.0016" spreadMethod="pad" gradientUnits="userSpaceOnUse" gradientTransform="translate(0 0)"><stop id="ePVYIuZQGcM7-fill-0" offset="0%" stop-color="#158cff"/><stop id="ePVYIuZQGcM7-fill-1" offset="62.01%" stop-color="#a100ff"/></linearGradient></defs><rect width="24" height="24" rx="0" ry="0" opacity="0" fill="#fff"/><g><path d="M11.1,1c-.9,0-1.7.8-1.7,1.9v.7c-.6.1-1.1.2-1.5.4l-.5-.3C6.7,3,5.5,3,4.8,3.7L3.7,4.8c-.7.7-.7,1.9,0,2.6l.3.5c-.2.4-.3.9-.5,1.4h-.6c-1.1,0-1.9.8-1.9,1.8v1.7c0,.9.8,1.7,1.7,1.7h.7c.1.5.4,1.1.6,1.5l-.4.4c-.6.6-.6,1.8.1,2.5l1.2,1.2c.7.7,1.9.7,2.5,0l.5-.1c.5.3.9.4,1.5.7v.7c0,.9.8,1.7,1.7,1.7h1.7c.9,0,1.7-.8,1.7-1.7v-.7c.5-.1,1.1-.4,1.5-.7l.4.4c.7.7,1.9.7,2.5,0l1.2-1.2c.7-.7.7-1.9,0-2.5l-.1-.6c.3-.5.4-.9.7-1.5h.7c.9,0,1.7-.8,1.7-1.7v-1.9c0-.9-.8-1.7-1.7-1.7h-.7c-.1-.5-.4-1.1-.7-1.5l.4-.4c.6-.6.6-1.8-.1-2.4L19.1,3.8c-.7-.7-1.9-.7-2.5,0l-.5.2c-.5-.3-.9-.4-1.5-.7v-.4c0-.9-.8-1.7-1.7-1.7L11.1,1Zm0,1.3h1.7c.3,0,.5.3.5.5v1.2c0,.3.3.5.5.7.8,0,1.5.4,2.1.7.3.1.5.1.8-.1l.8-.8c.1-.1.5-.1.7,0l1.2,1.2c.1.1.1.5,0,.7l-.8.9c-.1.3-.3.5,0,.8.4.7.7,1.3.8,2.1.1.3.4.5.7.5h1.2c.3,0,.5.3.5.5v1.7c0,.3-.3.5-.5.5h-1.2c-.3,0-.5.3-.7.5-.1.7-.5,1.3-.8,2-.1.3-.1.5.1.8l.8.8c.1.1.1.5,0,.7l-1.2,1.2c-.1.1-.5.1-.7,0l-.9-.8c-.3-.3-.5-.3-.8-.1-.7.4-1.3.7-2.1.8-.3.1-.5.3-.5.7v1.2c0,.3-.3.5-.5.5h-1.7c-.3,0-.5-.3-.5-.5v-1.2c0-.3-.3-.5-.5-.7-.7,0-1.3-.4-2-.7-.3-.1-.5-.1-.8.1l-.8.8c-.1.1-.5.1-.7,0L4.6,18.3c-.1-.1-.1-.5,0-.7l.8-.9c.1-.3.3-.5,0-.8-.4-.7-.7-1.3-.8-2.1-.1-.3-.3-.5-.7-.5h-1c-.3,0-.5-.3-.5-.5v-1.7c0-.3.3-.4.5-.4h1.1c.3,0,.5-.3.7-.5c0-.8.4-1.5.7-2.1.3-.3.1-.5,0-.8l-.8-.9c-.1-.1-.1-.5,0-.7L5.8,4.5c.1-.1.5-.1.7,0l.8.8c.2.2.5.3.7.2.7-.4,1.3-.7,2.1-.8.3-.3.5-.4.5-.8v-1c.1-.3.2-.6.5-.6v0Z" clip-rule="evenodd" fill="url(#ePVYIuZQGcM4-fill)" fill-rule="evenodd"/></g><path d="M13.9,10l-2.8,2.8-1.3-1.3c-.1-.1-.4-.1-.5,0s-.1.4,0,.5l1.5,1.5c.1.1.2.1.3.1s.2,0,.3-.1l3-3c.1-.1.1-.4,0-.5s-.3-.1-.5,0Z" fill="url(#ePVYIuZQGcM5-fill)"/><path d="M16.8,10.4c-.2,0-.3.2-.3.4.1.3.1.7.1,1c0,2.6-2.1,4.7-4.7,4.7s-4.7-2.1-4.7-4.7s2.1-4.7,4.7-4.7c.7,0,1.4.1,2,.4.2.1.4,0,.5-.2s0-.4-.2-.5c-.7-.3-1.5-.5-2.3-.5-3,0-5.4,2.4-5.4,5.4s2.4,5.4,5.4,5.4s5.4-2.4,5.4-5.4c0-.4,0-.8-.1-1.2-.1-.1-.2-.2-.4-.1Z" fill="url(#ePVYIuZQGcM6-fill)"/><circle r="0.3" transform="translate(15.9 8.8)" fill="url(#ePVYIuZQGcM7-fill)"/></svg>
