<?xml version="1.0" encoding="utf-8"?>
<!-- Generator: Adobe Illustrator 28.0.0, SVG Export Plug-In . SVG Version: 6.00 Build 0)  -->
<svg version="1.1" id="ePVYIuZQGcM1" shape-rendering="geometricPrecision" text-rendering="geometricPrecision"
	 xmlns="http://www.w3.org/2000/svg" xmlns:xlink="http://www.w3.org/1999/xlink" x="0px" y="0px" viewBox="0 0 24 24"
	 style="enable-background:new 0 0 24 24;" xml:space="preserve">
<style type="text/css">
	.st0{fill:#FFFFFF;fill-opacity:0;}
	.st1{fill-rule:evenodd;clip-rule:evenodd;fill:#0B539B;}
	.st2{fill:#36B209;}
</style>
<rect class="st0" width="24" height="24"/>
<g>
	<path class="st1" d="M11.1,1c-0.9,0-1.7,0.8-1.7,1.9v0.7C8.8,3.7,8.3,3.8,7.9,4L7.4,3.7C6.7,3,5.5,3,4.8,3.7L3.7,4.8
		C3,5.5,3,6.7,3.7,7.4L4,7.9C3.8,8.3,3.7,8.8,3.5,9.3H2.9C1.8,9.3,1,10.1,1,11.1v1.7c0,0.9,0.8,1.7,1.7,1.7h0.7
		C3.5,15,3.8,15.6,4,16l-0.4,0.4C3,17,3,18.2,3.7,18.9l1.2,1.2c0.7,0.7,1.9,0.7,2.5,0L7.9,20c0.5,0.3,0.9,0.4,1.5,0.7v0.7
		c0,0.9,0.8,1.7,1.7,1.7h1.7c0.9,0,1.7-0.8,1.7-1.7v-0.7c0.5-0.1,1.1-0.4,1.5-0.7l0.4,0.4c0.7,0.7,1.9,0.7,2.5,0l1.2-1.2
		c0.7-0.7,0.7-1.9,0-2.5L20,16.1c0.3-0.5,0.4-0.9,0.7-1.5h0.7c0.9,0,1.7-0.8,1.7-1.7V11c0-0.9-0.8-1.7-1.7-1.7h-0.7
		c-0.1-0.5-0.4-1.1-0.7-1.5l0.4-0.4C21,6.8,21,5.6,20.3,5l-1.2-1.2c-0.7-0.7-1.9-0.7-2.5,0L16.1,4c-0.5-0.3-0.9-0.4-1.5-0.7V2.9
		c0-0.9-0.8-1.7-1.7-1.7L11.1,1z M11.1,2.3h1.7c0.3,0,0.5,0.3,0.5,0.5V4c0,0.3,0.3,0.5,0.5,0.7c0.8,0,1.5,0.4,2.1,0.7
		c0.3,0.1,0.5,0.1,0.8-0.1l0.8-0.8c0.1-0.1,0.5-0.1,0.7,0l1.2,1.2c0.1,0.1,0.1,0.5,0,0.7l-0.8,0.9c-0.1,0.3-0.3,0.5,0,0.8
		c0.4,0.7,0.7,1.3,0.8,2.1c0.1,0.3,0.4,0.5,0.7,0.5h1.2c0.3,0,0.5,0.3,0.5,0.5v1.7c0,0.3-0.3,0.5-0.5,0.5h-1.2
		c-0.3,0-0.5,0.3-0.7,0.5c-0.1,0.7-0.5,1.3-0.8,2c-0.1,0.3-0.1,0.5,0.1,0.8l0.8,0.8c0.1,0.1,0.1,0.5,0,0.7l-1.2,1.2
		c-0.1,0.1-0.5,0.1-0.7,0l-0.9-0.8c-0.3-0.3-0.5-0.3-0.8-0.1c-0.7,0.4-1.3,0.7-2.1,0.8c-0.3,0.1-0.5,0.3-0.5,0.7v1.2
		c0,0.3-0.3,0.5-0.5,0.5h-1.7c-0.3,0-0.5-0.3-0.5-0.5V20c0-0.3-0.3-0.5-0.5-0.7c-0.7,0-1.3-0.4-2-0.7c-0.3-0.1-0.5-0.1-0.8,0.1
		l-0.8,0.8c-0.1,0.1-0.5,0.1-0.7,0l-1.2-1.2c-0.1-0.1-0.1-0.5,0-0.7l0.8-0.9c0.1-0.3,0.3-0.5,0-0.8c-0.4-0.7-0.7-1.3-0.8-2.1
		c-0.1-0.3-0.3-0.5-0.7-0.5h-1c-0.3,0-0.5-0.3-0.5-0.5v-1.7c0-0.3,0.3-0.4,0.5-0.4H4c0.3,0,0.5-0.3,0.7-0.5c0-0.8,0.4-1.5,0.7-2.1
		c0.3-0.3,0.1-0.5,0-0.8L4.6,6.4c-0.1-0.1-0.1-0.5,0-0.7l1.2-1.2c0.1-0.1,0.5-0.1,0.7,0l0.8,0.8C7.5,5.5,7.8,5.6,8,5.5
		c0.7-0.4,1.3-0.7,2.1-0.8c0.3-0.3,0.5-0.4,0.5-0.8v-1C10.7,2.6,10.8,2.3,11.1,2.3C11.1,2.3,11.1,2.3,11.1,2.3z"/>
</g>
<path class="st2" d="M13.9,10l-2.8,2.8l-1.3-1.3c-0.1-0.1-0.4-0.1-0.5,0s-0.1,0.4,0,0.5l1.5,1.5c0.1,0.1,0.2,0.1,0.3,0.1
	s0.2,0,0.3-0.1l3-3c0.1-0.1,0.1-0.4,0-0.5S14.1,9.9,13.9,10z"/>
<path class="st2" d="M16.8,10.4c-0.2,0-0.3,0.2-0.3,0.4c0.1,0.3,0.1,0.7,0.1,1c0,2.6-2.1,4.7-4.7,4.7s-4.7-2.1-4.7-4.7
	s2.1-4.7,4.7-4.7c0.7,0,1.4,0.1,2,0.4c0.2,0.1,0.4,0,0.5-0.2s0-0.4-0.2-0.5c-0.7-0.3-1.5-0.5-2.3-0.5c-3,0-5.4,2.4-5.4,5.4
	s2.4,5.4,5.4,5.4s5.4-2.4,5.4-5.4c0-0.4,0-0.8-0.1-1.2C17.1,10.4,17,10.3,16.8,10.4z"/>
<circle class="st2" cx="15.9" cy="8.8" r="0.3"/>
</svg>
