<svg id="ej3GNJpvzng1" xmlns="http://www.w3.org/2000/svg" xmlns:xlink="http://www.w3.org/1999/xlink" viewBox="0 0 24 24" shape-rendering="geometricPrecision" text-rendering="geometricPrecision" width="24" height="24" style="background-color:transparent"><defs><linearGradient id="ej3GNJpvzng4-fill" x1="4.9815" y1="12.4593" x2="18.5028" y2="12.4593" spreadMethod="pad" gradientUnits="userSpaceOnUse" gradientTransform="translate(0 0)"><stop id="ej3GNJpvzng4-fill-0" offset="0%" stop-color="#158cff"/><stop id="ej3GNJpvzng4-fill-1" offset="62.01%" stop-color="#a100ff"/></linearGradient><linearGradient id="ej3GNJpvzng5-fill" x1="7.9952" y1="12.4674" x2="15.473" y2="12.4674" spreadMethod="pad" gradientUnits="userSpaceOnUse" gradientTransform="translate(0 0)"><stop id="ej3GNJpvzng5-fill-0" offset="0%" stop-color="#158cff"/><stop id="ej3GNJpvzng5-fill-1" offset="62.01%" stop-color="#a100ff"/></linearGradient><linearGradient id="ej3GNJpvzng6-fill" x1="2" y1="8.7607" x2="11.6857" y2="8.7607" spreadMethod="pad" gradientUnits="userSpaceOnUse" gradientTransform="translate(0 0)"><stop id="ej3GNJpvzng6-fill-0" offset="0%" stop-color="#158cff"/><stop id="ej3GNJpvzng6-fill-1" offset="62.01%" stop-color="#a100ff"/></linearGradient><linearGradient id="ej3GNJpvzng7-fill" x1="3.4504" y1="19.6873" x2="19.3731" y2="19.6873" spreadMethod="pad" gradientUnits="userSpaceOnUse" gradientTransform="translate(0 0)"><stop id="ej3GNJpvzng7-fill-0" offset="0%" stop-color="#158cff"/><stop id="ej3GNJpvzng7-fill-1" offset="62.01%" stop-color="#a100ff"/></linearGradient><linearGradient id="ej3GNJpvzng8-fill" x1="12.8622" y1="9.8646" x2="22" y2="9.8646" spreadMethod="pad" gradientUnits="userSpaceOnUse" gradientTransform="translate(0 0)"><stop id="ej3GNJpvzng8-fill-0" offset="0%" stop-color="#158cff"/><stop id="ej3GNJpvzng8-fill-1" offset="62.01%" stop-color="#a100ff"/></linearGradient></defs><rect width="24" height="24" rx="0" ry="0" opacity="0" fill="#fff"/><g><path d="M12.9,5.7h-2.2c-.2,0-.4.2-.4.4v.9c-.5.2-.9.3-1.3.6l-.7-.7c-.1-.1-.4-.1-.6,0L6.2,8.5c-.2.1-.2.4,0,.5l.7.7c-.2.4-.4.8-.5,1.2h-1c-.2,0-.4.2-.4.4v2.2c0,.3.2.5.4.5h.9c.1.4.3.9.5,1.2l-.7.7c-.1.1-.1.4.1.5L7.8,18c.2.2.4.2.6,0l.6-.6c.4.2.8.4,1.2.5v.9c0,.2.2.4.4.4h2.2c.2,0,.4-.2.4-.4v-.9c.4-.1.9-.3,1.2-.5l.7.7c.2.2.4.2.6,0l1.6-1.6c.2-.2.2-.4,0-.6l-.7-.7c.2-.4.4-.8.5-1.2h.9c.2,0,.4-.2.4-.4v-2.2c0-.2-.2-.4-.4-.4h-.9c-.1-.4-.3-.9-.5-1.2l.7-.7c.2-.2.2-.4,0-.6L15.7,6.9c-.1-.1-.2-.1-.3-.1v0c-.1,0-.2,0-.3.1l-.7.7c-.4-.2-.8-.4-1.2-.5v-1c.1-.2-.1-.4-.3-.4Zm1.4,2.7c.2.1.4.1.5,0l.6-.6l1,1-.6.6c-.1.1-.2.3,0,.5.3.5.5,1,.6,1.6c0,.2.2.3.4.3h.8v1.4h-.8c-.2,0-.4.1-.4.3-.1.6-.3,1.1-.6,1.6-.1.2-.1.4,0,.5l.6.6-1,1-.6-.6c-.1-.1-.3-.2-.5,0-.5.3-1,.5-1.6.6-.2,0-.3.2-.3.4v.8h-1.4v-.8c0-.2-.1-.4-.3-.4-.6-.1-1.1-.3-1.6-.6-.2-.1-.4-.1-.5,0l-.6.6-1-1l.6-.6c.1-.1.2-.3,0-.5-.3-.5-.5-1-.6-1.6c0-.2-.2-.3-.4-.3h-.8v-1.4h.8c.2,0,.4-.1.4-.3.1-.6.3-1.1.6-1.6.1-.2.1-.4,0-.5L7,8.8l1-1l.6.6c.1.1.3.2.5,0c.5-.3,1-.5,1.6-.6.2,0,.3-.2.3-.4v-.9h1.4v.9c0,.2.1.4.3.4.6.1,1.2.3,1.6.6Z" fill="url(#ej3GNJpvzng4-fill)"/><path d="M8,12.5c0,2.1,1.7,3.7,3.7,3.7s3.7-1.7,3.7-3.7-1.7-3.7-3.7-3.7-3.7,1.6-3.7,3.7Zm6.7,0c0,1.6-1.3,2.9-2.9,2.9s-2.9-1.3-2.9-2.9s1.3-2.9,2.9-2.9s2.9,1.3,2.9,2.9Z" fill="url(#ej3GNJpvzng5-fill)"/><path d="M2.8,12.5c0-4.4,3.1-8,7.3-8.8l-.4.5.6.6l1.5-1.5-1.5-1.5-.7.6.5.5C5.4,3.7,2,7.7,2,12.5c0,1,.1,2,.4,2.9l.1.4.8-.2-.1-.4c-.3-.9-.4-1.8-.4-2.7Z" fill="url(#ej3GNJpvzng6-fill)"/><path d="M18.5,18.3c-1.7,2-4.2,3.1-6.8,3.1s-5.1-1.2-6.8-3.2l.8.2.2-.8-2-.4-.4,2.1.8.2.1-.6c1.9,2.2,4.5,3.4,7.4,3.4s5.5-1.2,7.4-3.4l.3-.3-.7-.6-.3.3Z" fill="url(#ej3GNJpvzng7-fill)"/><path d="M21.7,15.4l-.7.3c.4-1,.5-2.1.5-3.2c0-4.8-3.4-8.8-8.1-9.6L13,2.8l-.1.8.4.1c4.3.7,7.4,4.4,7.4,8.8c0,1-.1,1.9-.4,2.8l-.3-.6-.7.3.8,1.9l2-.8-.4-.7Z" fill="url(#ej3GNJpvzng8-fill)"/></g></svg>
