<?xml version="1.0" encoding="utf-8"?>
<!-- Generator: Adobe Illustrator 28.0.0, SVG Export Plug-In . SVG Version: 6.00 Build 0)  -->
<svg version="1.1" id="ej3GNJpvzng1" shape-rendering="geometricPrecision" text-rendering="geometricPrecision"
	 xmlns="http://www.w3.org/2000/svg" xmlns:xlink="http://www.w3.org/1999/xlink" x="0px" y="0px" viewBox="0 0 24 24"
	 style="enable-background:new 0 0 24 24;" xml:space="preserve">
<style type="text/css">
	.st0{fill:#FFFFFF;fill-opacity:0;}
	.st1{fill:#0B539B;}
	.st2{fill:#36B209;}
</style>
<rect class="st0" width="24" height="24"/>
<g>
	<path class="st1" d="M12.9,5.7h-2.2c-0.2,0-0.4,0.2-0.4,0.4V7C9.8,7.2,9.4,7.3,9,7.6L8.3,6.9c-0.1-0.1-0.4-0.1-0.6,0L6.2,8.5
		C6,8.6,6,8.9,6.2,9l0.7,0.7c-0.2,0.4-0.4,0.8-0.5,1.2h-1c-0.2,0-0.4,0.2-0.4,0.4v2.2C5,13.8,5.2,14,5.4,14h0.9
		c0.1,0.4,0.3,0.9,0.5,1.2l-0.7,0.7C6,16,6,16.3,6.2,16.4L7.8,18c0.2,0.2,0.4,0.2,0.6,0L9,17.4c0.4,0.2,0.8,0.4,1.2,0.5v0.9
		c0,0.2,0.2,0.4,0.4,0.4h2.2c0.2,0,0.4-0.2,0.4-0.4v-0.9c0.4-0.1,0.9-0.3,1.2-0.5l0.7,0.7c0.2,0.2,0.4,0.2,0.6,0l1.6-1.6
		c0.2-0.2,0.2-0.4,0-0.6l-0.7-0.7c0.2-0.4,0.4-0.8,0.5-1.2H18c0.2,0,0.4-0.2,0.4-0.4v-2.2c0-0.2-0.2-0.4-0.4-0.4h-0.9
		c-0.1-0.4-0.3-0.9-0.5-1.2l0.7-0.7c0.2-0.2,0.2-0.4,0-0.6l-1.6-1.6c-0.1-0.1-0.2-0.1-0.3-0.1l0,0c-0.1,0-0.2,0-0.3,0.1l-0.7,0.7
		c-0.4-0.2-0.8-0.4-1.2-0.5v-1C13.3,5.9,13.1,5.7,12.9,5.7z M14.3,8.4c0.2,0.1,0.4,0.1,0.5,0l0.6-0.6l1,1l-0.6,0.6
		c-0.1,0.1-0.2,0.3,0,0.5c0.3,0.5,0.5,1,0.6,1.6c0,0.2,0.2,0.3,0.4,0.3h0.8v1.4h-0.8c-0.2,0-0.4,0.1-0.4,0.3
		c-0.1,0.6-0.3,1.1-0.6,1.6c-0.1,0.2-0.1,0.4,0,0.5l0.6,0.6l-1,1l-0.6-0.6c-0.1-0.1-0.3-0.2-0.5,0c-0.5,0.3-1,0.5-1.6,0.6
		c-0.2,0-0.3,0.2-0.3,0.4v0.8H11v-0.8c0-0.2-0.1-0.4-0.3-0.4c-0.6-0.1-1.1-0.3-1.6-0.6c-0.2-0.1-0.4-0.1-0.5,0L8,17.2l-1-1l0.6-0.6
		c0.1-0.1,0.2-0.3,0-0.5c-0.3-0.5-0.5-1-0.6-1.6c0-0.2-0.2-0.3-0.4-0.3H5.8v-1.4h0.8c0.2,0,0.4-0.1,0.4-0.3c0.1-0.6,0.3-1.1,0.6-1.6
		c0.1-0.2,0.1-0.4,0-0.5L7,8.8l1-1l0.6,0.6c0.1,0.1,0.3,0.2,0.5,0c0.5-0.3,1-0.5,1.6-0.6c0.2,0,0.3-0.2,0.3-0.4V6.5h1.4v0.9
		c0,0.2,0.1,0.4,0.3,0.4C13.3,7.9,13.9,8.1,14.3,8.4z"/>
	<path class="st2" d="M8,12.5c0,2.1,1.7,3.7,3.7,3.7s3.7-1.7,3.7-3.7s-1.7-3.7-3.7-3.7S8,10.4,8,12.5z M14.7,12.5
		c0,1.6-1.3,2.9-2.9,2.9s-2.9-1.3-2.9-2.9s1.3-2.9,2.9-2.9S14.7,10.9,14.7,12.5z"/>
	<path class="st2" d="M2.8,12.5c0-4.4,3.1-8,7.3-8.8L9.7,4.2l0.6,0.6l1.5-1.5l-1.5-1.5L9.6,2.4l0.5,0.5C5.4,3.7,2,7.7,2,12.5
		c0,1,0.1,2,0.4,2.9l0.1,0.4l0.8-0.2l-0.1-0.4C2.9,14.3,2.8,13.4,2.8,12.5z"/>
	<path class="st2" d="M18.5,18.3c-1.7,2-4.2,3.1-6.8,3.1s-5.1-1.2-6.8-3.2l0.8,0.2l0.2-0.8l-2-0.4l-0.4,2.1l0.8,0.2l0.1-0.6
		c1.9,2.2,4.5,3.4,7.4,3.4s5.5-1.2,7.4-3.4l0.3-0.3L18.8,18C18.8,18,18.5,18.3,18.5,18.3z"/>
	<path class="st2" d="M21.7,15.4L21,15.7c0.4-1,0.5-2.1,0.5-3.2c0-4.8-3.4-8.8-8.1-9.6L13,2.8l-0.1,0.8l0.4,0.1
		c4.3,0.7,7.4,4.4,7.4,8.8c0,1-0.1,1.9-0.4,2.8L20,14.7L19.3,15l0.8,1.9l2-0.8C22.1,16.1,21.7,15.4,21.7,15.4z"/>
</g>
</svg>
