<svg id="e5YDUpRCynM1" xmlns="http://www.w3.org/2000/svg" xmlns:xlink="http://www.w3.org/1999/xlink" viewBox="0 0 24 24" shape-rendering="geometricPrecision" text-rendering="geometricPrecision" width="24" height="24" style="background-color:transparent"><defs><linearGradient id="e5YDUpRCynM5-fill" x1="8.5" y1="5.75" x2="15.6" y2="5.75" spreadMethod="pad" gradientUnits="userSpaceOnUse" gradientTransform="translate(0 0)"><stop id="e5YDUpRCynM5-fill-0" offset="0%" stop-color="#158cff"/><stop id="e5YDUpRCynM5-fill-1" offset="62.01%" stop-color="#a100ff"/></linearGradient><linearGradient id="e5YDUpRCynM6-fill" x1="3.6" y1="13.8" x2="20.4" y2="13.8" spreadMethod="pad" gradientUnits="userSpaceOnUse" gradientTransform="translate(0 0)"><stop id="e5YDUpRCynM6-fill-0" offset="0%" stop-color="#158cff"/><stop id="e5YDUpRCynM6-fill-1" offset="62.01%" stop-color="#a100ff"/></linearGradient><linearGradient id="e5YDUpRCynM7-fill" x1="7.1" y1="5" x2="17.1" y2="5" spreadMethod="pad" gradientUnits="userSpaceOnUse" gradientTransform="translate(0 0)"><stop id="e5YDUpRCynM7-fill-0" offset="0%" stop-color="#158cff"/><stop id="e5YDUpRCynM7-fill-1" offset="62.01%" stop-color="#a100ff"/></linearGradient><linearGradient id="e5YDUpRCynM9-fill" x1="9.8" y1="3.3" x2="14.2" y2="3.3" spreadMethod="pad" gradientUnits="userSpaceOnUse" gradientTransform="translate(0 0)"><stop id="e5YDUpRCynM9-fill-0" offset="0%" stop-color="#158cff"/><stop id="e5YDUpRCynM9-fill-1" offset="62.01%" stop-color="#a100ff"/></linearGradient><linearGradient id="e5YDUpRCynM11-fill" x1="7.174" y1="16.5" x2="16.4" y2="16.5" spreadMethod="pad" gradientUnits="userSpaceOnUse" gradientTransform="translate(0 0)"><stop id="e5YDUpRCynM11-fill-0" offset="0%" stop-color="#158cff"/><stop id="e5YDUpRCynM11-fill-1" offset="62.01%" stop-color="#a100ff"/></linearGradient><linearGradient id="e5YDUpRCynM13-fill" x1="7.174" y1="19.6" x2="16.4" y2="19.6" spreadMethod="pad" gradientUnits="userSpaceOnUse" gradientTransform="translate(0 0)"><stop id="e5YDUpRCynM13-fill-0" offset="0%" stop-color="#158cff"/><stop id="e5YDUpRCynM13-fill-1" offset="62.01%" stop-color="#a100ff"/></linearGradient><linearGradient id="e5YDUpRCynM15-fill" x1="9.2" y1="12.05" x2="13.8" y2="12.05" spreadMethod="pad" gradientUnits="userSpaceOnUse" gradientTransform="translate(0 0)"><stop id="e5YDUpRCynM15-fill-0" offset="0%" stop-color="#158cff"/><stop id="e5YDUpRCynM15-fill-1" offset="62.01%" stop-color="#a100ff"/></linearGradient><linearGradient id="e5YDUpRCynM17-fill" x1="12.3" y1="10.3" x2="14.7" y2="10.3" spreadMethod="pad" gradientUnits="userSpaceOnUse" gradientTransform="translate(0 0)"><stop id="e5YDUpRCynM17-fill-0" offset="0%" stop-color="#158cff"/><stop id="e5YDUpRCynM17-fill-1" offset="62.01%" stop-color="#a100ff"/></linearGradient></defs><rect width="24" height="24" rx="0" ry="0" fill="#fff" fill-opacity="0"/><g><g><path d="M8.8,5.8h6.5c.1,0,.1,0,.3-.1h-7.1c0,.1.1.1.3.1Z" fill="url(#e5YDUpRCynM5-fill)"/><path d="M18,4.6h-1.2v.6c0,.1,0,.3-.1.4h1.2c.7,0,1.2.6,1.2,1.2v13.6c0,.7-.6,1.2-1.2,1.2h-11.9c-.7,0-1.2-.6-1.2-1.2L4.8,7c0-.7.6-1.2,1.2-1.2h1.2c-.1-.1-.1-.3-.1-.4v-.8h-1.1c-1.3,0-2.4,1-2.4,2.4v13.6c0,1.3,1,2.4,2.4,2.4h12c1.3,0,2.4-1,2.4-2.4v-13.6c0-1.3-1-2.4-2.4-2.4Z" fill="url(#e5YDUpRCynM6-fill)"/><path d="M7.1,5.4c0,.1,0,.3.1.4.2.7,1,1.2,1.7,1.2h6.5c.7,0,1.3-.6,1.6-1.2c0-.1.1-.3.1-.4v-.8v0c0-.9-.7-1.6-1.6-1.6h-6.7c-.9,0-1.7.7-1.7,1.6v0v.8Zm1.1-.8c0-.3.3-.6.6-.6h6.5c.3,0,.6.3.6.6v0v.6c0,.1-.1.3-.3.4-.1,0-.1.1-.3.1h-6.5c-.1,0-.1.1-.3,0-.1,0-.3-.2-.3-.4v-.7v0Z" fill="url(#e5YDUpRCynM7-fill)"/></g><g><path d="M12,5.5c-1.2,0-2.2-1-2.2-2.2s1-2.2,2.2-2.2s2.2,1,2.2,2.2-1,2.2-2.2,2.2Zm0-3.4c-.6,0-1.2.6-1.2,1.2s.4,1.2,1.2,1.2c.6,0,1.2-.4,1.2-1.2c0-.6-.6-1.2-1.2-1.2Z" fill="url(#e5YDUpRCynM9-fill)"/></g><g><path d="M7.6,17.2h8.4c.1,0,.4-.1.4-.4v-.6c0-.1-.1-.4-.4-.4h-8.4c-.1,0-.4.1-.4.4v.6c-.1.2.1.4.4.4Z" fill="url(#e5YDUpRCynM11-fill)"/></g><g><path d="M7.6,20.3h8.4c.1,0,.4-.1.4-.4v-.6c0-.1-.1-.4-.4-.4h-8.4c-.1,0-.4.1-.4.4v.6c-.1.2.1.4.4.4Z" fill="url(#e5YDUpRCynM13-fill)"/></g><g><path d="M9.2,12.1c0,1.2,1,2.2,2.2,2.2s2.4-1,2.4-2.2h-2.4v-2.3c-1.2,0-2.2,1-2.2,2.3Z" fill="url(#e5YDUpRCynM15-fill)"/></g><g><path d="M12.3,9.1v2.4h2.4c-.2-1.6-1.2-2.4-2.4-2.4Z" fill="url(#e5YDUpRCynM17-fill)"/></g></g></svg>
