<?xml version="1.0" encoding="utf-8"?>
<!-- Generator: Adobe Illustrator 28.0.0, SVG Export Plug-In . SVG Version: 6.00 Build 0)  -->
<svg version="1.1" id="e5YDUpRCynM1" shape-rendering="geometricPrecision" text-rendering="geometricPrecision"
	 xmlns="http://www.w3.org/2000/svg" xmlns:xlink="http://www.w3.org/1999/xlink" x="0px" y="0px" viewBox="0 0 24 24"
	 style="enable-background:new 0 0 24 24;" xml:space="preserve">
<style type="text/css">
	.st0{fill:#FFFFFF;fill-opacity:0;}
	.st1{fill:#0B539B;}
	.st2{fill:#36B209;}
</style>
<rect class="st0" width="24" height="24"/>
<g>
	<g>
		<path class="st1" d="M8.8,5.8h6.5c0.1,0,0.1,0,0.3-0.1H8.5C8.5,5.8,8.6,5.8,8.8,5.8z"/>
		<path class="st1" d="M18,4.6h-1.2v0.6c0,0.1,0,0.3-0.1,0.4h1.2c0.7,0,1.2,0.6,1.2,1.2v13.6c0,0.7-0.6,1.2-1.2,1.2H6
			c-0.7,0-1.2-0.6-1.2-1.2V7c0-0.7,0.6-1.2,1.2-1.2h1.2C7.1,5.7,7.1,5.5,7.1,5.4V4.6H6c-1.3,0-2.4,1-2.4,2.4v13.6
			c0,1.3,1,2.4,2.4,2.4h12c1.3,0,2.4-1,2.4-2.4V7C20.4,5.7,19.4,4.6,18,4.6z"/>
		<path class="st1" d="M7.1,5.4c0,0.1,0,0.3,0.1,0.4C7.4,6.5,8.2,7,8.9,7h6.5c0.7,0,1.3-0.6,1.6-1.2c0-0.1,0.1-0.3,0.1-0.4V4.6l0,0
			c0-0.9-0.7-1.6-1.6-1.6H8.8C7.9,3,7.1,3.7,7.1,4.6l0,0C7.1,4.6,7.1,5.4,7.1,5.4z M8.2,4.6C8.2,4.3,8.5,4,8.8,4h6.5
			c0.3,0,0.6,0.3,0.6,0.6l0,0v0.6c0,0.1-0.1,0.3-0.3,0.4c-0.1,0-0.1,0.1-0.3,0.1H8.8c-0.1,0-0.1,0.1-0.3,0c-0.1,0-0.3-0.2-0.3-0.4
			V4.6L8.2,4.6z"/>
	</g>
	<g>
		<path class="st2" d="M12,5.5c-1.2,0-2.2-1-2.2-2.2s1-2.2,2.2-2.2s2.2,1,2.2,2.2S13.2,5.5,12,5.5z M12,2.1c-0.6,0-1.2,0.6-1.2,1.2
			s0.4,1.2,1.2,1.2c0.6,0,1.2-0.4,1.2-1.2C13.2,2.7,12.6,2.1,12,2.1z"/>
	</g>
	<g>
		<path class="st1" d="M7.6,17.2H16c0.1,0,0.4-0.1,0.4-0.4v-0.6c0-0.1-0.1-0.4-0.4-0.4H7.6c-0.1,0-0.4,0.1-0.4,0.4v0.6
			C7.1,17,7.3,17.2,7.6,17.2z"/>
	</g>
	<g>
		<path class="st1" d="M7.6,20.3H16c0.1,0,0.4-0.1,0.4-0.4v-0.6c0-0.1-0.1-0.4-0.4-0.4H7.6c-0.1,0-0.4,0.1-0.4,0.4v0.6
			C7.1,20.1,7.3,20.3,7.6,20.3z"/>
	</g>
	<g>
		<path class="st2" d="M9.2,12.1c0,1.2,1,2.2,2.2,2.2s2.4-1,2.4-2.2h-2.4V9.8C10.2,9.8,9.2,10.8,9.2,12.1z"/>
	</g>
	<g>
		<path class="st2" d="M12.3,9.1v2.4h2.4C14.5,9.9,13.5,9.1,12.3,9.1z"/>
	</g>
</g>
</svg>
