<svg id="eTfqPtcx8pR1" xmlns="http://www.w3.org/2000/svg" xmlns:xlink="http://www.w3.org/1999/xlink" viewBox="0 0 24 24" shape-rendering="geometricPrecision" text-rendering="geometricPrecision" width="24" height="24" style="background-color:transparent"><defs><linearGradient id="eTfqPtcx8pR4-fill" x1="11.5" y1="11.2917" x2="12.5" y2="11.2917" spreadMethod="pad" gradientUnits="userSpaceOnUse" gradientTransform="translate(0 0)"><stop id="eTfqPtcx8pR4-fill-0" offset="0%" stop-color="#158cff"/><stop id="eTfqPtcx8pR4-fill-1" offset="62.01%" stop-color="#a100ff"/></linearGradient><linearGradient id="eTfqPtcx8pR5-fill" x1="11.6167" y1="14.6948" x2="12.416" y2="14.6948" spreadMethod="pad" gradientUnits="userSpaceOnUse" gradientTransform="translate(0 0)"><stop id="eTfqPtcx8pR5-fill-0" offset="0%" stop-color="#158cff"/><stop id="eTfqPtcx8pR5-fill-1" offset="62.01%" stop-color="#a100ff"/></linearGradient><linearGradient id="eTfqPtcx8pR7-fill" x1="1.5" y1="12" x2="22.5" y2="12" spreadMethod="pad" gradientUnits="userSpaceOnUse" gradientTransform="translate(0 0)"><stop id="eTfqPtcx8pR7-fill-0" offset="0%" stop-color="#158cff"/><stop id="eTfqPtcx8pR7-fill-1" offset="62.01%" stop-color="#a100ff"/></linearGradient></defs><rect width="24" height="24" rx="0" ry="0" fill="#fff" fill-opacity="0"/><g><path d="M12,13.7c-.3,0-.5-.2-.5-.5v-3.8c0-.3.2-.5.5-.5s.5.2.5.5v3.8c0,.2-.2.5-.5.5Z" fill="url(#eTfqPtcx8pR4-fill)"/><path d="M12,15.1c-.2,0-.4-.2-.4-.4s.2-.4.4-.4.4.2.4.4-.2.4-.4.4Zm0-.6c-.1,0-.2.1-.2.2c0,.2.4.2.4,0c0-.1-.1-.2-.2-.2Z" fill="url(#eTfqPtcx8pR5-fill)"/></g><g><path d="M11.2,1.5c-.9,0-1.7.8-1.7,1.7v.6c-.5.2-1,.4-1.5.6L7.6,4c-.7-.7-1.8-.7-2.4,0L4,5.2c-.7.6-.7,1.7,0,2.4l.4.4c-.2.5-.4,1-.6,1.5h-.6c-.9,0-1.7.8-1.7,1.7v1.7c0,.9.8,1.7,1.7,1.7h.6c.2.4.4.9.6,1.4l-.4.4c-.7.7-.7,1.7,0,2.4L5.2,20c.7.7,1.7.7,2.4,0l.4-.4c.5.2,1,.4,1.5.6v.6c0,.9.8,1.7,1.7,1.7h1.7c.9,0,1.7-.8,1.7-1.7v-.6c.5-.2,1-.4,1.4-.6l.4.4c.7.7,1.7.7,2.4,0L20,18.8c.7-.7.7-1.7,0-2.4l-.4-.4c.2-.5.4-.9.6-1.4h.6c.9,0,1.7-.8,1.7-1.7v-1.7c0-.9-.8-1.7-1.7-1.7h-.6c-.2-.5-.4-1-.6-1.5l.4-.4c.7-.7.7-1.7,0-2.4L18.8,4c-.7-.7-1.7-.7-2.4,0l-.4.4c-.5-.2-1-.4-1.5-.6v-.6c0-.9-.8-1.7-1.7-1.7h-1.6Zm0,1.2h1.7c.3,0,.5.2.5.5v1.1c0,.3.2.5.5.6.7.2,1.4.5,2,.8.2.1.6.1.8-.1l.8-.8c.2-.2.5-.2.7,0L19.4,6c.2.2.2.5,0,.7l-.8.8c-.2.2-.2.5-.1.8.4.6.6,1.3.8,2c.1.3.3.5.6.5h1.1c.3,0,.5.2.5.5v1.7c0,.3-.2.5-.5.5h-1.1c-.3,0-.5.2-.6.5-.2.7-.5,1.4-.8,2-.1.2-.1.6.1.8l.8.8c.2.2.2.5,0,.7l-1.2,1.2c-.2.2-.5.2-.7,0l-.8-.8c-.2-.2-.5-.2-.8-.1-.6.4-1.3.6-2,.8-.3.1-.5.3-.5.6v1.1c0,.3-.2.5-.5.5h-1.7c-.3,0-.5-.2-.5-.5v-1.1c0-.3-.2-.5-.5-.6-.7-.2-1.4-.5-2-.8-.2-.1-.6-.1-.8.1l-.8.8c-.2.2-.5.2-.7,0L4.7,18.3c-.2-.2-.2-.5,0-.7l.8-.8c.2-.2.2-.5.1-.8-.4-.6-.6-1.3-.8-2-.1-.3-.3-.5-.6-.5h-1c-.3,0-.5-.2-.5-.5v-1.7c0-.3.2-.5.5-.5h1.1c.3,0,.5-.2.6-.5.2-.7.5-1.4.8-2c.2-.3.1-.6-.1-.8l-.7-.8c-.2-.2-.2-.5,0-.7L6.1,4.8c.2-.2.5-.2.7,0l.8.8c.1.2.4.3.6.1.6-.4,1.3-.6,2-.8.3-.1.5-.3.5-.6v-1.1c0-.3.2-.5.5-.5v0Zm.8,4C9.1,6.7,6.7,9.1,6.7,12s2.4,5.3,5.3,5.3s5.3-2.4,5.3-5.3-2.4-5.3-5.3-5.3ZM12,8c2.2,0,4,1.8,4,4s-1.8,4-4,4-4-1.8-4-4s1.8-4,4-4Z" clip-rule="evenodd" fill="url(#eTfqPtcx8pR7-fill)" fill-rule="evenodd"/></g></svg>
