<?xml version="1.0" encoding="utf-8"?>
<!-- Generator: Adobe Illustrator 28.0.0, SVG Export Plug-In . SVG Version: 6.00 Build 0)  -->
<svg version="1.1" id="eTfqPtcx8pR1" shape-rendering="geometricPrecision" text-rendering="geometricPrecision"
	 xmlns="http://www.w3.org/2000/svg" xmlns:xlink="http://www.w3.org/1999/xlink" x="0px" y="0px" viewBox="0 0 24 24"
	 style="enable-background:new 0 0 24 24;" xml:space="preserve">
<style type="text/css">
	.st0{fill:#FFFFFF;fill-opacity:0;}
	.st1{fill-rule:evenodd;clip-rule:evenodd;fill:#0B539B;}
	.st2{fill:#36B209;}
	.st3{fill-rule:evenodd;clip-rule:evenodd;fill:#36B209;}
</style>
<rect class="st0" width="24" height="24"/>
<g>
	<path class="st1" d="M11.2,1.5c-0.9,0-1.7,0.8-1.7,1.7v0.6C9,4,8.5,4.2,8,4.4L7.6,4C6.9,3.3,5.8,3.3,5.2,4L4,5.2
		C3.3,5.8,3.3,6.9,4,7.6L4.4,8C4.2,8.5,4,9,3.8,9.5H3.2c-0.9,0-1.7,0.8-1.7,1.7v1.7c0,0.9,0.8,1.7,1.7,1.7h0.6C4,15,4.2,15.5,4.4,16
		L4,16.4c-0.7,0.7-0.7,1.7,0,2.4L5.2,20c0.7,0.7,1.7,0.7,2.4,0L8,19.6c0.5,0.2,1,0.4,1.5,0.6v0.6c0,0.9,0.8,1.7,1.7,1.7h1.7
		c0.9,0,1.7-0.8,1.7-1.7v-0.6c0.5-0.2,1-0.4,1.4-0.6l0.4,0.4c0.7,0.7,1.7,0.7,2.4,0l1.2-1.2c0.7-0.7,0.7-1.7,0-2.4L19.6,16
		c0.2-0.5,0.4-0.9,0.6-1.4h0.6c0.9,0,1.7-0.8,1.7-1.7v-1.7c0-0.9-0.8-1.7-1.7-1.7h-0.6C20,9,19.8,8.5,19.6,8L20,7.6
		c0.7-0.7,0.7-1.7,0-2.4L18.8,4c-0.7-0.7-1.7-0.7-2.4,0L16,4.4c-0.5-0.2-1-0.4-1.5-0.6V3.2c0-0.9-0.8-1.7-1.7-1.7H11.2z M11.2,2.7
		h1.7c0.3,0,0.5,0.2,0.5,0.5v1.1c0,0.3,0.2,0.5,0.5,0.6c0.7,0.2,1.4,0.5,2,0.8c0.2,0.1,0.6,0.1,0.8-0.1l0.8-0.8
		c0.2-0.2,0.5-0.2,0.7,0L19.4,6c0.2,0.2,0.2,0.5,0,0.7l-0.8,0.8c-0.2,0.2-0.2,0.5-0.1,0.8c0.4,0.6,0.6,1.3,0.8,2
		c0.1,0.3,0.3,0.5,0.6,0.5H21c0.3,0,0.5,0.2,0.5,0.5V13c0,0.3-0.2,0.5-0.5,0.5h-1.1c-0.3,0-0.5,0.2-0.6,0.5c-0.2,0.7-0.5,1.4-0.8,2
		c-0.1,0.2-0.1,0.6,0.1,0.8l0.8,0.8c0.2,0.2,0.2,0.5,0,0.7l-1.2,1.2c-0.2,0.2-0.5,0.2-0.7,0l-0.8-0.8c-0.2-0.2-0.5-0.2-0.8-0.1
		c-0.6,0.4-1.3,0.6-2,0.8c-0.3,0.1-0.5,0.3-0.5,0.6v1.1c0,0.3-0.2,0.5-0.5,0.5h-1.7c-0.3,0-0.5-0.2-0.5-0.5V20
		c0-0.3-0.2-0.5-0.5-0.6c-0.7-0.2-1.4-0.5-2-0.8c-0.2-0.1-0.6-0.1-0.8,0.1l-0.8,0.8c-0.2,0.2-0.5,0.2-0.7,0l-1.2-1.2
		c-0.2-0.2-0.2-0.5,0-0.7l0.8-0.8c0.2-0.2,0.2-0.5,0.1-0.8c-0.4-0.6-0.6-1.3-0.8-2c-0.1-0.3-0.3-0.5-0.6-0.5h-1
		c-0.3,0-0.5-0.2-0.5-0.5v-1.7c0-0.3,0.2-0.5,0.5-0.5h1.1c0.3,0,0.5-0.2,0.6-0.5c0.2-0.7,0.5-1.4,0.8-2C5.9,8,5.8,7.7,5.6,7.5
		L4.9,6.7C4.7,6.5,4.7,6.2,4.9,6l1.2-1.2c0.2-0.2,0.5-0.2,0.7,0l0.8,0.8C7.7,5.8,8,5.9,8.2,5.7c0.6-0.4,1.3-0.6,2-0.8
		c0.3-0.1,0.5-0.3,0.5-0.6V3.2C10.7,2.9,10.9,2.7,11.2,2.7L11.2,2.7z"/>
</g>
<g>
	<path class="st2" d="M12,13.7c-0.3,0-0.5-0.2-0.5-0.5V9.4c0-0.3,0.2-0.5,0.5-0.5s0.5,0.2,0.5,0.5v3.8C12.5,13.4,12.3,13.7,12,13.7z
		"/>
	<path class="st2" d="M12,15.1c-0.2,0-0.4-0.2-0.4-0.4s0.2-0.4,0.4-0.4s0.4,0.2,0.4,0.4S12.2,15.1,12,15.1z M12,14.5
		c-0.1,0-0.2,0.1-0.2,0.2c0,0.2,0.4,0.2,0.4,0C12.2,14.6,12.1,14.5,12,14.5z"/>
</g>
<path class="st3" d="M12,6.7c-2.9,0-5.3,2.4-5.3,5.3c0,2.9,2.4,5.3,5.3,5.3c2.9,0,5.3-2.4,5.3-5.3C17.3,9.1,14.9,6.7,12,6.7z M12,16
	c-2.2,0-4-1.8-4-4s1.8-4,4-4c2.2,0,4,1.8,4,4S14.2,16,12,16z"/>
</svg>
