<?xml version="1.0" encoding="utf-8"?>
<!-- Generator: Adobe Illustrator 28.0.0, SVG Export Plug-In . SVG Version: 6.00 Build 0)  -->
<svg version="1.1" id="eQOq74GPLz11" shape-rendering="geometricPrecision" text-rendering="geometricPrecision"
	 xmlns="http://www.w3.org/2000/svg" xmlns:xlink="http://www.w3.org/1999/xlink" x="0px" y="0px" viewBox="0 0 24 24"
	 style="enable-background:new 0 0 24 24;" xml:space="preserve">
<style type="text/css">
	.st0{fill:#FFFFFF;fill-opacity:0;}
	.st1{fill-rule:evenodd;clip-rule:evenodd;fill:#36B209;}
	.st2{fill-rule:evenodd;clip-rule:evenodd;fill:#0B539B;}
	.st3{fill-rule:evenodd;clip-rule:evenodd;fill:#FFFFFF;}
</style>
<rect class="st0" width="24" height="24"/>
<path class="st1" d="M5.8,2.6L5.8,2.6L5.8,2.6L2.5,5.8C2.2,6.1,2,6.5,2,7v13.5C2,21.3,2.6,22,3.5,22H12c0.3,0,0.5-0.2,0.5-0.5
	S12.3,21,12,21H3.5C3.2,21,3,20.8,3,20.5C3,17.7,3,9.8,3,7c0-0.2,0-0.3,0.1-0.4l0,0c0.1-0.1,0.2-0.1,0.3-0.1H5
	c0.8,0,1.5-0.7,1.5-1.5c0-0.5,0-1,0-1.5C6.5,3.2,6.7,3,7,3h8.8c0.3,0,0.5,0.2,0.5,0.5V10c0,0.3,0.2,0.5,0.5,0.5s0.5-0.2,0.5-0.5V3.5
	c0-0.8-0.7-1.5-1.5-1.5C13.8,2,9,2,7,2C6.5,2,6.1,2.2,5.8,2.6z M6.2,15.5h3.5c0.3,0,0.5-0.2,0.5-0.5s-0.2-0.5-0.5-0.5H6.2
	c-0.3,0-0.5,0.2-0.5,0.5S5.9,15.5,6.2,15.5z M6.2,12.5h3.5c0.3,0,0.5-0.2,0.5-0.5s-0.2-0.5-0.5-0.5H6.2c-0.3,0-0.5,0.2-0.5,0.5
	S5.9,12.5,6.2,12.5z M6.2,9.5h7c0.3,0,0.5-0.2,0.5-0.5s-0.2-0.5-0.5-0.5h-7C5.9,8.5,5.7,8.7,5.7,9S5.9,9.5,6.2,9.5z M5.5,4.3
	L4.3,5.5H5c0.3,0,0.5-0.2,0.5-0.5V4.3z"/>
<path class="st2" d="M18.5,12.3V12c0-0.3-0.2-0.5-0.5-0.5h-2.4c-0.3,0-0.5,0.2-0.5,0.5v0.3c-0.5,0.2-0.9,0.4-1.3,0.8l-0.3-0.2
	c-0.2-0.1-0.5-0.1-0.7,0.2l-1.2,2c-0.1,0.2-0.1,0.5,0.2,0.7l0.3,0.2c0,0.2-0.1,0.5-0.1,0.8s0,0.5,0.1,0.8l-0.3,0.2
	c-0.2,0.1-0.3,0.4-0.2,0.7l1.2,2c0.1,0.2,0.4,0.3,0.7,0.2l0.3-0.2c0.4,0.3,0.8,0.6,1.3,0.8v0.3c0,0.3,0.2,0.5,0.5,0.5H18
	c0.3,0,0.5-0.2,0.5-0.5v-0.3c0.5-0.2,0.9-0.4,1.3-0.8l0.3,0.2c0.2,0.1,0.5,0.1,0.7-0.2l1.2-2c0.1-0.2,0.1-0.5-0.2-0.7l-0.3-0.2
	c0-0.2,0.1-0.5,0.1-0.8s0-0.5-0.1-0.8l0.3-0.2c0.2-0.1,0.3-0.4,0.2-0.7l-1.2-2c-0.1-0.2-0.4-0.3-0.7-0.2l-0.3,0.2
	C19.4,12.8,19,12.5,18.5,12.3z"/>
<path class="st3" d="M17.5,12.7c0,0.2,0.1,0.4,0.4,0.5c0.6,0.2,1.1,0.5,1.5,0.9c0.2,0.2,0.4,0.2,0.6,0.1l0.2-0.1l0.7,1.2l-0.2,0.1
	c-0.2,0.1-0.3,0.3-0.2,0.6s0.1,0.6,0.1,0.9s0,0.6-0.1,0.9c-0.1,0.2,0,0.4,0.2,0.6l0.2,0.1l-0.7,1.2L20,19.3
	c-0.2-0.1-0.4-0.1-0.6,0.1c-0.4,0.4-1,0.7-1.5,0.9c-0.2,0.1-0.4,0.3-0.4,0.5V21h-1.4v-0.2c0-0.2-0.1-0.4-0.4-0.5
	c-0.6-0.2-1.1-0.5-1.5-0.9c-0.2-0.2-0.4-0.2-0.6-0.1l-0.2,0.1l-0.7-1.2l0.2-0.1c0.2-0.1,0.3-0.3,0.2-0.6S13,16.9,13,16.6
	s0-0.6,0.1-0.9c0.1-0.2,0-0.4-0.2-0.6L12.7,15l0.7-1.2l0.2,0.1c0.2,0.1,0.4,0.1,0.6-0.1c0.4-0.4,1-0.7,1.5-0.9
	c0.2-0.1,0.4-0.3,0.4-0.5v-0.2h1.4C17.5,12.5,17.5,12.7,17.5,12.7z"/>
<path class="st2" d="M16.8,14c-1.5,0-2.8,1.2-2.8,2.8c0,1.5,1.2,2.8,2.8,2.8c1.5,0,2.8-1.2,2.8-2.8S18.3,14,16.8,14z"/>
<circle class="st3" cx="16.8" cy="16.8" r="1.8"/>
</svg>
