<svg id="eQOq74GPLz11" xmlns="http://www.w3.org/2000/svg" xmlns:xlink="http://www.w3.org/1999/xlink" viewBox="0 0 24 24" shape-rendering="geometricPrecision" text-rendering="geometricPrecision" width="24" height="24" style="background-color:transparent"><defs><linearGradient id="eQOq74GPLz13-fill" x1="1.9617" y1="12" x2="22.0383" y2="12" spreadMethod="pad" gradientUnits="userSpaceOnUse" gradientTransform="translate(0 0)"><stop id="eQOq74GPLz13-fill-0" offset="0%" stop-color="#158cff"/><stop id="eQOq74GPLz13-fill-1" offset="62.01%" stop-color="#a100ff"/></linearGradient></defs><rect width="24" height="24" rx="0" ry="0" opacity="0" fill="#fff"/><path d="M5.8,2.6v0c0,0,0,0,0,0L2.5,5.8C2.2,6.1,2,6.5,2,7v13.5c0,.8.6,1.5,1.5,1.5h8.5c.3,0,.5-.2.5-.5s-.2-.5-.5-.5h-8.5c-.3,0-.5-.2-.5-.5C3,17.7,3,9.8,3,7c0-.2,0-.3.1-.4c0,0,0,0,0,0c.1-.1.2-.1.3-.1h1.6c.8,0,1.5-.7,1.5-1.5c0-.5,0-1,0-1.5c0-.3.2-.5.5-.5h8.8c.3,0,.5.2.5.5v6.5c0,.3.2.5.5.5s.5-.2.5-.5v-6.5c0-.8-.7-1.5-1.5-1.5C13.8,2,9,2,7,2c-.5,0-.9.2-1.2.6Zm12.7,9.7v-.3c0-.3-.2-.5-.5-.5h-2.4c-.3,0-.5.2-.5.5v.3c-.5.2-.9.4-1.3.8c0,0-.3-.2-.3-.2-.2-.1-.5-.1-.7.2l-1.2,2c-.1.2-.1.5.2.7l.3.2c0,.2-.1.5-.1.8s0,.5.1.8l-.3.2c-.2.1-.3.4-.2.7l1.2,2c.1.2.4.3.7.2l.3-.2c.4.3.8.6,1.3.8v.3c0,.3.2.5.5.5h2.4c.3,0,.5-.2.5-.5v-.3c.5-.2.9-.4,1.3-.8c0,0,.3.2.3.2.2.1.5.1.7-.2l1.2-2c.1-.2.1-.5-.2-.7l-.3-.2c0-.2.1-.5.1-.8s0-.5-.1-.8l.3-.2c.2-.1.3-.4.2-.7l-1.2-2c-.1-.2-.4-.3-.7-.2l-.3.2c-.4-.3-.8-.6-1.3-.8Zm-1,.4c0,.2.1.4.4.5.6.2,1.1.5,1.5.9.2.2.4.2.6.1l.2-.1.7,1.2-.2.1c-.2.1-.3.3-.2.6s.1.6.1.9s0,.6-.1.9c-.1.2,0,.4.2.6l.2.1-.7,1.2-.2-.4c-.2-.1-.4-.1-.6.1-.4.4-1,.7-1.5.9-.2.1-.4.3-.4.5v.2h-1.4v-.2c0-.2-.1-.4-.4-.5-.6-.2-1.1-.5-1.5-.9-.2-.2-.4-.2-.6-.1l-.2.1-.7-1.2.2-.1c.2-.1.3-.3.2-.6s-.1-.6-.1-.9s0-.6.1-.9c.1-.2,0-.4-.2-.6l-.2-.1.7-1.2.2.1c.2.1.4.1.6-.1.4-.4,1-.7,1.5-.9.2-.1.4-.3.4-.5v-.2h1.4c0,.3,0,.5,0,.5ZM16.8,14c-1.5,0-2.8,1.2-2.8,2.8c0,1.5,1.2,2.8,2.8,2.8c1.5,0,2.8-1.2,2.8-2.8s-1.3-2.8-2.8-2.8Zm0,1c1,0,1.8.8,1.8,1.8s-.8,1.8-1.8,1.8-1.8-.8-1.8-1.8.9-1.8,1.8-1.8Zm-10.6.5h3.5c.3,0,.5-.2.5-.5s-.2-.5-.5-.5h-3.5c-.3,0-.5.2-.5.5s.2.5.5.5Zm0-3h3.5c.3,0,.5-.2.5-.5s-.2-.5-.5-.5h-3.5c-.3,0-.5.2-.5.5s.2.5.5.5Zm0-3h7c.3,0,.5-.2.5-.5s-.2-.5-.5-.5h-7c-.3,0-.5.2-.5.5s.2.5.5.5ZM5.5,4.3L4.3,5.5h.7c.3,0,.5-.2.5-.5v-.7Z" clip-rule="evenodd" fill="url(#eQOq74GPLz13-fill)" fill-rule="evenodd"/></svg>
