<svg width="18" height="18" viewBox="0 0 18 18" fill="none" xmlns="http://www.w3.org/2000/svg">
<path d="M13.981 0H4C1.79048 0 0 1.79048 0 4V14C0 16.2095 1.79048 18 4 18H14C16.2095 18 18 16.2095 18 14V4.01905C18 1.80952 16.1905 0 13.981 0ZM16.3619 14.381C16.3619 15.4857 15.4667 16.381 14.3619 16.381H3.61905C2.51429 16.381 1.61905 15.4857 1.61905 14.381V3.63809C1.61905 2.53333 2.51429 1.6381 3.61905 1.6381H14.3619C15.4667 1.6381 16.3619 2.53333 16.3619 3.63809V14.381Z" fill="black"/>
<path d="M14 3.21906H3.98096C3.54287 3.21906 3.20001 3.56191 3.20001 4.00001V14.0191C3.20001 14.4572 3.54287 14.8 3.98096 14.8H14C14.4381 14.8 14.781 14.4572 14.781 14.0191V4.00001C14.781 3.58096 14.4191 3.21906 14 3.21906ZM8.99049 14.1524C6.15239 14.1524 3.84763 11.8476 3.84763 9.00953C3.84763 6.17144 6.15239 3.86667 8.99049 3.86667C11.8286 3.86667 14.1333 6.17144 14.1333 9.00953C14.1333 11.8476 11.8286 14.1524 8.99049 14.1524Z" fill="black"/>
<path d="M8.99051 4.39996C6.43812 4.39996 4.38098 6.47615 4.38098 9.00949C4.38098 11.5428 6.43812 13.619 8.99051 13.619C11.5429 13.619 13.6 11.5619 13.6 9.00949C13.6 6.45711 11.5429 4.39996 8.99051 4.39996ZM8.99051 11.7714C7.4667 11.7714 6.2286 10.5333 6.2286 9.00949C6.2286 7.48568 7.4667 6.24758 8.99051 6.24758C10.5143 6.24758 11.7524 7.48568 11.7524 9.00949C11.7524 10.5333 10.5143 11.7714 8.99051 11.7714Z" fill="black"/>
<path d="M8.99047 6.78094C7.75238 6.78094 6.7619 7.79047 6.7619 9.00952C6.7619 10.2476 7.77143 11.2381 8.99047 11.2381C10.2095 11.2381 11.219 10.2476 11.219 9.00952C11.219 7.77142 10.2286 6.78094 8.99047 6.78094ZM8.99047 9.77142C8.57143 9.77142 8.22857 9.42856 8.22857 9.00952C8.22857 8.59047 8.57143 8.24761 8.99047 8.24761C9.40952 8.24761 9.75238 8.59047 9.75238 9.00952C9.75238 9.42856 9.40952 9.77142 8.99047 9.77142Z" fill="black"/>
<path d="M5.63812 2.85717C5.90111 2.85717 6.11431 2.64397 6.11431 2.38098C6.11431 2.11798 5.90111 1.90479 5.63812 1.90479C5.37512 1.90479 5.16193 2.11798 5.16193 2.38098C5.16193 2.64397 5.37512 2.85717 5.63812 2.85717Z" fill="black"/>
<path d="M12.3429 2.85717C12.6059 2.85717 12.8191 2.64397 12.8191 2.38098C12.8191 2.11798 12.6059 1.90479 12.3429 1.90479C12.0799 1.90479 11.8667 2.11798 11.8667 2.38098C11.8667 2.64397 12.0799 2.85717 12.3429 2.85717Z" fill="black"/>
<path d="M5.63812 15.9238C5.90111 15.9238 6.11431 15.7106 6.11431 15.4476C6.11431 15.1846 5.90111 14.9714 5.63812 14.9714C5.37512 14.9714 5.16193 15.1846 5.16193 15.4476C5.16193 15.7106 5.37512 15.9238 5.63812 15.9238Z" fill="black"/>
<path d="M12.3429 15.9238C12.6059 15.9238 12.8191 15.7106 12.8191 15.4476C12.8191 15.1846 12.6059 14.9714 12.3429 14.9714C12.0799 14.9714 11.8667 15.1846 11.8667 15.4476C11.8667 15.7106 12.0799 15.9238 12.3429 15.9238Z" fill="black"/>
<path d="M2.45715 12.7428C2.72014 12.7428 2.93334 12.5296 2.93334 12.2667C2.93334 12.0037 2.72014 11.7905 2.45715 11.7905C2.19415 11.7905 1.98096 12.0037 1.98096 12.2667C1.98096 12.5296 2.19415 12.7428 2.45715 12.7428Z" fill="black"/>
<path d="M2.45715 6.03807C2.72014 6.03807 2.93334 5.82488 2.93334 5.56188C2.93334 5.29889 2.72014 5.08569 2.45715 5.08569C2.19415 5.08569 1.98096 5.29889 1.98096 5.56188C1.98096 5.82488 2.19415 6.03807 2.45715 6.03807Z" fill="black"/>
<path d="M15.5238 12.7428C15.7868 12.7428 16 12.5296 16 12.2667C16 12.0037 15.7868 11.7905 15.5238 11.7905C15.2608 11.7905 15.0476 12.0037 15.0476 12.2667C15.0476 12.5296 15.2608 12.7428 15.5238 12.7428Z" fill="black"/>
<path d="M15.5238 6.03807C15.7868 6.03807 16 5.82488 16 5.56188C16 5.29889 15.7868 5.08569 15.5238 5.08569C15.2608 5.08569 15.0476 5.29889 15.0476 5.56188C15.0476 5.82488 15.2608 6.03807 15.5238 6.03807Z" fill="black"/>
</svg>
