<svg width="20" height="20" viewBox="0 0 20 20" fill="none" xmlns="http://www.w3.org/2000/svg">
<path d="M1 4C1 2.89543 1.89543 2 3 2H17C18.1046 2 19 2.89543 19 4V7H1V4Z" fill="#006EAD"/>
<path d="M17.1226 1.06129H15.0032V0.645161C15.0032 0.474054 14.9353 0.309954 14.8143 0.188963C14.6933 0.0679717 14.5292 0 14.3581 0C14.187 0 14.0229 0.0679717 13.9019 0.188963C13.7809 0.309954 13.7129 0.474054 13.7129 0.645161V1.06129H6.34194V0.645161C6.34194 0.474054 6.27396 0.309954 6.15297 0.188963C6.03198 0.0679717 5.86788 0 5.69677 0C5.52567 0 5.36157 0.0679717 5.24058 0.188963C5.11958 0.309954 5.05161 0.474054 5.05161 0.645161V1.06129H2.87742C2.11484 1.06129 1.38344 1.364 0.843916 1.90293C0.304388 2.44185 0.000854911 3.1729 0 3.93548V16.7097C0.000854911 17.4723 0.304388 18.2033 0.843916 18.7422C1.38344 19.2812 2.11484 19.5839 2.87742 19.5839H17.1226C17.8852 19.5839 18.6166 19.2812 19.1561 18.7422C19.6956 18.2033 19.9991 17.4723 20 16.7097V3.93548C19.9991 3.1729 19.6956 2.44185 19.1561 1.90293C18.6166 1.364 17.8852 1.06129 17.1226 1.06129ZM1.29032 3.93548C1.29032 3.51541 1.45719 3.11255 1.75423 2.81552C2.05126 2.51848 2.45412 2.35161 2.87419 2.35161H5.04839V2.77097C5.04839 2.94207 5.11636 3.10617 5.23735 3.22717C5.35834 3.34816 5.52244 3.41613 5.69355 3.41613C5.86466 3.41613 6.02875 3.34816 6.14975 3.22717C6.27074 3.10617 6.33871 2.94207 6.33871 2.77097V2.35161H13.7129V2.77097C13.7129 2.94207 13.7809 3.10617 13.9019 3.22717C14.0229 3.34816 14.187 3.41613 14.3581 3.41613C14.5292 3.41613 14.6933 3.34816 14.8143 3.22717C14.9353 3.10617 15.0032 2.94207 15.0032 2.77097V2.35161H17.1226C17.3308 2.35119 17.5372 2.39184 17.7297 2.47125C17.9222 2.55066 18.0972 2.66726 18.2446 2.81438C18.392 2.96149 18.509 3.13624 18.5888 3.32862C18.6686 3.52099 18.7097 3.72721 18.7097 3.93548V6.31613H1.29032V3.93548ZM17.1226 18.2935H2.87742C2.66915 18.294 2.46284 18.2533 2.27031 18.1739C2.07777 18.0945 1.90279 17.9779 1.75537 17.8308C1.60795 17.6837 1.49099 17.5089 1.4112 17.3165C1.3314 17.1242 1.29032 16.9179 1.29032 16.7097V7.60645H18.7097V16.7097C18.7097 16.9179 18.6686 17.1242 18.5888 17.3165C18.509 17.5089 18.392 17.6837 18.2446 17.8308C18.0972 17.9779 17.9222 18.0945 17.7297 18.1739C17.5372 18.2533 17.3308 18.294 17.1226 18.2935Z" fill="#003566"/>
<rect x="2" y="9" width="1.13333" height="1" fill="black"/>
<rect x="8.80005" y="9" width="1.13333" height="1" fill="black"/>
<rect x="4.26672" y="9" width="1.13333" height="1" fill="black"/>
<rect x="11.0667" y="9" width="1.13333" height="1" fill="black"/>
<rect x="15.6" y="9" width="1.13333" height="1" fill="black"/>
<rect x="6.53333" y="9" width="1.13333" height="1" fill="black"/>
<rect x="13.3334" y="9" width="1.13333" height="1" fill="black"/>
<rect x="2" y="11" width="1.13333" height="1" fill="black"/>
<rect x="8.80005" y="11" width="1.13333" height="1" fill="black"/>
<rect x="4.26672" y="11" width="1.13333" height="1" fill="black"/>
<rect x="11.0667" y="11" width="1.13333" height="1" fill="black"/>
<rect x="15.6" y="11" width="1.13333" height="1" fill="black"/>
<rect x="6.53333" y="11" width="1.13333" height="1" fill="black"/>
<rect x="13.3334" y="11" width="1.13333" height="1" fill="black"/>
<rect x="2" y="13" width="1.13333" height="1" fill="black"/>
<rect x="8.80005" y="13" width="1.13333" height="1" fill="black"/>
<rect x="4.26672" y="13" width="1.13333" height="1" fill="black"/>
<rect x="11.0667" y="13" width="1.13333" height="1" fill="black"/>
<rect x="15.6" y="13" width="1.13333" height="1" fill="black"/>
<rect x="6.53333" y="13" width="1.13333" height="1" fill="black"/>
<rect x="13.3334" y="13" width="1.13333" height="1" fill="black"/>
<rect x="2" y="15" width="1.13333" height="1" fill="black"/>
<rect x="8.80005" y="15" width="1.13333" height="1" fill="black"/>
<rect x="4.26672" y="15" width="1.13333" height="1" fill="black"/>
<rect x="11.0667" y="15" width="1.13333" height="1" fill="black"/>
<rect x="15.6" y="15" width="1.13333" height="1" fill="black"/>
<rect x="6.53333" y="15" width="1.13333" height="1" fill="black"/>
<rect x="13.3334" y="15" width="1.13333" height="1" fill="black"/>
</svg>
