<svg width="16" height="22" viewBox="0 0 16 22" fill="none" xmlns="http://www.w3.org/2000/svg">
<path d="M14 4.20001H12.2C12.1 3.40001 11.4 2.80001 10.6 2.70001C10.3 1.50001 9.20001 0.700012 8.00001 0.700012C6.80001 0.700012 5.70001 1.50001 5.40001 2.70001C4.50001 2.80001 3.90001 3.40001 3.80001 4.20001H2.00001C1.00001 4.20001 0.200012 5.00001 0.200012 6.00001V19.5C0.200012 20.5 1.00001 21.3 2.00001 21.3H14C15 21.3 15.8 20.5 15.8 19.5V6.00001C15.8 5.00001 15 4.20001 14 4.20001ZM5.20001 4.50001C5.20001 4.40001 5.30001 4.30001 5.40001 4.30001H6.00001C6.40001 4.30001 6.80001 4.00001 6.80001 3.50001C6.80001 2.80001 7.40001 2.30001 8.00001 2.30001C8.60001 2.30001 9.20001 2.90001 9.20001 3.50001C9.20001 3.90001 9.50001 4.30001 10 4.30001H10.5C10.6 4.30001 10.7 4.40001 10.7 4.50001V5.50001C10.7 5.60001 10.6 5.70001 10.5 5.70001H5.50001C5.40001 5.70001 5.30001 5.60001 5.30001 5.50001V4.50001H5.20001ZM14.2 19.5C14.2 19.6 14.1 19.7 14 19.7H2.00001C1.90001 19.7 1.80001 19.6 1.80001 19.5V6.00001C1.80001 5.90001 1.90001 5.80001 2.00001 5.80001H3.80001C3.90001 6.60001 4.60001 7.30001 5.50001 7.30001H10.5C11.4 7.30001 12.1 6.60001 12.2 5.80001H14C14.1 5.80001 14.2 5.90001 14.2 6.00001V19.5Z" fill="black"/>
<path d="M5.7 15.1C5.9 15.3 6.1 15.3 6.3 15.1C6.5 14.9 6.5 14.7 6.3 14.5C5.7 13.9 4.8 13.9 4.2 14.5C3.6 15.1 3.6 16 4.2 16.6C4.8 17.2 5.7 17.2 6.3 16.6C6.5 16.4 6.5 16.2 6.3 16C6.1 15.8 5.9 15.8 5.7 16C5.4 16.3 5 16.3 4.7 16C4.4 15.7 4.4 15.3 4.7 15C5 14.8 5.4 14.8 5.7 15.1Z" fill="black"/>
<path d="M11.8 8.50001C11.6 8.30001 11.4 8.20001 11.1 8.20001C10.8 8.20001 10.6 8.30001 10.4 8.50001L6.30003 12.6H6.20003C4.60003 12 2.80003 12.8 2.10003 14.4C1.50003 16 2.30003 17.8 3.90003 18.5C5.50003 19.2 7.30003 18.3 8.00003 16.7C8.30003 16 8.30003 15.2 8.00003 14.5V14.4L9.10003 13.3L10 14.2C10.3 14.5 10.7 14.5 11 14.2L11.8 13.4C12.1 13.1 12.1 12.7 11.8 12.4L11 11.5L11.2 11.3L12.1 12.2C12.4 12.5 12.8 12.5 13.1 12.2L13.9 11.4C14.2 11.1 14.2 10.7 13.9 10.4L11.8 8.50001ZM12.5 11.5L11.6 10.6C11.3 10.3 10.9 10.3 10.6 10.6L10.3 11C10 11.3 10 11.7 10.3 12L11.2 12.9L10.6 13.5L9.70003 12.6C9.40003 12.3 9.00003 12.3 8.70003 12.6L7.50003 13.8C7.20003 14.1 7.10003 14.4 7.30003 14.8C7.80003 16 7.20003 17.3 6.00003 17.8C5.70003 17.9 5.30003 18 4.90003 17.9C4.20003 17.8 3.60003 17.4 3.20003 16.8C2.50003 15.7 2.80003 14.3 3.90003 13.6C4.30003 13.4 4.70003 13.2 5.10003 13.2C5.40003 13.2 5.70003 13.3 5.90003 13.4C6.20003 13.5 6.60003 13.4 6.90003 13.2L11 9.10001C11 9.00001 11.1 9.00001 11.2 9.10001L13 10.9L12.5 11.5Z" fill="black"/>
</svg>
