<svg width="20" height="20" viewBox="0 0 20 20" fill="none" xmlns="http://www.w3.org/2000/svg">
<g clip-path="url(#clip0_3_92)">
<path d="M8.05625 15.86V9.1925H7.265C6.6983 9.49459 6.15062 9.83105 5.625 10.2V11.0687C6.09375 10.7475 6.83625 10.2938 7.1975 10.0975H7.2125V15.86H8.05625ZM9.54125 14.2288C9.6 15.0288 10.2838 15.9862 11.67 15.9862C13.2425 15.9862 14.17 14.6538 14.17 12.3975C14.17 9.98 13.1937 9.0625 11.7287 9.0625C10.5712 9.0625 9.4825 9.9025 9.4825 11.3238C9.4825 12.7738 10.5125 13.5363 11.5775 13.5363C12.51 13.5363 13.115 13.0662 13.3062 12.5487H13.34C13.335 14.1937 12.7637 15.2537 11.7087 15.2537C10.8787 15.2537 10.4488 14.6913 10.3963 14.2288H9.54125ZM13.2325 11.3325C13.2325 12.2025 12.5338 12.8075 11.7525 12.8075C11.0012 12.8075 10.3225 12.3287 10.3225 11.3075C10.3225 10.2787 11.05 9.795 11.7825 9.795C12.5737 9.795 13.2325 10.2925 13.2325 11.3325Z" fill="black"/>
<path d="M4.375 0C4.54076 0 4.69973 0.065848 4.81694 0.183058C4.93415 0.300269 5 0.45924 5 0.625V1.25H15V0.625C15 0.45924 15.0658 0.300269 15.1831 0.183058C15.3003 0.065848 15.4592 0 15.625 0C15.7908 0 15.9497 0.065848 16.0669 0.183058C16.1842 0.300269 16.25 0.45924 16.25 0.625V1.25H17.5C18.163 1.25 18.7989 1.51339 19.2678 1.98223C19.7366 2.45107 20 3.08696 20 3.75V17.5C20 18.163 19.7366 18.7989 19.2678 19.2678C18.7989 19.7366 18.163 20 17.5 20H2.5C1.83696 20 1.20107 19.7366 0.732233 19.2678C0.263392 18.7989 0 18.163 0 17.5V3.75C0 3.08696 0.263392 2.45107 0.732233 1.98223C1.20107 1.51339 1.83696 1.25 2.5 1.25H3.75V0.625C3.75 0.45924 3.81585 0.300269 3.93306 0.183058C4.05027 0.065848 4.20924 0 4.375 0ZM2.5 2.5C2.16848 2.5 1.85054 2.6317 1.61612 2.86612C1.3817 3.10054 1.25 3.41848 1.25 3.75V17.5C1.25 17.8315 1.3817 18.1495 1.61612 18.3839C1.85054 18.6183 2.16848 18.75 2.5 18.75H17.5C17.8315 18.75 18.1495 18.6183 18.3839 18.3839C18.6183 18.1495 18.75 17.8315 18.75 17.5V3.75C18.75 3.41848 18.6183 3.10054 18.3839 2.86612C18.1495 2.6317 17.8315 2.5 17.5 2.5H2.5Z" fill="black"/>
<path d="M3.125 5C3.125 4.83424 3.19085 4.67527 3.30806 4.55806C3.42527 4.44085 3.58424 4.375 3.75 4.375H16.25C16.4158 4.375 16.5747 4.44085 16.6919 4.55806C16.8092 4.67527 16.875 4.83424 16.875 5V6.25C16.875 6.41576 16.8092 6.57473 16.6919 6.69194C16.5747 6.80915 16.4158 6.875 16.25 6.875H3.75C3.58424 6.875 3.42527 6.80915 3.30806 6.69194C3.19085 6.57473 3.125 6.41576 3.125 6.25V5Z" fill="black"/>
</g>
<defs>
<clipPath id="clip0_3_92">
<rect width="20" height="20" fill="white"/>
</clipPath>
</defs>
</svg>
