<svg width="19" height="18" viewBox="0 0 19 18" fill="none" xmlns="http://www.w3.org/2000/svg">
<path d="M17.3852 11.8031C17.0635 11.6517 16.666 11.8031 16.5146 12.1249C15.2654 14.8694 12.5209 16.6486 9.51141 16.6486C5.27166 16.6486 1.82687 13.2038 1.82687 8.96401C1.82687 5.32994 4.401 2.16906 7.95936 1.43089C8.31898 1.35518 8.54611 1.01448 8.4704 0.654861C8.39469 0.295239 8.054 0.0681099 7.69438 0.14382C3.54927 1.01448 0.520874 4.72426 0.520874 8.98294C0.520874 13.9419 4.55242 17.9735 9.51141 17.9735C13.0319 17.9735 16.2496 15.8915 17.707 12.6927C17.8584 12.352 17.707 11.9545 17.3852 11.8031Z" fill="#003566"/>
<path d="M16.7039 6.27625C16.7985 6.54124 17.0446 6.69266 17.3095 6.69266C17.3852 6.69266 17.461 6.67373 17.5367 6.6548C17.8774 6.52231 18.0477 6.14376 17.9152 5.822C17.7449 5.38666 17.5556 4.95133 17.3095 4.55386C17.1392 4.23209 16.7417 4.13745 16.4199 4.3078C16.0982 4.47815 16.0035 4.89455 16.1739 5.19739C16.401 5.53808 16.5714 5.8977 16.7039 6.27625Z" fill="#003566"/>
<path d="M10.3821 1.33621C10.7796 1.37407 11.1771 1.44978 11.5556 1.56334C11.6124 1.58227 11.6692 1.58227 11.7259 1.58227C12.0099 1.58227 12.2748 1.39299 12.3506 1.10908C12.4452 0.768388 12.237 0.408767 11.8963 0.295202C11.442 0.16271 10.9878 0.0870001 10.5146 0.0302177C10.155 -0.00763717 9.8332 0.257347 9.79535 0.598041C9.75749 0.97659 10.0225 1.29836 10.3821 1.33621Z" fill="#003566"/>
<path d="M13.7511 2.56645C14.0918 2.79358 14.4136 3.03964 14.6975 3.30462C14.83 3.41819 14.9814 3.47497 15.1328 3.47497C15.3032 3.47497 15.4925 3.39926 15.625 3.26677C15.871 3.00179 15.8521 2.58538 15.5871 2.33933C15.2464 2.01756 14.8679 1.73365 14.4704 1.46866C14.1675 1.26046 13.7701 1.3551 13.5619 1.65794C13.3537 1.96078 13.4483 2.35825 13.7511 2.56645Z" fill="#003566"/>
<path d="M18.502 8.56647C18.4831 8.20685 18.1802 7.90401 17.8206 7.94186C17.461 7.96079 17.1771 8.26363 17.196 8.62325C17.196 8.73682 17.196 8.85038 17.196 8.98287C17.196 9.26679 17.1771 9.5507 17.1581 9.83461C17.1203 10.1942 17.3853 10.516 17.7449 10.5539C17.7638 10.5539 17.8017 10.5539 17.8206 10.5539C18.1424 10.5539 18.4263 10.3078 18.4641 9.9671C18.502 9.64533 18.5209 9.30464 18.5209 8.98287C18.502 8.83145 18.502 8.69896 18.502 8.56647Z" fill="#003566"/>
<path d="M9.37897 9.62643L12.7291 10.2889C12.767 10.2889 12.8048 10.3078 12.8616 10.3078C13.1645 10.3078 13.4484 10.0996 13.5052 9.77785C13.5809 9.41823 13.3348 9.07754 12.9941 9.00183L10.1739 8.434V4.38353C10.1739 4.02391 9.89001 3.72107 9.51146 3.72107C9.13291 3.72107 8.849 4.00498 8.849 4.38353V8.96397C8.849 9.28574 9.07613 9.55072 9.37897 9.62643Z" fill="#003566"/>
</svg>
