<svg width="19" height="18" viewBox="0 0 19 18" fill="none" xmlns="http://www.w3.org/2000/svg">
<path d="M17.8754 5.33632L10.8211 0.847235C10.6254 0.724863 10.4003 0.657577 10.1695 0.652474C9.93874 0.647372 9.71087 0.704642 9.50993 0.818244C9.30899 0.931847 9.14244 1.09757 9.02783 1.29794C8.91322 1.4983 8.85481 1.72588 8.85876 1.95668H2.57404C2.0104 1.98006 1.47874 2.22485 1.09451 2.63789C0.710285 3.05094 0.504517 3.59888 0.521891 4.16274V15.1417C0.504517 15.7056 0.710285 16.2536 1.09451 16.6666C1.47874 17.0796 2.0104 17.3244 2.57404 17.3478H12.5526C12.8342 17.3404 13.1115 17.2773 13.3686 17.1622C13.6257 17.0471 13.8575 16.8823 14.0507 16.6772C14.2438 16.4722 14.3944 16.2309 14.4939 15.9674C14.5934 15.7039 14.6398 15.4233 14.6304 15.1417V9.61377L17.8882 7.5552C18.0819 7.44134 18.2423 7.27858 18.3534 7.08322C18.4644 6.88786 18.5222 6.66677 18.5209 6.44207C18.5196 6.21737 18.4592 5.99695 18.346 5.80289C18.2327 5.60883 18.0704 5.44794 17.8754 5.33632ZM13.3478 15.1417C13.3621 15.369 13.2869 15.5929 13.1383 15.7654C12.9897 15.938 12.7795 16.0456 12.5526 16.0652H2.57404C2.3518 16.0394 2.14799 15.9291 2.00476 15.7572C1.86153 15.5854 1.78983 15.365 1.80449 15.1417V4.16274C1.78983 3.93949 1.86153 3.71913 2.00476 3.54726C2.14799 3.37538 2.3518 3.26512 2.57404 3.23927H8.85876V4.16274C3.72838 4.46415 3.72838 8.36965 3.72838 11.5761C3.69861 11.7462 3.73763 11.9212 3.83685 12.0625C3.93607 12.2038 4.08736 12.2999 4.25745 12.3297C4.42753 12.3594 4.60247 12.3204 4.74378 12.2212C4.8851 12.122 4.98121 11.9707 5.01097 11.8006C5.33832 11.0093 5.86459 10.3159 6.53874 9.78786C7.21289 9.25977 8.01206 8.91483 8.85876 8.78649V10.9348C8.86341 11.1577 8.92607 11.3755 9.04054 11.5667C9.15501 11.758 9.31735 11.9161 9.51156 12.0255C9.70576 12.1349 9.92512 12.1918 10.148 12.1906C10.3709 12.1894 10.5896 12.1301 10.7826 12.0186L13.3478 10.4218V15.1417ZM10.1413 10.9348V8.10672C10.1413 7.93664 10.0738 7.77352 9.95352 7.65325C9.83325 7.53299 9.67013 7.46542 9.50005 7.46542C8.67657 7.459 7.86056 7.62191 7.10267 7.94404C6.34478 8.26617 5.66119 8.74065 5.09434 9.33801C5.30597 6.86902 6.15889 5.4261 9.50005 5.4261C9.67013 5.4261 9.83325 5.35853 9.95352 5.23827C10.0738 5.118 10.1413 4.95488 10.1413 4.7848C10.1413 3.07254 10.1413 3.43166 10.1413 1.95668L17.1956 6.44576C17.1956 6.44576 10.1413 10.8964 10.1413 10.9348Z" fill="#003566"/>
</svg>
