<svg id="ej0HSPqVurf1" xmlns="http://www.w3.org/2000/svg" xmlns:xlink="http://www.w3.org/1999/xlink" viewBox="0 0 46 42" shape-rendering="geometricPrecision" text-rendering="geometricPrecision" width="46" height="42" style="background-color:transparent"><g opacity="0"><rect width="46" height="42" rx="0" ry="0" fill="#fff"/></g><g><path d="M11.5,5.5h23c2.2,0,4,1.8,4,4v23c0,2.2-1.8,4-4,4h-23c-2.2,0-4-1.8-4-4v-23c0-2.2,1.8-4,4-4Z" fill="#597893"/><g><path d="M19.4,14.4c-2.3,0-4.2,1.9-4.2,4.2v6c0,2.3,1.9,4.2,4.2,4.2h6c2.3,0,4.2-1.9,4.2-4.2v-3c0-.3.3-.6.6-.6s.6.3.6.6v3c0,3-2.4,5.4-5.4,5.4h-6.1c-3,0-5.4-2.4-5.4-5.4v-6c0-3,2.4-5.4,5.4-5.4h3c.3,0,.6.3.6.6c0,.4-.3.6-.6.6c0,0-2.9,0-2.9,0Z" fill="#fff"/><path d="M32,15.6c0,2-1.6,3.6-3.6,3.6s-3.6-1.6-3.6-3.6v0c0-2,1.6-3.6,3.6-3.6s3.6,1.6,3.6,3.6Z" fill="#fff"/></g><path d="M0,2h.8c1.7,0,3,1.4,3,3v32c0,1.7-1.4,3-3,3h-.8L0,2Z" fill="#597893"/></g></svg>
