<?xml version="1.0" encoding="utf-8"?>
<!-- Generator: Adobe Illustrator 27.3.1, SVG Export Plug-In . SVG Version: 6.00 Build 0)  -->
<svg version="1.1" id="Layer_1" xmlns="http://www.w3.org/2000/svg" xmlns:xlink="http://www.w3.org/1999/xlink" x="0px" y="0px"
	 viewBox="0 0 90 90" enable-background="new 0 0 90 90" xml:space="preserve">
<g>
	<path d="M37.9,21.2c-4.5,0-8.2,3.7-8.2,8.2V41c0,4.5,3.7,8.2,8.2,8.2h11.7c4.5,0,8.2-3.7,8.2-8.2v-5.8c0-0.6,0.5-1.2,1.2-1.2
		c0.6,0,1.2,0.5,1.2,1.2V41c0,5.8-4.7,10.5-10.5,10.5H37.9c-5.8,0-10.5-4.7-10.5-10.5V29.3c0-5.8,4.7-10.5,10.5-10.5h5.8
		c0.6,0,1.2,0.5,1.2,1.2s-0.5,1.2-1.2,1.2H37.9z"/>
	<path d="M62.4,23.5c0,3.9-3.1,7-7,7s-7-3.1-7-7s3.1-7,7-7S62.4,19.6,62.4,23.5z"/>
</g>
<g>
	<path d="M32.9,80.8h-4.2l-0.8,2.1h-2.2l3.9-10.5H32l3.9,10.5h-2.2L32.9,80.8z M32.4,79.2l-1.6-4.5l-1.6,4.5H32.4z"/>
	<path d="M43.9,75c0.6,0.3,1,0.8,1.3,1.5c0.3,0.6,0.5,1.4,0.5,2.3s-0.2,1.6-0.5,2.3c-0.3,0.6-0.8,1.1-1.3,1.5
		C43.3,82.9,42.7,83,42,83c-0.7,0-1.3-0.2-1.8-0.5c-0.5-0.3-0.8-0.8-1.1-1.3v5.7H37V74.6h2.1v1.7c0.2-0.6,0.6-1,1.1-1.3
		c0.5-0.3,1.1-0.5,1.8-0.5C42.7,74.5,43.3,74.7,43.9,75z M39.8,77c-0.4,0.4-0.6,1-0.6,1.8c0,0.7,0.2,1.3,0.6,1.7
		c0.4,0.4,0.9,0.7,1.6,0.7c0.7,0,1.2-0.2,1.6-0.6s0.6-1,0.6-1.8s-0.2-1.3-0.6-1.8s-0.9-0.6-1.6-0.6C40.7,76.4,40.2,76.6,39.8,77z"/>
	<path d="M54,75c0.6,0.3,1,0.8,1.3,1.5c0.3,0.6,0.5,1.4,0.5,2.3s-0.2,1.6-0.5,2.3c-0.3,0.6-0.8,1.1-1.3,1.5
		c-0.6,0.3-1.2,0.5-1.9,0.5s-1.3-0.2-1.8-0.5c-0.5-0.3-0.8-0.8-1.1-1.3v5.7h-2.1V74.6h2.1v1.7c0.2-0.6,0.6-1,1.1-1.3
		c0.5-0.3,1.1-0.5,1.8-0.5S53.5,74.7,54,75z M49.9,77c-0.4,0.4-0.6,1-0.6,1.8c0,0.7,0.2,1.3,0.6,1.7c0.4,0.4,0.9,0.7,1.6,0.7
		c0.7,0,1.2-0.2,1.6-0.6c0.4-0.4,0.6-1,0.6-1.8s-0.2-1.3-0.6-1.8c-0.4-0.4-0.9-0.6-1.6-0.6C50.8,76.4,50.3,76.6,49.9,77z"/>
	<path d="M62.6,75.3c0.6,0.5,1,1.2,1.1,2h-2c-0.1-0.4-0.3-0.7-0.5-1C61,76.1,60.6,76,60.1,76c-0.4,0-0.6,0.1-0.8,0.3
		c-0.2,0.2-0.3,0.4-0.3,0.7c0,0.2,0.1,0.4,0.2,0.6c0.2,0.1,0.4,0.2,0.6,0.3c0.2,0.1,0.6,0.2,1,0.3c0.6,0.1,1.1,0.3,1.5,0.4
		c0.4,0.2,0.7,0.4,1,0.7s0.4,0.8,0.4,1.4c0,0.7-0.3,1.3-0.8,1.7c-0.6,0.4-1.3,0.7-2.2,0.7c-1.1,0-1.9-0.2-2.6-0.7
		c-0.7-0.5-1-1.2-1.2-2.1h2c0,0.4,0.2,0.7,0.5,1s0.7,0.4,1.2,0.4c0.4,0,0.6-0.1,0.8-0.3c0.2-0.2,0.3-0.4,0.3-0.7
		c0-0.2-0.1-0.4-0.2-0.6c-0.2-0.1-0.4-0.3-0.6-0.3c-0.2-0.1-0.6-0.2-1-0.3c-0.6-0.1-1.1-0.3-1.5-0.4c-0.4-0.1-0.7-0.4-1-0.7
		c-0.3-0.3-0.4-0.8-0.4-1.3c0-0.7,0.3-1.3,0.8-1.8s1.3-0.7,2.3-0.7C61.2,74.5,62,74.8,62.6,75.3z"/>
</g>
</svg>
