<svg width="26" height="22" viewBox="0 0 26 22" fill="none" xmlns="http://www.w3.org/2000/svg">
<path fill-rule="evenodd" clip-rule="evenodd" d="M16.8483 18.1536C16.6507 18.1536 16.4947 17.9996 16.4947 17.8045C16.4947 17.6094 16.6507 17.4554 16.8483 17.4554H21.5332C21.7308 17.4554 21.8868 17.6094 21.8868 17.8045C21.8868 17.9996 21.7308 18.1536 21.5332 18.1536H16.8483ZM18.3458 12.0391H21.5384C21.736 12.0391 21.892 12.1931 21.892 12.3882V15.5405C21.892 15.7356 21.736 15.8896 21.5384 15.8896H18.3458C18.1482 15.8896 17.9922 15.7356 17.9922 15.5405V12.3882C17.9922 12.1983 18.1482 12.0391 18.3458 12.0391ZM21.1796 12.7373H18.6994V15.1862H21.1796V12.7373ZM9.55313 8.85606C9.23075 8.85606 8.91877 8.89713 8.61718 8.96901V16.1668C8.91357 16.2438 9.23075 16.2798 9.55313 16.2798C10.5931 16.2798 11.5342 15.8639 12.2154 15.1914C12.8965 14.5188 13.3177 13.5896 13.3177 12.5628C13.3177 11.536 12.8965 10.6067 12.2154 9.93419C11.5342 9.27191 10.5931 8.85606 9.55313 8.85606ZM7.91003 9.22571C7.53045 9.4054 7.18727 9.65182 6.89089 9.94446C6.20973 10.617 5.78855 11.5463 5.78855 12.573C5.78855 13.5998 6.20973 14.5291 6.89089 15.2016C7.18727 15.4943 7.53045 15.7356 7.91003 15.9204V9.22571ZM6.39172 9.44647C6.88049 8.96388 7.47845 8.59423 8.14921 8.37861C8.15441 8.37861 8.15961 8.37347 8.16481 8.37347C8.60158 8.22972 9.06956 8.15271 9.55833 8.15271C10.7907 8.15271 11.9086 8.64557 12.7197 9.44647C13.5309 10.2474 14.0301 11.3512 14.0301 12.5679C14.0301 13.7847 13.5309 14.8885 12.7197 15.6894C11.9086 16.4902 10.7907 16.9831 9.55833 16.9831C9.06956 16.9831 8.60158 16.9061 8.16481 16.7623C8.15961 16.7623 8.15441 16.7572 8.15441 16.7572C7.48365 16.5365 6.88569 16.1668 6.39692 15.6894C5.58577 14.8885 5.0866 13.7847 5.0866 12.5679C5.0866 11.3512 5.58577 10.2474 6.39172 9.44647ZM9.55313 7.32615C11.0194 7.32615 12.3454 7.91142 13.3073 8.8612C14.2692 9.81098 14.862 11.1201 14.862 12.5679C14.862 14.0157 14.2692 15.3248 13.3073 16.2746C12.3454 17.2244 11.0194 17.8097 9.55313 17.8097C8.08681 17.8097 6.76089 17.2244 5.79895 16.2746C4.83701 15.3248 4.24425 14.0157 4.24425 12.5679C4.24425 11.1201 4.83701 9.81098 5.79895 8.8612C6.76089 7.91655 8.08681 7.32615 9.55313 7.32615ZM5.29978 8.36834C4.21305 9.44133 3.53709 10.9302 3.53709 12.5679C3.53709 13.8976 3.97906 15.1297 4.73302 16.1206L3.66188 17.1782L3.57349 17.0909C3.43309 16.9523 3.20951 16.9523 3.07432 17.0909L0.105294 20.0275C-0.0350979 20.1662 -0.0350979 20.3869 0.105294 20.5204L1.49881 21.8963C1.6392 22.0349 1.86279 22.0349 1.99798 21.8963L4.967 18.9648C5.10739 18.8262 5.10739 18.6054 4.967 18.472L4.87861 18.3847L5.94974 17.3271C6.53211 17.7532 7.19247 18.0818 7.90483 18.282V20.2586C7.90483 20.6898 8.08162 21.0851 8.3728 21.3675C8.65878 21.6499 9.05916 21.8296 9.49593 21.8296H22.36C22.7967 21.8296 23.1971 21.655 23.4831 21.3675C23.7691 21.0851 23.9511 20.6898 23.9511 20.2586V19.2728H24.4086C24.8454 19.2728 25.2458 19.0983 25.5318 18.8108C25.8178 18.5284 25.9997 18.1331 25.9997 17.7019V3.48082C25.9997 3.38327 25.9581 3.296 25.8957 3.22925L22.7291 0.102679C22.6615 0.0359376 22.5679 0 22.4796 0H11.5498C11.113 0 10.7127 0.174554 10.4267 0.462055C10.1407 0.744423 9.9587 1.13974 9.9587 1.57099V2.55671H9.50113C9.06436 2.55671 8.66398 2.73126 8.378 3.01876C8.09202 3.30113 7.91003 3.69644 7.91003 4.1277V6.85382C6.91169 7.13106 6.01734 7.65985 5.29978 8.36834ZM8.62238 6.6998C8.92916 6.6536 9.24115 6.62793 9.55833 6.62793C11.217 6.62793 12.7249 7.29021 13.8117 8.36834C14.8984 9.44133 15.5744 10.9302 15.5744 12.5679C15.5744 14.2056 14.9036 15.6945 13.8117 16.7675C12.7249 17.8405 11.217 18.5079 9.55833 18.5079C9.24115 18.5079 8.92916 18.4822 8.62238 18.436V20.2586C8.62238 20.4999 8.72118 20.7155 8.88237 20.8746C9.04356 21.0338 9.26194 21.1313 9.50633 21.1313H22.3704C22.6147 21.1313 22.8331 21.0338 22.9943 20.8746C23.1555 20.7155 23.2543 20.4999 23.2543 20.2586V6.3815H21.6788C21.242 6.3815 20.8417 6.20695 20.5557 5.91944C20.2697 5.63708 20.0877 5.24176 20.0877 4.81051V3.25492H9.50113C9.25674 3.25492 9.03836 3.35247 8.87717 3.51162C8.71598 3.67077 8.61718 3.8864 8.61718 4.1277V6.6998H8.62238ZM5.41418 16.8753C5.37778 16.8394 5.34138 16.8034 5.29978 16.7675C5.26338 16.7315 5.22699 16.6956 5.19059 16.6545L4.16105 17.6762L4.38464 17.8969L5.41418 16.8753ZM4.18705 18.7492L1.7484 21.157L0.854049 20.274L3.2927 17.8661C3.3083 17.9021 3.3343 17.938 3.3655 17.9637L4.08825 18.6773C4.11945 18.7081 4.15065 18.7338 4.18705 18.7492ZM14.0145 6.14534C13.8169 6.14534 13.6609 5.99132 13.6609 5.79623C13.6609 5.60114 13.8169 5.44712 14.0145 5.44712H18.3042C18.5018 5.44712 18.6578 5.60114 18.6578 5.79623C18.6578 5.99132 18.5018 6.14534 18.3042 6.14534H14.0145ZM15.7928 8.21432C15.5952 8.21432 15.4392 8.0603 15.4392 7.86521C15.4392 7.67012 15.5952 7.5161 15.7928 7.5161H21.5384C21.736 7.5161 21.892 7.67012 21.892 7.86521C21.892 8.0603 21.736 8.21432 21.5384 8.21432H15.7928ZM16.8483 10.4733C16.6507 10.4733 16.4947 10.3192 16.4947 10.1241C16.4947 9.92906 16.6507 9.77504 16.8483 9.77504H21.5332C21.7308 9.77504 21.8868 9.92906 21.8868 10.1241C21.8868 10.3192 21.7308 10.4733 21.5332 10.4733H16.8483ZM20.7845 3.75292L22.7447 5.68842H21.6684C21.424 5.68842 21.2056 5.59087 21.0444 5.43172C20.8832 5.27257 20.7845 5.05694 20.7845 4.81564V3.75292ZM10.6659 2.55671H20.4309C20.5193 2.55671 20.6129 2.59264 20.6805 2.65939L23.8471 5.78596C23.9147 5.84757 23.9511 5.93998 23.9511 6.03752V18.5798H24.4086C24.653 18.5798 24.8714 18.4822 25.0326 18.3231C25.1938 18.1639 25.2926 17.9483 25.2926 17.707V3.82993H23.7119C23.2751 3.82993 22.8747 3.65537 22.5887 3.36787C22.3028 3.0855 22.1208 2.69019 22.1208 2.25894V0.703351H11.5498C11.3054 0.703351 11.087 0.800896 10.9258 0.960049C10.7647 1.1192 10.6659 1.33483 10.6659 1.57612V2.55671ZM22.8331 1.19621L24.7934 3.13171H23.7119C23.4675 3.13171 23.2491 3.03416 23.0879 2.87501C22.9267 2.71586 22.8279 2.50023 22.8279 2.25894V1.19621H22.8331Z" fill="black"/>
</svg>
