<svg width="25" height="25" viewBox="0 0 25 25" fill="none" xmlns="http://www.w3.org/2000/svg">
<g clip-path="url(#clip0_1_6928)">
<path d="M24.5833 15.4167H23.0891L22.5 14.8276V13.3333H21.6667V15C21.6667 15.1104 21.7104 15.2167 21.7885 15.2948L21.9104 15.4167H20.4161V10.8333C20.4161 10.6031 20.2297 10.4167 19.9995 10.4167C19.7693 10.4167 19.5828 10.6031 19.5828 10.8333V15.4167H18.0885L18.2104 15.2948C18.2885 15.2167 18.3323 15.1104 18.3323 15V9.16667H21.6656V12.5H22.499V10.8333H23.749C23.9792 10.8333 24.1656 10.6469 24.1656 10.4167V5.41667C24.1646 4.26667 23.2323 3.33437 22.0823 3.33333H21.4417C21.5885 3.08021 21.6661 2.79271 21.6656 2.5V1.66667C21.6656 0.746354 20.9193 0 19.999 0C19.0786 0 18.3323 0.746354 18.3323 1.66667V2.5C18.3323 2.79271 18.4094 3.08021 18.5562 3.33333H17.9156C17.55 3.33333 17.1906 3.42969 16.8734 3.6125L17.2906 4.33385C17.4807 4.22448 17.6958 4.16667 17.9151 4.16667H19.5818V7.5H20.4151V4.16667H22.0818C22.7719 4.16719 23.3312 4.72656 23.3318 5.41667V8.33333H22.4984V5.41667C22.4984 5.18646 22.312 5 22.0818 5C21.8516 5 21.6651 5.18646 21.6651 5.41667V8.33333H18.3318V5.41667C18.3318 5.18646 18.1453 5 17.9151 5C17.6849 5 17.4984 5.18646 17.4984 5.41667V8.33333H16.6651V5.41667C16.6641 4.26667 15.7318 3.33437 14.5818 3.33333H13.9411C14.088 3.08021 14.1656 2.79271 14.1651 2.5V1.66667C14.1651 0.746354 13.4187 0 12.4984 0C11.5781 0 10.8318 0.746354 10.8318 1.66667V2.5C10.8318 2.79271 10.9089 3.08021 11.0557 3.33333H10.4151C9.2651 3.33333 8.33229 4.2651 8.33177 5.4151V8.33333H7.49844V5.41667C7.49844 5.18646 7.31198 5 7.08177 5C6.85156 5 6.6651 5.18646 6.6651 5.41667V8.33333H3.33177V5.41667C3.33177 5.18646 3.14531 5 2.9151 5C2.6849 5 2.49844 5.18646 2.49844 5.41667V8.33333H1.6651V5.41667C1.6651 5.31094 1.67813 5.20625 1.70469 5.10365L0.897917 4.89583C0.854167 5.06615 0.832292 5.24062 0.832292 5.41615V10.4161C0.832292 10.6464 1.01875 10.8328 1.24896 10.8328H2.49896V14.8271L1.9099 15.4161H0.416667C0.186458 15.4161 0 15.6026 0 15.8328C0.00208333 17.6729 1.49323 19.1641 3.33333 19.1661H4.58333V18.3328H3.33333C2.11406 18.3312 1.07292 17.4516 0.868229 16.2495H24.1323C24.0469 16.7615 23.8026 17.2344 23.4349 17.6005C23.2906 17.7448 23.1297 17.8708 22.9552 17.976L23.3854 18.6901C23.6177 18.55 23.8328 18.3818 24.0245 18.1901C24.6516 17.5661 25.0026 16.7177 25.0005 15.8333C25.0005 15.6031 24.8135 15.4167 24.5833 15.4167ZM20.8333 2.5C20.8333 2.96042 20.4604 3.33333 20 3.33333C19.5396 3.33333 19.1667 2.96042 19.1667 2.5V1.66667C19.1667 1.20625 19.5396 0.833333 20 0.833333C20.4604 0.833333 20.8333 1.20625 20.8333 1.66667V2.5ZM22.5 9.16667H23.3333V10H22.5V9.16667ZM2.5 10H1.66667V9.16667H2.5V10ZM5.41667 15.4167V10.8333C5.41667 10.6031 5.23021 10.4167 5 10.4167C4.76979 10.4167 4.58333 10.6031 4.58333 10.8333V15.4167H3.08906L3.21094 15.2948C3.28906 15.2167 3.33281 15.1104 3.33281 15V9.16667H6.66615V15C6.66615 15.1104 6.7099 15.2167 6.78802 15.2948L6.9099 15.4167H5.41563H5.41667ZM11.6667 1.66667C11.6667 1.20625 12.0396 0.833333 12.5 0.833333C12.9604 0.833333 13.3333 1.20625 13.3333 1.66667V2.5C13.3333 2.96042 12.9604 3.33333 12.5 3.33333C12.0396 3.33333 11.6667 2.96042 11.6667 2.5V1.66667ZM7.5 9.16667H8.33333V10H7.5V9.16667ZM10 14.8276L9.41094 15.4167H8.08958L7.50052 14.8276V10.8333H10.0005L10 14.8276ZM10 10H9.16667V9.16667H10V10ZM12.9167 15.4167V10.8333C12.9167 10.6031 12.7302 10.4167 12.5 10.4167C12.2698 10.4167 12.0833 10.6031 12.0833 10.8333V15.4167H10.5891L10.7109 15.2948C10.7891 15.2167 10.8328 15.1104 10.8328 15V9.16667H14.1661V15C14.1661 15.1104 14.2099 15.2167 14.288 15.2948L14.4099 15.4167H12.9156H12.9167ZM14.5833 5C14.3531 5 14.1667 5.18646 14.1667 5.41667V8.33333H10.8333V5.41667C10.8333 5.18646 10.6469 5 10.4167 5C10.1865 5 10 5.18646 10 5.41667V8.33333H9.16667V5.41667C9.16667 4.72656 9.725 4.16719 10.4151 4.16667C10.4151 4.16667 10.4161 4.16667 10.4167 4.16667H12.0833V7.5H12.9167V4.16667H14.5833C15.2734 4.16719 15.8328 4.72656 15.8333 5.41667V8.33333H15V5.41667C15 5.18646 14.8135 5 14.5833 5ZM15.8333 9.16667V10H15V9.16667H15.8333ZM17.5 14.8276L16.9109 15.4167H15.5896L15.0005 14.8276V10.8333H17.5005L17.5 14.8276ZM17.5 10H16.6667V9.16667H17.5V10ZM20.9797 18.75H25V19.5833H21.25V24.1667H25V25H17.9167V24.1667H20.4167V19.3672C19.0479 18.3167 17.1875 18.1755 15.676 19.0073L15.4771 19.1156C15.4156 19.149 15.3474 19.1667 15.2776 19.1667H12.0833C11.6229 19.1667 11.25 19.5396 11.25 20C11.25 20.4604 11.6229 20.8333 12.0833 20.8333H15.4167C15.6469 20.8333 15.8333 21.0198 15.8333 21.25C15.8333 21.4802 15.6469 21.6667 15.4167 21.6667H11.25C11.1901 21.6667 11.1307 21.6536 11.0766 21.6286L6.76562 19.6542C6.3901 19.4823 5.94583 19.6469 5.77396 20.0229C5.76875 20.0339 5.76406 20.0453 5.75938 20.0568C5.61927 20.4036 5.75313 20.801 6.07448 20.9922L10.8708 23.8698C11.1948 24.0641 11.5651 24.1667 11.9427 24.1667H17.0833V25H11.9427C11.4141 25 10.8953 24.8562 10.4422 24.5844L5.64583 21.7068C4.9724 21.3057 4.69219 20.474 4.98594 19.7474C5.31042 18.9365 6.23073 18.5422 7.04167 18.8661C7.06562 18.8755 7.08906 18.8859 7.11302 18.8969L10.475 20.437C10.3589 20.0083 10.4187 19.551 10.6411 19.1672H8.33385V18.3339H15.1719L15.2771 18.2766C17.1021 17.2807 19.3443 17.4667 20.9797 18.75ZM22.9167 21.6667C23.3771 21.6667 23.75 22.0396 23.75 22.5C23.75 22.9604 23.3771 23.3333 22.9167 23.3333C22.4562 23.3333 22.0833 22.9604 22.0833 22.5C22.0839 22.0401 22.4568 21.6672 22.9167 21.6667ZM5.41667 7.5V4.16667H7.08333C7.3026 4.16667 7.51823 4.22396 7.70781 4.33385L8.125 3.6125C7.80833 3.42969 7.44896 3.33333 7.08281 3.33333H6.44219C6.58906 3.08021 6.66667 2.79271 6.66615 2.5V1.66667C6.66667 0.746354 5.92031 0 5 0C4.07969 0 3.33333 0.746354 3.33333 1.66667V2.5C3.33333 2.79271 3.41042 3.08021 3.55781 3.33333H2.91667C2.31875 3.33333 1.75 3.5901 1.35417 4.03854L1.97917 4.5901C2.21667 4.32135 2.55781 4.16719 2.91667 4.16667H4.58333V7.5H5.41667ZM4.16667 2.5V1.66667C4.16667 1.20625 4.53958 0.833333 5 0.833333C5.46042 0.833333 5.83333 1.20625 5.83333 1.66667V2.5C5.83333 2.96042 5.46042 3.33333 5 3.33333C4.53958 3.33333 4.16667 2.96042 4.16667 2.5Z" fill="black"/>
</g>
<defs>
<clipPath id="clip0_1_6928">
<rect width="25" height="25" fill="white"/>
</clipPath>
</defs>
</svg>
