<svg id="er9sPMyCTAi1" xmlns="http://www.w3.org/2000/svg" xmlns:xlink="http://www.w3.org/1999/xlink" viewBox="0 0 26 22" shape-rendering="geometricPrecision" text-rendering="geometricPrecision" width="26" height="22" style="background-color:transparent"><rect width="26" height="22" rx="0" ry="0" fill="#fff" fill-opacity="0"/><g><path d="M9.1,6.1c-1.2,0-2.2,1-2.2,2.2s1,2.2,2.2,2.2s2.2-1,2.2-2.2c0-1.3-1-2.2-2.2-2.2Zm0,3.3c-.6,0-1.2-.5-1.2-1.2s.5-1.2,1.2-1.2s1.2.5,1.2,1.2-.6,1.2-1.2,1.2Z"/><path d="M16.4,9.9c-1.5,0-2.8,1.2-2.8,2.8c0,1.5,1.2,2.8,2.8,2.8c1.5,0,2.8-1.2,2.8-2.8-.1-1.6-1.3-2.8-2.8-2.8Zm1.7,2.7c0,.9-.8,1.7-1.7,1.7s-1.7-.8-1.7-1.7.8-1.7,1.7-1.7s1.7.8,1.7,1.7Z"/><path d="M21.2,11.7l-.9-.5-.1-.3.2-1c0-.2,0-.4-.1-.5l-.7-.7c-.1-.1-.3-.2-.5-.1l-1,.2-.3-.1-.5-.9c-.1-.2-.3-.3-.4-.3h-1c-.2,0-.4.1-.4.3l-.5.9-.3.1-1-.2c-.2,0-.4,0-.5.1h-.2v-.1-.7c0-.2-.1-.4-.3-.4l-.6-.4-.1-.2.2-.7c0-.2,0-.4-.1-.5l-.5-.5c-.1-.1-.3-.2-.5-.1l-.7.2-.2-.1-.3-.6c-.1-.2-.3-.3-.4-.3h-.8c-.2,0-.4.1-.4.2l-.4.7h-.1l-.7-.1c-.2,0-.4,0-.5.1L6,5.7c-.1.1-.1.3-.1.5l.2.7-.1.2-.6.3c-.2.1-.3.3-.3.5v.7c0,.2.1.4.2.4l.7.4.1.2-.2.7c0,.2,0,.4.1.5l.5.5c.1.1.3.2.5.1l.7-.2.2.1.4.7c.1.2.3.3.4.3h.7c.2,0,.4-.1.4-.3l.4-.6.2-.1.7.2c.2,0,.4,0,.5-.1l.5-.5c.1-.1.2-.3.1-.4L12,9.7l.1-.2.4-.2-.2.2c-.1.1-.2.3-.1.5l.2,1-.1.3-.9.5c-.2.1-.3.3-.3.4v1c0,.2.1.4.3.4l.9.5.1.3-.2,1c0,.2,0,.4.1.5l.7.7c.1.1.3.2.5.1l1-.2.3.1.5.9c.1.2.3.3.4.3h1c.2,0,.4-.1.4-.2l.5-.9.3-.1l1,.2c.2,0,.4,0,.5-.1l.7-.7c.1-.1.2-.3.1-.5l-.2-1l.1-.3.9-.5c.2-.1.3-.3.3-.4v-1c.2-.4.1-.5-.1-.6Zm-10-1.4l-.1.1-.6-.1c-.1,0-.2,0-.3,0l-.5.2c-.1,0-.2.1-.2.2l-.3.5h-.2l-.3-.5c-.1-.1-.1-.2-.2-.2L8,10.2c-.1,0-.2-.1-.3,0l-.6.1h-.1l.1-.6c0-.1,0-.2,0-.3l-.2-.5c0-.1-.1-.2-.2-.2l-.5-.4v-.1l.5-.3c.1-.1.2-.1.2-.2l.2-.5c0-.1.1-.2,0-.3L7,6.2l.1-.1.6.1c.1,0,.2,0,.3,0L8.5,6c.1,0,.2-.1.2-.2L9,5.3h.1l.3.5c.1.1.2.2.3.3l.5.2c.1,0,.2.1.3,0l.6-.1.1.1-.1.6c0,.1,0,.2,0,.3l.2.5c0,.1.1.2.2.2l.5.3v.1l-.5.3c-.1.1-.2.1-.2.2l-.2.5c0,.1-.1.2,0,.3l.1.7ZM11.5,9v0v0v0Zm7.9,6.3l-.3.3-.9-.2c-.1,0-.2,0-.3,0l-.6.3c-.1,0-.2.1-.2.2l-.5.8h-.4l-.5-.8c-.1-.1-.1-.2-.2-.2l-.6-.3c-.1,0-.2-.1-.3,0l-.9.2-.3-.3.2-.9c0-.1,0-.2,0-.3l-.3-.6c0-.1-.1-.2-.2-.2l-.8-.5v-.4l.8-.5c.1-.1.2-.1.2-.2l.3-.6c0-.1.1-.2,0-.3l-.2-.9.3-.3.9.2c.1,0,.2,0,.3,0l.6-.3c.1,0,.2-.1.2-.2l.5-.8h.4l.4.8c.1.1.1.2.2.2l.6.3c.1,0,.2.1.3,0l.9-.2.3.3-.2.9c0,.1,0,.2,0,.3l.3.6c0,.1.1.2.2.2l.8.5v.4l-.8.5c-.1.1-.2.1-.2.2l-.3.6c0,.1-.1.2,0,.3l.3.9Z"/></g><g><path d="M23.2,9.1c0-.2-.1-.3-.3-.4-.1-.1-.3-.1-.5-.1-.4.1-.6.4-.5.8.5,2.9-.4,5.9-2.5,8-3.3,3.3-8.7,3.5-12.3.5v0l.9-1c.2-.2.2-.4.2-.7-.1-.2-.2-.4-.5-.4L4,15c-.2,0-.5,0-.6.2-.2.2-.2.4-.2.6L4,19.4c.1.2.2.4.5.5.1,0,.1,0,.2,0c.2,0,.3-.1.5-.2l1-1v0c1.9,1.7,4.3,2.6,6.8,2.6c2.8,0,5.4-1.1,7.3-3c2.4-2.4,3.5-5.8,2.9-9.2Zm-17,7.7L5.1,18l-.3-1.5l1.4.3Z"/><path d="M3.5,13.4v0h.2v0c.3-.1.5-.4.4-.8-.5-2.9.4-5.9,2.5-8C8.3,2.9,10.6,2,13,2c2.2,0,4.3.8,5.9,2.2v0l-.9.9c-.2.2-.2.4-.2.7.1.2.2.4.5.4L22,7c.2,0,.5,0,.6-.2.2-.2.2-.4.2-.6L22,2.6c-.1-.2-.2-.4-.5-.5-.2-.1-.5,0-.7.2l-1,1v0C17.9,1.6,15.5,0.7,13,0.7c-2.8,0-5.4,1.1-7.3,3-2.4,2.4-3.5,5.9-2.9,9.2.1.3.3.5.7.5v0ZM19.8,5.2L20.9,4l.3,1.5-1.4-.3Z"/></g></svg>
