<svg id="evbzXf8ZyIM1" xmlns="http://www.w3.org/2000/svg" xmlns:xlink="http://www.w3.org/1999/xlink" viewBox="0 0 26 22" shape-rendering="geometricPrecision" text-rendering="geometricPrecision" width="26" height="22" style="background-color:transparent"><rect width="26" height="22" rx="0" ry="0" opacity="0" fill="#fff"/><g><path d="M21,17.1l-.3-.2c1.9-3.9.3-8.5-3.4-10.6-.1-.1-.2-.1-.3,0s-.2.2-.2.3.1.2.2.3c3.4,1.9,4.8,6.1,3.2,9.6h-.4c-.1-.1-.3-.1-.4,0s-.2.2-.2.3l.1,1.4c0,.1.1.2.2.3c0,0,.1,0,.2,0s.1,0,.2-.1l1.2-.8c.1-.1.2-.2.2-.3-.1,0-.2-.1-.3-.2Zm-.8.4l-.2.1v-.1-.1l.2.1Z"/><path d="M17.6,19.7c-.1,0-.2,0-.3,0-1.7,1.1-3.7,1.4-5.7,1-2-.5-3.5-1.7-4.6-3.3l.3-.2c.1-.1.2-.2.2-.3s-.1-.2-.2-.3l-1.2-.8c-.1-.1-.2-.1-.3,0s-.2.2-.2.3v1.4c0,.1.1.3.2.3.1.1.2.1.3.1l.3-.2c1.1,1.9,2.9,3.1,5,3.7.7.2,1.3.2,2,.2c1.5,0,3-.4,4.3-1.3.2-.1.2-.3.1-.5c0-.1-.1-.1-.2-.1ZM6.5,16.9l-.2.1v-.2l.2.1Z"/><path d="M11.2,13.4c0,1.2,1,2.2,2.2,2.2s2.2-1,2.2-2.2-1-2.2-2.2-2.2c-1.2.2-2.2,1.1-2.2,2.2Zm3.3-.9c.3.3.4.6.4,1s-.2.8-.4,1c-.3.3-.6.4-1,.4s-.8-.2-1-.4-.4-.6-.4-1s.2-.8.4-1c.3-.3.6-.4,1-.4v0c.3,0,.7.1,1,.4v0Z"/><path d="M5.9,14.4c0,.2.2.3.3.3h1c.6,2.9,3.1,5,6.2,5c3.4,0,6.3-2.8,6.3-6.3c0-1.5-.5-2.8-1.4-3.9s-2.2-1.9-3.4-2.2v-1.6h1.1c.1,0,.2-.1.3-.2s.1-.2,0-.3L13.7,0.6c-.1-.1-.2-.2-.3-.2s-.3.1-.4.2L11.7,2.9L10.3,5.2c-.1.1-.1.2,0,.4.1.1.2.2.3.2h1.1v1.8c-.7.1-1.4.4-1.9.8L7.8,5c-.1-.2-.2-.3-.3-.3s-.2.1-.3.2L5.8,7.2L4.6,9.4c-.1.1-.1.2,0,.4c0,.1.1.2.3.2h1.1v4.4h-.1Zm8.3-9.1v2c-.6-.1-1.2-.1-1.8,0v-2c0-.2-.2-.3-.3-.3h-.8l2.1-3.5l2,3.5h-.8c-.3,0-.4.1-.4.3Zm-8,4h-.7L7.6,5.8L9.7,9.3h-1c-.2,0-.3.2-.3.3v4.4h-1.8v-4.4c0-.2-.2-.3-.4-.3Zm2.5,5.4c.2,0,.3-.2.3-.3L9,12v0l.5.5.6.3c-.1.5-.1,1,0,1.5-.1,0-.1.1-.1.1-.3.2-.3.2-.6.4-.1.1-.2.1-.3.2-.1,0-.2.2-.1.3l.6,1c.1.2.3.2.4.2l.7-.2c.1,0,.4-.2.5-.3.4.3.8.6,1.3.8v.5l.1.7c0,.2.2.3.3.3h1.1c.2,0,.3-.1.4-.3l.1-.7c0-.1,0-.2,0-.5v0c.5-.2.9-.4,1.3-.8l.4.2.7.3c.2.1.3,0,.4-.2l.6-1c.1-.1.1-.3-.1-.5l-.5-.5-.7-.3c.1-.5.1-1,0-1.5.1,0,.1-.1.1-.1.3-.2.3-.2.6-.4.1-.1.2-.1.3-.2s.2-.3.1-.4l-.6-1c-.1-.1-.3-.2-.4-.2l-.6.2c-.1,0-.4.2-.5.3-.4-.4-.8-.6-1.3-.8v-.4-.5c0-.2-.2-.3-.3-.3h-1.1c-.2,0-.3.1-.3.3l-.1.7c0,.1,0,.3,0,.6v0c-.5.2-.9.4-1.3.8l-.4-.2-.7-.3c-.2-.1-.3,0-.4.2l-.7.7L9,10h1c.1,0,.2-.1.3-.2s.1-.2,0-.3L10,8.9c1-.7,2.1-1.1,3.3-1.1c3,0,5.6,2.5,5.6,5.6s-2.5,5.6-5.5,5.6c-2.5,0-4.9-1.8-5.5-4.3c0,0,.8,0,.8,0Zm5.4-3.9c.3.1.5.2.8.3v0c.2.1.5.3.7.5.1.1.3.1.4.1l.6-.4.4-.1.3.5-.4.3-.6.4c-.1.1-.2.2-.2.4.2.5.2,1.1,0,1.7c0,.2,0,.3.2.4l.6.4.3.3-.3.4-.4-.1-.6-.4c-.1-.1-.3-.1-.4.1-.4.4-.9.7-1.4.8-.2,0-.3.2-.3.3v.7l-.1.4h-.6l-.1-.4v-.7c0-.2-.1-.3-.3-.3-.3-.1-.5-.2-.8-.3-.2-.1-.5-.3-.7-.5-.1-.1-.3-.1-.4-.1l-.6.4-.2.1-.3-.5.3-.3.6-.4c.1-.1.2-.2.2-.4-.2-.5-.2-1.1,0-1.7.1-.2,0-.3-.2-.4L10,12l-.3-.3.3-.5.4.1.6.4c.1.1.3.1.4-.1.4-.4.9-.7,1.4-.8.2,0,.3-.2.3-.3v-.7l.1-.4h.6l.1.4v.7c-.1.1,0,.3.2.3Z"/></g></svg>
