<svg id="es5kThgv9jA1" xmlns="http://www.w3.org/2000/svg" xmlns:xlink="http://www.w3.org/1999/xlink"
  viewBox="0 0 62 62" shape-rendering="geometricPrecision" text-rendering="geometricPrecision"
  style="background-color:transparent">
  <g>
    <path
      d="M26.1,21.6h-9.5c-.9,0-1.7-.3-2.3-1-.6-.6-1-1.5-1-2.3v-9.5c0-.9.3-1.7,1-2.3.6-.6,1.5-1,2.3-1h9.5c.9,0,1.7.3,2.3,1c.6.6,1,1.5,1,2.3v9.5c0,.9-.4,1.7-1,2.3-.5.7-1.4,1-2.3,1ZM16.7,7.5c-.4,0-.7.1-1,.4s-.4.6-.4,1v9.5c0,.4.2.7.4,1c.3.3.6.4,1,.4h9.5c.4,0,.7-.1,1-.4s.4-.6.4-1v-9.5c0-.4-.1-.7-.4-1s-.6-.4-1-.4c0,0-9.5,0-9.5,0Z"
      />
    <path
      d="M26.1,40.5h-9.5c-.9,0-1.7-.3-2.3-1-.6-.6-1-1.5-1-2.3v-9.5c0-.9.3-1.7,1-2.3.6-.6,1.5-1,2.3-1h9.5c.9,0,1.7.3,2.3,1c.6.6,1,1.5,1,2.3v9.5c0,.9-.4,1.7-1,2.3-.5.7-1.4,1-2.3,1ZM16.7,26.4c-.4,0-.7.1-1,.4s-.4.6-.4,1v9.5c0,.4.2.7.4,1c.3.3.6.4,1,.4h9.5c.4,0,.7-.1,1-.4s.4-.6.4-1v-9.5c0-.4-.1-.7-.4-1s-.6-.4-1-.4h-9.5Z"
      />
    <path
      d="M45.1,21.6h-9.5c-.9,0-1.7-.3-2.3-1-.6-.6-1-1.5-1-2.3v-9.5c0-.9.3-1.7,1-2.3.6-.6,1.5-1,2.3-1h9.5c.9,0,1.7.3,2.3,1c.6.6,1,1.5,1,2.3v9.5c0,.9-.4,1.7-1,2.3-.6.7-1.5,1-2.3,1ZM35.6,7.5c-.4,0-.7.1-1,.4s-.4.6-.4,1v9.5c0,.4.2.7.4,1c.3.3.6.4,1,.4h9.5c.4,0,.7-.1,1-.4s.4-.6.4-1v-9.5c0-.4-.1-.7-.4-1s-.6-.4-1-.4c0,0-9.5,0-9.5,0Z"
      />
    <path
      d="M45.1,40.5h-9.5c-.9,0-1.7-.3-2.3-1-.6-.6-1-1.5-1-2.3v-9.5c0-.9.3-1.7,1-2.3.6-.6,1.5-1,2.3-1h9.5c.9,0,1.7.3,2.3,1c.6.6,1,1.5,1,2.3v9.5c0,.9-.4,1.7-1,2.3s-1.5,1-2.3,1ZM35.6,26.4c-.4,0-.7.1-1,.4s-.4.6-.4,1v9.5c0,.4.2.7.4,1c.3.3.6.4,1,.4h9.5c.4,0,.7-.1,1-.4s.4-.6.4-1v-9.5c0-.4-.1-.7-.4-1s-.6-.4-1-.4h-9.5Z"
      />
  </g>
  <g>
    <path
      d="M9,56.1c-.3.5-.7.9-1.3,1.2s-1.2.4-2,.4h-2.5v-7.1h2.5c.8,0,1.4.1,2,.4s1,.7,1.3,1.2.4,1.1.4,1.9-.2,1.5-.4,2Zm-1.7-.2c.5-.4.7-.9.7-1.7c0-.7-.2-1.3-.6-1.7s-1-.6-1.8-.6h-1v4.6h1c.7,0,1.3-.2,1.7-.6Z"
      />
    <path
      d="M13.8,52.5c.3.2.6.5.7.9v-1.2h1.4v5.5h-1.4v-1.2c-.1.4-.4.7-.7.9s-.7.3-1.2.3-.9-.1-1.3-.3-.7-.6-.9-1-.3-.9-.3-1.5.1-1.1.3-1.5.5-.8.9-1s.8-.3,1.3-.3c.5.1.9.2,1.2.4ZM12,53.8c-.3.3-.4.7-.4,1.2s.1.9.4,1.2.6.4,1.1.4c.4,0,.8-.1,1.1-.4s.4-.7.4-1.2-.1-.9-.4-1.2-.6-.4-1.1-.4-.8.1-1.1.4Z"
      />
    <path
      d="M20.7,52.7c.4.3.7.8.8,1.4h-1.3c-.1-.3-.2-.5-.4-.6s-.4-.2-.7-.2c-.2,0-.4.1-.6.2s-.2.3-.2.5.1.3.2.4.2.2.4.2c.2.1.4.1.7.2.4.1.8.2,1,.3.3.1.5.3.7.5s.3.5.3.9c0,.5-.2.9-.6,1.1-.4.3-.9.4-1.5.4-.7,0-1.3-.2-1.7-.5-.4-.5-.7-.9-.8-1.5h1.3c0,.3.2.5.4.6.2.2.5.2.8.2.2,0,.4-.1.5-.2s.2-.3.2-.5-.1-.3-.2-.4-.2-.2-.4-.2c-.2-.1-.4-.1-.7-.2-.4-.1-.7-.2-1-.3s-.5-.3-.7-.5-.3-.5-.3-.9c0-.5.2-.9.5-1.2s.9-.5,1.5-.5c.9.3,1.4.4,1.8.8Z"
      />
    <path
      d="M27.5,52.8c.4.4.6,1,.6,1.8v3.2h-1.4v-3.1c0-.4-.1-.8-.3-1s-.5-.4-.9-.4-.7.1-1,.4-.5.7-.5,1.1v2.9h-1.4v-7.4h1.4v3c.1-.4.4-.7.7-.9s.7-.3,1.2-.3c.7.1,1.2.3,1.6.7Z"
      />
    <path
      d="M33.8,52.5c.4.2.7.6.9,1s.3.9.3,1.5-.1,1.1-.3,1.5-.5.8-.9,1-.8.3-1.3.3-.9-.1-1.2-.3-.6-.5-.7-.9v1.2h-1.4v-7.4h1.4v3c.1-.4.4-.7.7-.9s.7-.3,1.2-.3s1,.1,1.3.3Zm-2.7,1.3c-.3.3-.4.7-.4,1.2s.1.9.4,1.2.6.4,1.1.4c.4,0,.8-.1,1.1-.4s.4-.7.4-1.2-.1-.9-.4-1.2-.6-.4-1.1-.4-.8.1-1.1.4Z"
      />
    <path
      d="M40,52.5c.4.2.8.6,1,1s.4.9.4,1.5-.1,1.1-.4,1.5c-.2.4-.6.8-1,1s-.9.3-1.5.3c-.5,0-1-.1-1.5-.3-.4-.2-.8-.6-1-1s-.4-.9-.4-1.5.1-1.1.4-1.5.6-.8,1-1s.9-.3,1.5-.3s1.1.1,1.5.3Zm-2.4,1.3c-.3.3-.4.7-.4,1.2s.1.9.4,1.2.6.4,1,.4.7-.1,1-.4.4-.7.4-1.2-.1-.9-.4-1.2-.6-.4-1-.4-.7.1-1,.4Z"
      />
    <path
      d="M45.8,52.5c.3.2.6.5.7.9v-1.2h1.4v5.5h-1.4v-1.2c-.1.4-.4.7-.7.9s-.7.3-1.2.3-.9-.1-1.3-.3-.7-.6-.9-1-.3-.9-.3-1.5.1-1.1.3-1.5.5-.8.9-1s.8-.3,1.3-.3c.5.1.9.2,1.2.4ZM44,53.8c-.3.3-.4.7-.4,1.2s.1.9.4,1.2.6.4,1.1.4c.4,0,.8-.1,1.1-.4s.4-.7.4-1.2-.1-.9-.4-1.2-.6-.4-1.1-.4-.9.1-1.1.4Z"
      />
    <path
      d="M51.4,52.5c.3-.2.7-.3,1.1-.3v1.5h-.4c-1,0-1.6.5-1.6,1.4v2.7h-1.4v-5.5h1.4v1.1c.3-.5.6-.7.9-.9Z"
      />
    <path
      d="M56.7,52.5c.3.2.6.5.7.9v-3h1.4v7.4h-1.4v-1.2c-.1.4-.4.7-.7.9s-.7.3-1.2.3-.9-.1-1.3-.3-.7-.6-.9-1-.3-.9-.3-1.5.1-1.1.3-1.5.5-.8.9-1s.8-.3,1.3-.3.9.1,1.2.3Zm-1.8,1.3c-.3.3-.4.7-.4,1.2s.1.9.4,1.2.6.4,1.1.4c.4,0,.8-.1,1.1-.4s.4-.7.4-1.2-.1-.9-.4-1.2-.6-.4-1.1-.4-.8.1-1.1.4Z"
      />
  </g>
  <rect width="62" height="62" rx="0" ry="0" opacity="0" fill="#fff" />
</svg>