<svg id="eezOLdCH7DY1" xmlns="http://www.w3.org/2000/svg" xmlns:xlink="http://www.w3.org/1999/xlink" viewBox="0 0 46 42" shape-rendering="geometricPrecision" text-rendering="geometricPrecision" width="46" height="42" style="background-color:transparent"><g opacity="0"><rect width="46" height="42" rx="0" ry="0" fill="#fff"/></g><g><path d="M11.5,5.5h23c2.2,0,4,1.8,4,4v23c0,2.2-1.8,4-4,4h-23c-2.2,0-4-1.8-4-4v-23c0-2.2,1.8-4,4-4Z" fill="#597893"/><path d="M20.6,20.3h-4.9c-.5,0-.9-.2-1.2-.5s-.5-.8-.5-1.2v-4.9c0-.5.2-.9.5-1.2s.8-.5,1.2-.5h4.9c.5,0,.9.2,1.2.5s.5.8.5,1.2v4.9c0,.5-.2.9-.5,1.2s-.8.5-1.2.5ZM15.7,13c-.2,0-.4.1-.5.2-.1.2-.2.4-.2.5v4.9c0,.2.1.4.2.5s.3.2.5.2h4.9c.2,0,.4-.1.5-.2s.2-.3.2-.5v-4.9c0-.2-.1-.4-.2-.5s-.3-.2-.5-.2h-4.9Zm4.9,17h-4.9c-.5,0-.9-.2-1.2-.5s-.5-.8-.5-1.2v-4.9c0-.5.2-.9.5-1.2s.8-.5,1.2-.5h4.9c.5,0,.9.2,1.2.5s.5.8.5,1.2v4.9c0,.5-.2.9-.5,1.2s-.8.5-1.2.5Zm-4.9-7.3c-.2,0-.4.1-.5.2s-.2.3-.2.5v4.9c0,.2.1.4.2.5s.3.2.5.2h4.9c.2,0,.4-.1.5-.2s.2-.3.2-.5v-4.9c0-.2-.1-.4-.2-.5s-.3-.2-.5-.2h-4.9Zm14.6-2.4h-4.9c-.5,0-.9-.2-1.2-.5s-.5-.8-.5-1.2v-4.9c0-.5.2-.9.5-1.2s.8-.5,1.2-.5h4.9c.5,0,.9.2,1.2.5s.5.8.5,1.2v4.9c0,.5-.2.9-.5,1.2s-.8.5-1.2.5v0ZM25.4,13c-.2,0-.4.1-.5.2s-.2.3-.2.5v4.9c0,.2.1.4.2.5s.3.2.5.2h4.9c.2,0,.4-.1.5-.2s.2-.3.2-.5v-4.9c0-.2-.1-.4-.2-.5s-.3-.2-.5-.2h-4.9Zm4.9,17h-4.9c-.5,0-.9-.2-1.2-.5s-.5-.8-.5-1.2v-4.9c0-.5.2-.9.5-1.2s.8-.5,1.2-.5h4.9c.5,0,.9.2,1.2.5s.5.8.5,1.2v4.9c0,.5-.2.9-.5,1.2s-.8.5-1.2.5v0Zm-4.9-7.3c-.2,0-.4.1-.5.2s-.2.3-.2.5v4.9c0,.2.1.4.2.5s.3.2.5.2h4.9c.2,0,.4-.1.5-.2s.2-.3.2-.5v-4.9c0-.2-.1-.4-.2-.5s-.3-.2-.5-.2h-4.9Z" fill="#fff"/><path d="M0,2h.8c1.7,0,3,1.4,3,3v32c0,1.7-1.4,3-3,3h-.8L0,2Z" fill="#597893"/></g></svg>
