<svg id="eZSLdpqDC2f1" xmlns="http://www.w3.org/2000/svg" xmlns:xlink="http://www.w3.org/1999/xlink" viewBox="0 0 90 90" shape-rendering="geometricPrecision" text-rendering="geometricPrecision"><g><path d="M11.9,78.4c-.4.8-1.1,1.4-1.9,1.9-.8.4-1.8.7-3,.7h-3.7v-10.7h3.7c1.1,0,2.1.2,3,.7.8.4,1.5,1,1.9,1.8s.7,1.7.7,2.8-.2,2-.7,2.8Zm-2.4-.3c.6-.6.9-1.4.9-2.5s-.3-1.9-.9-2.5-1.5-.9-2.6-.9h-1.5v6.8h1.5c1.1,0,2-.3,2.6-.9Z"/><path d="M19.2,73c.5.3.9.8,1.1,1.3v-1.7h2.1v8.3h-2.1v-1.7c-.2.6-.6,1-1.1,1.3s-1.1.5-1.8.5-1.3-.2-1.9-.5-1-.8-1.3-1.5c-.3-.6-.5-1.4-.5-2.3s.2-1.6.5-2.3c.3-.6.8-1.1,1.3-1.5.6-.3,1.2-.5,1.9-.5.7.1,1.3.3,1.8.6Zm-2.7,2c-.4.4-.6,1-.6,1.8s.2,1.3.6,1.8c.4.4.9.6,1.6.6.6,0,1.2-.2,1.6-.7.4-.4.6-1,.6-1.7s-.2-1.3-.6-1.8c-.4-.4-.9-.7-1.6-.7-.7.1-1.2.3-1.6.7Z"/><path d="M29.6,73.3c.6.5,1,1.2,1.1,2h-2c-.1-.4-.3-.7-.5-1-.2-.2-.6-.3-1.1-.3-.4,0-.6.1-.8.3s-.3.4-.3.6.1.4.2.6c.2.1.4.2.6.3s.6.2,1,.3c.6.1,1.1.3,1.5.4.4.2.7.4,1,.7s.4.8.4,1.4c0,.7-.3,1.3-.8,1.7-.6.4-1.3.7-2.2.7-1.1,0-1.9-.2-2.6-.7s-1-1.2-1.2-2.1h2c0,.4.2.7.5,1s.7.4,1.2.4c.4,0,.6-.1.8-.3s.3-.4.3-.7c0-.2-.1-.4-.2-.6-.2-.1-.4-.3-.6-.3s-.6-.2-1-.3c-.6-.1-1.1-.3-1.5-.4s-.7-.4-1-.7-.4-.8-.4-1.3c0-.7.3-1.3.8-1.8s1.3-.7,2.3-.7c1.1,0,1.9.3,2.5.8Z"/><path d="M39.7,73.4c.6.6.9,1.5.9,2.7v4.8h-2.1v-4.6c0-.7-.2-1.2-.5-1.5-.3-.4-.8-.5-1.4-.5s-1.1.2-1.4.6c-.4.4-.5,1-.5,1.7v4.4h-2.1v-11.2h2.1v4.5c.2-.6.6-1,1.1-1.3s1.1-.5,1.7-.5c.8,0,1.6.3,2.2.9Z"/><path d="M49.3,73c.6.3,1,.8,1.3,1.5.3.6.5,1.4.5,2.3s-.2,1.6-.5,2.3c-.3.6-.8,1.1-1.3,1.5-.6.3-1.2.5-1.9.5s-1.3-.2-1.8-.5-.8-.8-1.1-1.3v1.7h-2.1v-11.2h2.1v4.5c.2-.6.6-1,1.1-1.3s1.1-.5,1.8-.5s1.3.2,1.9.5Zm-4.2,2c-.4.4-.6,1-.6,1.8c0,.7.2,1.3.6,1.7s.9.7,1.6.7s1.2-.2,1.6-.6.6-1,.6-1.8-.2-1.3-.6-1.8c-.4-.4-.9-.6-1.6-.6-.6,0-1.2.2-1.6.6Z"/><path d="M58.6,73c.6.3,1.2.8,1.5,1.5.4.6.6,1.4.6,2.3s-.2,1.6-.6,2.3c-.4.6-.9,1.1-1.5,1.5-.6.3-1.4.5-2.2.5s-1.5-.2-2.2-.5c-.6-.3-1.2-.8-1.5-1.5-.4-.6-.6-1.4-.6-2.3s.2-1.6.6-2.3c.4-.6.9-1.1,1.5-1.5.6-.3,1.4-.5,2.2-.5s1.5.2,2.2.5Zm-3.7,2c-.4.4-.6,1-.6,1.8s.2,1.4.6,1.8.9.6,1.5.6s1.1-.2,1.5-.6.6-1,.6-1.8-.2-1.4-.6-1.8-.9-.6-1.5-.6-1.1.1-1.5.6Z"/><path d="M67.2,73c.5.3.9.8,1.1,1.3v-1.7h2.1v8.3h-2.1v-1.7c-.2.6-.6,1-1.1,1.3s-1.1.5-1.8.5-1.3-.2-1.9-.5-1-.8-1.3-1.5c-.3-.6-.5-1.4-.5-2.3s.2-1.6.5-2.3c.3-.6.8-1.1,1.3-1.5.6-.3,1.2-.5,1.9-.5s1.3.3,1.8.6Zm-2.7,2c-.4.4-.6,1-.6,1.8s.2,1.3.6,1.8c.4.4.9.6,1.6.6.6,0,1.2-.2,1.6-.7.4-.4.6-1,.6-1.7s-.2-1.3-.6-1.8c-.4-.4-.9-.7-1.6-.7-.7.1-1.2.3-1.6.7Z"/><path d="M75.6,73c.5-.3,1.1-.5,1.7-.5v2.3h-.6c-1.6,0-2.3.7-2.3,2.2v4h-2.1v-8.3h2.1v1.6c.3-.6.7-1,1.2-1.3Z"/><path d="M83.5,73c.5.3.9.8,1.1,1.3v-4.5h2.1v11.1h-2.1v-1.7c-.2.6-.6,1-1.1,1.3s-1,.5-1.7.5-1.3-.2-1.9-.5-1-.8-1.3-1.5c-.3-.6-.5-1.4-.5-2.3s.2-1.6.5-2.3c.3-.6.8-1.1,1.3-1.5.6-.3,1.2-.5,1.9-.5s1.3.3,1.7.6Zm-2.7,2c-.4.4-.6,1-.6,1.8s.2,1.3.6,1.8c.4.4.9.6,1.6.6.6,0,1.2-.2,1.6-.7.4-.4.6-1,.6-1.7s-.2-1.3-.6-1.8c-.4-.4-.9-.7-1.6-.7-.6.1-1.2.3-1.6.7Z"/></g><g><path d="M40.1,32.6h-9.5c-.9,0-1.7-.3-2.3-1-.6-.6-1-1.5-1-2.3v-9.5c0-.9.3-1.7,1-2.3.6-.6,1.5-1,2.3-1h9.5c.9,0,1.7.3,2.3,1c.6.6,1,1.5,1,2.3v9.5c0,.9-.4,1.7-1,2.3-.5.7-1.4,1-2.3,1ZM30.7,18.5c-.4,0-.7.1-1,.4s-.4.6-.4,1v9.5c0,.4.2.7.4,1c.3.3.6.4,1,.4h9.5c.4,0,.7-.1,1-.4s.4-.6.4-1v-9.5c0-.4-.1-.7-.4-1s-.6-.4-1-.4h-9.5Z"/><path d="M40.1,51.6h-9.5c-.9,0-1.7-.3-2.3-1-.6-.6-1-1.5-1-2.3v-9.5c0-.9.3-1.7,1-2.3.6-.6,1.5-1,2.3-1h9.5c.9,0,1.7.3,2.3,1c.6.6,1,1.5,1,2.3v9.5c0,.9-.4,1.7-1,2.3-.5.6-1.4,1-2.3,1ZM30.7,37.4c-.4,0-.7.1-1,.4s-.4.6-.4,1v9.5c0,.4.2.7.4,1c.3.3.6.4,1,.4h9.5c.4,0,.7-.1,1-.4s.4-.6.4-1v-9.5c0-.4-.1-.7-.4-1s-.6-.4-1-.4h-9.5Z"/><path d="M59.1,32.6h-9.5c-.9,0-1.7-.3-2.3-1-.6-.6-1-1.5-1-2.3v-9.5c0-.9.3-1.7,1-2.3.6-.6,1.5-1,2.3-1h9.5c.9,0,1.7.3,2.3,1c.6.6,1,1.5,1,2.3v9.5c0,.9-.4,1.7-1,2.3-.6.7-1.5,1-2.3,1ZM49.6,18.5c-.4,0-.7.1-1,.4s-.4.6-.4,1v9.5c0,.4.2.7.4,1c.3.3.6.4,1,.4h9.5c.4,0,.7-.1,1-.4s.4-.6.4-1v-9.5c0-.4-.1-.7-.4-1s-.6-.4-1-.4h-9.5Z"/><path d="M59.1,51.6h-9.5c-.9,0-1.7-.3-2.3-1-.6-.6-1-1.5-1-2.3v-9.5c0-.9.3-1.7,1-2.3.6-.6,1.5-1,2.3-1h9.5c.9,0,1.7.3,2.3,1c.6.6,1,1.5,1,2.3v9.5c0,.9-.4,1.7-1,2.3s-1.5,1-2.3,1ZM49.6,37.4c-.4,0-.7.1-1,.4s-.4.6-.4,1v9.5c0,.4.2.7.4,1c.3.3.6.4,1,.4h9.5c.4,0,.7-.1,1-.4s.4-.6.4-1v-9.5c0-.4-.1-.7-.4-1s-.6-.4-1-.4h-9.5Z"/></g></svg>
