<svg width="22" height="25" viewBox="0 0 22 25" fill="none" xmlns="http://www.w3.org/2000/svg">
<g clip-path="url(#clip0_1_7053)">
<path d="M15.25 21.5C13.49 21.5 12 20.01 12 18.25C12 16.49 13.49 15 15.25 15C17.01 15 18.5 16.49 18.5 18.25C18.5 20.01 17.01 21.5 15.25 21.5ZM15.25 16C14.03 16 13 17.03 13 18.25C13 19.47 14.03 20.5 15.25 20.5C16.47 20.5 17.5 19.47 17.5 18.25C17.5 17.03 16.47 16 15.25 16Z" fill="black"/>
<path d="M15.2472 24.9972C13.8022 24.9972 13.4972 24.3072 13.4972 23.7222V23.1922C13.3222 23.1322 13.1522 23.0572 12.9822 22.9822L12.6072 23.3572C12.3022 23.6622 11.9872 23.7272 11.7722 23.7272C11.2272 23.7272 10.7772 23.3372 10.4072 22.9622C9.39719 21.9272 9.80219 21.2172 10.1322 20.8872L10.5072 20.5122C10.4272 20.3472 10.3572 20.1722 10.2972 19.9972H9.76719C9.18719 19.9972 8.49219 19.6922 8.49219 18.2472C8.49219 16.8022 9.18219 16.4972 9.76719 16.4972H10.2972C10.3572 16.3222 10.4272 16.1522 10.5072 15.9822L10.1322 15.6072C9.80719 15.2822 9.75219 14.9422 9.76219 14.7122C9.79719 13.9922 10.4922 13.4122 10.9122 13.0672C11.4172 12.6472 12.1672 12.6922 12.6072 13.1322L12.9772 13.5072C13.1422 13.4272 13.3172 13.3572 13.4922 13.2972V12.7672C13.4922 12.1872 13.7972 11.4922 15.2422 11.4922C16.6872 11.4922 16.9922 12.1872 16.9922 12.7672V13.2972C17.1672 13.3572 17.3372 13.4322 17.5072 13.5072L17.8822 13.1322C18.1872 12.8272 18.5022 12.7672 18.7172 12.7672C19.2622 12.7672 19.7122 13.1572 20.0822 13.5322C21.0922 14.5672 20.6872 15.2772 20.3572 15.6072L19.9822 15.9822C20.0622 16.1472 20.1322 16.3222 20.1922 16.4972H20.7222C21.3022 16.4972 21.9972 16.8022 21.9972 18.2472C21.9972 19.6922 21.3072 19.9972 20.7272 19.9972H20.1972C20.1372 20.1722 20.0672 20.3422 19.9872 20.5122L20.3622 20.8872C20.6672 21.1922 20.7322 21.5122 20.7322 21.7322C20.7322 22.2722 20.3422 22.7222 19.9672 23.0872C19.6872 23.3622 19.2472 23.7272 18.7222 23.7272C18.4172 23.7272 18.1272 23.6022 17.8872 23.3622L17.5122 22.9872C17.3472 23.0672 17.1722 23.1372 16.9972 23.1972V23.7272C16.9972 24.3072 16.6922 24.9972 15.2472 24.9972ZM12.8922 21.8722C12.9772 21.8722 13.0622 21.8922 13.1422 21.9372C13.4522 22.1122 13.7872 22.2522 14.1322 22.3472C14.3472 22.4072 14.5022 22.6022 14.5022 22.8322V23.7272C14.5022 23.8372 14.5022 24.0022 15.2522 24.0022C16.0022 24.0022 16.0022 23.8372 16.0022 23.7272V22.8322C16.0022 22.6072 16.1522 22.4072 16.3722 22.3472C16.7172 22.2522 17.0522 22.1122 17.3622 21.9372C17.5572 21.8272 17.8022 21.8572 17.9622 22.0172L18.5922 22.6522C18.6672 22.7272 18.7022 22.7272 18.7172 22.7272C18.7722 22.7272 18.9322 22.6922 19.2622 22.3672C19.5722 22.0672 19.7272 21.8522 19.7272 21.7222C19.7272 21.7072 19.7272 21.6672 19.6522 21.5922L19.0222 20.9572C18.8622 20.7972 18.8322 20.5522 18.9422 20.3572C19.1172 20.0472 19.2572 19.7122 19.3522 19.3672C19.4122 19.1472 19.6072 18.9972 19.8322 18.9972H20.7272C20.8372 18.9972 20.9972 18.9972 20.9972 18.2472C20.9972 17.4972 20.8322 17.4972 20.7272 17.4972H19.8322C19.6072 17.4972 19.4072 17.3472 19.3472 17.1272C19.2522 16.7822 19.1172 16.4472 18.9372 16.1372C18.8272 15.9422 18.8572 15.6972 19.0172 15.5372L19.6472 14.9022C19.7172 14.8322 19.8322 14.7172 19.3622 14.2322C19.0622 13.9222 18.8422 13.7672 18.7122 13.7672C18.6972 13.7672 18.6572 13.7672 18.5822 13.8422L17.9522 14.4772C17.7922 14.6372 17.5472 14.6672 17.3522 14.5572C17.0422 14.3822 16.7072 14.2422 16.3622 14.1472C16.1472 14.0872 15.9922 13.8922 15.9922 13.6622V12.7672C15.9922 12.6572 15.9922 12.4922 15.2422 12.4922C14.4922 12.4922 14.4922 12.6572 14.4922 12.7672V13.6622C14.4922 13.8872 14.3422 14.0872 14.1222 14.1472C13.7772 14.2422 13.4422 14.3822 13.1322 14.5572C12.9372 14.6672 12.6922 14.6372 12.5322 14.4772L11.9022 13.8422C11.8272 13.7672 11.7172 13.7022 11.5672 13.8272C11.3222 14.0322 10.7772 14.4822 10.7672 14.7622C10.7672 14.7822 10.7672 14.8272 10.8422 14.9072L11.4722 15.5422C11.6322 15.7022 11.6622 15.9472 11.5522 16.1422C11.3722 16.4522 11.2372 16.7872 11.1422 17.1322C11.0822 17.3522 10.8872 17.5022 10.6572 17.5022H9.76219C9.65219 17.5022 9.49219 17.5022 9.49219 18.2522C9.49219 19.0022 9.65719 19.0022 9.76719 19.0022H10.6622C10.8872 19.0022 11.0872 19.1522 11.1472 19.3722C11.2422 19.7172 11.3772 20.0522 11.5572 20.3622C11.6672 20.5572 11.6372 20.8022 11.4772 20.9622L10.8472 21.5972C10.7772 21.6672 10.6622 21.7822 11.1322 22.2672C11.4322 22.5772 11.6522 22.7322 11.7822 22.7322C11.7972 22.7322 11.8372 22.7322 11.9122 22.6572L12.5472 22.0222C12.6422 21.9272 12.7722 21.8772 12.9022 21.8772L12.8922 21.8722Z" fill="black"/>
<path d="M8.285 22H1.5C1.225 22 1 21.775 1 21.5C1 21.225 1.225 21 1.5 21H8.285C8.56 21 8.785 21.225 8.785 21.5C8.785 21.775 8.56 22 8.285 22Z" fill="black"/>
<path d="M18.5 11.785C18.225 11.785 18 11.56 18 11.285V4C18 3.725 18.225 3.5 18.5 3.5C18.775 3.5 19 3.725 19 4V11.285C19 11.56 18.775 11.785 18.5 11.785Z" fill="black"/>
<path d="M9.335 13H3.5C3.225 13 3 12.775 3 12.5C3 12.225 3.225 12 3.5 12H9.335C9.61 12 9.835 12.225 9.835 12.5C9.835 12.775 9.61 13 9.335 13Z" fill="black"/>
<path d="M8.19 16H3.5C3.225 16 3 15.775 3 15.5C3 15.225 3.225 15 3.5 15H8.19C8.465 15 8.69 15.225 8.69 15.5C8.69 15.775 8.465 16 8.19 16Z" fill="black"/>
<path d="M0.5 21C0.225 21 0 20.775 0 20.5V1.5C0 1.225 0.225 1 0.5 1C0.775 1 1 1.225 1 1.5V20.5C1 20.775 0.775 21 0.5 21Z" fill="black"/>
<path d="M1.5 22C0.675 22 0 21.325 0 20.5C0 20.225 0.225 20 0.5 20C0.775 20 1 20.225 1 20.5C1 20.775 1.225 21 1.5 21C1.775 21 2 21.225 2 21.5C2 21.775 1.775 22 1.5 22Z" fill="black"/>
<path d="M12.03 4H3.5C3.225 4 3 3.775 3 3.5C3 3.225 3.225 3 3.5 3H12.03C12.305 3 12.53 3.225 12.53 3.5C12.53 3.775 12.305 4 12.03 4Z" fill="black"/>
<path d="M15.5 7H3.5C3.225 7 3 6.775 3 6.5C3 6.225 3.225 6 3.5 6H15.5C15.775 6 16 6.225 16 6.5C16 6.775 15.775 7 15.5 7Z" fill="black"/>
<path d="M15.5 10H3.5C3.225 10 3 9.775 3 9.5C3 9.225 3.225 9 3.5 9H15.5C15.775 9 16 9.225 16 9.5C16 9.775 15.775 10 15.5 10Z" fill="black"/>
<path d="M0.5 2C0.225 2 0 1.775 0 1.5C0 0.675 0.675 0 1.5 0C1.775 0 2 0.225 2 0.5C2 0.775 1.775 1 1.5 1C1.225 1 1 1.225 1 1.5C1 1.775 0.775 2 0.5 2Z" fill="black"/>
<path d="M16 4.5C15.175 4.5 14.5 3.825 14.5 3C14.5 2.725 14.725 2.5 15 2.5C15.275 2.5 15.5 2.725 15.5 3C15.5 3.275 15.725 3.5 16 3.5C16.275 3.5 16.5 3.725 16.5 4C16.5 4.275 16.275 4.5 16 4.5Z" fill="black"/>
<path d="M15 3.5C14.725 3.5 14.5 3.275 14.5 3V0.5C14.5 0.225 14.725 0 15 0C15.275 0 15.5 0.225 15.5 0.5V3C15.5 3.275 15.275 3.5 15 3.5Z" fill="black"/>
<path d="M18.5 4.5H16C15.725 4.5 15.5 4.275 15.5 4C15.5 3.725 15.725 3.5 16 3.5H18.5C18.775 3.5 19 3.725 19 4C19 4.275 18.775 4.5 18.5 4.5Z" fill="black"/>
<path d="M18.5012 4.49625C18.3712 4.49625 18.2462 4.44625 18.1463 4.35125L14.6462 0.85125C14.4513 0.65625 14.4513 0.34125 14.6462 0.14625C14.8413 -0.04875 15.1562 -0.04875 15.3512 0.14625L18.8512 3.64625C19.0462 3.84125 19.0462 4.15625 18.8512 4.35125C18.7562 4.45125 18.6263 4.49625 18.4963 4.49625H18.5012Z" fill="black"/>
<path d="M15 1H1.5C1.225 1 1 0.775 1 0.5C1 0.225 1.225 0 1.5 0H15C15.275 0 15.5 0.225 15.5 0.5C15.5 0.775 15.275 1 15 1Z" fill="black"/>
</g>
<defs>
<clipPath id="clip0_1_7053">
<rect width="22" height="25" fill="white"/>
</clipPath>
</defs>
</svg>
