<?xml version="1.0" encoding="utf-8"?>
<!-- Generator: Adobe Illustrator 27.3.1, SVG Export Plug-In . SVG Version: 6.00 Build 0)  -->
<svg version="1.1" id="Layer_1" xmlns="http://www.w3.org/2000/svg" xmlns:xlink="http://www.w3.org/1999/xlink" x="0px" y="0px"
	 viewBox="0 0 90 90" style="enable-background:new 0 0 90 90;" xml:space="preserve">
<g>
	<path d="M27,72.3v10.6h-2.1V72.3H27z"/>
	<path d="M36.1,75.4c0.6,0.6,0.9,1.5,0.9,2.7v4.8h-2.1v-4.6c0-0.7-0.2-1.2-0.5-1.5c-0.3-0.4-0.8-0.5-1.4-0.5c-0.6,0-1.1,0.2-1.4,0.6
		c-0.4,0.4-0.5,1-0.5,1.7v4.4h-2.1v-8.3H31v1.7c0.2-0.6,0.6-1,1.1-1.3c0.5-0.3,1.1-0.5,1.7-0.5C34.8,74.5,35.6,74.8,36.1,75.4z"/>
	<path d="M45.7,75c0.6,0.3,1,0.8,1.3,1.5c0.3,0.6,0.5,1.4,0.5,2.3S47.3,80.4,47,81c-0.3,0.6-0.8,1.1-1.3,1.5
		c-0.6,0.3-1.2,0.5-1.9,0.5c-0.7,0-1.3-0.2-1.8-0.5c-0.5-0.3-0.8-0.8-1.1-1.3v1.7h-2.1V71.8H41v4.5c0.2-0.6,0.6-1,1.1-1.3
		c0.5-0.3,1.1-0.5,1.8-0.5C44.5,74.5,45.1,74.7,45.7,75z M41.6,77c-0.4,0.4-0.6,1-0.6,1.8c0,0.7,0.2,1.3,0.6,1.7
		c0.4,0.4,0.9,0.7,1.6,0.7c0.7,0,1.2-0.2,1.6-0.6s0.6-1,0.6-1.8s-0.2-1.3-0.6-1.8s-0.9-0.6-1.6-0.6C42.5,76.4,42,76.6,41.6,77z"/>
	<path d="M55,75c0.6,0.3,1.2,0.8,1.5,1.5c0.4,0.6,0.6,1.4,0.6,2.3s-0.2,1.6-0.6,2.3c-0.4,0.6-0.9,1.1-1.5,1.5
		c-0.6,0.3-1.4,0.5-2.2,0.5c-0.8,0-1.5-0.2-2.2-0.5c-0.6-0.3-1.2-0.8-1.5-1.5c-0.4-0.6-0.6-1.4-0.6-2.3s0.2-1.6,0.6-2.3
		c0.4-0.6,0.9-1.1,1.5-1.5c0.6-0.3,1.4-0.5,2.2-0.5C53.6,74.5,54.4,74.7,55,75z M51.3,77c-0.4,0.4-0.6,1-0.6,1.8s0.2,1.4,0.6,1.8
		s0.9,0.6,1.5,0.6c0.6,0,1.1-0.2,1.5-0.6s0.6-1,0.6-1.8s-0.2-1.4-0.6-1.8c-0.4-0.4-0.9-0.6-1.5-0.6C52.2,76.3,51.7,76.5,51.3,77z"/>
	<path d="M63.6,82.9l-1.9-2.7l-1.6,2.7h-2.3l2.7-4.3l-2.8-4h2.4l1.8,2.6l1.6-2.6h2.3l-2.8,4.2l2.9,4.1H63.6z"/>
</g>
<g>
	<path d="M30.5,51.6h28.5c1.8,0,3.1-1.2,3.1-2.6V25.5c0-1.5-1.4-2.6-3.1-2.6h-6.4v2.2h6.4c0.3,0,0.5,0.2,0.5,0.4v23.4
		c0,0.2-0.2,0.4-0.5,0.4H30.5c-0.3,0-0.5-0.2-0.5-0.4V25.5c0-0.2,0.2-0.4,0.5-0.4h6v-2.2h-6c-1.8,0-3.1,1.2-3.1,2.6v23.4
		C27.4,50.4,28.8,51.6,30.5,51.6z"/>
	<rect x="47.5" y="43.5" width="8.4" height="0.8"/>
	<rect x="47.5" y="46.4" width="8.4" height="0.8"/>
	<rect x="47.5" y="45" width="2.4" height="0.8"/>
	<rect x="51.1" y="45" width="2.4" height="0.8"/>
	<path d="M50.1,38.9c-0.2-0.1-0.3-0.1-0.5-0.1l0,0c-0.2,0-0.4,0-0.5,0.1c-0.1,0-0.2,0.1-0.2,0.2s0.1,0.2,0.2,0.2h0.1
		c0.1-0.1,0.3-0.1,0.5-0.1c0.1,0,0.3,0,0.4,0.1c0.1,0,0.3-0.1,0.3-0.2C50.3,39.1,50.2,38.9,50.1,38.9z"/>
	<path d="M47.2,40.8c0,0.3,0.1,0.6,0.3,0.9c0.1,0.1,0.1,0.1,0.2,0.1c0.1,0,0.1,0,0.1,0c0.1-0.1,0.1-0.2,0.1-0.3
		c-0.1-0.2-0.2-0.4-0.2-0.7c0-0.1-0.1-0.2-0.2-0.2l0,0C47.3,40.7,47.2,40.7,47.2,40.8z"/>
	<path d="M48.1,39.3c-0.3,0.2-0.5,0.4-0.7,0.7c-0.1,0.1,0,0.2,0.1,0.3h0.1c0.1,0,0.2-0.1,0.2-0.1c0.1-0.2,0.3-0.4,0.5-0.5
		c0.1-0.1,0.1-0.2,0.1-0.3C48.3,39.3,48.2,39.3,48.1,39.3z"/>
	<path d="M48.1,42.1c-0.1,0.1-0.1,0.2,0.1,0.3c0.3,0.2,0.6,0.3,0.9,0.4h0.1c0.1,0,0.2-0.1,0.2-0.2c0-0.1-0.1-0.2-0.2-0.2
		c-0.3-0.1-0.5-0.2-0.8-0.3C48.3,42,48.2,42,48.1,42.1z"/>
	<path d="M49.8,42.6c0,0.1,0.1,0.2,0.2,0.2h0.1c0.3-0.1,0.7-0.2,0.9-0.4c0.1-0.1,0.1-0.2,0.1-0.3C51,42,50.9,42,50.8,42
		c-0.2,0.2-0.5,0.3-0.8,0.3C49.9,42.4,49.8,42.5,49.8,42.6z"/>
	<path d="M51.5,40.8c0,0.2-0.1,0.5-0.2,0.7c-0.1,0.1,0,0.2,0.1,0.3h0.1c0.1,0,0.2-0.1,0.2-0.1c0.1-0.3,0.3-0.5,0.3-0.9l0,0
		c0-0.1-0.1-0.2-0.2-0.2C51.6,40.6,51.5,40.7,51.5,40.8z"/>
	<path d="M51.1,39.3c-0.1-0.1-0.3-0.1-0.3,0.1c-0.1,0.1-0.1,0.2,0.1,0.3c0.2,0.2,0.4,0.3,0.5,0.5c0.1,0.1,0.1,0.1,0.2,0.1
		s0.1,0,0.1,0c0.1-0.1,0.1-0.2,0.1-0.3C51.5,39.7,51.3,39.5,51.1,39.3z"/>
	<path d="M36.7,28.4l7.2,5.9c0.5,0.4,1.2,0.4,1.7,0l7.2-5.9c0.8-0.6,0.2-1.7-0.9-1.7h-2.7V16.4h-9v10.3h-2.8
		C36.4,26.7,35.9,27.8,36.7,28.4z"/>
</g>
</svg>
