<svg id="e9sA6T8e21j1" xmlns="http://www.w3.org/2000/svg" xmlns:xlink="http://www.w3.org/1999/xlink" viewBox="0 0 90 90" shape-rendering="geometricPrecision" text-rendering="geometricPrecision"><g><path d="M30.8,72.5v10.5h-2.1v-7.3L26,82.9h-1.8l-2.7-7.3v7.3h-2.1v-10.4h2.6l3.2,7.9l3.1-7.9h2.5Z"/><path d="M37.8,75c.5.3.9.8,1.1,1.3v-1.7h2.1v8.3h-2.1v-1.7c-.2.6-.6,1-1.1,1.3-.5.4-1.1.5-1.8.5s-1.3-.2-1.9-.5-1-.8-1.3-1.5c-.3-.6-.5-1.4-.5-2.3s.2-1.6.5-2.3c.3-.6.8-1.1,1.3-1.5.6-.3,1.2-.5,1.9-.5.7.1,1.3.3,1.8.6Zm-2.7,2c-.4.4-.6,1-.6,1.8s.2,1.3.6,1.8c.4.4.9.6,1.6.6.6,0,1.2-.2,1.6-.7.4-.4.6-1,.6-1.7s-.2-1.3-.6-1.8c-.4-.4-.9-.7-1.6-.7-.7.1-1.2.3-1.6.7Z"/><path d="M48.2,75.3c.6.5,1,1.2,1.1,2h-2c-.1-.4-.3-.7-.5-1-.3-.2-.6-.4-1.1-.4-.4,0-.6.1-.8.3s-.3.4-.3.7c0,.2.1.4.2.6.2.1.4.2.6.3s.6.2,1,.3c.6.1,1.1.3,1.5.4.4.2.7.4,1,.7s.4.8.4,1.4c0,.7-.3,1.3-.8,1.7-.5.5-1.2.7-2.1.7-1.1,0-1.9-.2-2.6-.7s-1-1.2-1.2-2.1h2c0,.4.2.7.5,1s.7.4,1.2.4c.4,0,.6-.1.8-.3s.3-.4.3-.7c0-.2-.1-.4-.2-.6-.2-.1-.4-.3-.6-.3s-.6-.2-1-.3c-.6-.1-1.1-.3-1.5-.4s-.7-.4-1-.7-.4-.8-.4-1.3c0-.7.3-1.3.8-1.8s1.3-.7,2.3-.7s1.8.3,2.4.8Z"/><path d="M55.4,81.1v1.8h-1.1c-.9,0-1.6-.2-2.1-.7s-.7-1.2-.7-2.2v-3.6h-1.2v-1.8h1.2v-2.1h2.1v2.1h1.9v1.8h-1.9v3.6c0,.4.1.7.2.8.2.2.4.2.8.2h.8Z"/><path d="M64.7,79.2h-6.1c0,.7.2,1.3.6,1.6.4.4.8.5,1.4.5.5,0,.9-.1,1.2-.4s.5-.6.6-1h2.2c-.1.6-.3,1.1-.7,1.6s-.8.8-1.4,1.1c-.5.3-1.1.4-1.8.4-.8,0-1.5-.2-2.2-.5-.6-.3-1.1-.8-1.5-1.5-.4-.6-.5-1.4-.5-2.3s.2-1.6.5-2.3c.3-.6.8-1.1,1.5-1.5.6-.3,1.3-.5,2.2-.5.8,0,1.5.2,2.2.5.6.3,1.1.8,1.4,1.4s.5,1.3.5,2c0,.4,0,.6-.1.9Zm-2.6-2.5c-.4-.4-.9-.5-1.4-.5-.6,0-1.1.2-1.4.5-.4.3-.6.9-.6,1.5h4c0-.6-.2-1.1-.6-1.5Z"/><path d="M69.6,75c.5-.3,1.1-.5,1.7-.5v2.3h-.6c-1.6,0-2.3.7-2.3,2.2v4h-2.1v-8.3h2.1v1.6c.3-.6.7-1,1.2-1.3Z"/></g><g><path d="M59.7,37.8v-7.8c1.5-.4,2.6-1.7,2.6-3.2c0-1.9-1.7-3.4-3.8-3.4-1,0-1.9.3-2.5.9l-7.4-3.9c.1-.2.1-.5.1-.7c0-1.9-1.7-3.4-3.8-3.4s-3.8,1.5-3.8,3.4c0,.2,0,.5.1.7l-7.4,3.9c-.7-.5-1.6-.9-2.5-.9-2.1,0-3.8,1.5-3.8,3.4c0,1.5,1.1,2.8,2.6,3.2v7.8c-1.5.4-2.6,1.7-2.6,3.2c0,1.9,1.7,3.4,3.8,3.4c1,0,1.8-.3,2.5-.8l7.4,3.9c0,.2,0,.3,0,.5c0,1.9,1.7,3.4,3.8,3.4s3.8-1.5,3.8-3.4c0-.2,0-.4,0-.5l7.4-3.9c.7.5,1.5.8,2.5.8c2.1,0,3.8-1.5,3.8-3.4-.1-1.4-1.2-2.7-2.8-3.2ZM58.6,25c1.1,0,2,.8,2,1.8s-.9,1.8-2,1.8-2-.8-2-1.8c-.1-1,.8-1.8,2-1.8ZM44.9,17.9c1.1,0,2,.8,2,1.8s-.9,1.8-2,1.8-2-.8-2-1.8c-.1-.9.8-1.8,2-1.8Zm-16,8.8c0-1,.9-1.8,2-1.8s2,.8,2,1.8-.9,1.8-2,1.8-2-.8-2-1.8Zm2.3,16.2c-1.1,0-2-.8-2-1.8s.9-1.8,2-1.8s2,.8,2,1.8-.9,1.8-2,1.8Zm13.7,7.2c-1.1,0-2-.8-2-1.8s.9-1.8,2-1.8s2,.8,2,1.8-.9,1.8-2,1.8ZM56,38.5l-2.6-1.4c-.3.7-.7,1.3-1.2,1.8l2.6,1.4c-.1.2-.1.5-.1.7c0,.3,0,.5.1.7l-7.3,3.9c-.4-.4-.9-.7-1.5-.8v-2.7c-.4,0-.8.1-1.2.1s-.7,0-1.1-.1v2.7c-.6.2-1.1.4-1.5.8l-7.3-3.9c.1-.2.1-.5.1-.7s0-.5-.1-.7L37.5,39c-.5-.6-.9-1.2-1.2-1.8l-2.5,1.3c-.4-.3-.8-.5-1.4-.7v-7.8c.5-.1,1-.4,1.4-.7l2.5,1.3c.3-.7.7-1.3,1.2-1.8L35,27.5c.1-.2.1-.5.1-.7s0-.5-.1-.7l7.4-3.9c.4.3.8.6,1.4.7v2.7c.4,0,.7-.1,1.1-.1s.8,0,1.2.1v-2.6c.5-.1,1-.4,1.4-.7l7.4,3.9c-.1.2-.1.5-.1.7s0,.5.1.7L52.3,29c.5.6.9,1.2,1.2,1.8l2.6-1.4c.4.3.8.5,1.4.7v7.8c-.6.1-1.1.3-1.5.6Zm2.6,4.4c-1.1,0-2-.8-2-1.8s.9-1.8,2-1.8s2,.8,2,1.8-.9,1.8-2,1.8Z"/><path d="M38.4,30.6c1.3.9,3.9,1.3,6.4,1.3s5.2-.5,6.4-1.3v1.8c0,.9-2.8,1.8-6.4,1.8s-6.4-1-6.4-1.8v-1.8Zm0,4.9c0,.9,2.8,1.8,6.4,1.8c3.7,0,6.4-1,6.4-1.8v-1.8c-1.2.9-3.8,1.3-6.3,1.3s-5.2-.5-6.4-1.3v1.8Zm0,3.1c0,.9,2.8,1.8,6.4,1.8c3.7,0,6.4-1,6.4-1.8v-1.8c-1.3.9-3.9,1.3-6.4,1.3s-5.2-.5-6.4-1.3v1.8Zm12.9-9.2c0-.9-2.8-1.8-6.4-1.8-3.7,0-6.4,1-6.4,1.8c0,.9,2.8,1.8,6.4,1.8c3.7,0,6.4-.9,6.4-1.8Z"/></g></svg>
