<svg id="eONUZ1IBKpx1" xmlns="http://www.w3.org/2000/svg" xmlns:xlink="http://www.w3.org/1999/xlink"
  viewBox="0 0 62 62" shape-rendering="geometricPrecision" text-rendering="geometricPrecision">
  <g>
    <path d="M42.8,51.5c-.5,0-.8.2-1.1.4s-.5.7-.5,1.2h3.1c0-.5-.2-.8-.5-1.2-.2-.4-.6-.4-1-.4Z"
      fill="none" />
    <g>
      <path d="M44.3,16.6c1.1,0,2-.8,2-1.8s-.9-1.8-2-1.8c-1.2,0-2.1.8-2,1.8c0,1,.9,1.8,2,1.8Z"
        fill="none" />
      <path
        d="M43.2,18.1c-.6-.2-1-.4-1.4-.7l-2.6,1.4c-.3-.6-.7-1.2-1.2-1.8l2.6-1.4c-.1-.2-.1-.5-.1-.7s0-.5.1-.7l-7.4-3.9c-.4.3-.9.6-1.4.7v2.6c-.4-.1-.8-.1-1.2-.1s-.7.1-1.1.1v-2.7c-.6-.1-1-.4-1.4-.7l-7.4,3.9c.1.2.1.5.1.7s0,.5-.1.7l2.5,1.3c-.5.5-.9,1.1-1.2,1.8l-2.5-1.3c-.4.3-.9.6-1.4.7v7.8c.6.2,1,.4,1.4.7L22,25.2c.3.6.7,1.2,1.2,1.8l-2.6,1.3c.1.2.1.5.1.7s0,.5-.1.7l7.3,3.9c.4-.4.9-.6,1.5-.8v-2.7c.4.1.7.1,1.1.1s.8-.1,1.2-.1v2.7c.6.1,1.1.4,1.5.8l7.3-3.9c-.1-.2-.1-.4-.1-.7c0-.2,0-.5.1-.7l-2.6-1.4c.5-.5.9-1.1,1.2-1.8l2.6,1.4c.4-.3.9-.5,1.5-.6c0,0,0-7.8,0-7.8Zm-6.3,8.5c0,.8-2.7,1.8-6.4,1.8-3.6,0-6.4-.9-6.4-1.8v-1.8c1.2.8,3.9,1.3,6.4,1.3s5.1-.4,6.4-1.3v1.8Zm0-3.1c0,.8-2.7,1.8-6.4,1.8-3.6,0-6.4-.9-6.4-1.8h.1v-1.8c1.2.8,3.9,1.3,6.4,1.3s5.1-.4,6.3-1.3v1.8Zm0-3.1c0,.9-2.8,1.8-6.4,1.8s-6.4-1-6.4-1.8v-1.8c1.3.9,3.9,1.3,6.4,1.3s5.2-.5,6.4-1.3v1.8Zm-6.3-1.2c-3.6,0-6.4-.9-6.4-1.8c0-.8,2.7-1.8,6.4-1.8c3.6,0,6.4.9,6.4,1.8s-2.7,1.8-6.4,1.8Z"
        fill="none" />
      <path d="M30.6,9.5c1.1,0,2-.8,2-1.8s-.9-1.8-2-1.8c-1.2,0-2.1.9-2,1.8c0,1,.9,1.8,2,1.8Z"
        fill="none" />
      <ellipse rx="2" ry="1.8" transform="translate(16.6 14.7)" fill="none" />
      <ellipse rx="2" ry="1.8" transform="translate(30.6 36.3)" fill="none" />
      <path d="M16.9,27.3c-1.1,0-2,.8-2,1.8s.9,1.8,2,1.8s2-.8,2-1.8-.9-1.8-2-1.8Z" fill="none" />
      <path d="M46.3,29.1c0-1-.9-1.8-2-1.8s-2,.8-2,1.8.9,1.8,2,1.8s2-.8,2-1.8Z" fill="none" />
      <path
        d="M48.2,29c-.1-1.4-1.2-2.7-2.8-3.2v-7.8c1.5-.4,2.6-1.7,2.6-3.2c0-1.9-1.7-3.4-3.8-3.4-1,0-1.9.3-2.5.9L34.3,8.4c.1-.2.1-.5.1-.7c0-1.9-1.7-3.4-3.8-3.4s-3.8,1.5-3.8,3.4c0,.2,0,.5.1.7l-7.4,3.9c-.7-.5-1.6-.9-2.5-.9-2.1,0-3.8,1.5-3.8,3.4c0,1.5,1.1,2.8,2.6,3.2v7.8c-1.5.4-2.6,1.7-2.6,3.2c0,1.9,1.7,3.4,3.8,3.4c1,0,1.8-.3,2.5-.8l7.4,3.9c0,.2,0,.3,0,.5c0,1.9,1.7,3.4,3.8,3.4s3.8-1.5,3.8-3.4c0-.2,0-.4,0-.5l7.4-3.9c.7.5,1.5.8,2.5.8c2.1,0,3.8-1.5,3.8-3.4ZM44.3,13c1.1,0,2,.8,2,1.8s-.9,1.8-2,1.8-2-.8-2-1.8c-.1-1,.8-1.8,2-1.8ZM30.6,5.9c1.1,0,2,.8,2,1.8s-.9,1.8-2,1.8-2-.8-2-1.8c-.1-.9.8-1.8,2-1.8Zm-16,8.8c0-1,.9-1.8,2-1.8s2,.8,2,1.8-.9,1.8-2,1.8-2-.8-2-1.8Zm2.3,16.2c-1.1,0-2-.8-2-1.8s.9-1.8,2-1.8s2,.8,2,1.8-.9,1.8-2,1.8Zm13.7,7.2c-1.1,0-2-.8-2-1.8s.9-1.8,2-1.8s2,.8,2,1.8-.9,1.8-2,1.8ZM41.7,26.5l-2.6-1.4c-.3.7-.7,1.3-1.2,1.8l2.6,1.4c-.1.2-.1.5-.1.7c0,.3,0,.5.1.7l-7.3,3.9c-.4-.4-.9-.7-1.5-.8v-2.7c-.4,0-.8.1-1.2.1s-.7,0-1.1-.1v2.7c-.6.2-1.1.4-1.5.8l-7.3-3.9c.1-.2.1-.5.1-.7s0-.5-.1-.7L23.2,27c-.5-.6-.9-1.2-1.2-1.8l-2.5,1.3c-.4-.3-.8-.5-1.4-.7v-7.8c.5-.1,1-.4,1.4-.7L22,18.6c.3-.7.7-1.3,1.2-1.8l-2.5-1.3c.1-.2.1-.5.1-.7s0-.5-.1-.7l7.4-3.9c.4.3.8.6,1.4.7v2.7c.4,0,.7-.1,1.1-.1s.8,0,1.2.1v-2.6c.5-.1,1-.4,1.4-.7l7.4,3.9c-.1.2-.1.5-.1.7s0,.5.1.7L38,17c.5.6.9,1.2,1.2,1.8l2.6-1.4c.4.3.8.5,1.4.7v7.8c-.6.1-1.1.3-1.5.6Zm.6,2.6c0-1,.9-1.8,2-1.8s2,.8,2,1.8-.9,1.8-2,1.8-2-.8-2-1.8Z"
      />
      <g>
        <path
          d="M24.2,21.7v1.8h-.1c0,.9,2.8,1.8,6.4,1.8c3.7,0,6.4-1,6.4-1.8v-1.8c-1.2.9-3.8,1.3-6.3,1.3s-5.2-.5-6.4-1.3Z"
        />
        <path
          d="M24.1,24.8v1.8c0,.9,2.8,1.8,6.4,1.8c3.7,0,6.4-1,6.4-1.8v-1.8c-1.3.9-3.9,1.3-6.4,1.3s-5.2-.5-6.4-1.3Z"
        />
        <path
          d="M30.6,15.6c-3.7,0-6.4,1-6.4,1.8c0,.9,2.8,1.8,6.4,1.8c3.7,0,6.4-.9,6.4-1.8s-2.8-1.8-6.4-1.8Z"
        />
        <path
          d="M24.1,18.6v1.8c0,.8,2.8,1.8,6.4,1.8s6.4-.9,6.4-1.8v-1.8c-1.2.8-3.9,1.3-6.4,1.3s-5.1-.4-6.4-1.3Z"
        />
      </g>
    </g>
    <g>
      <path
        d="M21.6,50.7v7h-1.4v-4.9l-1.8,4.9h-1.2l-1.8-4.9v4.9h-1.4v-7h1.7l2.1,5.2l2.1-5.2c0,0,1.7,0,1.7,0Z"
      />
      <path
        d="M26.2,52.4c.3.2.6.5.7.9v-1.2h1.4v5.5h-1.4v-1.2c-.1.4-.4.7-.7.9s-.7.3-1.2.3-.9-.1-1.3-.3-.7-.6-.9-1-.3-.9-.3-1.5.1-1.1.3-1.5.5-.8.9-1s.8-.3,1.3-.3c.5.1.9.2,1.2.4Zm-1.8,1.3c-.3.3-.4.7-.4,1.2s.1.9.4,1.2.6.4,1.1.4c.4,0,.8-.1,1.1-.4s.4-.7.4-1.2-.1-.9-.4-1.2-.6-.4-1.1-.4-.8.1-1.1.4Z"
      />
      <path
        d="M33.1,52.6c.4.3.7.8.8,1.4h-1.3c-.1-.3-.2-.5-.4-.6s-.4-.4-.7-.4c-.2,0-.4.1-.6.2-.1.1-.2.3-.2.5s.1.3.2.4.2.2.4.2c.2.1.4.1.7.2.4.1.8.2,1,.3s.5.3.7.5.3.5.3.9c0,.5-.2.9-.6,1.1-.4.3-.9.4-1.5.4-.7,0-1.3-.2-1.7-.5s-.7-.8-.8-1.4h1.3c0,.3.2.5.4.6.2.2.5.2.8.2.2,0,.4-.1.5-.2s.2-.3.2-.5-.1-.3-.2-.4-.2-.2-.4-.2-.4-.1-.7-.2c-.4-.1-.7-.2-1-.3s-.5-.3-.7-.5-.3-.5-.3-.9c0-.5.2-.9.5-1.2.4-.3.9-.5,1.5-.5.9.4,1.4.5,1.8.9Z"
      />
      <path
        d="M38,56.5v1.2h-.7c-.6,0-1.1-.2-1.4-.5s-.5-.8-.5-1.5v-2.4h-.8v-1.2h.8v-1.4h1.4v1.4h1.2v1.2h-1.2v2.4c0,.3.1.5.2.6s.3.2.5.2h.5Z"
      />
      <path
        d="M44.1,55.2h-4.1c0,.5.2.9.4,1.1s.6.4.9.4.6-.1.8-.2.4-.4.4-.7h1.5c-.1.4-.2.7-.5,1-.2.3-.5.5-.9.7s-.8.3-1.3.3-1-.1-1.4-.3-.7-.6-1-1-.3-.9-.3-1.5.1-1.1.3-1.5.6-.8,1-1s.9-.3,1.4-.3s1,.1,1.4.3.7.5.9.9.3.8.3,1.4c.3,0,.3.2.2.4Zm-1.7-1.7c-.3-.2-.6-.4-.9-.4-.4,0-.7.1-1,.4-.3.2-.4.6-.4,1h2.7c0-.4-.1-.7-.4-1Z"
      />
      <path
        d="M47.4,52.4c.3-.2.7-.3,1.1-.3v1.5h-.4c-1,0-1.5.5-1.5,1.4v2.7h-1.4v-5.5h1.4v1.1c.2-.5.5-.7.8-.9Z"
      />
    </g>
  </g>
  <rect width="62" height="62" rx="0" ry="0" opacity="0" fill="#fff" />
</svg>