<svg id="eX2lNW6K1qf1" xmlns="http://www.w3.org/2000/svg" xmlns:xlink="http://www.w3.org/1999/xlink" viewBox="0 0 46 42" shape-rendering="geometricPrecision" text-rendering="geometricPrecision" width="46" height="42" style="background-color:transparent"><g opacity="0"><rect width="46" height="42" rx="0" ry="0" fill="#fff"/></g><g><path d="M11.5,5.5h23c2.2,0,4,1.8,4,4v23c0,2.2-1.8,4-4,4h-23c-2.2,0-4-1.8-4-4v-23c0-2.2,1.8-4,4-4Z" fill="#597893"/><g><path d="M30.6,23v-4c.8-.2,1.3-.9,1.3-1.6c0-1-.9-1.7-2-1.7-.5,0-1,.2-1.3.5l-3.8-2c.1-.1.1-.3.1-.4c0-1-.9-1.8-2-1.8s-2,.8-2,1.7c0,.1,0,.3.1.4l-3.8,2c-.4-.3-.8-.5-1.3-.5-1.1,0-2,.8-2,1.7c0,.8.6,1.4,1.3,1.6v4c-.8.2-1.3.9-1.3,1.6c0,1,.9,1.7,2,1.7.5,0,.9-.2,1.3-.4l3.8,2v.3c0,1,.9,1.7,2,1.7s2-.8,2-1.7v-.3l3.8-2c.4.3.8.4,1.3.4c1.1,0,2-.8,2-1.7-.2-.5-.7-1.2-1.5-1.5ZM30,16.4c.6,0,1,.4,1,.9s-.5.9-1,.9c-.6,0-1-.4-1-.9-.1-.4.4-.9,1-.9Zm-7.1-3.6c.6,0,1,.4,1,.9s-.5.9-1,.9c-.6,0-1-.4-1-.9c0-.4.4-.9,1-.9Zm-8.2,4.5c0-.5.5-.9,1-.9.6,0,1,.4,1,.9s-.5.9-1,.9-1-.4-1-.9Zm1.2,8.4c-.6,0-1-.4-1-.9s.5-.9,1-.9s1,.4,1,.9c0,.4-.4.9-1,.9Zm7,3.7c-.6,0-1-.4-1-.9s.5-.9,1-.9c.6,0,1,.4,1,.9s-.4.9-1,.9Zm5.8-6l-1.3-.7c-.1.3-.4.7-.6.9l1.3.7c-.1.1-.1.3-.1.4c0,.2,0,.3.1.4l-3.8,2c-.2-.2-.5-.4-.8-.4v-1.4c-.2,0-.4.1-.6.1s-.4,0-.6-.1v1.4c-.3.1-.6.2-.8.4l-3.8-2c.1-.1.1-.3.1-.4s0-.3-.1-.4l1.3-.7c-.2-.3-.4-.6-.6-.9l-1.3.7c-.2-.2-.5-.3-.7-.4v-4c.3-.1.5-.2.7-.4l1.3.7c.2-.4.4-.7.6-.9l-1.3-.7c.1-.1.1-.3.1-.4s0-.3-.1-.4l3.8-2c.2.2.4.3.7.4v1.4c.2,0,.4-.1.6-.1s.4,0,.6.1v-1.3c.3-.1.5-.2.7-.4l3.8,2c-.1.1-.1.3-.1.4s0,.3.1.4l-1.1.7c.3.3.5.6.6.9l1.3-.7c.2.2.4.3.7.4v4c-.3,0-.5.1-.7.3v0ZM30,25.7c-.6,0-1-.4-1-.9s.5-.9,1-.9c.6,0,1,.4,1,.9c0,.4-.4.9-1,.9Z" fill="#fff"/><path d="M19.6,19.3c.7.5,2,.7,3.3.7s2.7-.3,3.3-.7v.9c0,.5-1.4.9-3.3.9s-3.3-.5-3.3-.9c0,.1,0-.9,0-.9Zm0,2.5c0,.5,1.4.9,3.3.9s3.3-.5,3.3-.9v-.9c-.6.5-2,.7-3.2.7-1.3,0-2.7-.3-3.3-.7l-.1.9v0v0Zm0,1.6c0,.5,1.4.9,3.3.9s3.3-.5,3.3-.9v-.9c-.7.5-2,.7-3.3.7s-2.7-.3-3.3-.7v.9Zm6.6-4.7c0-.5-1.4-.9-3.3-.9s-3.3.5-3.3.9c0,.5,1.4.9,3.3.9c2,0,3.3-.4,3.3-.9Z" fill="#fff"/></g><path d="M0,2h.8c1.7,0,3,1.4,3,3v32c0,1.7-1.4,3-3,3h-.8L0,2Z" fill="#597893"/></g></svg>
