<svg width="25" height="25" viewBox="0 0 25 25" fill="none" xmlns="http://www.w3.org/2000/svg">
<g clip-path="url(#clip0_1_6931)">
<path d="M2.4974 2.89844H1.66406V3.72663H2.4974V2.89844Z" fill="black"/>
<path d="M4.16927 2.89844H3.33594V3.72663H4.16927V2.89844Z" fill="black"/>
<path d="M5.83333 2.89844H5V3.72663H5.83333V2.89844Z" fill="black"/>
<path d="M1.66667 21.1189H9.01354L8.78646 23.6035H7.50052V24.4317H16.6672V23.6035H15.3813L15.1542 21.1189H22.501C23.4208 21.1179 24.1667 20.3766 24.1677 19.4625V10.3524H23.3344V16.9779H0.833333V5.38317H11.6667V4.55498H0.833333V2.89858C0.833854 2.44152 1.20677 2.0709 1.66667 2.07038H14.5833V1.24219H1.66667C0.746875 1.24322 0.00104167 1.98446 0 2.89858V19.4625C0.00104167 20.3766 0.746875 21.1179 1.66667 21.1189ZM14.5437 23.6035H9.62292L9.85 21.1189H14.3161L14.5432 23.6035H14.5437ZM23.3333 17.8061V19.4625C23.3328 19.9196 22.9599 20.2902 22.5 20.2907H1.66667C1.20677 20.2902 0.833854 19.9196 0.833333 19.4625V17.8061H23.3333Z" fill="black"/>
<path d="M12.4974 18.6328H11.6641V19.461H12.4974V18.6328Z" fill="black"/>
<path d="M18.75 8.69575C20.1307 8.69575 21.25 7.58337 21.25 6.21115C21.25 4.83893 20.1307 3.72656 18.75 3.72656C17.3693 3.72656 16.25 4.83893 16.25 6.21115C16.2516 7.58286 17.3698 8.69419 18.75 8.69575ZM18.75 4.55476C19.6703 4.55476 20.4167 5.29651 20.4167 6.21115C20.4167 7.12579 19.6703 7.86755 18.75 7.86755C17.8297 7.86755 17.0833 7.12579 17.0833 6.21115C17.0844 5.29703 17.8302 4.5558 18.75 4.55476Z" fill="black"/>
<path d="M13.498 2.84024C13.3219 2.83093 13.1589 2.93342 13.0917 3.09543L12.5318 4.43866C12.4641 4.60068 12.5068 4.78703 12.6375 4.90453L13.661 5.82279V6.60026L12.6375 7.51852C12.5068 7.63602 12.4641 7.82237 12.5318 7.98438L13.0917 9.32762C13.1594 9.48963 13.3219 9.5916 13.498 9.5828L14.875 9.51293L15.4282 10.0626L15.3579 11.4312C15.349 11.6062 15.4516 11.7677 15.6146 11.835L16.9662 12.3914C17.1292 12.4587 17.3167 12.4163 17.4349 12.2864L18.3589 11.2692H19.1412L20.0652 12.2864C20.1834 12.4163 20.3709 12.4587 20.5339 12.3914L21.8855 11.835C22.0485 11.7677 22.1511 11.6062 22.1422 11.4312L22.0719 10.0626L22.625 9.51293L24.0021 9.5828C24.1782 9.59212 24.3412 9.48963 24.4084 9.32762L24.9683 7.98438C25.036 7.82237 24.9933 7.63602 24.8625 7.51852L23.8391 6.60026V5.82279L24.8625 4.90453C24.9933 4.78703 25.036 4.60068 24.9683 4.43866L24.4084 3.09543C24.3407 2.93342 24.1782 2.83144 24.0021 2.84024L22.625 2.91012L22.0719 2.36041L22.1422 0.991812C22.1511 0.816855 22.0485 0.655357 21.8855 0.588066L20.5339 0.031621C20.3709 -0.03567 20.1834 0.00677507 20.0652 0.136698L19.1412 1.15383H18.3589L17.4349 0.136698C17.3167 0.00677507 17.1292 -0.03567 16.9662 0.031621L15.6146 0.588066C15.4516 0.655357 15.349 0.816855 15.3579 0.991812L15.4282 2.36041L14.875 2.91012L13.498 2.84024ZM15.3334 3.626L16.1485 2.81592C16.2318 2.7331 16.2761 2.61922 16.2698 2.50172L16.2053 1.24131L17.0136 0.908475L17.8646 1.84537C17.9438 1.93233 18.0558 1.98203 18.174 1.98203H19.3266C19.4443 1.98203 19.5568 1.93233 19.6355 1.84537L20.4865 0.908475L21.2948 1.24131L21.2303 2.50172C21.224 2.6187 21.2683 2.73258 21.3516 2.81592L22.1667 3.626C22.25 3.70882 22.3646 3.75281 22.4829 3.7466L23.7511 3.68242L24.086 4.48577L23.1433 5.33157C23.0558 5.41024 23.0058 5.52153 23.0058 5.63903V6.78453C23.0058 6.90152 23.0558 7.01332 23.1433 7.09148L24.086 7.93728L23.7511 8.74063L22.4829 8.67645C22.3652 8.67023 22.2506 8.71423 22.1667 8.79705L21.3516 9.60713C21.2683 9.68995 21.224 9.80383 21.2303 9.92133L21.2948 11.1817L20.4865 11.5146L19.6355 10.5777C19.5563 10.4907 19.4443 10.441 19.3261 10.441H18.1735C18.0558 10.441 17.9433 10.4907 17.8646 10.5777L17.0136 11.5146L16.2053 11.1817L16.2698 9.92133C16.2761 9.80435 16.2318 9.69047 16.1485 9.60713L15.3334 8.79705C15.25 8.71423 15.1355 8.67023 15.0172 8.67645L13.749 8.74063L13.4141 7.93728L14.3568 7.09148C14.4443 7.01281 14.4943 6.90152 14.4943 6.78402V5.63852C14.4943 5.52153 14.4443 5.40973 14.3568 5.33157L13.4141 4.48577L13.749 3.68242L15.0172 3.7466C15.1349 3.75281 15.25 3.70882 15.3334 3.62548V3.626Z" fill="black"/>
<path d="M4.58594 7.0391C4.58594 6.81031 4.39948 6.625 4.16927 6.625H2.5026C2.2724 6.625 2.08594 6.81031 2.08594 7.0391V8.69549C2.08594 8.92428 2.2724 9.10959 2.5026 9.10959H4.16927C4.39948 9.10959 4.58594 8.92428 4.58594 8.69549V7.0391ZM3.7526 8.28139H2.91927V7.4532H3.7526V8.28139Z" fill="black"/>
<path d="M7.91406 7.0391C7.91406 6.81031 7.7276 6.625 7.4974 6.625H5.83073C5.60052 6.625 5.41406 6.81031 5.41406 7.0391V8.69549C5.41406 8.92428 5.60052 9.10959 5.83073 9.10959H7.4974C7.7276 9.10959 7.91406 8.92428 7.91406 8.69549V7.0391ZM7.08073 8.28139H6.2474V7.4532H7.08073V8.28139Z" fill="black"/>
<path d="M11.25 7.0391C11.25 6.81031 11.0635 6.625 10.8333 6.625H9.16667C8.93646 6.625 8.75 6.81031 8.75 7.0391V8.69549C8.75 8.92428 8.93646 9.10959 9.16667 9.10959H10.8333C11.0635 9.10959 11.25 8.92428 11.25 8.69549V7.0391ZM10.4167 8.28139H9.58333V7.4532H10.4167V8.28139Z" fill="black"/>
<path d="M4.58594 10.3516C4.58594 10.1228 4.39948 9.9375 4.16927 9.9375H2.5026C2.2724 9.9375 2.08594 10.1228 2.08594 10.3516V12.008C2.08594 12.2368 2.2724 12.4221 2.5026 12.4221H4.16927C4.39948 12.4221 4.58594 12.2368 4.58594 12.008V10.3516ZM3.7526 11.5939H2.91927V10.7657H3.7526V11.5939Z" fill="black"/>
<path d="M7.91406 10.3516C7.91406 10.1228 7.7276 9.9375 7.4974 9.9375H5.83073C5.60052 9.9375 5.41406 10.1228 5.41406 10.3516V12.008C5.41406 12.2368 5.60052 12.4221 5.83073 12.4221H7.4974C7.7276 12.4221 7.91406 12.2368 7.91406 12.008V10.3516ZM7.08073 11.5939H6.2474V10.7657H7.08073V11.5939Z" fill="black"/>
<path d="M11.25 10.3516C11.25 10.1228 11.0635 9.9375 10.8333 9.9375H9.16667C8.93646 9.9375 8.75 10.1228 8.75 10.3516V12.008C8.75 12.2368 8.93646 12.4221 9.16667 12.4221H10.8333C11.0635 12.4221 11.25 12.2368 11.25 12.008V10.3516ZM10.4167 11.5939H9.58333V10.7657H10.4167V11.5939Z" fill="black"/>
<path d="M4.16927 13.25H2.5026C2.2724 13.25 2.08594 13.4353 2.08594 13.6641V15.3205C2.08594 15.5493 2.2724 15.7346 2.5026 15.7346H4.16927C4.39948 15.7346 4.58594 15.5493 4.58594 15.3205V13.6641C4.58594 13.4353 4.39948 13.25 4.16927 13.25ZM3.7526 14.9064H2.91927V14.0782H3.7526V14.9064Z" fill="black"/>
<path d="M7.4974 13.25H5.83073C5.60052 13.25 5.41406 13.4353 5.41406 13.6641V15.3205C5.41406 15.5493 5.60052 15.7346 5.83073 15.7346H7.4974C7.7276 15.7346 7.91406 15.5493 7.91406 15.3205V13.6641C7.91406 13.4353 7.7276 13.25 7.4974 13.25ZM7.08073 14.9064H6.2474V14.0782H7.08073V14.9064Z" fill="black"/>
<path d="M10.8333 13.25H9.16667C8.93646 13.25 8.75 13.4353 8.75 13.6641V15.3205C8.75 15.5493 8.93646 15.7346 9.16667 15.7346H10.8333C11.0635 15.7346 11.25 15.5493 11.25 15.3205V13.6641C11.25 13.4353 11.0635 13.25 10.8333 13.25ZM10.4167 14.9064H9.58333V14.0782H10.4167V14.9064Z" fill="black"/>
<path d="M14.1693 13.25H13.3359V14.0782H14.1693V13.25Z" fill="black"/>
<path d="M22.0833 13.25H15V14.0782H22.0833V13.25Z" fill="black"/>
<path d="M20.4167 14.9062H12.5V15.7344H20.4167V14.9062Z" fill="black"/>
</g>
<defs>
<clipPath id="clip0_1_6931">
<rect width="25" height="24.4318" fill="white"/>
</clipPath>
</defs>
</svg>
