<svg width="25" height="25" viewBox="0 0 25 25" fill="none" xmlns="http://www.w3.org/2000/svg">
<g clip-path="url(#clip0_1_6869)">
<path d="M13.7029 6.81639C13.663 7.01575 13.7826 7.25498 14.0218 7.29486C15.2313 7.57396 16.1218 8.66381 16.1218 9.91315V13.4219C16.1218 14.4719 15.2313 15.3624 14.1813 15.3624C14.1813 15.3624 13.7029 15.3624 13.7029 15.7611V17.3693C13.7029 17.6085 13.8624 17.768 14.1016 17.768C14.3408 17.768 14.5003 17.6085 14.5003 17.3693V16.1598C15.8693 16.0003 16.9192 14.8307 16.9192 13.4219V9.91315C16.9192 8.30496 15.7497 6.84297 14.1813 6.48412C13.982 6.44425 13.7427 6.56386 13.7029 6.8031V6.81639Z" fill="black"/>
<path d="M12.0938 8.46904V13.3069C12.0938 13.5461 12.2532 13.7056 12.4925 13.7056C12.7317 13.7056 12.8912 13.5461 12.8912 13.3069V8.46904C12.8912 8.2298 12.7317 8.07031 12.4925 8.07031C12.2532 8.07031 12.0938 8.2298 12.0938 8.46904Z" fill="black"/>
<path d="M20.9607 6.85545C20.9208 7.09469 21.0404 7.29405 21.2797 7.33392C22.529 7.57315 23.4195 8.663 23.4195 9.95221V13.461C23.4195 14.511 22.529 15.4014 21.479 15.4014C21.479 15.4014 20.9607 15.3217 20.9607 15.8002V20.5583C20.9607 20.7975 21.1202 20.957 21.3594 20.957C21.5986 20.957 21.7581 20.7975 21.7581 20.5583V16.159C23.1271 15.9995 24.2169 14.8299 24.2169 13.4211V9.91234C24.2169 8.26428 23.0473 6.84216 21.4391 6.52318C21.2398 6.48331 21.0006 6.60293 20.9607 6.84216V6.85545Z" fill="black"/>
<path d="M17.4894 7.57489C17.7287 7.45528 17.9679 7.37553 18.2204 7.29579C18.4198 7.25591 18.5793 7.05655 18.5394 6.81732C18.4995 6.61796 18.3002 6.45847 18.0609 6.49834C17.7419 6.57808 17.4097 6.6977 17.0907 6.85719C16.8913 6.97681 16.8116 7.21604 16.9312 7.4154C17.1306 7.73438 17.4097 7.61477 17.4894 7.57489Z" fill="black"/>
<path d="M7.01809 6.48412C6.77885 6.44425 6.57949 6.56386 6.49974 6.8031C6.45987 7.00246 6.57949 7.24169 6.81872 7.28157C7.05796 7.32144 7.29719 7.40118 7.50984 7.5208C7.54972 7.56067 7.82882 7.64042 8.06806 7.36131C8.18768 7.16195 8.10793 6.92271 7.90857 6.8031C7.62946 6.64361 7.31048 6.56386 7.01809 6.48412Z" fill="black"/>
<path d="M3.23143 16.1217V20.5608C3.23143 20.8001 3.39092 20.9595 3.63015 20.9595C3.86938 20.9595 4.02887 20.8001 4.02887 20.5608V15.723C4.02887 15.3242 3.55041 15.3242 3.55041 15.3242C2.50043 15.3242 1.60995 14.4338 1.60995 13.3838V9.87501C1.60995 8.62568 2.50043 7.53583 3.70989 7.25672C3.90926 7.21685 4.06875 7.01749 4.02887 6.77825C3.989 6.57889 3.74977 6.4194 3.55041 6.45928C1.94222 6.81813 0.8125 8.26683 0.8125 9.8883V13.3971C0.8125 14.8059 1.86247 15.9755 3.23143 16.135V16.1217Z" fill="black"/>
<path d="M7.25678 16.1209C7.45614 16.081 7.61563 16.0412 7.81499 16.0013C8.01435 15.9216 8.13397 15.7222 8.05423 15.483C7.97448 15.2836 7.77512 15.164 7.53589 15.2437C7.17703 15.3633 6.84476 15.3235 6.84476 15.3235C6.60553 15.3235 6.44604 15.483 6.44604 15.7222V22.979C6.44604 23.6701 5.9277 24.1884 5.23658 24.1884C4.54545 24.1884 4.02711 23.6701 4.02711 22.979V22.2081C4.02711 21.9689 3.86762 21.8094 3.62839 21.8094C3.38915 21.8094 3.22967 21.9689 3.22967 22.2081V22.979C3.22967 23.4176 3.38915 23.8695 3.62839 24.1884H0.398724C0.15949 24.1884 0 24.3479 0 24.5872C0 24.8264 0.15949 24.9859 0.398724 24.9859H7.6555C7.89474 24.9859 8.05423 24.8264 8.05423 24.5872C8.05423 24.3479 7.89474 24.1884 7.6555 24.1884H6.84476C7.084 23.8695 7.24349 23.4176 7.24349 22.979V16.1209H7.25678Z" fill="black"/>
<path d="M22.1695 24.1892H21.3987C21.6379 23.8702 21.7575 23.4582 21.7575 23.0196V22.2487C21.7575 22.0095 21.598 21.85 21.3588 21.85C21.1195 21.85 20.9601 22.0095 20.9601 22.2487V23.0196C20.9601 23.5778 20.5613 24.0696 20.0297 24.1892H19.4316C18.9531 24.0696 18.5411 23.5911 18.5411 23.0196V15.723C18.5411 15.4837 18.3816 15.3242 18.1424 15.3242C18.1424 15.3242 17.7836 15.3641 17.4114 15.2046C17.2121 15.1249 16.9728 15.2445 16.8931 15.4439C16.8133 15.6432 16.9329 15.8825 17.1323 15.9622C17.3317 16.0419 17.4912 16.0818 17.6905 16.0818V22.9797C17.6905 23.4183 17.85 23.8304 18.0494 24.1493H14.0621C14.3014 23.8304 14.421 23.4183 14.421 22.9797V19.1121C14.421 18.8729 14.2615 18.7134 14.0223 18.7134C13.783 18.7134 13.6235 18.8729 13.6235 19.1121V22.9797C13.6235 23.538 13.2248 24.0297 12.6932 24.1493H12.0818C11.6831 24.0696 11.2711 23.5911 11.2711 23.0196V15.723C11.2711 15.2844 10.7926 15.3242 10.7926 15.3242C9.74262 15.3242 8.85214 14.4338 8.85214 13.3838V9.87501C8.85214 8.62568 9.74262 7.53583 10.9521 7.25672C11.1514 7.21685 11.3109 7.01749 11.2711 6.77825C11.2312 6.57889 11.0318 6.4194 10.7926 6.45928C9.22428 6.77826 8.05469 8.22695 8.05469 9.84843V13.3572C8.05469 14.766 9.10466 15.9356 10.4736 16.0951V22.993C10.4736 23.4316 10.6331 23.8436 10.8325 24.1626H9.26415C9.02492 24.1626 8.86543 24.3221 8.86543 24.5613C8.86543 24.8006 9.02492 24.9601 9.26415 24.9601H22.1695C22.4088 24.9601 22.5682 24.8006 22.5682 24.5613C22.5682 24.3221 22.4088 24.2025 22.1695 24.2025V24.1892Z" fill="black"/>
<path d="M4.83594 8.46904V13.3069C4.83594 13.5461 4.99543 13.7056 5.23466 13.7056C5.4739 13.7056 5.63339 13.5461 5.63339 13.3069V8.46904C5.63339 8.2298 5.4739 8.07031 5.23466 8.07031C4.99543 8.07031 4.83594 8.2298 4.83594 8.46904Z" fill="black"/>
<path d="M19.3516 8.46904V13.3069C19.3516 13.5461 19.5111 13.7056 19.7503 13.7056C19.9895 13.7056 20.149 13.5461 20.149 13.3069V8.46904C20.149 8.2298 19.9895 8.07031 19.7503 8.07031C19.5111 8.07031 19.3516 8.2298 19.3516 8.46904Z" fill="black"/>
<path d="M24.5845 24.1875H23.7737C23.5345 24.1875 23.375 24.347 23.375 24.5862C23.375 24.8255 23.5345 24.9849 23.7737 24.9849H24.5845C24.8237 24.9849 24.9832 24.8255 24.9832 24.5862C24.9832 24.347 24.8237 24.1875 24.5845 24.1875Z" fill="black"/>
<path d="M5.23466 6.44531C5.00872 6.44531 4.83594 6.63138 4.83594 6.84404C4.83594 7.05669 5.02201 7.24276 5.23466 7.24276C5.44731 7.24276 5.63339 7.05669 5.63339 6.84404C5.63339 6.63138 5.44731 6.44531 5.23466 6.44531Z" fill="black"/>
<path d="M12.4925 6.44531C12.2665 6.44531 12.0938 6.63138 12.0938 6.84404C12.0938 7.05669 12.2798 7.24276 12.4925 7.24276C12.7051 7.24276 12.8912 7.05669 12.8912 6.84404C12.8912 6.63138 12.7051 6.44531 12.4925 6.44531Z" fill="black"/>
<path d="M19.7503 6.44531C19.5243 6.44531 19.3516 6.63138 19.3516 6.84404C19.3516 7.05669 19.5376 7.24276 19.7503 7.24276C19.9629 7.24276 20.149 7.05669 20.149 6.84404C20.149 6.63138 19.9629 6.44531 19.7503 6.44531Z" fill="black"/>
<path d="M19.7468 5.65093C20.8765 5.65093 21.767 4.76044 21.767 3.63072V2.0757C21.5011 2.42126 21.222 2.84657 20.9562 3.33833V3.64401C20.9562 4.33514 20.4379 4.85348 19.7468 4.85348C19.0556 4.85348 18.5373 4.33514 18.5373 3.64401V2.03583C18.5373 1.34471 19.0556 0.826364 19.7468 0.826364C20.2518 0.826364 20.6638 1.11876 20.8499 1.53078C21.036 1.34471 21.2353 1.15863 21.4746 0.985854C21.129 0.401058 20.491 0.015625 19.7468 0.015625C18.617 0.015625 17.7266 0.906109 17.7266 2.03583V3.64401C17.7266 4.77373 18.617 5.66422 19.7468 5.66422V5.65093Z" fill="black"/>
<path d="M12.4913 5.65093C13.621 5.65093 14.5115 4.76044 14.5115 3.63072V2.02254C14.5115 2.02254 14.5115 1.91621 14.4982 1.86305C14.2457 2.16874 13.9799 2.55417 13.714 3.01935V3.64401C13.714 4.33514 13.1957 4.85348 12.5046 4.85348C11.8135 4.85348 11.2951 4.33514 11.2951 3.64401V2.03583C11.2951 1.34471 11.8135 0.826364 12.5046 0.826364C12.9565 0.826364 13.3286 1.0656 13.5413 1.42445C13.7273 1.23838 13.94 1.05231 14.1792 0.892818C13.8204 0.361186 13.209 0.015625 12.5046 0.015625C11.3749 0.015625 10.4844 0.906109 10.4844 2.03583V3.64401C10.4844 4.77373 11.3749 5.66422 12.5046 5.66422L12.4913 5.65093Z" fill="black"/>
<path d="M5.23347 5.65093C6.36319 5.65093 7.25368 4.76044 7.25368 3.63072V2.02254C7.25368 2.02254 7.25368 1.91621 7.24038 1.86305C6.98786 2.16874 6.72204 2.55417 6.45623 3.01935V3.64401C6.45623 4.33514 5.93789 4.85348 5.24676 4.85348C4.55564 4.85348 4.0373 4.33514 4.0373 3.64401V2.03583C4.0373 1.34471 4.55564 0.826364 5.24676 0.826364C5.69865 0.826364 6.07079 1.0656 6.28345 1.42445C6.46952 1.23838 6.68217 1.05231 6.92141 0.892818C6.56255 0.361186 5.95118 0.015625 5.24676 0.015625C4.11705 0.015625 3.22656 0.906109 3.22656 2.03583V3.64401C3.22656 4.77373 4.11705 5.66422 5.24676 5.66422L5.23347 5.65093Z" fill="black"/>
<path d="M22.3268 0.823885C22.4066 0.784013 22.4198 0.810594 22.3534 0.863758C22.0477 1.16945 21.1572 2.12638 20.4794 3.49534C20.3731 3.72128 20.2136 3.72128 20.1205 3.49534L19.549 2.13967C19.5224 2.05993 19.549 1.98019 19.6288 1.9536L19.8547 1.88715C19.9345 1.86057 20.0275 1.90044 20.0541 1.98019L20.3332 2.6846C20.3332 2.6846 21.0775 1.43526 22.3268 0.810595V0.823885Z" fill="black"/>
<path d="M20.331 2.70022L20.0519 1.99581C20.0254 1.91607 19.9323 1.87619 19.8526 1.90277L19.6266 1.96923C19.5469 1.99581 19.507 2.07555 19.5469 2.1553L20.1184 3.51096C20.2114 3.73691 20.3709 3.73691 20.4772 3.51096C21.1551 2.14201 22.0456 1.18507 22.3513 0.879383C22.4044 0.82622 22.3911 0.799638 22.3247 0.83951C21.0753 1.46418 20.331 2.71351 20.331 2.71351V2.70022Z" fill="black"/>
<path d="M14.8971 0.823885C14.9769 0.784013 14.9902 0.810594 14.9237 0.863758C14.618 1.16945 13.7275 2.12638 13.0497 3.49534C12.9434 3.72128 12.7839 3.72128 12.6908 3.49534L12.1193 2.13967C12.0928 2.05993 12.1193 1.98019 12.1991 1.9536L12.425 1.88715C12.5048 1.86057 12.5978 1.90044 12.6244 1.98019L12.9035 2.6846C12.9035 2.6846 13.6478 1.43526 14.8971 0.810595V0.823885Z" fill="black"/>
<path d="M12.8935 2.70022L12.6144 1.99581C12.5879 1.91607 12.4948 1.87619 12.4151 1.90277L12.1891 1.96923C12.1094 1.99581 12.0695 2.07555 12.1094 2.1553L12.6809 3.51096C12.7739 3.73691 12.9334 3.73691 13.0397 3.51096C13.7176 2.14201 14.6081 1.18507 14.9138 0.879383C14.9669 0.82622 14.9536 0.799638 14.8872 0.83951C13.6378 1.46418 12.8935 2.71351 12.8935 2.71351V2.70022Z" fill="black"/>
<path d="M7.63931 0.823885C7.71905 0.784013 7.73234 0.810594 7.66589 0.863758C7.3602 1.16945 6.46972 2.12638 5.79189 3.49534C5.68556 3.72128 5.52607 3.72128 5.43304 3.49534L4.86153 2.13967C4.83495 2.05993 4.86153 1.98019 4.94128 1.9536L5.16722 1.88715C5.24696 1.86057 5.34 1.90044 5.36658 1.98019L5.64569 2.6846C5.64569 2.6846 6.38997 1.43526 7.63931 0.810595V0.823885Z" fill="black"/>
<path d="M5.63574 2.70022L5.35663 1.99581C5.33005 1.91607 5.23701 1.87619 5.15727 1.90277L4.93132 1.96923C4.85158 1.99581 4.81171 2.07555 4.85158 2.1553L5.42308 3.51096C5.51612 3.73691 5.67561 3.73691 5.78194 3.51096C6.45977 2.14201 7.35025 1.18507 7.65594 0.879383C7.7091 0.82622 7.69581 0.799638 7.62936 0.83951C6.38002 1.46418 5.63574 2.71351 5.63574 2.71351V2.70022Z" fill="black"/>
</g>
<defs>
<clipPath id="clip0_1_6869">
<rect width="25" height="25" fill="white"/>
</clipPath>
</defs>
</svg>
