<svg xmlns="http://www.w3.org/2000/svg" viewBox="0 0 18 18" fill="currentColor">
    <g id="Group">
        <path id="Vector" d="M5.4 2.41715C3.08572 2.41715 1.18286 4.32 1.18286 6.63429V12.6C1.18286 14.9143 3.08572 16.8171 5.4 16.8171H11.4171C13.7314 16.8171 15.6343 14.9143 15.6343 12.6V9.61715C15.6343 9.30858 15.8914 9 16.2514 9C16.56 9 16.8686 9.25715 16.8686 9.61715V12.6C16.8686 15.5829 14.4514 18 11.4686 18H5.4C2.41714 18 0 15.5829 0 12.6V6.58286C0 3.6 2.41714 1.18286 5.4 1.18286H8.38286C8.69143 1.18286 9 1.44 9 1.8C9 2.16 8.74286 2.41715 8.38286 2.41715H5.4Z" />
        <path id="Vector_2" d="M18 3.6C18 5.60571 16.4057 7.2 14.4 7.2C12.3943 7.2 10.8 5.60571 10.8 3.6C10.8 1.59429 12.3943 0 14.4 0C16.4057 0 18 1.59429 18 3.6Z" />
    </g>
</svg>
