<svg width="18" height="18" viewBox="0 0 18 18" fill="currentColor"  xmlns="http://www.w3.org/2000/svg">
<g id="Group">
<path id="Vector" d="M6.5641 8.25641H1.69231C1.23077 8.25641 0.820513 8.10256 0.51282 7.74359C0.205128 7.4359 0 6.97436 0 6.5641V1.69231C0 1.23077 0.153846 0.820513 0.51282 0.512821C0.820513 0.205128 1.28205 0 1.69231 0H6.5641C7.02564 0 7.4359 0.153846 7.74359 0.512821C8.05128 0.820513 8.25641 1.28205 8.25641 1.69231V6.5641C8.25641 7.02564 8.05128 7.4359 7.74359 7.74359C7.48718 8.10256 7.02564 8.25641 6.5641 8.25641ZM1.74359 1.02564C1.53846 1.02564 1.38462 1.07692 1.23077 1.23077C1.07692 1.38462 1.02564 1.53846 1.02564 1.74359V6.61538C1.02564 6.82051 1.12821 6.97436 1.23077 7.12821C1.38462 7.28205 1.53846 7.33333 1.74359 7.33333H6.61539C6.82051 7.33333 6.97436 7.28205 7.12821 7.12821C7.28205 6.97436 7.33333 6.82051 7.33333 6.61538V1.74359C7.33333 1.53846 7.28205 1.38462 7.12821 1.23077C6.97436 1.07692 6.82051 1.02564 6.61539 1.02564H1.74359Z" />
<path id="Vector_2" d="M6.5641 18H1.69231C1.23077 18 0.820513 17.8461 0.51282 17.4872C0.205128 17.1795 0 16.7179 0 16.3077V11.4359C0 10.9744 0.153846 10.5641 0.51282 10.2564C0.820513 9.94871 1.28205 9.74358 1.69231 9.74358H6.5641C7.02564 9.74358 7.4359 9.89743 7.74359 10.2564C8.05128 10.5641 8.25641 11.0256 8.25641 11.4359V16.3077C8.25641 16.7692 8.05128 17.1795 7.74359 17.4872C7.48718 17.7949 7.02564 18 6.5641 18ZM1.74359 10.7179C1.53846 10.7179 1.38462 10.7692 1.23077 10.9231C1.07692 11.0769 1.02564 11.2308 1.02564 11.4359V16.3077C1.02564 16.5128 1.12821 16.6667 1.23077 16.8205C1.38462 16.9744 1.53846 17.0256 1.74359 17.0256H6.61539C6.82051 17.0256 6.97436 16.9744 7.12821 16.8205C7.28205 16.6667 7.33333 16.5128 7.33333 16.3077V11.4359C7.33333 11.2308 7.28205 11.0769 7.12821 10.9231C6.97436 10.7692 6.82051 10.7179 6.61539 10.7179H1.74359Z" />
<path id="Vector_3" d="M16.3077 8.25641H11.4359C10.9744 8.25641 10.5641 8.10256 10.2564 7.74359C9.94873 7.4359 9.74361 6.97436 9.74361 6.5641V1.69231C9.74361 1.23077 9.89745 0.820513 10.2564 0.512821C10.5641 0.205128 11.0257 0 11.4359 0H16.3077C16.7692 0 17.1795 0.153846 17.4872 0.512821C17.7949 0.820513 18 1.28205 18 1.69231V6.5641C18 7.02564 17.7949 7.4359 17.4872 7.74359C17.1795 8.10256 16.718 8.25641 16.3077 8.25641ZM11.4359 1.02564C11.2308 1.02564 11.0769 1.07692 10.9231 1.23077C10.7692 1.38462 10.718 1.53846 10.718 1.74359V6.61538C10.718 6.82051 10.8205 6.97436 10.9231 7.12821C11.0769 7.28205 11.2308 7.33333 11.4359 7.33333H16.3077C16.5128 7.33333 16.6667 7.28205 16.8205 7.12821C16.9744 6.97436 17.0257 6.82051 17.0257 6.61538V1.74359C17.0257 1.53846 16.9744 1.38462 16.8205 1.23077C16.6667 1.07692 16.5128 1.02564 16.3077 1.02564H11.4359Z" />
<path id="Vector_4" d="M16.3077 18H11.4359C10.9744 18 10.5641 17.8461 10.2564 17.4872C9.94873 17.1795 9.74361 16.7179 9.74361 16.3077V11.4359C9.74361 10.9744 9.89745 10.5641 10.2564 10.2564C10.5641 9.94871 11.0257 9.74358 11.4359 9.74358H16.3077C16.7692 9.74358 17.1795 9.89743 17.4872 10.2564C17.7949 10.5641 18 11.0256 18 11.4359V16.3077C18 16.7692 17.7949 17.1795 17.4872 17.4872C17.1795 17.7949 16.718 18 16.3077 18ZM11.4359 10.7179C11.2308 10.7179 11.0769 10.7692 10.9231 10.9231C10.7692 11.0769 10.718 11.2308 10.718 11.4359V16.3077C10.718 16.5128 10.8205 16.6667 10.9231 16.8205C11.0769 16.9744 11.2308 17.0256 11.4359 17.0256H16.3077C16.5128 17.0256 16.6667 16.9744 16.8205 16.8205C16.9744 16.6667 17.0257 16.5128 17.0257 16.3077V11.4359C17.0257 11.2308 16.9744 11.0769 16.8205 10.9231C16.6667 10.7692 16.5128 10.7179 16.3077 10.7179H11.4359Z" />
</g>
</svg>
