<svg width="18" height="19" viewBox="0 0 18 19" fill="currentColor" xmlns="http://www.w3.org/2000/svg">
<g id="Group">
<path id="Vector" d="M16.56 11.0571V7.04571C17.3314 6.84 17.8971 6.17143 17.8971 5.4C17.8971 4.42286 17.0229 3.65143 15.9429 3.65143C15.4286 3.65143 14.9657 3.80571 14.6571 4.11429L10.8514 2.10857C10.9029 2.00571 10.9029 1.85143 10.9029 1.74857C10.9029 0.771429 10.0286 0 8.94857 0C7.86857 0 6.99429 0.771429 6.99429 1.74857C6.99429 1.85143 6.99429 2.00571 7.04571 2.10857L3.24 4.11429C2.88 3.85714 2.41714 3.65143 1.95429 3.65143C0.874285 3.65143 0 4.42286 0 5.4C0 6.17143 0.565715 6.84 1.33714 7.04571V11.0571C0.565715 11.2629 0 11.9314 0 12.7029C0 13.68 0.874285 14.4514 1.95429 14.4514C2.46857 14.4514 2.88 14.2971 3.24 14.04L7.04571 16.0457C7.04571 16.1486 7.04571 16.2 7.04571 16.3029C7.04571 17.28 7.92 18.0514 9 18.0514C10.08 18.0514 10.9543 17.28 10.9543 16.3029C10.9543 16.2 10.9543 16.0971 10.9543 16.0457L14.76 14.04C15.12 14.2971 15.5314 14.4514 16.0457 14.4514C17.1257 14.4514 18 13.68 18 12.7029C17.9486 11.9829 17.3829 11.3143 16.56 11.0571ZM15.9943 4.47429C16.56 4.47429 17.0229 4.88571 17.0229 5.4C17.0229 5.91429 16.56 6.32572 15.9943 6.32572C15.4286 6.32572 14.9657 5.91429 14.9657 5.4C14.9143 4.88571 15.3771 4.47429 15.9943 4.47429ZM8.94857 0.822857C9.51429 0.822857 9.97714 1.23429 9.97714 1.74857C9.97714 2.26286 9.51429 2.67429 8.94857 2.67429C8.38286 2.67429 7.92 2.26286 7.92 1.74857C7.86857 1.28572 8.33143 0.822857 8.94857 0.822857ZM0.72 5.34857C0.72 4.83429 1.18286 4.42286 1.74857 4.42286C2.31429 4.42286 2.77714 4.83429 2.77714 5.34857C2.77714 5.86286 2.31429 6.27429 1.74857 6.27429C1.18286 6.27429 0.72 5.86286 0.72 5.34857ZM1.90286 13.68C1.33714 13.68 0.874286 13.2686 0.874286 12.7543C0.874286 12.24 1.33714 11.8286 1.90286 11.8286C2.46857 11.8286 2.93143 12.24 2.93143 12.7543C2.93143 13.2686 2.46857 13.68 1.90286 13.68ZM8.94857 17.3829C8.38286 17.3829 7.92 16.9714 7.92 16.4571C7.92 15.9429 8.38286 15.5314 8.94857 15.5314C9.51429 15.5314 9.97714 15.9429 9.97714 16.4571C9.97714 16.9714 9.51429 17.3829 8.94857 17.3829ZM14.6571 11.4171L13.32 10.6971C13.1657 11.0571 12.96 11.3657 12.7029 11.6229L14.04 12.3429C13.9886 12.4457 13.9886 12.6 13.9886 12.7029C13.9886 12.8571 13.9886 12.96 14.04 13.0629L10.2857 15.0686C10.08 14.8629 9.82286 14.7086 9.51429 14.6571V13.2686C9.30857 13.2686 9.10286 13.32 8.89714 13.32C8.69143 13.32 8.53714 13.32 8.33143 13.2686V14.6571C8.02286 14.76 7.76572 14.8629 7.56 15.0686L3.80572 13.0629C3.85714 12.96 3.85714 12.8057 3.85714 12.7029C3.85714 12.6 3.85714 12.4457 3.80572 12.3429L5.14286 11.6743C4.88571 11.3657 4.68 11.0571 4.52571 10.7486L3.24 11.4171C3.03429 11.2629 2.82857 11.16 2.52 11.0571V7.04571C2.77714 6.99429 3.03429 6.84 3.24 6.68571L4.52571 7.35429C4.68 6.99429 4.88571 6.68571 5.14286 6.42857L3.85714 5.76C3.90857 5.65714 3.90857 5.50286 3.90857 5.4C3.90857 5.29714 3.90857 5.14286 3.85714 5.04L7.66286 3.03429C7.86857 3.18857 8.07429 3.34286 8.38286 3.39429V4.78286C8.58857 4.78286 8.74286 4.73143 8.94857 4.73143C9.15429 4.73143 9.36 4.73143 9.56571 4.78286V3.44571C9.82286 3.39429 10.08 3.24 10.2857 3.08571L14.0914 5.09143C14.04 5.19429 14.04 5.34857 14.04 5.45143C14.04 5.55429 14.04 5.70857 14.0914 5.81143L12.7543 6.53143C13.0114 6.84 13.2171 7.14857 13.3714 7.45714L14.7086 6.73714C14.9143 6.89143 15.12 6.99429 15.4286 7.09714V11.1086C15.12 11.16 14.8629 11.2629 14.6571 11.4171ZM15.9943 13.68C15.4286 13.68 14.9657 13.2686 14.9657 12.7543C14.9657 12.24 15.4286 11.8286 15.9943 11.8286C16.56 11.8286 17.0229 12.24 17.0229 12.7543C17.0229 13.2686 16.56 13.68 15.9943 13.68Z" />
<path id="Vector_2" d="M5.60571 7.35428C6.27428 7.81714 7.61142 8.02285 8.89713 8.02285C10.1828 8.02285 11.5714 7.76571 12.1886 7.35428V8.28C12.1886 8.74285 10.7486 9.20571 8.89713 9.20571C7.0457 9.20571 5.60571 8.69143 5.60571 8.28V7.35428ZM5.60571 9.87428C5.60571 10.3371 7.0457 10.8 8.89713 10.8C10.8 10.8 12.1886 10.2857 12.1886 9.87428V8.94857C11.5714 9.41142 10.2343 9.61714 8.94856 9.61714C7.66285 9.61714 6.27428 9.36 5.65713 8.94857V9.87428H5.60571ZM5.60571 11.4686C5.60571 11.9314 7.0457 12.3943 8.89713 12.3943C10.8 12.3943 12.1886 11.88 12.1886 11.4686V10.5429C11.52 11.0057 10.1828 11.2114 8.89713 11.2114C7.61142 11.2114 6.22285 10.9543 5.60571 10.5429V11.4686ZM12.24 6.73714C12.24 6.27428 10.8 5.81142 8.94856 5.81142C7.04571 5.81142 5.65713 6.32571 5.65713 6.73714C5.65713 7.2 7.09713 7.66285 8.94856 7.66285C10.8514 7.66285 12.24 7.2 12.24 6.73714Z"  />
</g>
</svg>
