<svg width="25" height="25" viewBox="0 0 25 25" fill="none" xmlns="http://www.w3.org/2000/svg">
<g clip-path="url(#clip0_1_6926)">
<path fill-rule="evenodd" clip-rule="evenodd" d="M12.5 25C5.60498 25 0 19.395 0 12.5C0 5.60498 5.60498 0 12.5 0C19.395 0 25 5.60498 25 12.5C25 19.395 19.395 25 12.5 25ZM12.5 23.2206C18.4164 23.2206 23.2206 18.4164 23.2206 12.5C23.2206 6.58363 18.4164 1.77936 12.5 1.77936C6.58363 1.77936 1.77936 6.58363 1.77936 12.5C1.77936 18.4164 6.58363 23.2206 12.5 23.2206ZM12.5 21.4413C7.56228 21.4413 3.55872 17.4377 3.55872 12.5C3.55872 7.56228 7.56228 3.55872 12.5 3.55872C17.4377 3.55872 21.4413 7.56228 21.4413 12.5C21.4413 17.4377 17.4377 21.4413 12.5 21.4413ZM12.5 19.6619C16.4502 19.6619 19.6619 16.4502 19.6619 12.5C19.6619 8.54982 16.4502 5.33808 12.5 5.33808C8.54982 5.33808 5.33808 8.54982 5.33808 12.5C5.33808 16.4502 8.54982 19.6619 12.5 19.6619ZM12.5 17.8826C9.52847 17.8826 7.11744 15.4715 7.11744 12.5C7.11744 9.52847 9.52847 7.11744 12.5 7.11744C15.4715 7.11744 17.8826 9.52847 17.8826 12.5C17.8826 15.4715 15.4715 17.8826 12.5 17.8826ZM12.5 16.1032C14.484 16.1032 16.1032 14.484 16.1032 12.5C16.1032 10.516 14.484 8.8968 12.5 8.8968C10.516 8.8968 8.8968 10.5071 8.8968 12.5C8.8968 14.4929 10.516 16.1032 12.5 16.1032ZM12.5 14.3238C11.4947 14.3238 10.6762 13.5053 10.6762 12.5C10.6762 11.4947 11.4947 10.6762 12.5 10.6762C13.5053 10.6762 14.3238 11.4947 14.3238 12.5C14.3238 13.5053 13.5053 14.3238 12.5 14.3238Z" fill="black"/>
</g>
<defs>
<clipPath id="clip0_1_6926">
<rect width="25" height="25" fill="white"/>
</clipPath>
</defs>
</svg>
