<svg width="25" height="25" viewBox="0 0 25 25" fill="none" xmlns="http://www.w3.org/2000/svg">
<g clip-path="url(#clip0_1_6952)">
<path d="M8.33594 13.5443H5.21094C4.92448 13.5443 4.6901 13.3099 4.6901 13.0234V12.112C4.61719 12.0807 4.54427 12.0547 4.47135 12.0234L3.82552 12.6693C3.61719 12.8672 3.29427 12.8672 3.09115 12.6693L0.882812 10.4609C0.679688 10.2578 0.679688 9.92969 0.882812 9.72656L1.52865 9.08073C1.4974 9.00781 1.46615 8.9349 1.4401 8.86198H0.528646C0.242187 8.86198 0.0078125 8.6276 0.0078125 8.34115V5.21615C0.0078125 4.92969 0.242187 4.69531 0.528646 4.69531H1.4401C1.47135 4.6224 1.4974 4.54948 1.52865 4.48177L0.882812 3.83594C0.679688 3.63281 0.679688 3.30469 0.882812 3.10156L3.09115 0.882813C3.29948 0.684896 3.6224 0.684896 3.82552 0.882813L4.47135 1.52865C4.54427 1.4974 4.61719 1.46615 4.6901 1.4401V0.528646C4.6901 0.242188 4.92448 0.0078125 5.21094 0.0078125H8.33594C8.6224 0.0078125 8.85677 0.242188 8.85677 0.528646V1.4401C8.92969 1.47135 9.0026 1.4974 9.07552 1.52865L9.72135 0.882813C9.92969 0.684896 10.2526 0.684896 10.4557 0.882813L12.6641 3.09115C12.8672 3.29427 12.8672 3.6224 12.6641 3.82552L12.0182 4.47135C12.0495 4.54427 12.0807 4.61719 12.1068 4.6849H13.0182C13.3047 4.6849 13.5391 4.91927 13.5391 5.20573V8.33073C13.5391 8.61719 13.3047 8.85156 13.0182 8.85156H12.1068C12.0755 8.92448 12.0495 8.9974 12.0182 9.07031L12.6641 9.71615C12.8672 9.91927 12.8672 10.2474 12.6641 10.4505L10.4557 12.6589C10.2474 12.8568 9.92448 12.8568 9.72135 12.6589L9.07552 12.013C9.0026 12.0443 8.92969 12.0755 8.85677 12.1016V13.013C8.85677 13.2995 8.6224 13.5339 8.33594 13.5339V13.5443ZM5.73177 12.5026H7.8151V11.7422C7.8151 11.513 7.96094 11.3151 8.17969 11.2474C8.4401 11.1641 8.69531 11.0599 8.9401 10.9297C9.14323 10.8255 9.38802 10.862 9.54948 11.0234L10.0911 11.5651L11.5651 10.0911L11.0234 9.54948C10.862 9.38802 10.8255 9.14323 10.9297 8.9401C11.0599 8.69531 11.1641 8.4401 11.2474 8.17969C11.3151 7.96094 11.5182 7.8151 11.7422 7.8151H12.5026V5.73177H11.7422C11.513 5.73177 11.3151 5.58594 11.2474 5.36719C11.1641 5.10677 11.0599 4.85156 10.9297 4.60677C10.8255 4.40365 10.862 4.15885 11.0234 3.9974L11.5651 3.45573L10.0911 1.98177L9.54948 2.52344C9.38802 2.6849 9.14323 2.72135 8.9401 2.61719C8.69531 2.48698 8.4401 2.38281 8.17969 2.29948C7.96094 2.23177 7.8151 2.02865 7.8151 1.80469V1.04427H5.73177V1.80469C5.73177 2.03385 5.58594 2.23177 5.36719 2.29948C5.10677 2.38281 4.85156 2.48698 4.60677 2.61719C4.40365 2.72135 4.15885 2.6849 3.9974 2.52344L3.45573 1.98177L1.98177 3.45573L2.52344 3.9974C2.6849 4.15885 2.72135 4.40365 2.61719 4.60677C2.48698 4.85156 2.38281 5.10677 2.29948 5.36719C2.23177 5.58594 2.02865 5.73177 1.80469 5.73177H1.04427V7.8151H1.80469C2.03385 7.8151 2.23177 7.96094 2.29948 8.17969C2.38281 8.4401 2.48698 8.69531 2.61719 8.9401C2.72135 9.14323 2.6849 9.38802 2.52344 9.54948L1.98177 10.0911L3.45573 11.5651L3.9974 11.0234C4.15885 10.862 4.40365 10.8255 4.60677 10.9297C4.85156 11.0599 5.10677 11.1641 5.36719 11.2474C5.58594 11.3151 5.73177 11.5182 5.73177 11.7422V12.5026Z" fill="black"/>
<path d="M6.77344 9.89844C5.04948 9.89844 3.64844 8.4974 3.64844 6.77344C3.64844 5.04948 5.04948 3.64844 6.77344 3.64844C8.4974 3.64844 9.89844 5.04948 9.89844 6.77344C9.89844 8.4974 8.4974 9.89844 6.77344 9.89844ZM6.77344 4.6901C5.6224 4.6901 4.6901 5.6224 4.6901 6.77344C4.6901 7.92448 5.6224 8.85677 6.77344 8.85677C7.92448 8.85677 8.85677 7.92448 8.85677 6.77344C8.85677 5.6224 7.92448 4.6901 6.77344 4.6901Z" fill="black"/>
<path d="M19.7943 15.6224H18.7526C17.3151 15.6224 16.1484 14.4557 16.1484 13.0182V9.89323C16.1484 8.45573 17.3151 7.28906 18.7526 7.28906H19.7943C21.2318 7.28906 22.3984 8.45573 22.3984 9.89323V13.0182C22.3984 14.4557 21.2318 15.6224 19.7943 15.6224ZM18.7526 8.33073C17.888 8.33073 17.1901 9.02865 17.1901 9.89323V13.0182C17.1901 13.8828 17.888 14.5807 18.7526 14.5807H19.7943C20.6589 14.5807 21.3568 13.8828 21.3568 13.0182V9.89323C21.3568 9.02865 20.6589 8.33073 19.7943 8.33073H18.7526Z" fill="black"/>
<path d="M21.8724 11.4596H19.7891C19.6484 11.4596 19.5182 11.4023 19.4193 11.3086L18.7474 10.6367L18.0755 11.3086C17.9766 11.4076 17.8464 11.4596 17.7057 11.4596H16.6641V10.418H17.4922L18.3828 9.52734C18.5859 9.32422 18.9141 9.32422 19.1172 9.52734L20.0078 10.418H21.8776V11.4596H21.8724Z" fill="black"/>
<path d="M23.4349 25.0026H15.1016C14.237 25.0026 13.5391 24.3047 13.5391 23.4401V19.7943C13.5391 17.7839 15.1745 16.1484 17.1849 16.1484C17.3984 16.1484 17.5911 16.2786 17.6693 16.4766L19.2682 20.4766L20.8672 16.4766C20.9453 16.2786 21.138 16.1484 21.3516 16.1484C23.362 16.1484 24.9974 17.7839 24.9974 19.7943V23.4401C24.9974 24.3047 24.2995 25.0026 23.4349 25.0026ZM16.8411 17.2109C15.5495 17.3828 14.5807 18.487 14.5807 19.7943V23.4401C14.5807 23.7266 14.8151 23.9609 15.1016 23.9609H23.4349C23.7214 23.9609 23.9557 23.7266 23.9557 23.4401V19.7943C23.9557 18.487 22.987 17.388 21.6953 17.2109L19.7526 22.0703C19.6484 22.3359 19.3411 22.4661 19.0755 22.362C18.9401 22.3099 18.8359 22.2057 18.7839 22.0703L16.8411 17.2109Z" fill="black"/>
<path d="M19.271 22.3958C19.1929 22.3958 19.1095 22.3802 19.0366 22.3438L15.9116 20.7813C15.7345 20.6927 15.62 20.5104 15.6252 20.3125V18.75H16.6668V19.9896L19.271 21.2917L21.8752 19.9896V18.75H22.9168V20.3125C22.9168 20.5104 22.8075 20.6927 22.6304 20.7813L19.5054 22.3438C19.4325 22.3802 19.3543 22.3958 19.271 22.3958Z" fill="black"/>
<path d="M19.7917 21.875H18.75V24.4792H19.7917V21.875Z" fill="black"/>
<path d="M19.7891 6.2526H18.7474V3.64844C18.7474 3.36198 18.513 3.1276 18.2266 3.1276H13.5391V2.08594H18.2266C19.0911 2.08594 19.7891 2.78385 19.7891 3.64844V6.2526Z" fill="black"/>
<path d="M12.5 19.7943H3.125C2.26042 19.7943 1.5625 19.0964 1.5625 18.2318V13.0234H2.60417V18.2318C2.60417 18.5182 2.83854 18.7526 3.125 18.7526H12.5V19.7943Z" fill="black"/>
<path d="M15.1042 11.4609H12.5V12.5026H15.1042V11.4609Z" fill="black"/>
<path d="M16.1432 2.60417H15.1016V1.5625C15.1016 1.27604 14.8672 1.04167 14.5807 1.04167H11.9766V0H14.5807C15.4453 0 16.1432 0.697917 16.1432 1.5625V2.60417Z" fill="black"/>
<path d="M4.6901 16.6641H3.64844V17.7057H4.6901V16.6641Z" fill="black"/>
<path d="M6.76823 16.6641H5.72656V17.7057H6.76823V16.6641Z" fill="black"/>
<path d="M4.6901 14.5859H3.64844V15.6276H4.6901V14.5859Z" fill="black"/>
</g>
<defs>
<clipPath id="clip0_1_6952">
<rect width="25" height="25" fill="white"/>
</clipPath>
</defs>
</svg>
