<svg id="eAlNULEVpM11" xmlns="http://www.w3.org/2000/svg" xmlns:xlink="http://www.w3.org/1999/xlink" viewBox="0 0 18 18" shape-rendering="geometricPrecision" text-rendering="geometricPrecision" width="18" height="18" style="background-color:transparent"><g><path d="M16.5,17.4h-15.1c-.5,0-1-.4-1-1v-15c0-.5.4-1,1-1h15.1c.5,0,1,.4,1,1v15.1c-.1.5-.5.9-1,.9Z" fill="#cecece"/></g><g><g><path d="M3.3,4c-.5,0-1,.4-1,1v3.3c0,.5.4,1,1,1h5.2c.1,0,.2-.1.2-.2c0,0,0,0,0,0c0-.1-.1-.2-.2-.2h-5.2c-.3,0-.5-.2-.5-.5v-3.4c0-.3.2-.5.5-.5h11.3c.3,0,.5.2.5.5v3.3c0,.2-.2.4-.4.5-.1,0-.2.2-.2.3c0,0,0,0,0,0c0,.1.2.2.3.2.4-.1.7-.5.7-.9v-3.4c0-.5-.4-1-1-1L3.3,4Zm6.8,3.4c-.1,0-.1,0,0,0-.2.1-.3.2-.3.3l.3,4.5c0,.1.1.2.2.2c0,0,.1,0,.1,0l1-.6l1.2,2.1c.1.1.2.1.4.1l1.2-.7c.1-.1.1-.2.1-.3L13,10.9l1-.6c.1-.1.1-.2.1-.3c0,0,0-.1-.1-.1L10.2,7.4c0,0-.1,0-.1,0Zm.2.7l3.1,2.1-.9.5c-.1.1-.1.2-.1.3l1.2,2.1-.8.5-1.2-2.1c-.1-.1-.2-.1-.3-.1l-.9.5-.1-3.8Z" clip-rule="evenodd" fill-rule="evenodd"/></g></g></svg>
