<svg id="ebiRuTCdDr01" xmlns="http://www.w3.org/2000/svg" xmlns:xlink="http://www.w3.org/1999/xlink" viewBox="0 0 18 18" shape-rendering="geometricPrecision" text-rendering="geometricPrecision" width="18" height="18" style="background-color:transparent"><g><path d="M16.5,17.4h-15.1c-.5,0-1-.4-1-1v-15c0-.5.4-1,1-1h15.1c.5,0,1,.4,1,1v15.1c-.1.5-.5.9-1,.9Z" fill="#cecece"/></g><g><path d="M4.7,9.9v-1.4c0-.2-.1-.4-.3-.4C4.2,8,4.1,8,3.9,8c-.1.1-.2.3-.2.5L3.5,12c0,.1,0,.1,0,.1l-.1.1.4.4c.8,0,1.6.6,1.7,1.4l.5.5.2-.2c0,0,.1-.1.1-.1.7-.1,1.4-.4,2-.9l1.5-1.7c.1-.1.1-.3,0-.4s-.3-.2-.5-.2l-.5.6c-.2.2-.5,0-.3-.3l.6-.7c.1-.1.1-.2.1-.3s-.1-.3-.3-.4c-.1,0-.2,0-.3,0-.2.3-.5.5-.7.8-.2.2-.5-.1-.3-.3l.6-.7c.1-.2.1-.4,0-.5c0-.1-.2-.2-.4-.2l-.7.9c-.1.2-.5-.1-.3-.3l2.6-3c.2-.2.2-.5,0-.7s-.5-.2-.7,0L5,10.1c-.1.1-.2.1-.3,0c0,0,0-.1,0-.2v0ZM5.4,9v-4.6c0-.7.5-1.2,1.2-1.2h2.4v-.4c0-.2.1-.4.2-.5v0v0c.1-.1.3-.2.5-.2h.3c0-.2.1-.4.3-.5.2-.2.4-.3.7-.3v0v0v0v0v0v0v0c.3,0,.5.1.7.3.1.1.2.3.3.5h.3c.2,0,.4.1.5.2v0v0c.1.1.2.3.2.5v.4h2.4c.7,0,1.2.5,1.2,1.2v8.9c0,.7-.5,1.2-1.2,1.2h-8.5c-.2.1-.4.1-.5.1l-.1.1c.2.2.2.6,0,.8l-.8.9c-.2.2-.6.4-.9.1L3.9,16c-.8,0-1.6-.6-1.7-1.4L1.5,14c-.3-.2-.3-.6-.1-.9l.8-.9c.2-.3.6-.3.9-.1v0l.1-3.4c0-.4.2-.7.5-.8.2-.1.5-.1.7,0c.3.1.5.4.6.8v.9L5.4,9Zm2.5,5.1h7.6c.4,0,.8-.4.8-.8v-8.9c0-.4-.4-.8-.8-.8h-2.4v.4c0,.2-.1.4-.2.5s-.3.2-.5.2h-2.6c-.2,0-.4-.1-.5-.2-.1-.2-.2-.3-.2-.5v-.4h-2.5c-.4,0-.8.4-.8.8v4.1L8.3,5.6c.4-.4.9-.4,1.3-.1.4.4.5.9.1,1.3L8.2,8.6c.2.1.4.2.5.4s.2.4.2.6c.1,0,.2,0,.3.1.3.1.5.4.5.7c0,.1,0,.2,0,.3.2,0,.4.2.5.3.2.3.2.7,0,1L8.7,13.7c-.3.1-.5.3-.8.4v0Zm-3.8-.5c.2-.2.5.1.3.3l-.3.4.5.4c.2.2-.1.5-.3.3l-.6-.5c-.1-.1-.1-.2,0-.3l.4-.6Zm-.8-.9l-.5-.4c-.1-.1-.2-.1-.3,0l-.8.9c-.1.1-.1.2,0,.3l.5.5c.1-.6.6-1.1,1.1-1.3v0Zm1.1,3.2l.5.4c0,0,.2.1.3,0l.8-1c.1-.1.1-.2,0-.3l-.5-.4c-.1.6-.5,1.1-1.1,1.3v0Zm.7-1.7c0-.7-.7-1.2-1.3-1.2-.7,0-1.2.7-1.2,1.3.1.7.7,1.2,1.4,1.2.6,0,1.2-.6,1.1-1.3v0Zm6.3-3.3c-.3,0-.3-.4,0-.4h3.7c.3,0,.3.4,0,.4h-3.7Zm0,1.1c-.3,0-.3-.4,0-.4h3.7c.3,0,.3.4,0,.4h-3.7Zm0,1.1c-.3,0-.3-.4,0-.4h3.7c.3,0,.3.4,0,.4h-3.7Zm1.5-6l.8-.7c.6-.5,1.4.4.8,1L13.2,8.5c-.3.2-.6.2-.9,0-.1-.3-.3-.5-.5-.7-.6-.6.3-1.5.9-.8l.2.1ZM14,6.8l-1,.8c-.1.1-.2.1-.3,0l-.3-.3c-.2-.2-.5.1-.4.3v0v0v0v0v0v0l.5.6c.1.1.2.1.3,0l1.3-1.1c.4-.2.1-.5-.1-.3v0Zm-.8-1.7c1.2,0,2.2,1,2.2,2.2s-1,2.2-2.2,2.2-2.2-.9-2.2-2.1s1-2.3,2.2-2.3v0Zm0,.5c-1,0-1.8.8-1.8,1.8s.8,1.8,1.8,1.8s1.8-.8,1.8-1.8c.1-1-.7-1.8-1.8-1.8v0ZM11.1,2.5c-.1,0-.2-.1-.2-.2s.1-.3.2-.3v0c.1,0,.2.1.2.2c0,.2-.1.3-.2.3v0Zm-.9,0h-.4c-.1,0-.1,0-.2.1v0v0c0,.1-.1.1-.1.2v1.2c0,.1,0,.1.1.2.1,0,.1.1.2.1h2.6c.1,0,.1,0,.2-.1c0,0,.1-.1.1-.2v-1.2c0-.1,0-.1-.1-.2v0v0c-.1,0-.1-.1-.2-.1h-.4v0v0c-.1,0-.2-.1-.2-.2v0c0-.2-.1-.3-.2-.4s-.3-.2-.4-.2v0v0v0c-.2,0-.3.1-.4.2s-.2.3-.2.4v0v0v0c-.1.1-.2.2-.4.2v0Z"/></g></svg>
