<svg id="eBbGOsh51Ed1" xmlns="http://www.w3.org/2000/svg" xmlns:xlink="http://www.w3.org/1999/xlink" viewBox="0 0 18 18" shape-rendering="geometricPrecision" text-rendering="geometricPrecision" width="18" height="18" style="background-color:transparent"><g><path d="M16.5,17.4h-15.1c-.5,0-1-.4-1-1v-15c0-.5.4-1,1-1h15.1c.5,0,1,.4,1,1v15.1c-.1.5-.5.9-1,.9Z" fill="#cecece"/></g><g><g><path d="M13.1,16.2h-8.2c-.7,0-1.3-.6-1.3-1.3v-11.8c0-.7.6-1.3,1.3-1.3h8.2c.7,0,1.3.6,1.3,1.3v11.9c0,.6-.6,1.2-1.3,1.2ZM4.9,2.5c-.3,0-.6.3-.6.6v11.9c0,.3.3.6.6.6h8.2c.3,0,.6-.3.6-.6v-11.9c0-.3-.3-.6-.6-.6h-8.2Z"/><path d="M9,8.9c-1.5,0-2.6-1.2-2.6-2.6s1.1-2.7,2.6-2.7s2.6,1.2,2.6,2.6-1.1,2.7-2.6,2.7ZM9,4.3c-1.1,0-1.9.9-1.9,1.9s.8,2,1.9,2s1.9-.9,1.9-1.9-.8-2-1.9-2Z"/><path d="M11.3,6.6h-2.3c-.2,0-.3-.2-.3-.3v-2.3c0-.2.2-.3.3-.3s.3.1.3.3v1.9h1.9c.2,0,.3.2.3.3s0,.4-.2.4Z"/><path d="M12.2,10.7h-6.4c-.2,0-.3-.2-.3-.3c0-.2.2-.3.3-.3h6.4c.2,0,.3.2.3.3c0,.2-.1.3-.3.3Z"/><path d="M12.2,12.5h-6.4c-.2,0-.3-.2-.3-.3s.2-.3.3-.3h6.4c.2,0,.3.2.3.3s-.1.3-.3.3Z"/><path d="M12.2,14.4h-6.4c-.2,0-.3-.2-.3-.3s.2-.3.3-.3h6.4c.2,0,.3.2.3.3s-.1.3-.3.3Z"/></g></g></svg>
