<svg id="ee5D0al9PmY1" xmlns="http://www.w3.org/2000/svg" xmlns:xlink="http://www.w3.org/1999/xlink" viewBox="0 0 18 18" shape-rendering="geometricPrecision" text-rendering="geometricPrecision" width="18" height="18" style="background-color:transparent"><g><g><g><path d="M9.5,15.7h-4.1c-1.1,0-2-.9-2-2.1v-8.3c0-1.1.9-2.1,2-2.1h.5c.1,0,.3.1.3.3c0,.1-.1.3-.3.3h-.5c-.8,0-1.5.7-1.5,1.6v8.3c0,.9.7,1.6,1.5,1.6h4.1c.1,0,.3.1.3.3s-.2.1-.3.1Z"/></g><g><path d="M12.4,10.6c-.1,0-.3-.1-.3-.3v-5c0-.9-.7-1.6-1.5-1.6h-.5c-.1,0-.3-.1-.3-.3c0-.1.1-.3.3-.3h.5c1.1,0,2,.9,2,2.1v5.1c0,.2-.1.3-.2.3Z"/></g><g><path d="M11.4,13.4c-.1,0-.3-.1-.3-.3v-1c0-.1.1-.3.3-.3.1,0,.3.1.3.3v1c-.1.2-.2.3-.3.3Z"/></g><g><path d="M8.7,14.7h-3.3c-.6,0-1.1-.5-1.1-1.1v-8.3c0-.6.5-1.1,1.1-1.1h.4c.1,0,.3.1.3.3c0,.1-.1.3-.3.3h-.4c-.3,0-.5.2-.5.5v8.2c0,.3.3.6.6.6h3.2c.1,0,.3.1.3.3-.1.1-.2.3-.3.3Z"/></g><g><path d="M11.4,10.5c-.1,0-.3-.1-.3-.3v-4.9c0-.3-.3-.6-.6-.6h-.4c-.1,0-.3-.1-.3-.3c0-.1.1-.3.3-.3h.4c.6,0,1.1.5,1.1,1.1v4.9c0,.2-.1.4-.2.4Z"/></g><g><path d="M10.1,5.3h-4.2c-.1,0-.3-.1-.3-.3v-1.8c0-.3.2-.5.5-.5h.3c.2-.6.8-1,1.5-1s1.3.4,1.5,1h.3c.3,0,.5.2.5.5v1.9c.2.1,0,.2-.1.2Zm-.3-.5v-1.6c0,0,0,0,0,0h-.5c-.1-.1-.2-.2-.2-.3-.2-.5-.6-.8-1.1-.8s-.9.3-1.1.8c0,.1-.1.2-.2.2h-.5c0,0,0,0,0,0v1.7c0,0,3.6,0,3.6,0Z"/></g><g><path d="M8,4.3c-.5,0-.8-.4-.8-.8s.3-.9.8-.9.8.4.8.8-.3.9-.8.9ZM8,3.1c-.2,0-.3.1-.3.3s.1.4.3.4.3-.1.3-.3-.1-.4-.3-.4Z"/></g><g><path d="M6.6,8.1h-1c-.2,0-.3-.1-.3-.3v-1c0-.1.1-.3.3-.3h1.1c.1,0,.3.1.3.3v1.1c-.1.1-.2.2-.4.2Zm-.8-.5h.6v-.6h-.6v.6Z"/></g><g><path d="M10.4,7.1h-2.8c-.1,0-.2-.1-.2-.3c0-.1.1-.3.3-.3h2.8c.1,0,.3.1.3.3-.1.2-.2.3-.4.3Z"/></g><g><path d="M9.6,8h-2c-.1,0-.2-.1-.2-.3c0-.1.1-.3.3-.3h2c.1,0,.3.1.3.3-.1.2-.2.3-.4.3Z"/></g><g><path d="M6.6,10.5h-1c-.1,0-.3-.1-.3-.3v-1c0-.1.1-.2.3-.2h1.1c.1,0,.3.1.3.3v1.1c-.1,0-.2.1-.4.1ZM5.8,10h.6v-.5h-.6v.5Z"/></g><g><path d="M10.4,9.5h-2.8c-.1,0-.3-.1-.3-.3s.2-.2.3-.2h2.8c.1,0,.3.1.3.3c0,.1-.1.2-.3.2Z"/></g><g><path d="M8.6,10.5h-1c-.1,0-.3-.1-.3-.3s.1-.3.3-.3h1c.1,0,.3.1.3.3c0,.1-.1.3-.3.3Z"/></g><g><path d="M6.6,13h-1c-.1,0-.3-.1-.3-.3v-1.1c0-.1.1-.3.3-.3h1.1c.1,0,.3.1.3.3v1.1c-.1.2-.2.3-.4.3Zm-.8-.5h.6v-.6h-.6v.6Z"/></g><g><path d="M11.4,16.4c-2.3,0-3.9-2.4-3-4.5.5-1.2,1.7-2,3-2c1.8,0,3.2,1.5,3.2,3.2c0,1.9-1.4,3.3-3.2,3.3Zm0-5.9c-1.5,0-2.7,1.2-2.7,2.7s1.2,2.7,2.7,2.7s2.7-1.2,2.7-2.7-1.2-2.7-2.7-2.7Z"/></g><g><path d="M11.4,11.6c-.1,0-.3-.1-.3-.3v-1.1c0-.1.1-.3.3-.3.1,0,.3.1.3.3v1.1c-.1.1-.2.3-.3.3Z"/></g><g><path d="M12.5,12c-.1-.1-.1-.3,0-.4l.8-.8c.1-.1.3-.1.4,0s.1.3,0,.4l-.8.8c-.1.1-.3.1-.4,0Z"/></g><g><path d="M14.4,13.4h-1.1c-.1,0-.3-.1-.3-.3s.1-.3.3-.3h1.1c.1,0,.3.1.3.3s-.2.3-.3.3Z"/></g><g><path d="M13.3,15.5l-.8-.8c-.1-.1-.1-.3,0-.4s.3-.1.4,0l.8.8c.1.1.1.3,0,.4s-.3.1-.4,0Z"/></g><g><path d="M11.4,16.4c-.1,0-.3-.1-.3-.3v-1.1c0-.1.1-.3.3-.3.1,0,.3.1.3.3v1.1c-.1.2-.2.3-.3.3Z"/></g><g><path d="M9.1,15.5c-.1-.1-.1-.3,0-.4l.8-.8c.1-.1.3-.1.4,0s.1.3,0,.4l-.8.8c-.1.1-.3.1-.4,0Z"/></g><g><path d="M9.5,13.4h-1.1c-.1,0-.3-.1-.3-.3s.1-.3.3-.3h1.1c.1,0,.3.1.3.3s-.2.3-.3.3Z"/></g><g><path d="M9.9,12l-.8-.8c-.1,0-.1-.2,0-.3s.3-.1.4,0l.8.8c.1.1.1.3,0,.4-.2,0-.3,0-.4-.1Z"/></g><g><path d="M12.4,13.4h-1c-.1,0-.3-.1-.3-.3v-1c0-.1.1-.3.3-.3.1,0,.3.1.3.3v.8h.8c.1,0,.3.1.3.3s-.2.2-.4.2Z"/></g></g></g></svg>
