<svg id="eijfVrbcECH1" xmlns="http://www.w3.org/2000/svg" xmlns:xlink="http://www.w3.org/1999/xlink" viewBox="0 0 18 18" shape-rendering="geometricPrecision" text-rendering="geometricPrecision" width="18" height="18" style="background-color:transparent"><g><path d="M9,11.6c-1.4,0-2.6-1.2-2.6-2.6s1.2-2.6,2.6-2.6s2.6,1.2,2.6,2.6-1.2,2.6-2.6,2.6ZM9,7.4c-.9,0-1.6.7-1.6,1.6s.7,1.6,1.6,1.6s1.6-.7,1.6-1.6-.7-1.6-1.6-1.6Z"/><path d="M9.5,16.3h-1c-.8,0-1.5-.7-1.5-1.5v0-.1c-.2-.1-.4-.1-.6-.2l-.1.1c-.6.6-1.6.6-2.2,0l-.7-.7c-.6-.6-.6-1.6,0-2.2h.1c-.1-.2-.2-.4-.2-.6h-.1c-.8,0-1.5-.7-1.5-1.5v-1c0-1,.7-1.6,1.5-1.6v0h.1c.1-.2.1-.4.2-.6v-.1c-.6-.6-.6-1.6,0-2.2l.7-.7c.6-.6,1.6-.6,2.2,0l.1.1c.1,0,.3-.1.5-.2v-.1c0-.8.7-1.5,1.5-1.5h1c.8,0,1.5.7,1.5,1.5v0v.1c.2.1.4.1.6.2l.1-.1c.6-.6,1.6-.6,2.2,0l.7.7c.6.6.6,1.6,0,2.2l-.1.1c.1.2.2.4.2.6h.1c.8,0,1.5.7,1.5,1.5v1c0,.8-.7,1.5-1.5,1.5v0h-.1c-.1.2-.1.4-.2.6l.1.1c.6.6.6,1.6,0,2.2l-.7.7c-.6.6-1.6.6-2.2,0v-.1c-.2.1-.4.2-.6.2v.1c-.1.8-.7,1.5-1.6,1.5Zm-3.2-3c.1,0,.2,0,.3.1.3.2.7.3,1.1.4.2.1.3.3.3.5v.5c0,.2.2.4.4.5h1c.3,0,.5-.2.5-.5v0-.5c0-.2.1-.5.4-.5.4-.1.7-.3,1.1-.4.2-.1.5-.1.6.1l.3.3c.2.2.5.2.7,0l.7-.7c.2-.2.2-.5,0-.7l-.2-.4c-.2-.2-.2-.4-.1-.6.2-.3.3-.7.4-1.1.1-.2.3-.4.5-.4h.5c.2,0,.4-.2.4-.4v-1c.1-.3-.2-.5-.4-.5v0h-.5c-.2,0-.5-.1-.5-.4-.1-.4-.3-.7-.4-1.1-.1-.2-.1-.5.1-.6l.3-.3c.2-.2.2-.5,0-.7l-.7-.7c-.2-.2-.5-.2-.7,0l-.3.3c-.2.2-.4.2-.6.1-.3-.2-.7-.3-1.1-.4-.3-.1-.4-.3-.4-.5v-.5c0-.2-.2-.4-.5-.5h-1c-.3,0-.5.3-.5.5v0v.5c0,.2-.1.5-.4.5-.4.1-.7.3-1.1.5-.2.1-.4,0-.6-.1l-.3-.4c-.2-.2-.5-.2-.7,0l-.7.7c-.2.2-.2.5,0,.7l.3.3c.2.2.2.4.1.6-.2.4-.3.8-.4,1.1s-.3.4-.5.4h-.5c-.2,0-.4.2-.5.5v1c0,.3.3.5.5.5v0h.5c.2,0,.5.1.5.4.1.4.3.7.4,1.1.1.2.1.5-.1.6l-.3.3c-.2.2-.2.5,0,.7l.7.7c.2.2.5.2.7,0l.3-.3c.1-.1.3-.2.4-.2v0Z"/></g></svg>
