<svg id="eO6vhNqg7WC1" xmlns="http://www.w3.org/2000/svg" xmlns:xlink="http://www.w3.org/1999/xlink" viewBox="0 0 18 18" shape-rendering="geometricPrecision" text-rendering="geometricPrecision" width="18" height="18" style="background-color:transparent"><g><g><path d="M13,15.9v0v0c.2,0,.6-.1.6-.6c0-2.8-2.3-5.2-5.2-5.2-.4,0-.8,0-1.1,0-2.8,0-5.2,2.3-5.2,5.2v0c0,0,0,0,0,0c0,.2.1.3.2.4s.2.2.4.2c0,0,.6,0,.6-.6c0-2.2,1.8-4,4-4c.4,0,.8,0,1.1,0c2.2,0,4,1.8,4,4v0c0,0,0,0,0,0c0,.2.1.3.2.4s.2.2.4.2Z" clip-rule="evenodd" fill-rule="evenodd"/><path d="M7.9,2.1c-2.5,0-4.6,2.1-4.6,4.6s2.1,4.6,4.6,4.6s4.6-2.1,4.6-4.6-2.1-4.6-4.6-4.6Zm0,1.2c1.9,0,3.4,1.5,3.4,3.4s-1.5,3.4-3.4,3.4-3.5-1.5-3.5-3.4s1.6-3.4,3.5-3.4Z" clip-rule="evenodd" fill-rule="evenodd"/><path d="M15.3,15.3v0v0c.2,0,.6-.1.6-.6c0-2.3-1.5-4.3-3.6-4.9-.3-.1-.6.1-.7.4s.1.6.4.7c1.6.5,2.8,2,2.8,3.8v0c0,0,0,0,0,0c0,.2.1.3.2.4c0,.1.1.2.3.2Z" clip-rule="evenodd" fill-rule="evenodd"/><path d="M12.4,4.4c1,.4,1.7,1.5,1.7,2.6c0,1.4-.9,2.5-2.2,2.8-.3.1-.5.4-.4.7s.4.5.7.4c1.8-.4,3.1-2,3.1-3.9c0-1.6-1-3.1-2.4-3.7-.3-.1-.6,0-.8.3-.1.3,0,.6.3.8Z" clip-rule="evenodd" fill-rule="evenodd"/></g></g></svg>
