<svg id="ee9Efjm3q8z1" xmlns="http://www.w3.org/2000/svg" xmlns:xlink="http://www.w3.org/1999/xlink" viewBox="0 0 18 18" shape-rendering="geometricPrecision" text-rendering="geometricPrecision" width="18" height="18" style="background-color:transparent"><g><path d="M16.5,17.4h-15.1c-.5,0-1-.4-1-1v-15c0-.5.4-1,1-1h15.1c.5,0,1,.4,1,1v15.1c-.1.5-.5.9-1,.9Z" fill="#cecece"/></g><g><g><path d="M13.6,4.2h-1.1v.9h1.1v10.3h-9.2v-10.3h1v-.9h-1c-.5,0-.9.4-.9.8v10.4c0,.5.4.9.9.9h9.2c.5,0,.9-.4.9-.9v-10.4c0-.4-.4-.8-.9-.8Z"/><path d="M6.2,11.9h5.7c.1,0,.3-.1.3-.3v-.4c0-.1-.1-.3-.3-.3h-5.7c-.1,0-.3.1-.3.3v.4c0,.2.1.3.3.3Z"/><path d="M6.2,14h5.7c.1,0,.3-.1.3-.3v-.4c0-.1-.1-.3-.3-.3h-5.7c-.1,0-.3.1-.3.3v.4c0,.2.1.3.3.3Z"/><path d="M6.5,5.4h5c.2,0,.4-.2.4-.4v-1.4c0-.2-.2-.4-.4-.4h-.8c0-.9-.8-1.6-1.7-1.6-1,.1-1.7.8-1.7,1.7h-.8c-.2,0-.4.2-.4.4v1.4c0,.2.2.3.4.3ZM9,2.7c.4,0,.6.3.6.6s-.3.7-.6.7-.7-.3-.7-.6.3-.7.7-.7Z"/><path d="M7.3,8.5c0,.8.7,1.5,1.5,1.5s1.6-.7,1.6-1.5h-1.6v-1.6c-.8,0-1.5.7-1.5,1.6Z"/><path d="M9.4,6.4v1.6h1.6c-.1-1-.8-1.6-1.6-1.6Z"/></g></g></svg>
