<svg id="egJwytckeFI1" xmlns="http://www.w3.org/2000/svg" xmlns:xlink="http://www.w3.org/1999/xlink" viewBox="0 0 18 18" shape-rendering="geometricPrecision" text-rendering="geometricPrecision" width="18" height="18" style="background-color:transparent"><g><path d="M7.2,9.1h3.6c.2,0,.4-.1.5-.3s.2-.3.1-.5C11.2,6.6,10.2,5.4,9,5.4s-2.2,1.2-2.4,2.9c0,.2,0,.4.1.5.2.2.3.3.5.3Zm-.1-.8c.1-.6.3-1.3.7-1.7.3-.4.8-.7,1.2-.7.5,0,.9.2,1.2.7.4.4.6,1.1.7,1.8c0,.1,0,.1,0,.2s-.1.1-.1.1h-3.6c0,0-.1,0-.1-.1s0-.2,0-.3ZM9,5.3c.7,0,1.3-.6,1.3-1.3s-.6-1.4-1.3-1.4-1.3.6-1.3,1.3.6,1.4,1.3,1.4ZM9,3.1c.5,0,.9.4.9.9s-.4.9-.9.9-.9-.4-.9-.9.4-.9.9-.9Zm7.6,5.2c-.2-1.7-1.2-2.9-2.4-2.9s-2.2,1.2-2.4,2.9c0,.2,0,.4.1.5.1.2.3.3.5.3h3.6c.2,0,.4-.1.5-.3.1-.1.1-.3.1-.5Zm-.5.2c-.1.1-.1.1-.1.1h-3.6c0,0-.1,0-.1-.1s-.1-.1,0-.2c0-.6.3-1.3.7-1.7s.8-.7,1.2-.7c.5,0,.9.2,1.2.7.4.4.6,1.1.7,1.8c0,0,0,.1,0,.1ZM14.2,5.3c.7,0,1.3-.6,1.3-1.3s-.6-1.3-1.3-1.3-1.3.6-1.3,1.3.6,1.3,1.3,1.3Zm0-2.2c.5,0,.9.4.9.9s-.4.9-.9.9-.9-.4-.9-.9.4-.9.9-.9ZM11.6,12l-.4-.1c0-.2-.1-.3-.2-.5l.2-.3c0-.1,0-.2,0-.3l-.4-.4c-.1-.1-.2-.1-.3,0l-.3.2c-.2-.1-.3-.2-.5-.2l-.2-.5c0-.1-.1-.2-.2-.2h-.6c-.1,0-.2.1-.2.2l-.1.4c-.2,0-.3.1-.5.2l-.3-.2c-.1,0-.2,0-.3,0l-.4.4c-.1.1-.1.2,0,.3l.2.3c-.1.2-.2.3-.2.5l-.5.2c-.1,0-.2.1-.2.2v.6c0,.1.1.2.2.2l.4.1c0,.2.1.3.2.5l-.2.3c0,.1,0,.2,0,.3l.4.4c.1.1.2.1.3,0l.3-.2c.2.1.3.2.5.2l.1.4c0,.1.1.2.2.2h.6c.1,0,.2-.1.2-.2l.1-.4c.2,0,.3-.1.5-.2l.3.2c.1,0,.2,0,.3,0l.4-.4c.1-.1.1-.2,0-.3l-.2-.3c.1-.2.2-.3.2-.5l.4-.1c.1,0,.2-.1.2-.2v-.6c.2,0,.1-.1,0-.2Zm-.3.7l-.3.1c-.1,0-.1.1-.2.2c0,.2-.1.4-.2.6c0,.1,0,.2,0,.2l.2.3-.2.2-.3-.2c-.1,0-.2,0-.2,0-.2.1-.4.2-.6.2-.1,0-.1.1-.2.2l-.1.3h-.3l-.1-.3c0-.1-.1-.1-.2-.2-.2,0-.4-.1-.6-.2-.1,0-.2,0-.2,0l-.3.2-.2-.2.2-.3c0-.1,0-.2,0-.2-.1-.2-.2-.4-.2-.6c0-.1-.1-.1-.2-.2l-.3-.1v-.3l.2-.1c.1,0,.1-.1.2-.2c0-.2.1-.4.2-.6c0-.1,0-.2,0-.2L7.3,11l.2-.2.3.2c.1,0,.2,0,.2,0c.2-.1.4-.2.6-.2.1,0,.1-.1.2-.2l.1-.3h.3l.1.3c0,.1.1.1.2.2.2,0,.4.1.6.2.1,0,.2,0,.2,0l.3-.2.2.2-.2.3c0,.1,0,.2,0,.2.1.2.2.4.2.6c0,.1.1.1.2.2l.3.1v.3v0ZM9,11.2c-.8,0-1.4.6-1.4,1.4c0,.7.6,1.4,1.4,1.4s1.4-.6,1.4-1.4-.6-1.4-1.4-1.4Zm0,2.3c-.5,0-.9-.4-.9-.9s.4-.9.9-.9.9.4.9.9-.4.9-.9.9ZM6.2,8.3C6,6.6,5,5.4,3.8,5.4s-2.2,1.2-2.4,2.9c0,.2,0,.4.1.5.2.2.3.3.5.3h3.6c.2,0,.4-.1.5-.3.1-.1.1-.3.1-.5Zm-.5.2c0,.1-.1.1-.1.1h-3.6c0,0-.1,0-.1-.1s-.1-.1,0-.2c0-.6.3-1.3.7-1.7s.8-.7,1.2-.7.9.3,1.2.7c.4.4.7,1.1.7,1.7c0,.1,0,.2,0,.2ZM3.8,5.3c.7,0,1.3-.6,1.3-1.3s-.6-1.4-1.3-1.4-1.3.6-1.3,1.3.6,1.4,1.3,1.4Zm0-2.2c.5,0,.9.4.9.9s-.4.9-.9.9-.8-.5-.8-1c0-.4.3-.8.8-.8ZM14.4,9.6v1.4c0,1-.8,1.8-1.8,1.8h-.3c-.1,0-.2-.1-.2-.2s.1-.2.2-.2h.3c.7,0,1.3-.6,1.3-1.3v-1.5c0-.1.1-.2.2-.2s.3.1.3.2Zm-8.5,3c0,.1-.1.2-.2.2h-.3c-1,0-1.8-.8-1.8-1.8v-1.4c0-.1.1-.2.2-.2s.2.1.2.2v1.4c0,.7.6,1.3,1.3,1.3h.3c.2,0,.3.2.3.3Z"/></g></svg>
