<svg id="ez63KtAcqyT1" xmlns="http://www.w3.org/2000/svg" xmlns:xlink="http://www.w3.org/1999/xlink" viewBox="0 0 18 18" shape-rendering="geometricPrecision" text-rendering="geometricPrecision" width="18" height="18" style="background-color:transparent"><g><g><path d="M16,5.5c0,0,0-.1,0,0v0c0-.1,0-.1-.1-.1L12.3,1.8c0,0,0,0,0,0v0c0,0,0,0-.1,0v0c0,0,0,0,0,0h-3.3c-.7,0-1.2.5-1.2,1.2v3.5c-.3,0-.6,0-.9,0l-.4-.7c0-.1-.1-.2-.3-.1l-1.8.8c-.1,0-.2.2-.1.3l.2.7c-.3.2-.5.4-.7.6L3,7.9c-.1,0-.2,0-.3.1L2,9.9c0,.1,0,.2.1.3l.7.3c0,.3,0,.6,0,.9l-.7.3c-.1.2-.2.3-.1.4L2.8,14c0,.1.2.2.3.1l.7-.2c.2.2.4.4.6.6l-.2.7c0,.1,0,.2.1.3l1.9.8c0,0,.1,0,.1,0c.1,0,.2,0,.2-.1l.3-.7c.3,0,.6,0,.9,0l.3.7c.1.1.2.2.3.1l1.9-.8c.1,0,.2-.2.1-.3l-.2-.7c.2-.2.4-.4.6-.6l.7.2c.1,0,.2,0,.3-.1l.4-1h2.6c.7,0,1.2-.5,1.2-1.2L16,5.5c0,0,0,0,0,0v0Zm-3.5-3l2.8,2.8h-2.1c-.4,0-.7-.3-.7-.7v-2.1Zm-1,11l-.7-.2c-.1,0-.2,0-.3.1-.2.3-.5.6-.8.8-.1.1-.1.2-.1.3l.2.7-1.5.6-.3-.6c.1-.2,0-.2-.1-.2-.4.1-.7.1-1.1,0-.1,0-.2,0-.2.1l-.3.6-1.5-.6.2-.7c0-.1,0-.2-.1-.3-.4-.1-.6-.3-.9-.6-.1-.1-.2-.1-.3-.1l-.7.2-.6-1.5.6-.3c.1,0,.1-.1.1-.2-.1-.4-.1-.7,0-1.1c0-.1,0-.2-.1-.2l-.5-.4.6-1.5.7.2c.1,0,.2,0,.3-.1.1-.3.4-.5.7-.8.1-.1.1-.2.1-.3l-.2-.6l1.5-.6.3.6c0,.1.1.1.2.1.4-.1.7-.1,1.1,0c.1.1.2,0,.2-.1l.3-.6l1.5.6-.2.7c0,.1,0,.2.1.3.3.2.6.5.8.8.1.1.2.1.3.1l.7-.2.5,1.3-.6.3c-.1,0-.1.1-.1.2.1.4.1.7,0,1.1c0,.1,0,.2.1.2l.6.3-.5,1.6Zm4.1-1.8c0,.4-.3.7-.7.7h-2.4l.2-.4c0-.1,0-.2-.1-.3l-.7-.3c0-.3,0-.6,0-.9l.7-.3c.1-.1.1-.2.1-.3L11.8,8c0-.1-.2-.2-.3-.1l-.7.2c-.2-.2-.4-.4-.6-.6l.2-.7c0-.1,0-.2-.1-.3l-2-.8c-.1,0-.1,0-.2,0v-2.8c0-.4.3-.7.7-.7h3.2v2.4c0,.7.5,1.2,1.2,1.2h2.4v5.9Z"/><path d="M7.7,7.8c-.1,0-.2.1-.2.2s.1.2.2.3c.9.1,1.6.6,2,1.5c0,.1.1.1.2.1c0,0,.1,0,.1,0c.1,0,.2-.2.1-.3c0,0,0,0,0,0-.4-1.1-1.3-1.7-2.4-1.8Z"/><path d="M7.3,8.8c-.4,0-.7.1-1,.2-1.1.6-1.5,1.9-1,3s1.9,1.5,3,1c1.1-.6,1.5-1.9,1-3-.4-.8-1.2-1.2-2-1.2Zm0,3.9c-1,0-1.7-.8-1.7-1.7c0-.6.4-1.2.9-1.5.2-.2.5-.3.8-.3C8.2,9.2,9,10,9,11s-.8,1.7-1.7,1.7Z"/></g></g></svg>
