<svg id="eIeu86RWkg41" xmlns="http://www.w3.org/2000/svg" xmlns:xlink="http://www.w3.org/1999/xlink" viewBox="0 0 18 18" shape-rendering="geometricPrecision" text-rendering="geometricPrecision" width="18" height="18" style="background-color:transparent"><g><path d="M5.7,4.1c1.8-1.8,4.7-1.8,6.4,0c1.7,1.7,1.7,4.4,0,6.5L8.9,14.4L5.7,10.6C4,8.5,4,5.8,5.7,4.1Zm-.6,7l3.5,4.2c.2.2.4.2.6.1c0,0,0,0,.1-.1l3.5-4.2c.9-1.1,1.4-2.4,1.5-3.8c0-1.4-.5-2.8-1.5-3.8-2.1-2.1-5.5-2.1-7.6,0-1,1-1.5,2.4-1.5,3.8s.5,2.7,1.4,3.8ZM8.9,5.5c-1,0-1.8.8-1.8,1.8s.9,1.7,1.8,1.7s1.8-.8,1.8-1.8c0-.9-.8-1.7-1.8-1.7Zm0,4.4c1.4,0,2.6-1.2,2.6-2.6s-1.2-2.6-2.6-2.6-2.6,1.1-2.6,2.6c0,1.4,1.2,2.6,2.6,2.6Z" clip-rule="evenodd" fill-rule="evenodd"/></g></svg>
