<svg id="eyxh2OHzwBT1" xmlns="http://www.w3.org/2000/svg" xmlns:xlink="http://www.w3.org/1999/xlink" viewBox="0 0 18 18" shape-rendering="geometricPrecision" text-rendering="geometricPrecision" width="18" height="18" style="background-color:transparent"><g><g><path d="M5,13c-.4-.6-.6-1.4-.6-2.2c0-2.3,1.8-4.1,4.1-4.1v4.2L5,13ZM9.8,5c1.4.3,2.7,1.2,3.5,2.4l.6-.4-.2-.3.9-.5.9,1.6-.9.5-.2-.3-.6.4c.4.8.5,1.6.5,2.5c0,3.3-2.7,6-6,6s-6-2.7-6-6C2.4,8,4.3,5.6,7.1,5c-.5-.4-.8-1-.8-1.7c0-1.2.9-2.1,2.1-2.1s2.1.9,2.1,2.1c0,.7-.3,1.3-.7,1.7v0ZM8.4,1.9c-.8,0-1.5.7-1.5,1.5s.7,1.5,1.5,1.5s1.5-.7,1.5-1.5c0-.9-.7-1.5-1.5-1.5Zm2.9,4.4L11,7l-.6-.3.4-.7c-.6-.3-1.3-.5-2.1-.6v.8h-.6v-.7c-.8,0-1.5.2-2.1.5l.4.7-.5.3-.4-.7c-.6.4-1.2,1-1.6,1.6l.7.4-.3.5-.7-.4c-.3.6-.5,1.3-.5,2.1h.8v.6h-.8c0,.7.2,1.4.6,2.1l.7-.4.3.6-.7.4c.4.6.9,1.1,1.5,1.5l.4-.7.6.3-.5.7c.6.3,1.3.5,2.1.6v-.8h.6v.8c.7,0,1.4-.2,2.1-.6l-.4-.7.6-.3.4.7c.6-.4,1.1-.9,1.5-1.5l-.7-.4.3-.6.7.4c.3-.6.5-1.3.6-2.1h-.8v-.6h.8c0-.7-.2-1.4-.6-2.1l-.7.4-.3-.6.7-.4c-.4-.5-.9-1.1-1.6-1.5v0Z" clip-rule="evenodd" fill-rule="evenodd"/></g></g></svg>
