<svg id="e2I31SALrgH1" xmlns="http://www.w3.org/2000/svg" xmlns:xlink="http://www.w3.org/1999/xlink" viewBox="0 0 18 18" shape-rendering="geometricPrecision" text-rendering="geometricPrecision" width="18" height="18" style="background-color:transparent"><g><g><path d="M8.9,10.5c-2,0-3.7-2-3.7-4.4s1.6-4.4,3.7-4.4s3.7,2,3.7,4.4-1.6,4.4-3.7,4.4Zm0-7.8C7.5,2.7,6.3,4.2,6.3,6s1.1,3.3,2.6,3.3s2.6-1.5,2.6-3.3-1.1-3.3-2.6-3.3ZM12.3,10c0,0,4.2.5,4.2,4.9c0,.3-.2.6-.5.6h-14c-.3,0-.5-.2-.5-.6c0-4.5,4.1-4.9,4.2-4.9.3,0,.6.2.6.5s-.2.6-.5.6c-1.7.2-3,1.6-3.1,3.3h12.8c-.1-1.7-1.4-3.1-3.1-3.3-.3,0-.5-.3-.5-.6-.2-.3.1-.5.4-.5Z" clip-rule="evenodd" fill-rule="evenodd"/></g></g></svg>
